<svg width="25" height="24" viewBox="0 0 25 24" fill="none" xmlns="http://www.w3.org/2000/svg">
<g id="call">
<g id="vuesax/linear/call">
<g id="call_2">
<g id="call_3">
<path id="Vector" d="M22.72 18.33C22.72 18.69 22.64 19.06 22.47 19.42C22.3 19.78 22.08 20.12 21.79 20.44C21.3 20.98 20.76 21.37 20.15 21.62C19.55 21.87 18.9 22 18.2 22C17.18 22 16.09 21.76 14.94 21.27C13.79 20.78 12.64 20.12 11.5 19.29C10.35 18.45 9.26 17.52 8.22 16.49C7.19 15.45 6.26 14.36 5.43 13.22C4.61 12.08 3.95 10.94 3.47 9.81C2.99 8.67 2.75 7.58 2.75 6.54C2.75 5.86 2.87 5.21 3.11 4.61C3.35 4 3.73 3.44 4.26 2.94C4.9 2.31 5.6 2 6.34 2C6.62 2 6.9 2.06 7.15 2.18C7.41 2.3 7.64 2.48 7.82 2.74L10.14 6.01C10.32 6.26 10.45 6.49 10.54 6.71C10.63 6.92 10.68 7.13 10.68 7.32C10.68 7.56 10.61 7.8 10.47 8.03C10.34 8.26 10.15 8.5 9.91 8.74L9.15 9.53C9.04 9.64 8.99 9.77 8.99 9.93C8.99 10.01 9 10.08 9.02 10.16C9.05 10.24 9.08 10.3 9.1 10.36C9.28 10.69 9.59 11.12 10.03 11.64C10.48 12.16 10.96 12.69 11.48 13.22C12.02 13.75 12.54 14.24 13.07 14.69C13.59 15.13 14.02 15.43 14.36 15.61C14.41 15.63 14.47 15.66 14.54 15.69C14.62 15.72 14.7 15.73 14.79 15.73C14.96 15.73 15.09 15.67 15.2 15.56L15.96 14.81C16.21 14.56 16.45 14.37 16.68 14.25C16.91 14.11 17.14 14.04 17.39 14.04C17.58 14.04 17.78 14.08 18 14.17C18.22 14.26 18.45 14.39 18.7 14.56L22.01 16.91C22.27 17.09 22.45 17.3 22.56 17.55C22.66 17.8 22.72 18.05 22.72 18.33Z" stroke="#656565" stroke-width="1.5" stroke-miterlimit="10"></path>
</g>
</g>
</g>
</g>
</svg>