<svg width="2396" height="550" viewBox="0 0 2396 550" fill="none" xmlns="http://www.w3.org/2000/svg">
<circle cx="182.167" cy="190.121" r="88.8333" stroke="black" stroke-width="9"></circle>
<circle cx="182.167" cy="367.788" r="88.8333" stroke="black" stroke-width="9"></circle>
<circle cx="359.833" cy="190.121" r="88.8333" stroke="black" stroke-width="9"></circle>
<circle cx="359.833" cy="278.954" r="88.8333" transform="rotate(90 359.833 278.954)" stroke="black" stroke-width="9"></circle>
<circle cx="271" cy="367.788" r="88.8333" transform="rotate(-180 271 367.788)" stroke="black" stroke-width="9"></circle>
<circle cx="359.833" cy="367.788" r="88.8333" stroke="black" stroke-width="9"></circle>
<circle cx="182.167" cy="278.954" r="88.8333" transform="rotate(90 182.167 278.954)" stroke="black" stroke-width="9"></circle>
<circle cx="271" cy="190.121" r="88.8333" transform="rotate(-180 271 190.121)" stroke="black" stroke-width="9"></circle>
<circle cx="93.3333" cy="101.288" r="88.8333" stroke="black" stroke-width="9"></circle>
<circle cx="93.3333" cy="278.955" r="88.8333" stroke="black" stroke-width="9"></circle>
<circle cx="93.3333" cy="456.621" r="88.8333" stroke="black" stroke-width="9"></circle>
<circle cx="271" cy="101.288" r="88.8333" stroke="black" stroke-width="9"></circle>
<circle cx="271" cy="278.955" r="88.8333" stroke="black" stroke-width="9"></circle>
<circle cx="271" cy="456.621" r="88.8333" stroke="black" stroke-width="9"></circle>
<circle cx="448.667" cy="101.288" r="88.8333" stroke="black" stroke-width="9"></circle>
<circle cx="448.667" cy="278.955" r="88.8333" stroke="black" stroke-width="9"></circle>
<circle cx="448.667" cy="456.621" r="88.8333" stroke="black" stroke-width="9"></circle>
<path d="M1850.33 0H1959.42V109.091H1850.33V0ZM1850.33 109.091H1959.42V218.182H1850.33V109.091ZM1850.33 218.182H1959.42V327.273H1850.33V218.182ZM1850.33 327.273H1959.42V436.364H1850.33V327.273ZM1959.42 436.364H2068.51V545.455H1959.42V436.364ZM2068.51 327.273H2177.6V436.364H2068.51V327.273ZM2068.51 218.182H2177.6V327.273H2068.51V218.182ZM2068.51 109.091H2177.6V218.182H2068.51V109.091ZM2068.51 0H2177.6V109.091H2068.51V0ZM2177.6 436.364H2286.69V545.455H2177.6V436.364ZM2286.69 327.273H2395.78V436.364H2286.69V327.273ZM2286.69 218.182H2395.78V327.273H2286.69V218.182ZM2286.69 109.091H2395.78V218.182H2286.69V109.091ZM2286.69 0H2395.78V109.091H2286.69V0Z" fill="black"></path>
<path d="M1656.57 0H1765.66V109.091H1656.57V0ZM1547.48 0H1656.57V109.091H1547.48V0ZM1438.39 109.091H1547.48V218.182H1438.39V109.091ZM1438.39 218.182H1547.48V327.273H1438.39V218.182ZM1547.48 218.182H1656.57V327.273H1547.48V218.182ZM1656.57 218.182H1765.66V327.273H1656.57V218.182ZM1656.57 327.273H1765.66V436.364H1656.57V327.273ZM1656.57 436.364H1765.66V545.455H1656.57V436.364ZM1547.48 436.364H1656.57V545.455H1547.48V436.364ZM1438.39 436.364H1547.48V545.455H1438.39V436.364ZM1438.39 0H1547.48V109.091H1438.39V0Z" fill="black"></path>
<path d="M1244.53 0H1353.62V109.091H1244.53V0ZM1135.44 0H1244.53V109.091H1135.44V0ZM1135.44 109.091H1244.53V218.182H1135.44V109.091ZM1135.44 218.182H1244.53V327.273H1135.44V218.182ZM1135.44 327.273H1244.53V436.364H1135.44V327.273ZM1135.44 436.364H1244.53V545.455H1135.44V436.364ZM1244.53 436.364H1353.62V545.455H1244.53V436.364Z" fill="black"></path>
<path d="M723.5 436.364H832.591V545.455H723.5V436.364ZM723.5 327.273H832.591V436.364H723.5V327.273ZM723.5 218.182H832.591V327.273H723.5V218.182ZM723.5 109.091H832.591V218.182H723.5V109.091ZM832.591 0H941.682V109.091H832.591V0ZM941.682 109.091H1050.77V218.182H941.682V109.091ZM941.682 218.182H1050.77V327.273H941.682V218.182ZM941.682 327.273H1050.77V436.364H941.682V327.273ZM941.682 436.364H1050.77V545.455H941.682V436.364ZM723.5 0H832.591V109.091H723.5V0Z" fill="black"></path>
</svg>