<svg width="66487" height="18980" viewBox="0 0 66487 18980" fill="none" xmlns="http://www.w3.org/2000/svg">
<path d="M66340.5 14264.7L64710.5 14365C64682.6 14225.7 64622.7 14100.3 64530.7 13988.9C64438.8 13874.6 64317.6 13784.1 64167.1 13717.2C64019.4 13647.5 63842.5 13612.7 63636.3 13612.7C63360.4 13612.7 63127.7 13671.2 62938.2 13788.2C62748.8 13902.5 62654 14055.7 62654 14248C62654 14401.3 62715.3 14530.8 62837.9 14636.7C62960.5 14742.6 63170.9 14827.6 63469.1 14891.7L64631 15125.8C65255.2 15253.9 65720.6 15460.1 66027.1 15744.4C66333.6 16028.6 66486.8 16402 66486.8 16864.5C66486.8 17285.3 66362.8 17654.5 66114.8 17972.2C65869.6 18289.8 65532.5 18537.8 65103.3 18716.1C64677 18891.7 64185.2 18979.5 63627.9 18979.5C62778 18979.5 62100.9 18802.5 61596.6 18448.6C61095 18092 60801 17607.1 60714.6 16994.1L62465.9 16902.1C62518.9 17161.3 62647.1 17359.1 62850.5 17495.7C63053.9 17629.4 63314.4 17696.3 63632.1 17696.3C63944.2 17696.3 64195 17636.4 64384.4 17516.6C64576.7 17394 64674.2 17236.5 64677 17044.3C64674.2 16882.6 64606 16750.3 64472.2 16647.2C64338.5 16541.3 64132.3 16460.5 63853.6 16404.8L62741.8 16183.2C62114.8 16057.8 61648.1 15840.5 61341.6 15531.2C61037.9 15221.9 60886 14827.6 60886 14348.3C60886 13935.9 60997.5 13580.6 61220.4 13282.5C61446.1 12984.3 61762.3 12754.5 62169.2 12592.8C62578.8 12431.2 63058.1 12350.4 63607 12350.4C64417.9 12350.4 65056 12521.8 65521.3 12864.5C65989.5 13207.3 66262.5 13674 66340.5 14264.7Z" fill="black"></path>
<path d="M56703.3 17006.7L56707.4 14870.8H56966.6L59023 12434H61066.9L58304.1 15660.8H57881.9L56703.3 17006.7ZM55089.9 18854.1V10294H56870.4V18854.1H55089.9ZM59102.4 18854.1L57213.2 16057.9L58400.2 14799.8L61188.1 18854.1H59102.4Z" fill="black"></path>
<path d="M51215.4 18854.1V12434H52941.6V13554.2H53008.5C53125.5 13155.7 53322 12854.8 53597.8 12651.4C53873.7 12445.2 54191.4 12342.1 54550.8 12342.1C54640 12342.1 54736.1 12347.6 54839.2 12358.8C54942.3 12369.9 55032.9 12385.2 55110.9 12404.8V13984.7C55027.3 13959.6 54911.7 13937.3 54764 13917.8C54616.3 13898.3 54481.2 13888.6 54358.6 13888.6C54096.6 13888.6 53862.6 13945.7 53656.4 14059.9C53452.9 14171.4 53291.3 14327.4 53171.5 14528.1C53054.5 14728.7 52996 14960 52996 15221.9V18854.1H51215.4Z" fill="black"></path>
<path d="M47839.3 18979.5C47190.1 18979.5 46628.6 18841.5 46154.9 18565.7C45684 18287 45320.3 17899.7 45064 17403.7C44807.6 16904.9 44679.4 16326.7 44679.4 15669.1C44679.4 15005.9 44807.6 14426.3 45064 13930.3C45320.3 13431.6 45684 13044.2 46154.9 12768.4C46628.6 12489.7 47190.1 12350.4 47839.3 12350.4C48488.6 12350.4 49048.7 12489.7 49519.6 12768.4C49993.3 13044.2 50358.3 13431.6 50614.7 13930.3C50871 14426.3 50999.2 15005.9 50999.2 15669.1C50999.2 16326.7 50871 16904.9 50614.7 17403.7C50358.3 17899.7 49993.3 18287 49519.6 18565.7C49048.7 18841.5 48488.6 18979.5 47839.3 18979.5ZM47847.7 17600.2C48143 17600.2 48389.7 17516.6 48587.5 17349.4C48785.3 17179.4 48934.4 16948.1 49034.7 16655.5C49137.8 16363 49189.4 16030 49189.4 15656.6C49189.4 15283.2 49137.8 14950.2 49034.7 14657.6C48934.4 14365 48785.3 14133.8 48587.5 13963.8C48389.7 13793.8 48143 13708.8 47847.7 13708.8C47549.5 13708.8 47298.7 13793.8 47095.3 13963.8C46894.7 14133.8 46742.8 14365 46639.7 14657.6C46539.4 14950.2 46489.3 15283.2 46489.3 15656.6C46489.3 16030 46539.4 16363 46639.7 16655.5C46742.8 16948.1 46894.7 17179.4 47095.3 17349.4C47298.7 17516.6 47549.5 17600.2 47847.7 17600.2Z" fill="black"></path>
<path d="M36334.8 18854.1L33885.4 10294H35862.4L37279.4 16241.8H37350.4L38913.6 10294H40606.4L42165.5 16254.3H42240.7L43657.6 10294H45634.7L43185.3 18854.1H41421.5L39791.4 13257.4H39724.5L38098.6 18854.1H36334.8Z" fill="black"></path>
<path d="M28416.5 18958.6C27928.8 18958.6 27487.2 18833.2 27091.5 18582.4C26698.6 18328.9 26386.5 17956.9 26155.2 17466.4C25926.7 16973.2 25812.5 16368.6 25812.5 15652.4C25812.5 14916.8 25930.9 14305.2 26167.8 13817.5C26404.6 13327.1 26719.5 12960.7 27112.4 12718.3C27508.1 12473 27941.4 12350.4 28412.3 12350.4C28771.7 12350.4 29071.3 12411.7 29310.9 12534.3C29553.4 12654.2 29748.4 12804.6 29896.1 12985.8C30046.6 13164.1 30160.8 13339.6 30238.8 13512.4H30293.2V10294H32069.6V18854.1H30314.1V17825.9H30238.8C30155.2 18004.2 30036.8 18181.2 29883.6 18356.7C29733.1 18529.5 29536.6 18673 29294.2 18787.2C29054.6 18901.5 28762 18958.6 28416.5 18958.6ZM28980.7 17541.7C29267.7 17541.7 29510.2 17463.6 29708 17307.6C29908.6 17148.8 30061.9 16927.2 30167.8 16643C30276.5 16358.8 30330.8 16025.8 30330.8 15644.1C30330.8 15262.3 30277.8 14930.7 30172 14649.3C30066.1 14367.9 29912.8 14150.5 29712.2 13997.3C29511.6 13844 29267.7 13767.4 28980.7 13767.4C28688.2 13767.4 28441.5 13846.8 28240.9 14005.6C28040.3 14164.4 27888.4 14384.6 27785.3 14666C27682.2 14947.4 27630.7 15273.5 27630.7 15644.1C27630.7 16017.5 27682.2 16347.7 27785.3 16634.7C27891.2 16918.9 28043.1 17141.8 28240.9 17303.4C28441.5 17462.3 28688.2 17541.7 28980.7 17541.7Z" fill="black"></path>
<path d="M21451.1 15142.5V18854.1H19670.5V12434H21367.5V13566.7H21442.7C21584.8 13193.3 21823.1 12898 22157.5 12680.6C22491.8 12460.5 22897.3 12350.4 23373.8 12350.4C23819.6 12350.4 24208.3 12447.9 24539.9 12643C24871.5 12838 25129.2 13116.7 25313.2 13478.9C25497.1 13838.4 25589 14267.5 25589 14766.3V18854.1H23808.4V15084C23811.2 14691.1 23710.9 14384.5 23507.5 14164.4C23304.1 13941.5 23024.1 13830 22667.4 13830C22427.7 13830 22216 13881.6 22032.1 13984.7C21850.9 14087.8 21708.8 14238.3 21605.7 14436.1C21505.4 14631.2 21453.9 14866.6 21451.1 15142.5Z" fill="black"></path>
<path d="M17407.3 16120.5V12434H19187.9V18854.1H17478.3V17687.9H17411.5C17266.6 18064.1 17025.5 18366.4 16688.4 18594.9C16354 18823.4 15945.8 18937.7 15463.7 18937.7C15034.6 18937.7 14657 18840.1 14331 18645.1C14005 18450 13750 18172.8 13566.1 17813.3C13385 17453.9 13293 17023.4 13290.2 16521.8V12434H15070.8V16204.1C15073.6 16583.1 15175.3 16882.6 15375.9 17102.8C15576.6 17322.9 15845.5 17433 16182.6 17433C16397.2 17433 16597.8 17384.2 16784.5 17286.7C16971.2 17186.4 17121.7 17038.7 17235.9 16843.6C17353 16648.6 17410.1 16407.5 17407.3 16120.5Z" fill="black"></path>
<path d="M9914.2 18979.5C9264.95 18979.5 8703.47 18841.5 8229.77 18565.7C7758.85 18287 7395.21 17899.7 7138.86 17403.7C6882.5 16904.9 6754.32 16326.7 6754.32 15669.1C6754.32 15005.9 6882.5 14426.3 7138.86 13930.3C7395.21 13431.6 7758.85 13044.2 8229.77 12768.4C8703.47 12489.7 9264.95 12350.4 9914.2 12350.4C10563.5 12350.4 11123.5 12489.7 11594.5 12768.4C12068.2 13044.2 12433.2 13431.6 12689.5 13930.3C12945.9 14426.3 13074.1 15005.9 13074.1 15669.1C13074.1 16326.7 12945.9 16904.9 12689.5 17403.7C12433.2 17899.7 12068.2 18287 11594.5 18565.7C11123.5 18841.5 10563.5 18979.5 9914.2 18979.5ZM9922.56 17600.2C10217.9 17600.2 10464.5 17516.6 10662.4 17349.4C10860.2 17179.4 11009.3 16948.1 11109.6 16655.5C11212.7 16363 11264.3 16030 11264.3 15656.6C11264.3 15283.2 11212.7 14950.2 11109.6 14657.6C11009.3 14365 10860.2 14133.8 10662.4 13963.8C10464.5 13793.8 10217.9 13708.8 9922.56 13708.8C9624.41 13708.8 9373.62 13793.8 9170.21 13963.8C8969.58 14133.8 8817.72 14365 8714.62 14657.6C8614.3 14950.2 8564.15 15283.2 8564.15 15656.6C8564.15 16030 8614.3 16363 8714.62 16655.5C8817.72 16948.1 8969.58 17179.4 9170.21 17349.4C9373.62 17516.6 9624.41 17600.2 9922.56 17600.2Z" fill="black"></path>
<path d="M4919.55 12755.9C4886.11 12418.7 4742.61 12156.8 4489.04 11970.1C4235.46 11783.4 3891.33 11690.1 3456.64 11690.1C3161.27 11690.1 2911.88 11731.9 2708.47 11815.5C2505.05 11896.3 2349.01 12009.1 2240.34 12154C2134.45 12298.9 2081.51 12463.3 2081.51 12647.2C2075.93 12800.5 2107.98 12934.2 2177.64 13048.5C2250.09 13162.7 2349.01 13261.6 2474.4 13345.2C2599.8 13426 2744.69 13497.1 2909.1 13558.4C3073.5 13616.9 3249.05 13667.1 3435.74 13708.9L4204.81 13892.8C4578.2 13976.4 4920.94 14087.8 5233.03 14227.2C5545.11 14366.5 5815.4 14537.9 6043.9 14741.3C6272.39 14944.7 6449.33 15184.3 6574.72 15460.2C6702.9 15736 6768.38 16052.3 6771.17 16409C6768.38 16932.8 6634.63 17387 6369.92 17771.6C6107.99 18153.3 5729.02 18450.1 5233.03 18661.9C4739.82 18870.8 4144.9 18975.3 3448.28 18975.3C2757.23 18975.3 2155.35 18869.5 1642.64 18657.7C1132.71 18445.9 734.24 18132.4 447.232 17717.2C163.01 17299.3 13.9325 16782.4 0 16166.6H1751.31C1770.81 16453.6 1853.02 16693.2 1997.91 16885.5C2145.6 17075 2342.04 17218.5 2587.26 17316C2835.25 17410.7 3115.3 17458.1 3427.38 17458.1C3733.9 17458.1 4000.01 17413.5 4225.71 17324.3C4454.2 17235.2 4631.15 17111.2 4756.54 16952.4C4881.93 16793.5 4944.63 16611 4944.63 16404.8C4944.63 16212.5 4887.5 16050.9 4773.26 15920C4661.8 15789 4497.39 15677.5 4280.05 15585.6C4065.49 15493.6 3802.17 15410 3490.08 15334.8L2558 15100.7C1836.3 14925.2 1266.46 14650.7 848.486 14277.3C430.513 13903.9 222.919 13401 225.706 12768.4C222.919 12250.1 360.85 11797.3 639.499 11410C920.935 11022.7 1306.86 10720.4 1797.29 10503C2287.71 10285.7 2845.01 10177 3469.18 10177C4104.5 10177 4659.01 10285.7 5132.71 10503C5609.2 10720.4 5979.81 11022.7 6244.52 11410C6509.24 11797.3 6645.78 12246 6654.14 12755.9H4919.55Z" fill="black"></path>
<path d="M59540.1 2256.98V3594.5H55673.9V2256.98H59540.1ZM56551.6 718.838H58332.2V6704.22C58332.2 6868.62 58357.3 6996.8 58407.4 7088.75C58457.6 7177.92 58527.2 7240.62 58616.4 7276.84C58708.4 7313.07 58814.2 7331.18 58934.1 7331.18C59017.7 7331.18 59101.3 7324.21 59184.8 7310.28C59268.4 7293.56 59332.5 7281.02 59377.1 7272.66L59657.2 8597.64C59568 8625.5 59442.6 8657.55 59281 8693.77C59119.4 8732.78 58922.9 8756.47 58691.6 8764.83C58262.5 8781.55 57886.3 8724.42 57563.1 8593.46C57242.7 8462.49 56993.3 8259.08 56814.9 7983.22C56636.6 7707.35 56548.8 7359.04 56551.6 6938.28V718.838Z" fill="black"></path>
<path d="M55799.4 4087.72L54169.3 4188.03C54141.4 4048.71 54081.5 3923.32 53989.6 3811.86C53897.6 3697.61 53776.4 3607.05 53625.9 3540.18C53478.2 3470.51 53301.3 3435.68 53095.1 3435.68C52819.2 3435.68 52586.6 3494.2 52397.1 3611.23C52207.6 3725.48 52112.9 3878.73 52112.9 4071C52112.9 4224.26 52174.2 4353.83 52296.8 4459.72C52419.4 4565.6 52629.8 4650.59 52927.9 4714.68L54089.9 4948.75C54714 5076.92 55179.4 5283.12 55485.9 5567.35C55792.4 5851.57 55945.7 6224.96 55945.7 6687.52C55945.7 7108.28 55821.7 7477.49 55573.7 7795.15C55328.5 8112.81 54991.3 8360.8 54562.2 8539.14C54135.9 8714.69 53644 8802.46 53086.7 8802.46C52236.9 8802.46 51559.7 8625.52 51055.4 8271.64C50553.8 7914.97 50259.8 7430.12 50173.5 6817.09L51924.8 6725.13C51977.7 6984.28 52105.9 7182.12 52309.3 7318.66C52512.7 7452.41 52773.3 7519.28 53090.9 7519.28C53403 7519.28 53653.8 7459.37 53843.3 7339.55C54035.5 7216.95 54133.1 7059.51 54135.9 6867.24C54133.1 6705.63 54064.8 6573.27 53931 6470.17C53797.3 6364.28 53591.1 6283.47 53312.4 6227.74L52200.6 6006.22C51573.7 5880.83 51106.9 5663.48 50800.4 5354.18C50496.7 5044.88 50344.8 4650.59 50344.8 4171.32C50344.8 3758.91 50456.3 3403.64 50679.2 3105.48C50904.9 2807.33 51221.2 2577.44 51628 2415.83C52037.6 2254.21 52516.9 2173.4 53065.8 2173.4C53876.7 2173.4 54514.8 2344.77 54980.2 2687.51C55448.3 3030.25 55721.4 3496.99 55799.4 4087.72Z" fill="black"></path>
<path d="M46402.4 8798.28C45992.8 8798.28 45627.8 8727.23 45307.3 8585.12C44986.9 8440.22 44733.3 8227.05 44546.6 7945.62C44362.7 7661.39 44270.8 7307.51 44270.8 6883.96C44270.8 6527.29 44336.3 6227.75 44467.2 5985.32C44598.2 5742.9 44776.5 5547.84 45002.2 5400.16C45227.9 5252.47 45484.3 5141.01 45771.3 5065.78C46061.1 4990.54 46364.8 4937.6 46682.5 4906.95C47055.9 4867.94 47356.8 4831.71 47585.3 4798.28C47813.8 4762.05 47979.6 4709.11 48082.7 4639.45C48185.8 4569.78 48237.3 4466.68 48237.3 4330.15V4305.07C48237.3 4040.35 48153.7 3835.54 47986.6 3690.65C47822.2 3545.75 47588.1 3473.3 47284.4 3473.3C46963.9 3473.3 46708.9 3544.36 46519.5 3686.47C46330 3825.79 46204.6 4001.34 46143.3 4213.11L44496.5 4079.36C44580.1 3689.25 44744.5 3352.09 44989.7 3067.87C45234.9 2780.86 45551.2 2560.72 45938.5 2407.47C46328.6 2251.42 46780 2173.4 47292.7 2173.4C47649.4 2173.4 47990.7 2215.2 48316.8 2298.79C48645.6 2382.39 48936.7 2511.96 49190.3 2687.51C49446.7 2863.06 49648.7 3088.76 49796.4 3364.63C49944.1 3637.7 50017.9 3965.12 50017.9 4346.86V8677.07H48329.3V7786.79H48279.1C48176 7987.41 48038.1 8164.36 47865.3 8317.61C47692.6 8468.08 47485 8586.51 47242.6 8672.89C47000.1 8756.48 46720.1 8798.28 46402.4 8798.28ZM46912.4 7569.44C47174.3 7569.44 47405.6 7517.89 47606.2 7414.79C47806.8 7308.9 47964.3 7166.79 48078.5 6988.46C48192.8 6810.12 48249.9 6608.1 48249.9 6382.4V5701.1C48194.1 5737.32 48117.5 5770.76 48020 5801.41C47925.3 5829.28 47818 5855.75 47698.2 5880.83C47578.3 5903.12 47458.5 5924.02 47338.7 5943.52C47218.9 5960.24 47110.2 5975.57 47012.7 5989.5C46803.7 6020.15 46621.2 6068.91 46465.1 6135.79C46309.1 6202.67 46187.9 6293.23 46101.5 6407.47C46015.1 6518.93 45971.9 6658.26 45971.9 6825.45C45971.9 7067.87 46059.7 7253.17 46235.2 7381.35C46413.6 7506.74 46639.3 7569.44 46912.4 7569.44Z" fill="black"></path>
<path d="M41195.6 8802.46C40546.4 8802.46 39984.9 8664.53 39511.2 8388.67C39040.3 8110.02 38676.6 7722.7 38420.3 7226.7C38163.9 6727.92 38035.8 6149.72 38035.8 5492.11C38035.8 4828.93 38163.9 4249.34 38420.3 3753.34C38676.6 3254.56 39040.3 2867.24 39511.2 2591.38C39984.9 2312.73 40546.4 2173.4 41195.6 2173.4C41844.9 2173.4 42405 2312.73 42875.9 2591.38C43349.6 2867.24 43714.6 3254.56 43971 3753.34C44227.3 4249.34 44355.5 4828.93 44355.5 5492.11C44355.5 6149.72 44227.3 6727.92 43971 7226.7C43714.6 7722.7 43349.6 8110.02 42875.9 8388.67C42405 8664.53 41844.9 8802.46 41195.6 8802.46ZM41204 7423.15C41499.4 7423.15 41746 7339.56 41943.8 7172.37C42141.6 7002.39 42290.7 6771.11 42391 6478.53C42494.1 6185.95 42545.7 5852.96 42545.7 5479.57C42545.7 5106.18 42494.1 4773.2 42391 4480.62C42290.7 4188.03 42141.6 3956.76 41943.8 3786.78C41746 3616.8 41499.4 3531.82 41204 3531.82C40905.8 3531.82 40655.1 3616.8 40451.6 3786.78C40251 3956.76 40099.1 4188.03 39996 4480.62C39895.7 4773.2 39845.6 5106.18 39845.6 5479.57C39845.6 5852.96 39895.7 6185.95 39996 6478.53C40099.1 6771.11 40251 7002.39 40451.6 7172.37C40655.1 7339.56 40905.8 7423.15 41204 7423.15Z" fill="black"></path>
<path d="M37972.2 3113.9H36141.4C36108 2877.05 36039.7 2666.67 35936.6 2482.76C35833.5 2296.07 35701.2 2137.24 35539.6 2006.27C35377.9 1875.31 35191.2 1774.99 34979.5 1705.33C34770.5 1635.67 34543.4 1600.84 34298.2 1600.84C33855.1 1600.84 33469.2 1710.91 33140.4 1931.04C32811.6 2148.38 32556.6 2466.04 32375.5 2884.02C32194.4 3299.2 32103.8 3803.56 32103.8 4397.08C32103.8 5007.32 32194.4 5520.04 32375.5 5935.22C32559.4 6350.41 32815.8 6663.89 33144.6 6875.66C33473.4 7087.44 33853.7 7193.32 34285.6 7193.32C34528.1 7193.32 34752.4 7161.28 34958.6 7097.19C35167.6 7033.1 35352.9 6939.75 35514.5 6817.15C35676.1 6691.76 35809.8 6539.89 35915.7 6361.56C36024.4 6183.22 36099.6 5979.81 36141.4 5751.32L37972.2 5759.67C37924.8 6152.57 37806.4 6531.53 37616.9 6896.56C37430.2 7258.81 37178 7583.43 36860.3 7870.44C36545.5 8154.66 36169.3 8380.37 35731.8 8547.56C35297.1 8711.96 34805.3 8794.16 34256.4 8794.16C33492.9 8794.16 32810.2 8621.4 32208.3 8275.87C31609.2 7930.35 31135.5 7430.18 30787.2 6775.35C30441.7 6120.53 30268.9 5327.77 30268.9 4397.08C30268.9 3463.61 30444.5 2669.46 30795.6 2014.63C31146.6 1359.81 31623.1 861.025 32225 518.287C32826.9 172.762 33504 0 34256.4 0C34752.4 0 35212.1 69.6623 35635.7 208.987C36062 348.311 36439.6 551.725 36768.4 819.228C37097.2 1083.94 37364.7 1408.57 37570.9 1793.11C37779.9 2177.64 37913.6 2617.91 37972.2 3113.9Z" fill="black"></path>
<path d="M23980.7 4965.5V8677.11H22200.2V117.008H23930.6V3389.74H24005.8C24150.7 3010.78 24384.8 2714.02 24708 2499.46C25031.2 2282.11 25436.7 2173.44 25924.3 2173.44C26370.1 2173.44 26758.8 2270.96 27090.4 2466.02C27424.8 2658.29 27684 2935.54 27867.9 3297.79C28054.6 3657.24 28146.5 4087.76 28143.7 4589.32V8677.11H26363.2V4906.98C26366 4511.3 26265.6 4203.4 26062.2 3983.26C25861.6 3763.13 25580.2 3653.06 25217.9 3653.06C24975.5 3653.06 24760.9 3704.61 24574.2 3807.71C24390.3 3910.81 24245.4 4061.28 24139.5 4259.13C24036.4 4454.18 23983.5 4689.64 23980.7 4965.5Z" fill="black"></path>
<path d="M21844 2256.98V3594.5H17977.7V2256.98H21844ZM18855.5 718.838H20636V6704.22C20636 6868.62 20661.1 6996.8 20711.3 7088.75C20761.4 7177.92 20831.1 7240.62 20920.2 7276.84C21012.2 7313.07 21118.1 7331.18 21237.9 7331.18C21321.5 7331.18 21405.1 7324.21 21488.7 7310.28C21572.3 7293.56 21636.4 7281.02 21681 7272.66L21961 8597.64C21871.8 8625.5 21746.4 8657.55 21584.8 8693.77C21423.2 8732.78 21226.8 8756.47 20995.5 8764.83C20566.4 8781.55 20190.2 8724.42 19867 8593.46C19546.5 8462.49 19297.1 8259.08 19118.8 7983.22C18940.4 7707.35 18852.7 7359.04 18855.5 6938.28V718.838Z" fill="black"></path>
<path d="M10856.7 8802.46C10207.5 8802.46 9646 8664.53 9172.3 8388.67C8701.38 8110.02 8337.74 7722.7 8081.39 7226.7C7825.03 6727.92 7696.85 6149.72 7696.85 5492.11C7696.85 4828.93 7825.03 4249.34 8081.39 3753.34C8337.74 3254.56 8701.38 2867.24 9172.3 2591.38C9646 2312.73 10207.5 2173.4 10856.7 2173.4C11506 2173.4 12066.1 2312.73 12537 2591.38C13010.7 2867.24 13375.7 3254.56 13632.1 3753.34C13888.4 4249.34 14016.6 4828.93 14016.6 5492.11C14016.6 6149.72 13888.4 6727.92 13632.1 7226.7C13375.7 7722.7 13010.7 8110.02 12537 8388.67C12066.1 8664.53 11506 8802.46 10856.7 8802.46ZM10865.1 7423.15C11160.5 7423.15 11407.1 7339.56 11604.9 7172.37C11802.7 7002.39 11951.8 6771.11 12052.1 6478.53C12155.2 6185.95 12206.8 5852.96 12206.8 5479.57C12206.8 5106.18 12155.2 4773.2 12052.1 4480.62C11951.8 4188.03 11802.7 3956.76 11604.9 3786.78C11407.1 3616.8 11160.5 3531.82 10865.1 3531.82C10566.9 3531.82 10316.2 3616.8 10112.7 3786.78C9912.11 3956.76 9760.25 4188.03 9657.15 4480.62C9556.83 4773.2 9506.68 5106.18 9506.68 5479.57C9506.68 5852.96 9556.83 6185.95 9657.15 6478.53C9760.25 6771.11 9912.11 7002.39 10112.7 7172.37C10316.2 7339.56 10566.9 7423.15 10865.1 7423.15Z" fill="black"></path>
<path d="M7435.75 117.008V8677.11H5872.53L2148.38 3289.43H2085.69V8677.11H275.861V117.008H1864.16L5559.05 5500.51H5634.28V117.008H7435.75Z" fill="black"></path>
<path d="M17568.2 2165.06C17657.4 2165.06 17753.5 2170.63 17856.6 2181.78C17959.7 2192.92 18050.3 2208.25 18128.3 2227.75V3598.59C17722.4 3571.28 17127.9 3621.38 16677.6 3880.82C16676.3 3881.52 16675 3882.22 16673.7 3882.93C16470.3 3994.39 16308.7 4150.43 16188.9 4351.06C16071.9 4551.68 16013.3 4782.96 16013.3 5044.89V8677.08H14232.8V2257.01H15959V3377.18H16025.9C16142.9 2978.71 16339.4 2677.77 16615.2 2474.36C16891.1 2268.16 17208.8 2165.06 17568.2 2165.06Z" fill="black"></path>
</svg>