<svg width="338" height="115" viewBox="0 0 338 115" fill="none" xmlns="http://www.w3.org/2000/svg">
<path d="M182.173 9.81805C197.459 9.78498 216.006 10.5403 227.78 21.6852C237.988 31.3463 235.673 49.6499 235.676 62.6042L235.648 110.435L214.738 110.471C214.711 107.181 214.72 103.891 214.771 100.601C211.962 102.304 208.985 104.138 206.065 105.653C184.825 116.679 149.095 119.962 134.079 97.0974C132.003 93.2754 130.585 87.1651 130.503 82.8503C129.886 50.1535 170.525 48.4667 194.282 46.6071C201.107 46.0728 207.792 45.9531 214.547 45.7556C214.477 37.7341 211.907 30.2155 203.665 27.5778C186.147 21.97 157.305 25.389 140.704 32.3034C141.175 29.4373 141.018 18.1097 140.876 14.8913C151.5 11.5221 167.189 10.1142 178.272 9.862C179.572 9.8262 180.872 9.81138 182.173 9.81805ZM214.586 59.4479C214.095 59.2842 214.152 59.231 213.7 59.3181C207.003 59.6085 200.148 60.2914 193.399 60.9323C181.354 62.0766 165.116 61.9212 156.032 71.1393C150.682 76.5699 151.014 87.8726 156.809 93.0641C157.349 93.5433 157.903 94.0094 158.467 94.4606C169.507 100.481 182.513 99.1049 194.304 95.9372C201.535 93.9945 208.35 90.3175 214.774 86.5192C214.662 77.8496 214.929 67.8797 214.586 59.4479Z" fill="black"/>
<path d="M284.954 10.0091C298.44 9.76818 315.815 14.1536 325.41 24.1654C336.708 35.9515 337.357 49.7998 337.303 65.0238L244.78 65.1087C244.923 67.1985 245.12 69.3679 245.481 71.43C246.844 79.5462 251.438 86.7636 258.217 91.431C268.319 98.4923 283.079 100.505 295.11 99.4095C298.424 99.1076 303.902 98.0203 307.337 97.4124C316.735 95.1994 325.845 92.0743 334.266 87.2816C334.229 93.3567 334.241 99.433 334.305 105.508C323.535 109.925 311.491 112.428 299.82 113.55C282.266 115.237 262.784 113.689 246.935 105.407C243.054 103.379 238.626 99.6853 235.249 96.9066C235.707 86.2466 235.151 74.7795 235.303 64.0345C235.448 53.6774 235.995 41.472 233 31.6331C242.883 18.8825 259.659 11.4034 275.557 10.2044C277.584 9.92989 282.775 10.048 284.954 10.0091ZM25.3477 0.100922C60.943 -3.16782 145.245 73.969 117.759 86.7181C104.282 87.5161 91.2142 80.651 79.8848 73.9896C60.4105 62.5395 25.4968 33.0074 20.0967 11.2074C19.4828 8.72981 19.1998 5.91912 20.6475 3.66342C21.7786 1.90147 23.2715 0.583775 25.3477 0.100922ZM34.9756 2.79916C29.6936 4.90423 30.1137 8.6643 32.4111 13.4456C42.3302 34.0885 90.3911 78.895 113.34 78.3792C114.758 77.9173 116.344 77.6467 117.066 76.18C117.999 74.2875 117.493 71.7985 116.793 69.9203C109.145 49.3987 67.4999 15.4017 47.4902 6.47495C43.4368 4.66688 39.3813 3.29439 34.9756 2.79916ZM320.442 51.2621C319.62 30.5483 302.981 22.8105 284.392 24.054C284.213 24.0662 284.073 24.078 283.895 24.1107C266.161 25.6759 253.252 32.6741 249.701 51.2542L286.868 51.2904L320.442 51.2621Z" fill="black"/>
<path d="M22.2304 36.6033L23.9077 36.3922C24.9081 37.5311 21.7847 39.2623 22.6656 41.6099C28.1571 56.2424 48.9858 72.3132 62.3182 80.5989C65.6003 82.6385 74.6105 87.7494 78.2059 87.9116C79.6435 87.9765 81.9179 87.2615 83.3904 86.9128C84.9218 88.7762 83.2203 93.4587 81.2288 95.0617C59.6677 97.3831 19.5112 65.0312 14.2551 44.4216C12.8034 38.7304 17.7275 37.18 22.2304 36.6033Z" fill="black"/>
<path d="M2.86875 53.1888C3.93728 54.0537 6.24762 61.9357 8.31365 64.8307C20.1807 81.4597 46.9726 104.993 67.1862 108.281L62.8905 111.569C58.3567 113.687 43.7565 106.981 39.8675 104.47C24.4313 94.501 3.38009 78.3953 0 59.2059C0.77796 56.8128 1.45162 55.2622 2.86875 53.1888Z" fill="black"/>
</svg>
