<svg width="670" height="156" viewBox="0 0 670 156" fill="none" xmlns="http://www.w3.org/2000/svg">
<path d="M591.072 56.3272C599.918 55.447 610.789 57.3246 618.147 62.4607C629.436 70.3371 631.616 87.4873 623.729 98.494C617.72 106.875 609.676 108.627 600.131 110.232C590.629 110.722 579.557 109.532 571.904 103.343C566.929 99.2938 563.738 93.4632 563.002 87.0945C560.98 67.8573 573.165 58.1552 591.072 56.3272ZM598.509 98.4349C602.929 97.6588 606.37 96.9433 609.131 92.9628C613.642 86.4621 613.091 75.4863 606.33 70.706C602.984 68.3411 596.953 66.92 592.927 67.7897C588.606 68.5186 584.496 69.7575 581.866 73.5602C577.131 80.4009 578.244 91.1745 585.251 96.0904C588.445 98.3332 594.09 99.2921 597.866 98.5777C598.082 98.5367 598.296 98.4891 598.509 98.4349Z" fill="black"/>
<path d="M475.338 56.8497L493.111 56.8057C504.202 56.7873 516.055 55.9682 524.97 64.1744C530.41 69.1825 531.96 75.7771 532.131 82.8885C532.321 91.0275 530.604 96.3874 524.911 102.397C517.487 108.915 509.2 109.323 499.619 109.473C491.489 109.599 483.343 109.415 475.203 109.5C475.433 91.9897 475.282 74.3744 475.338 56.8497ZM491.239 98.1218C498.696 98.0746 503.145 98.4198 510.569 96.9312L512.956 94.7103C515.533 89.9802 516.236 87.2809 516.009 81.9614C515.336 66.1255 502.363 68.6915 491.193 68.067C491.407 78.0842 491.42 88.1043 491.239 98.1218Z" fill="black"/>
<path d="M193.367 56.8773L215.635 56.8061C225.909 56.7818 246.422 55.473 248.716 69.6466C250.202 78.8243 244.315 85.3191 235.256 86.578C242.987 92.3983 249.751 101.518 255.523 109.377C252.598 109.473 249.446 109.434 246.502 109.453C243.226 109.473 240.277 109.495 236.996 109.279C232.596 106.303 227.071 97.4616 222.532 93.4534C217.685 89.1729 215.636 88.6019 209.258 88.7276C209.464 94.3422 209.592 103.88 209.285 109.387L193.355 109.44L193.367 56.8773ZM209.418 77.9595C215.184 77.91 226.435 78.4731 231.319 76.5224C232.208 74.8063 232.328 74.1966 232.727 72.3617C231.545 70.3483 230.617 69.1416 228.15 68.7254C222.162 67.7146 215.413 68.4914 209.169 68.0628C209.298 71.3604 209.381 74.6596 209.418 77.9595Z" fill="black"/>
<path d="M364.4 56.8875C369.354 56.7517 374.621 56.8091 379.602 56.7773C381.519 59.8799 383.621 64.1801 385.423 67.4931C390.332 76.5189 395.004 85.7412 399.545 94.9569C401.771 99.4727 405.344 104.689 406.874 109.401C401.65 109.487 395.07 109.607 389.945 109.311C388.369 107.334 384.79 100.572 384.317 98.0044L380.134 97.8722L359.855 97.8604C358.959 100.906 356.296 106.292 354.897 109.304C349.319 109.556 343.369 109.474 337.729 109.64C338.691 106.542 340.447 103.752 341.882 100.827C346.062 92.363 350.399 83.9795 354.897 75.681C358.335 69.1941 360.706 63.487 364.4 56.8875ZM365.431 86.7608L372.3 86.8475C374.201 86.8639 376.896 86.9581 378.719 86.8042C377.803 85.0192 372.592 74.6417 371.722 73.7693C370.064 77.5947 367.647 83.329 365.431 86.7608Z" fill="black"/>
<path d="M147.318 56.9127C152.209 56.707 157.824 56.83 162.769 56.8277C164.974 60.0279 168.705 68.5672 170.793 72.4247C177.165 84.1967 184.457 97.1849 189.969 109.349C184.536 109.543 178.198 109.498 172.8 109.379C170.897 107.004 168.765 101.078 167.093 97.8347L164.252 97.8626C157.575 97.8613 149.77 97.6732 143.181 98.0303C141.307 101.868 140.188 105.405 138.076 109.312C132.568 109.577 125.933 109.512 120.426 109.421C126.567 99.1931 131.011 88.1165 136.72 77.6651C140.453 70.8304 143.682 63.7885 147.318 56.9127ZM148.43 86.9495C150.662 86.9045 153.289 86.788 155.488 86.8642C157.44 86.8612 159.608 86.9078 161.539 86.8507C159.999 83.7691 155.79 76.0826 154.811 73.4792C154.228 75.5553 149.746 84.5698 148.43 86.9495Z" fill="black"/>
<path d="M448.569 56.8134L464.615 56.8249L464.661 68.1735C464.704 90.5557 468.434 110.986 438.341 110.389C410.918 109.844 410.16 100.893 410.239 76.9662L410.301 56.8541L425.795 56.8738C425.93 64.2054 425.743 71.5394 425.812 78.8973C425.845 82.506 425.231 93.1848 427.795 95.7098C431.692 99.6027 442.547 99.6602 446.537 96.2408C449.153 93.9993 448.349 82.8076 448.339 79.3075C448.267 71.8088 448.342 64.3091 448.569 56.8134Z" fill="black"/>
<path d="M283.637 56.3296C288.472 55.6595 297.606 56.687 302.206 58.6975C310.453 62.3026 312.111 65.2884 315.323 72.9886C310.591 74.4205 304.548 75.3821 299.632 76.1815C295.519 65.3426 281.634 65.0249 274.644 73.219C272.213 76.2593 272.77 79.5493 272.48 82.864C271.487 94.2067 278.788 100.006 289.682 98.4377C297.64 97.2926 296.482 93.9002 300.172 88.599C301.189 88.0316 300.861 88.1678 302.156 88.4084C306.018 89.7021 311.722 91.1704 315.64 91.5501C311.048 104.13 304.445 108.789 290.992 110.158C281.513 111.123 272.473 108.987 264.857 103.29C254.113 95.2513 253.443 76.747 261.43 66.7613C266.774 60.0224 274.979 57.155 283.637 56.3296Z" fill="black"/>
<path d="M540.32 56.8921C545.452 56.7772 550.814 56.8274 555.965 56.7982C556.156 73.3466 556.438 92.9021 555.916 109.341C550.778 109.512 545.284 109.472 540.133 109.492C540.294 91.9589 540.356 74.4253 540.32 56.8921Z" fill="black"/>
<path d="M0 73.0349C1.19575 71.436 1.57189 69.7625 2.31683 68.5309C14.1856 48.9084 48.8266 38.0379 69.9655 31.4043C84.8338 26.7387 105.676 22.4752 120.509 19.6982C144.093 15.1407 167.861 11.5853 191.747 9.04147C274.084 -0.151015 357.054 -2.33914 439.76 2.50069C455.327 3.25331 470.877 4.26005 486.411 5.52054C521.212 8.54371 555.832 13.3355 590.147 19.8773C609.447 23.6304 628.132 27.369 646.894 33.6554C649.639 34.5746 655.795 36.4456 658.107 37.6723C659.949 38.142 669.06 41.2715 669.914 42.4999C668.394 42.9134 658.14 40.5003 655.963 39.945C640.146 36.5073 624.215 33.6173 608.199 31.2803C603.169 30.5662 598.05 30.1084 593.007 29.4509C564.119 25.5864 535.084 22.9119 505.973 21.4343C416.211 17.3673 326.268 20.1147 236.921 29.653C198.478 33.7863 160.077 38.9953 122.977 50.2228C108.697 54.5446 95.7317 58.8117 83.1421 66.8535C73.0696 73.2876 60.3885 85.5124 69.9018 98.0822C85.8821 118.794 117.83 126.383 142.164 132.465C162.764 137.614 185.177 139.644 206.102 143.013C228.703 146.652 251.298 148.57 274.003 151.205C280.293 151.935 287.71 151.936 293.753 152.976L294.059 153.507C292.976 155.399 290.046 155.111 288.057 154.99C269.778 153.884 251.216 153.759 232.967 152.454C194.488 149.839 156.213 144.788 118.373 137.331C94.7661 132.636 72.0623 127.581 49.4517 118.635C33.1624 112.19 14.5151 104.584 3.47923 90.0246C1.86584 87.896 1.2841 84.2693 0 82.7186V73.0349Z" fill="black"/>
<path d="M658.105 37.6723C659.947 38.142 669.058 41.2715 669.912 42.4999C668.392 42.9134 658.138 40.5003 655.961 39.945C658.765 38.8879 659.868 41.0323 662.784 40.2433C661.48 39.6198 658.68 38.6398 658.105 37.6723Z" fill="black"/>
</svg>
