<svg width="614" height="135" viewBox="0 0 614 135" fill="none" xmlns="http://www.w3.org/2000/svg">
<path d="M239.963 118.084C220.608 118.084 211.825 99.5422 211.825 78.2349C211.825 56.4398 219.795 38.7108 239.963 38.7108C259.644 38.7108 268.102 56.2771 268.102 78.2349C268.102 99.7048 258.343 118.084 239.963 118.084ZM268.915 0C268.915 34.4819 268.915 34.4819 268.915 34.4819C268.915 34.4819 260.457 22.2831 239.15 22.2831C207.271 22.2831 194.584 42.4518 194.584 79.0482C194.584 105.886 204.668 134.512 238.337 134.512C262.735 134.512 269.403 112.229 269.403 112.229C269.403 132.398 269.403 132.398 269.403 132.398C288.271 132.398 288.271 132.398 288.271 132.398C288.271 -1.52588e-05 288.271 0 288.271 0H268.915Z" fill="black"/>
<path d="M62.1846 80.3494C62.1846 101.331 47.546 118.084 31.1183 118.084C23.6364 118.084 16.8051 114.343 15.9918 105.886C15.5038 100.03 19.4075 96.2892 23.9617 92.8735C29.4918 89.4578 47.0581 81.9759 62.1846 74.8193V80.3494ZM45.4316 21.9578C31.9316 21.9578 15.9918 29.9277 8.83517 37.8976C8.83517 55.9518 8.83517 55.9518 8.83517 55.9518C16.8051 49.2831 33.2328 40.0121 44.9436 40.0121C53.7267 40.0121 62.9978 41.6386 62.9978 53.0241C62.9978 60.506 53.4014 61.8072 21.8472 75.3072C8.02192 81.1626 -0.761211 90.4337 0.0520416 105.56C0.539993 121.5 13.552 134.512 29.8171 134.512C52.1002 134.512 62.9978 113.53 62.9978 113.53C62.9978 132.398 62.9978 132.398 62.9978 132.398C81.8653 132.398 81.8653 132.398 81.8653 132.398C81.8653 53.8373 81.8653 53.8374 81.8653 53.8374C82.0279 26.1868 59.2569 21.9578 45.4316 21.9578Z" fill="black"/>
<path d="M162.702 80.6748C162.702 105.398 154.733 118.084 135.865 118.084C120.251 118.084 112.769 108 112.769 90.7591C112.769 23.9097 112.769 23.9097 112.769 23.9097C94.2266 23.9097 94.2266 23.9097 94.2266 23.9097C94.2266 96.1266 94.2266 96.1266 94.2266 96.1266C94.2266 119.711 107.727 133.048 129.034 134.349C148.389 135.651 159.775 125.566 162.702 112.066C162.702 132.235 162.702 132.235 162.702 132.235C181.245 132.235 181.245 132.235 181.245 132.235C181.245 23.9097 181.245 23.9097 181.245 23.9097C162.702 23.9097 162.702 23.9097 162.702 23.9097V80.6748Z" fill="black"/>
<path d="M304.697 132.398H323.565V29.1145H304.697V132.398Z" fill="black"/>
<path d="M357.559 53.0241C357.559 45.8674 364.228 40.8253 375.288 40.8253C387.812 40.8253 397.083 44.5662 405.541 53.0241C405.541 32.3674 405.541 32.3674 405.541 32.3674C399.198 26.024 387.812 22.2831 374.8 22.2831C360.161 22.2831 337.878 28.9518 338.692 55.4638C339.18 87.3433 394.155 81.9759 394.155 101.657C394.155 110.44 386.674 115.97 372.36 115.97C361.788 115.97 349.264 110.44 339.667 97.4277C339.667 123.452 339.667 123.452 339.667 123.452C343.896 128.006 353.981 134.349 372.36 134.349C404.728 134.349 414.324 112.554 411.071 94.8252C404.565 61.8072 357.559 71.8915 357.559 53.0241Z" fill="black"/>
<path d="M467.671 118.084C444.574 118.572 439.044 95.4759 439.532 78.5603C440.833 56.2771 446.689 39.0362 467.183 39.0362C467.996 39.0362 467.996 39.0362 467.996 39.0362C488.978 39.5241 495.646 57.0904 495.646 78.8856C495.809 100.843 490.279 117.759 467.671 118.084ZM467.996 22.2832C467.183 22.2832 467.183 22.2832 467.183 22.2832C432.375 22.2832 420.502 43.753 420.502 77.747C420.502 113.042 432.701 134.837 467.996 134.837C501.99 134.837 514.189 114.181 514.189 78.8856C514.189 45.3796 503.291 22.2832 467.996 22.2832Z" fill="black"/>
<path d="M583.154 21.9579C561.684 20.6567 552.413 29.9278 545.419 42.6145C545.419 24.0724 545.419 24.0723 545.419 24.0723C526.877 24.0723 526.877 24.0723 526.877 24.0723C526.877 132.398 526.877 132.398 526.877 132.398C545.419 132.398 545.419 132.398 545.419 132.398C545.419 73.5181 545.419 73.5181 545.419 73.5181C545.419 48.3073 561.847 34.8073 582.829 39.5241C596.329 43.753 595.353 58.3916 595.353 58.3916C595.353 132.398 595.353 132.398 595.353 132.398C613.407 132.398 613.407 132.398 613.407 132.398C613.407 53.8374 613.407 53.8374 613.407 53.8374C612.919 34.9699 601.208 22.7711 583.154 21.9579Z" fill="black"/>
<path d="M321.45 1.78917C319.335 0.487959 316.895 0.162659 313.805 0.162659C311.365 0.162659 308.763 0.65061 306.648 1.78917C303.233 3.41567 300.793 7.31925 300.793 11.0602C300.793 15.2891 303.395 19.0301 306.648 20.6566C308.763 21.9578 311.203 22.2831 313.805 22.2831C316.733 22.2831 319.335 21.7952 321.45 20.6566C324.865 19.0301 326.98 15.1265 326.98 11.0602C326.817 7.1566 324.865 3.41567 321.45 1.78917Z" fill="black"/>
</svg>
