<svg width="778" height="340" viewBox="0 0 778 340" fill="none" xmlns="http://www.w3.org/2000/svg">
<path d="M78.6615 293.942H68.9225V281.973C60.6818 291.323 50.5681 296.186 38.207 295.812C27.7188 295.438 18.7289 291.324 11.2374 283.469C3.74579 275.614 0 266.263 0 255.79C0 244.569 4.12037 235.218 11.9865 226.989C19.8527 219.134 29.2171 215.394 40.4545 215.768C51.3173 216.142 60.3072 220.256 67.7988 228.111C75.2903 235.966 79.0361 244.943 78.6615 255.79V256.164V293.942ZM10.1136 254.668C10.1136 262.897 12.7357 269.629 17.9798 275.988C23.5985 281.973 30.3409 284.965 37.8325 285.713C46.0732 286.087 53.1902 283.095 59.1834 276.736C65.1767 270.377 68.1733 263.271 67.7988 254.668C67.7988 246.439 64.8021 239.706 59.1834 234.096C53.5648 228.485 47.1969 225.493 39.3308 225.493C31.09 225.493 24.3476 228.485 18.7289 234.096C13.1103 239.706 10.4882 246.439 10.1136 254.668Z" fill="black"/>
<path d="M155.077 261.026C155.077 270.751 151.705 279.354 145.337 285.713C138.97 292.446 131.103 295.438 121.364 295.438C111.625 295.438 103.385 292.072 97.0168 285.713C90.649 278.98 87.6523 270.751 87.6523 261.026V217.264H98.1406V261.774C98.1406 268.133 100.388 273.744 105.258 278.606C109.752 283.095 115.371 285.339 121.739 285.339C128.107 285.339 133.351 283.095 138.22 278.606C143.09 273.744 145.337 268.507 145.337 261.774V217.264H155.826V261.026H155.077Z" fill="black"/>
<path d="M242.353 255.79C242.728 266.637 238.607 276.362 230.366 284.217C222.126 292.072 212.761 295.812 201.524 295.438C191.036 295.064 181.671 291.323 174.554 283.469C167.063 275.614 163.691 266.637 163.691 255.79C163.691 244.569 167.812 234.844 175.678 226.989C183.544 219.134 193.283 215.02 204.146 215.394C215.383 215.768 224.748 220.256 232.239 228.859V191.081H242.353V255.79ZM202.273 285.713C210.888 286.087 217.631 283.469 223.624 277.11C229.617 270.751 232.614 263.645 232.239 255.042C232.239 246.813 229.243 240.08 223.624 234.47C218.005 228.859 211.637 225.867 203.771 225.867C195.905 225.867 188.788 228.485 183.17 234.47C177.551 240.08 174.554 247.187 174.554 255.416C174.554 263.271 177.176 270.377 182.42 276.736C187.664 282.347 194.032 285.713 202.273 285.713Z" fill="black"/>
<path d="M264.078 208.287H253.965V190.707H264.078V208.287ZM264.078 293.568H253.965V217.264H264.078V293.568Z" fill="black"/>
<path d="M340.492 284.217C332.626 292.072 322.887 295.812 312.024 295.812C301.536 295.438 292.171 291.323 285.054 283.843C277.563 275.988 274.191 266.637 274.191 256.164C274.191 244.943 278.312 235.592 286.178 227.363C294.044 219.508 303.783 215.394 314.646 215.768C325.134 216.142 334.499 220.256 341.616 228.111C349.107 235.966 352.853 244.943 352.853 255.79C352.478 266.637 348.733 275.988 340.492 284.217ZM312.398 285.339C321.014 285.713 328.131 282.721 333.749 276.362C339.743 270.003 342.739 262.897 342.365 254.294C341.99 246.439 338.994 239.332 333.749 233.722C328.131 228.111 321.763 225.119 313.897 225.119C305.656 225.119 298.914 228.111 292.92 233.722C287.302 239.332 284.305 246.439 284.305 254.294C284.305 262.149 286.927 269.255 292.171 275.614C297.79 281.973 304.532 284.965 312.398 285.339Z" fill="black"/>
<path d="M373.455 293.942H362.967V216.142C362.967 200.058 374.204 190.707 389.936 190.707H392.559V199.684H389.936C384.692 200.058 380.947 201.18 378.699 203.425C375.328 207.165 373.455 210.531 373.455 214.272V217.264H392.559V226.615H373.455V293.942Z" fill="black"/>
<path d="M412.787 293.942H401.924V217.264H411.288V228.111C413.536 223.997 416.532 221.004 420.653 218.76C424.399 216.89 428.519 215.768 432.265 216.142V226.241C427.395 226.241 423.649 227.737 420.653 229.981C417.656 232.226 415.783 234.47 414.659 236.34C412.787 239.332 412.037 243.073 412.037 247.935V293.942H412.787Z" fill="black"/>
<path d="M499.687 284.217C491.821 292.072 482.457 295.812 471.219 295.812C460.731 295.438 451.367 291.323 444.25 283.843C436.758 275.988 433.387 266.637 433.387 256.164C433.387 244.943 437.507 235.592 445.373 227.363C453.239 219.508 462.978 215.394 473.841 215.768C484.329 216.142 493.694 220.256 500.811 228.111C508.302 235.966 512.048 244.943 512.048 255.79C511.674 266.637 507.553 275.988 499.687 284.217ZM471.219 285.339C479.46 285.713 486.951 282.721 492.57 276.362C498.563 270.003 501.56 262.897 501.185 254.294C500.811 246.439 497.814 239.332 492.57 233.722C486.951 228.111 480.584 225.119 472.717 225.119C464.477 225.119 457.734 228.111 452.116 233.722C446.497 239.332 443.5 246.439 443.5 254.294C443.5 262.149 446.122 269.255 451.367 275.614C456.611 281.973 463.353 284.965 471.219 285.339Z" fill="black"/>
<path d="M599.325 290.201C599.325 299.926 595.205 307.781 587.339 314.14C579.473 320.498 570.483 323.491 560.369 323.117C551.379 322.743 543.513 320.124 536.771 314.888C530.403 310.025 526.282 303.667 524.035 295.812H533.774C535.272 301.048 538.643 305.537 543.888 309.277C549.132 313.018 554.75 314.888 561.118 314.888C568.61 314.888 574.978 312.27 580.596 307.033C586.215 301.797 588.837 295.812 588.837 288.705V281.599C581.345 290.201 571.981 294.69 560.744 295.064C549.881 295.438 540.142 291.698 532.276 283.469C524.409 275.614 520.289 265.889 520.289 254.668C520.289 243.821 524.035 234.844 531.152 226.989C538.643 219.134 547.633 215.394 558.122 215.02C568.984 214.646 578.723 218.76 586.59 226.615C594.83 234.47 598.576 244.195 598.576 255.042V290.201H599.325ZM580.596 276.362C586.215 270.377 588.837 263.645 589.212 255.79C589.586 247.187 586.59 240.08 580.596 233.722C574.603 227.363 567.486 224.371 559.245 224.745C551.379 225.119 544.637 228.485 539.393 234.47C533.774 240.454 531.152 247.561 531.526 255.416C531.526 263.645 534.523 270.377 540.516 276.362C546.135 281.973 553.252 284.965 561.118 284.965C568.61 284.965 574.978 281.973 580.596 276.362Z" fill="black"/>
<path d="M623.299 159.662C623.299 159.662 632.289 170.883 636.784 179.112C641.279 187.341 646.897 200.432 644.65 215.02C642.777 229.607 637.907 249.057 637.907 249.057C637.907 249.057 655.887 210.157 652.516 195.196C648.77 180.234 623.299 159.662 623.299 159.662Z" fill="#BDBDBD"/>
<path d="M720.689 120.014C720.689 120.014 730.803 117.022 736.796 116.648C739.044 116.648 751.779 117.022 751.779 117.022C751.779 117.022 745.037 118.144 738.669 118.892C731.927 119.266 720.689 120.014 720.689 120.014Z" fill="#BDBDBD"/>
<path d="M618.43 120.762C618.43 120.762 628.169 110.663 635.286 105.801C642.403 100.564 645.774 99.4423 648.396 98.3202C650.269 97.5721 652.142 96.45 654.015 96.076C660.757 93.4577 671.994 89.7174 671.994 89.7174C671.994 89.7174 688.85 85.2289 692.222 84.8549C695.593 84.4808 696.717 84.8549 702.335 86.351C707.954 87.8472 710.201 89.7174 711.325 90.0914C712.449 90.8395 713.947 95.702 713.573 97.1981C712.824 98.6943 712.449 100.564 712.449 100.564C712.449 100.564 713.198 96.45 710.201 93.8318C707.205 91.2135 700.837 90.0914 690.723 91.5875C680.61 93.0837 656.262 100.938 643.526 106.923C630.416 113.282 618.43 120.762 618.43 120.762Z" fill="#BDBDBD"/>
<path d="M480.959 142.083C480.959 142.083 495.193 138.342 525.159 141.335C555.126 144.327 579.473 146.571 588.089 144.327C596.704 142.083 604.945 135.35 604.945 135.35C604.945 135.35 598.577 139.838 591.085 139.838C583.219 139.838 545.387 133.106 531.153 132.732C516.544 132.358 503.808 133.854 496.691 136.472C489.2 138.716 480.959 142.083 480.959 142.083Z" fill="#BDBDBD"/>
<path d="M619.178 155.548C619.178 155.548 653.264 169.013 654.763 197.44C656.636 229.233 636.408 249.057 637.158 260.278C637.532 264.767 660.381 283.469 660.381 283.469C660.381 283.469 637.532 269.629 634.535 262.897C630.415 253.546 646.897 240.454 648.769 197.44C649.144 174.25 621.8 161.158 619.178 155.548Z" fill="#6E6E6E"/>
<path d="M666.75 286.835C666.75 286.835 670.496 286.087 672.369 284.591C674.242 283.469 677.613 285.339 676.489 286.835C675.365 288.331 672.743 290.575 672.743 290.575C672.743 290.575 673.867 289.453 673.492 288.705C673.118 287.957 671.994 287.209 670.87 287.209H666.75V286.835Z" fill="#6E6E6E"/>
<path d="M674.99 292.82C674.99 292.82 676.863 294.69 679.111 294.316C680.984 293.942 686.602 291.323 687.351 295.438C688.101 298.804 686.602 299.178 684.729 299.178C682.856 299.178 681.358 298.804 681.358 298.804C681.358 298.804 682.107 298.43 682.482 297.682C682.856 296.56 682.107 295.438 681.358 295.812C680.234 296.186 679.111 295.812 677.987 295.438C676.863 294.69 674.99 292.82 674.99 292.82Z" fill="#6E6E6E"/>
<path d="M676.864 302.545C676.864 302.545 675.365 305.163 676.489 306.659C677.613 308.155 679.486 309.277 681.359 309.277C683.232 309.277 684.73 311.147 683.981 313.018C683.232 314.888 682.857 316.01 680.984 316.384C679.111 316.758 678.362 315.636 677.613 314.514C676.864 313.392 675.365 312.27 674.242 313.018C673.118 313.766 671.994 314.14 671.994 314.14C671.994 314.14 673.118 312.27 674.616 311.895C675.74 311.521 677.613 312.644 677.987 311.147C678.362 309.651 676.115 308.155 675.74 307.033C674.991 306.285 676.864 302.545 676.864 302.545Z" fill="#6E6E6E"/>
<path d="M666.002 323.491C666.751 324.239 666.376 330.597 667.5 333.964C668.249 336.208 666.002 339.948 662.63 339.948C660.758 339.948 657.761 337.33 658.136 335.086C659.634 329.849 658.136 327.231 658.51 327.231C658.885 326.857 660.008 333.964 663.38 331.72C667.5 328.727 665.253 322.743 666.002 323.491Z" fill="#6E6E6E"/>
<path d="M649.519 325.735C649.519 326.483 644.275 329.849 642.027 334.338C641.278 336.208 637.533 335.834 636.783 334.712C635.66 333.59 634.91 330.971 636.783 329.849C640.904 327.979 643.9 323.491 644.275 323.491C644.65 323.491 638.282 330.597 641.278 330.223C644.65 330.597 649.519 324.987 649.519 325.735Z" fill="#6E6E6E"/>
<path d="M668.249 29.8714C668.249 29.8714 664.503 27.2531 662.255 27.2531C657.76 27.6271 659.259 20.8945 661.881 22.0166C663.754 23.1387 666.75 22.7647 666.75 22.7647C666.75 22.7647 664.503 23.5127 664.503 24.2608C664.128 25.0089 664.128 25.3829 664.877 26.505C665.627 27.6271 668.249 29.8714 668.249 29.8714Z" fill="#6E6E6E"/>
<path d="M691.847 34.7339C691.847 34.7339 694.469 36.9781 696.716 37.3521C701.96 38.4743 698.964 45.2069 695.593 42.2146C694.094 41.0925 691.098 39.9704 691.098 39.9704C691.098 39.9704 693.345 39.9704 693.72 39.2223C694.094 38.4743 694.469 38.4743 694.094 37.3521C693.72 36.23 691.847 34.7339 691.847 34.7339Z" fill="#6E6E6E"/>
<path d="M681.732 17.154C681.732 17.154 685.104 10.4214 685.478 8.55118C686.602 5.18484 685.104 -1.54783 691.097 0.322358C695.217 1.44447 693.344 4.43677 692.221 6.30696C691.471 7.80311 688.1 13.7877 688.1 13.7877C688.1 13.7877 690.348 8.17714 689.599 7.42907C688.849 6.68099 687.726 6.68099 687.351 7.42907C687.351 8.17714 681.732 17.154 681.732 17.154Z" fill="#6E6E6E"/>
<path d="M691.097 21.6425C691.471 20.8944 697.09 18.6502 700.087 14.9098C701.21 13.0397 704.582 14.1618 705.331 15.6579C706.08 17.1541 706.455 19.7723 704.207 20.1464C699.712 21.2685 695.966 24.6348 695.592 24.6348C695.217 24.6348 702.709 19.0243 699.712 18.6502C696.716 17.9021 690.722 22.3906 691.097 21.6425Z" fill="#6E6E6E"/>
<path d="M756.274 122.633C755.9 121.885 757.772 125.625 757.772 126.747C758.147 130.113 763.017 127.869 761.144 126.747C759.645 125.625 759.271 123.007 759.271 123.007C759.271 123.007 759.271 124.877 758.896 124.877C758.147 125.251 758.147 125.251 757.398 124.503C757.023 124.129 756.274 122.633 756.274 122.633Z" fill="#6E6E6E"/>
<path d="M758.521 116.274C758.521 116.274 760.394 114.03 761.893 113.282C766.387 111.411 762.267 106.549 760.02 109.541C758.896 111.037 756.648 112.16 756.648 112.16C756.648 112.16 758.521 111.785 758.896 112.16C759.645 112.534 759.645 112.534 759.645 113.656C759.27 114.778 758.521 116.274 758.521 116.274Z" fill="#6E6E6E"/>
<path d="M763.766 121.885C763.766 121.885 769.01 122.633 770.508 123.381C773.13 124.129 776.127 127.121 777.625 123.755C778.749 121.137 776.127 121.137 774.628 120.762C773.13 120.762 768.635 120.014 768.635 120.014C768.635 120.014 772.756 121.137 773.13 121.511C773.505 122.259 772.756 123.007 772.006 123.007C771.257 122.633 763.766 121.885 763.766 121.885Z" fill="#6E6E6E"/>
<path d="M766.388 118.892C766.763 119.266 769.01 118.144 772.756 118.518C774.254 118.892 775.378 116.648 775.003 115.9C774.629 115.152 773.505 113.656 772.007 114.03C769.01 115.526 764.141 116.274 764.141 116.648C764.141 116.648 772.007 115.526 770.508 117.022C769.385 118.518 766.014 118.892 766.388 118.892Z" fill="#6E6E6E"/>
<path d="M440.505 168.639C440.505 168.639 442.378 173.502 443.876 174.998C446.124 176.868 443.502 181.356 442.004 179.112C440.88 177.616 438.258 175.746 438.258 175.746C438.258 175.746 440.131 176.494 440.88 176.12C441.629 175.372 442.004 174.998 442.004 173.876C442.004 172.38 440.505 168.639 440.505 168.639Z" fill="#6E6E6E"/>
<path d="M431.889 173.876C431.889 173.876 431.14 175.372 431.14 177.242C431.514 179.112 433.762 184.349 430.765 185.097C427.394 186.219 426.645 184.349 426.27 182.479C425.895 180.608 426.27 178.364 426.27 178.364C426.27 178.364 427.019 180.234 428.143 180.608C429.267 180.982 430.016 180.608 430.016 179.112C430.016 177.99 430.016 176.868 430.39 175.746C430.39 175.372 431.889 173.876 431.889 173.876Z" fill="#6E6E6E"/>
<path d="M421.4 174.998C421.4 174.998 419.153 174.25 417.655 174.998C416.156 175.746 415.033 177.99 414.658 179.486C414.658 181.357 412.411 183.227 410.163 182.479C407.916 181.731 407.916 180.982 407.541 179.112C407.167 177.242 408.665 176.12 409.789 175.372C410.912 174.624 412.036 173.502 411.661 172.006C411.661 171.257 411.287 169.761 411.287 169.761C411.287 169.761 412.036 170.883 412.411 172.38C413.16 174.25 411.287 175.372 412.785 175.746C414.283 176.12 416.156 173.876 417.28 173.876C418.404 173.876 421.4 174.998 421.4 174.998Z" fill="#6E6E6E"/>
<path d="M396.679 167.517C396.305 168.265 390.311 170.135 387.315 172.754C385.442 174.25 381.322 173.502 380.198 170.509C379.074 167.517 380.572 164.899 383.194 164.525C388.813 164.151 389.937 161.533 391.061 161.907C391.435 161.907 385.067 166.021 388.439 167.891C392.184 170.509 397.428 166.395 396.679 167.517Z" fill="#6E6E6E"/>
<path d="M383.194 153.304C382.07 153.304 376.826 148.441 370.458 147.693C367.836 147.319 365.214 143.579 366.337 140.96C367.087 139.464 370.832 136.846 373.454 139.838C379.073 145.823 389.561 147.319 389.936 148.067C389.936 148.441 373.08 142.082 374.204 145.823C375.702 149.563 384.317 153.304 383.194 153.304Z" fill="#6E6E6E"/>
<path d="M628.918 268.881C628.918 268.881 648.022 286.087 650.269 292.446C652.891 298.804 653.266 305.911 651.767 309.651C650.269 313.392 649.145 316.384 649.145 316.384C649.145 316.384 658.135 307.033 655.888 298.056C654.015 289.453 628.918 268.881 628.918 268.881Z" fill="#6E6E6E"/>
<path d="M619.178 150.685C624.422 151.433 615.057 151.807 643.151 148.067C657.385 146.197 665.251 136.472 673.117 133.106C680.983 129.739 701.21 122.259 701.21 122.259C701.21 122.259 671.244 131.609 667.124 132.732C663.003 133.48 654.014 138.342 644.274 142.831C631.539 148.067 619.178 150.685 619.178 150.685Z" fill="#6E6E6E"/>
<path d="M529.654 148.815C529.654 148.815 579.473 154.8 598.577 166.769C607.192 172.006 631.54 192.952 631.54 192.952C631.54 192.952 611.687 160.784 582.845 154.426C568.985 151.059 529.654 148.815 529.654 148.815Z" fill="#6E6E6E"/>
<path d="M385.066 146.571C385.066 146.571 412.036 153.678 415.407 152.93C418.778 152.182 423.273 149.937 431.14 148.815C439.006 147.693 462.979 150.685 462.979 150.685C462.979 150.685 437.882 149.189 431.514 151.059C425.146 152.93 419.902 155.922 415.033 155.922C409.789 155.548 385.066 146.571 385.066 146.571Z" fill="#6E6E6E"/>
<path d="M439.756 164.525C439.756 164.525 438.632 160.784 440.88 160.036C443.127 158.914 457.361 157.792 457.361 157.792C457.361 157.792 443.127 155.174 439.382 158.166C435.636 161.158 439.756 164.525 439.756 164.525Z" fill="#6E6E6E"/>
<path d="M607.941 126.747C600.824 133.854 600.075 136.846 594.456 137.594C590.336 138.342 585.466 137.968 583.219 137.968C571.232 136.472 538.269 126.373 513.921 129.739C495.193 132.358 461.48 151.059 461.48 151.059C461.48 151.059 494.443 138.342 507.928 135.35C521.413 132.732 539.018 134.976 554.001 136.472C565.239 137.594 592.958 140.212 597.827 139.09C604.57 137.594 606.817 133.48 611.687 128.617C616.556 123.755 633.038 107.671 633.038 107.671C633.038 107.671 615.058 119.64 607.941 126.747Z" fill="#6E6E6E"/>
<path d="M464.852 158.166C464.852 158.166 469.347 159.662 471.594 159.288C473.841 158.914 476.838 157.418 476.838 157.418C476.838 157.418 474.591 161.907 471.969 161.907C469.347 162.281 464.852 158.166 464.852 158.166Z" fill="#6E6E6E"/>
<path d="M707.58 125.999C707.58 125.999 709.828 125.999 711.326 126.747C713.199 127.495 713.199 130.861 716.57 130.113C719.941 129.365 719.192 127.121 722.189 125.999C725.56 124.503 751.78 120.762 751.78 120.762C751.78 120.762 722.938 123.381 719.567 125.251C718.068 126.373 716.57 126.747 715.072 125.999C712.45 124.877 707.58 125.999 707.58 125.999Z" fill="#6E6E6E"/>
<path d="M707.954 88.5952C707.954 88.5952 713.198 90.8394 713.948 93.0837C716.195 97.5721 710.576 101.687 709.827 105.801C706.83 118.144 701.961 121.511 701.961 121.511C701.961 121.511 713.573 99.8163 712.449 94.9538C711.325 90.4654 707.954 88.5952 707.954 88.5952Z" fill="#6E6E6E"/>
<path d="M652.142 94.5798C652.142 94.5798 634.911 77.7481 637.533 72.1376C638.657 69.8933 642.403 68.0231 645.774 64.6568C651.018 59.4203 670.122 42.9626 670.122 42.9626C670.122 42.9626 643.901 68.7712 641.279 73.6337C639.032 78.8702 652.142 94.5798 652.142 94.5798Z" fill="#6E6E6E"/>
<path d="M674.99 89.3433C660.756 93.8317 661.131 93.8317 636.783 103.557C660.382 93.0836 655.887 95.7019 663.378 90.0913C667.873 86.725 668.622 79.6183 674.616 77.7481C680.609 75.8779 684.729 78.1221 686.602 79.6183C688.85 81.4885 689.973 84.4808 691.097 84.4808C692.595 84.4808 696.341 85.2288 696.341 85.2288C696.341 85.2288 687.726 84.8548 674.99 89.3433Z" fill="#6E6E6E"/>
<path d="M686.228 82.6105C686.977 85.2288 683.232 85.2288 678.737 86.725C673.493 88.5951 671.62 88.5951 670.871 85.6028C670.121 82.6105 673.118 78.4961 677.613 77.7481C681.733 77 685.479 79.9923 686.228 82.6105Z" fill="white"/>
<path d="M677.238 78.8703C677.238 78.8703 679.486 79.6183 680.235 81.1145C680.984 82.2366 680.235 84.8549 680.235 84.8549C680.235 84.8549 682.108 82.2366 681.359 80.3664C680.235 78.4962 677.238 78.8703 677.238 78.8703Z" fill="#6E6E6E"/>
<path d="M715.07 121.136C715.07 121.136 735.298 116.274 738.669 116.274C742.04 116.274 749.157 117.022 749.157 117.022C749.157 117.022 743.164 117.396 739.043 117.396C734.923 117.77 715.07 121.136 715.07 121.136Z" fill="#6E6E6E"/>
<path d="M625.921 248.683C625.921 248.683 624.422 253.172 622.55 255.79C621.051 257.66 618.055 260.278 618.804 262.523C619.553 264.767 622.55 264.393 624.048 265.141C626.295 266.263 628.917 268.507 628.917 268.507C628.917 268.507 626.295 264.393 624.048 262.897C621.051 261.026 621.8 259.53 622.55 258.034C623.299 256.912 625.921 248.683 625.921 248.683Z" fill="#6E6E6E"/>
<path d="M648.396 74.0077C648.396 74.0077 670.122 52.6876 671.995 50.0693C673.868 47.4511 677.239 44.0847 679.861 42.9626C682.109 41.8405 683.232 40.7184 683.232 40.7184C683.232 40.7184 680.236 40.3444 677.988 42.2146C675.366 43.7107 648.396 74.0077 648.396 74.0077Z" fill="#6E6E6E"/>
<path d="M621.801 115.9C621.801 115.9 637.908 102.435 640.904 100.938C643.901 99.4423 651.018 97.5721 651.018 97.5721C651.018 97.5721 645.774 100.564 642.028 102.435C638.657 103.931 621.801 115.9 621.801 115.9Z" fill="#BDBDBD"/>
</svg>
