<svg width="729" height="80" viewBox="0 0 729 80" fill="none" xmlns="http://www.w3.org/2000/svg">
<path d="M717.272 0.783508H690.301V57.9747H717.272V0.783508Z" fill="black"/>
<path d="M717.664 65.2214H0V79.911H717.664V65.2214Z" fill="black"/>
<path d="M723.528 3.32969V4.89658H724.31C724.701 4.89658 725.092 4.89658 725.287 4.70072C725.482 4.50485 725.482 4.30899 725.482 4.11313C725.482 3.91727 725.287 3.72141 725.091 3.52555C724.896 3.32969 724.505 3.32969 724.114 3.32969H723.528ZM722.355 2.74211H724.31C725.092 2.74211 725.678 2.93797 725.873 3.13383C726.264 3.32969 726.46 3.72141 726.46 4.11313C726.46 4.50485 726.264 4.70071 726.069 5.09244C725.873 5.2883 725.678 5.48416 725.287 5.48416L726.46 7.83448H725.287L724.31 5.68002H723.528V7.83448H722.355V2.74211ZM724.31 1.56695C723.723 1.56695 723.332 1.56695 722.746 1.76281C722.355 1.95867 721.964 2.15453 721.574 2.54625C721.183 2.93797 720.987 3.32969 720.596 3.91727C720.401 4.30899 720.205 4.89658 720.205 5.2883C720.205 5.87588 720.205 6.2676 720.596 6.65932C720.792 7.05104 720.987 7.44276 721.378 7.83448C721.769 8.2262 722.16 8.42206 722.746 8.61792C723.137 8.81378 723.723 9.00964 724.114 9.00964C724.701 9.00964 725.091 9.00964 725.678 8.81378C726.069 8.61792 726.655 8.42206 727.046 8.03034C727.437 7.63862 727.632 7.2469 727.828 6.85518C728.023 6.46346 728.219 5.87588 728.219 5.48416C728.219 4.89658 728.219 4.50485 728.023 3.91727C727.828 3.52555 727.632 3.13383 727.241 2.74211C726.85 2.35039 726.46 2.15453 725.873 1.95867C725.287 1.56695 724.896 1.56695 724.31 1.56695ZM724.31 0.783508C724.896 0.783508 725.482 0.979369 726.069 1.17523C726.655 1.37109 727.046 1.76281 727.632 2.15453C728.023 2.54625 728.414 3.13383 728.609 3.52555C728.805 4.11313 729 4.70072 729 5.2883C729 5.87588 728.805 6.46346 728.609 7.05104C728.414 7.63862 728.023 8.03034 727.632 8.42206C727.241 8.81378 726.655 9.2055 726.069 9.40136C725.482 9.79308 724.896 9.79308 724.31 9.79308C723.723 9.79308 723.137 9.59722 722.551 9.40136C721.964 9.2055 721.574 8.81378 720.987 8.42206C720.596 8.03034 720.205 7.44276 720.01 7.05104C719.815 6.46346 719.619 5.87588 719.619 5.2883C719.619 4.70072 719.815 4.11313 720.01 3.52555C720.205 2.93797 720.596 2.54625 720.987 1.95867C721.378 1.56695 721.964 1.17523 722.551 0.979369C723.137 0.979369 723.723 0.783508 724.31 0.783508Z" fill="black"/>
<path d="M34.5933 35.8425H46.3198L42.8018 25.2661C42.411 23.8951 41.8246 22.3282 41.4338 20.7613C41.0429 19.1944 40.652 17.4317 40.4565 15.6689C40.0657 17.6275 39.8702 19.1944 39.4793 20.7613C39.0884 22.3282 38.6976 23.6992 38.3067 25.0702L34.5933 35.8425ZM0 57.9748L18.1761 3.32971H62.5415L80.7176 57.9748H51.4013L49.2514 50.9238H31.4662L29.1209 57.9748H0Z" fill="black"/>
<path d="M80.1328 11.9475H107.104V38.9762C107.104 41.1307 107.495 42.6976 108.472 43.8727C109.254 44.852 110.817 45.4396 112.576 45.4396C114.531 45.4396 115.899 44.852 116.876 43.8727C117.853 42.8934 118.244 41.3265 118.244 38.9762V11.9475H145.215V39.5638C145.215 46.6148 142.674 51.903 137.593 55.0368C132.511 58.1705 124.303 59.7374 112.772 59.7374C101.241 59.7374 92.8366 58.1705 87.7551 55.0368C82.6736 51.903 80.1328 46.8106 80.1328 39.5638V11.9475Z" fill="black"/>
<path d="M173.945 36.4301C173.945 39.368 174.727 41.5225 176.095 43.0893C177.463 44.6562 179.613 45.4397 182.349 45.4397C185.085 45.4397 187.235 44.6562 188.603 43.0893C189.971 41.5225 190.753 39.368 190.753 36.2342C190.753 33.4922 189.971 31.3377 188.408 29.575C186.844 28.0081 184.89 27.2247 182.153 27.2247C179.417 27.2247 177.267 28.0081 175.899 29.575C174.531 31.3377 173.945 33.4922 173.945 36.4301ZM188.994 57.9747V56.9954C188.994 56.4078 188.994 55.8203 188.994 55.2327C188.994 54.6451 189.189 54.0575 189.189 53.4699C187.235 55.6244 184.89 57.1913 182.153 58.1706C179.417 59.1499 175.899 59.7375 171.99 59.7375C163.977 59.7375 157.919 57.7789 154.01 53.6658C150.101 49.5527 148.146 43.2852 148.146 34.8632C148.146 26.6371 150.101 20.3695 154.01 16.4523C157.919 12.5351 163.977 10.5765 172.381 10.5765C175.899 10.5765 179.026 11.1641 181.763 12.3393C184.499 13.5144 187.039 15.2772 189.385 17.6275C189.189 17.0399 189.189 16.2565 189.189 15.473C189.189 14.6896 189.189 13.5144 189.189 11.9475V0.783508H215.965V57.9747H188.994Z" fill="black"/>
<path d="M223.391 9.59716C222.218 9.59716 221.436 9.4013 221.046 9.00958C220.655 8.61786 220.459 7.24683 220.459 4.89651C220.459 2.54618 220.655 1.17516 221.046 0.783441C221.436 0.391721 222.218 0 223.391 0H243.717C244.89 0 245.671 0.19586 246.062 0.783441C246.453 1.37102 246.649 2.54618 246.649 4.89651C246.649 7.24683 246.453 8.61786 246.062 9.00958C245.671 9.4013 244.89 9.79302 243.717 9.79302H223.391V9.59716ZM220.068 57.9747V12.3392C221.046 12.5351 222.023 12.7309 223 12.9268C224.173 13.1226 225.541 13.1226 227.3 13.1226H239.613C241.372 13.1226 242.74 13.1226 243.912 12.9268C245.085 12.7309 246.062 12.5351 247.039 12.3392V57.9747H220.068Z" fill="black"/>
<path d="M282.61 44.852C285.151 44.852 287.301 44.0685 288.669 42.5017C290.232 40.9348 290.819 38.5844 290.819 35.6465C290.819 32.7086 290.037 30.3583 288.669 28.7914C287.301 27.2245 285.151 26.4411 282.415 26.4411C279.678 26.4411 277.724 27.2245 276.16 28.7914C274.792 30.3583 274.01 32.5128 274.01 35.2548C274.01 38.3886 274.792 40.7389 276.16 42.3058C277.919 44.0685 279.874 44.852 282.61 44.852ZM281.633 59.5415C270.883 59.5415 262.675 57.387 257.398 53.274C251.926 49.1609 249.385 42.8934 249.385 34.4714C249.385 26.2452 252.121 20.1736 257.398 16.2564C262.87 12.3392 271.274 10.3806 282.61 10.3806C294.141 10.3806 302.545 12.3392 307.822 16.2564C313.099 20.1736 315.835 26.2452 315.835 34.6672C315.835 43.0892 313.099 49.3568 307.431 53.274C301.959 57.5829 293.359 59.5415 281.633 59.5415Z" fill="black"/>
<path d="M381.699 56.6037C376.618 57.583 371.927 58.3665 367.432 58.954C362.937 59.5416 358.637 59.7375 354.728 59.7375C342.025 59.7375 332.448 57.3872 326.194 52.4907C319.94 47.5941 316.812 40.3473 316.812 30.7502C316.812 21.153 319.94 13.9062 326.389 9.20551C332.643 4.50486 342.415 2.15454 355.315 2.15454C358.833 2.15454 362.741 2.3504 367.041 2.74212C371.341 3.13384 376.227 3.72142 381.895 4.50487V25.8536C377.986 25.2661 374.272 24.6785 371.145 24.2868C367.823 23.895 365.087 23.895 362.546 23.895C357.269 23.895 353.556 24.6785 351.015 26.0495C348.474 27.4205 347.301 29.575 347.301 32.5129C347.301 35.2549 348.474 37.2135 350.624 38.3887C352.774 39.7597 356.096 40.3473 360.396 40.3473C364.11 40.3473 367.823 40.1514 371.341 39.7597C374.859 39.368 378.572 38.7804 382.09 37.8011V56.6037H381.699Z" fill="black"/>
<path d="M416.489 44.852C419.03 44.852 421.179 44.0685 422.548 42.5017C424.111 40.9348 424.697 38.5844 424.697 35.6465C424.697 32.7086 423.916 30.3583 422.548 28.7914C421.179 27.2245 419.03 26.4411 416.293 26.4411C413.557 26.4411 411.603 27.2245 410.039 28.7914C408.671 30.3583 407.889 32.5128 407.889 35.2548C407.889 38.3886 408.671 40.7389 410.039 42.3058C411.798 44.0685 413.753 44.852 416.489 44.852ZM415.512 59.5415C404.762 59.5415 396.554 57.387 391.277 53.274C385.804 49.1609 383.264 42.8934 383.264 34.4714C383.264 26.2452 386 20.1736 391.277 16.2564C396.749 12.3392 405.153 10.3806 416.489 10.3806C428.02 10.3806 436.424 12.3392 441.701 16.2564C446.978 20.1736 449.714 26.2452 449.714 34.6672C449.714 43.0892 446.978 49.3568 441.31 53.274C435.838 57.5829 427.238 59.5415 415.512 59.5415Z" fill="black"/>
<path d="M452.059 57.9747V11.9476H477.857V14.8855C477.857 15.473 477.857 16.2565 477.857 17.2358C477.857 18.2151 477.662 19.1944 477.662 20.3696C479.616 17.0399 482.352 14.6896 485.87 13.1227C489.388 11.5558 493.688 10.7724 498.769 10.7724C502.678 10.7724 506.196 11.36 509.128 12.5351C512.059 13.7103 514.405 15.2772 516.359 17.6275C517.532 19.1944 518.509 20.7613 518.9 22.7199C519.291 24.6785 519.682 28.0081 519.682 32.9046V58.3665H492.711V39.368C492.711 35.8425 492.124 33.2963 491.147 31.9253C490.17 30.5543 488.411 29.7709 486.066 29.7709C483.525 29.7709 481.766 30.5543 480.593 31.9253C479.42 33.2963 478.834 35.6467 478.834 38.9763V58.1706H452.059V57.9747Z" fill="black"/>
<path d="M567.76 57.7789C563.851 58.3665 560.138 58.954 556.229 59.1499C552.515 59.5416 548.802 59.5416 545.088 59.5416C539.421 59.5416 535.316 58.5623 532.58 56.4079C529.844 54.4493 528.671 51.3155 528.671 47.0066V29.9667H520.658V20.1737C523.785 17.6275 527.108 14.8855 530.43 11.7517C533.753 8.81379 537.075 5.48417 540.593 2.15454H555.252V11.7517H573.623V29.9667H556.033V39.7597C556.033 41.5225 556.424 42.6976 557.401 43.2852C558.379 43.8728 559.942 44.2645 562.483 44.2645C563.655 44.2645 564.828 44.2645 566.196 44.0687C567.564 44.0687 569.128 43.8728 570.887 43.6769L567.76 57.7789Z" fill="black"/>
<path d="M575.773 57.9747V11.9475H600.79V22.7198C601.767 18.4109 603.331 15.2771 605.481 13.3185C607.63 11.3599 610.758 10.5765 614.471 10.5765C615.448 10.5765 617.012 10.7723 619.357 11.1641C620.334 11.3599 620.921 11.5558 621.507 11.5558V36.8218H620.921C618.771 36.8218 617.207 36.6259 616.23 36.6259C610.953 36.6259 607.435 37.4093 605.481 38.7804C603.526 40.1514 602.549 42.8934 602.549 46.6148V57.9747H575.773Z" fill="black"/>
<path d="M654.731 44.852C657.272 44.852 659.422 44.0685 660.79 42.5017C662.353 40.9348 662.94 38.5844 662.94 35.6465C662.94 32.7086 662.158 30.3583 660.79 28.7914C659.422 27.2245 657.272 26.4411 654.536 26.4411C651.799 26.4411 649.845 27.2245 648.281 28.7914C646.913 30.3583 646.132 32.5128 646.132 35.2548C646.132 38.3886 646.913 40.7389 648.281 42.3058C650.04 44.0685 651.995 44.852 654.731 44.852ZM653.754 59.5415C643.005 59.5415 634.796 57.387 629.519 53.274C624.047 49.1609 621.506 42.8934 621.506 34.4714C621.506 26.2452 624.242 20.1736 629.519 16.2564C634.991 12.3392 643.395 10.3806 654.731 10.3806C666.262 10.3806 674.666 12.3392 679.943 16.2564C685.22 20.1736 687.956 26.2452 687.956 34.6672C687.956 43.0892 685.22 49.3568 679.552 53.274C673.884 57.1912 665.48 59.5415 653.754 59.5415Z" fill="black"/>
</svg>
