<svg width="570" height="153" viewBox="0 0 570 153" fill="none" xmlns="http://www.w3.org/2000/svg">
<path fill-rule="evenodd" clip-rule="evenodd" d="M503.817 135.635C506.266 125.744 510.414 117.021 513.263 107.346C513.839 105.391 513.922 103.428 512.386 101.693C510.872 99.9833 509.656 99.4736 507.559 98.7617C496.491 95.0043 486.159 102.931 483.905 113.323C481.714 123.426 476.414 132.137 474.644 142.342C474.384 143.839 475.209 145.281 476.18 146.369C476.612 146.853 476.993 147.395 477.646 147.714C478.298 148.033 478.687 148.271 479.343 148.495C489.549 151.978 501.275 145.904 503.817 135.635ZM486.218 152.85C494.106 152.82 502.115 152.461 509.962 151.487C518.067 150.482 526.326 149.615 533.558 145.114C538.354 130.272 544.089 116.678 548.204 101.326C533.951 94.334 518.338 94.7527 503.183 94.6709C487.769 94.5877 471.893 95.4089 457.305 100.51C456.079 100.938 455.26 102.375 454.47 103.282C453.907 103.926 453.784 104.901 453.475 105.786C448.867 118.936 444.568 131.514 439.873 144.881C445.771 150.804 454.618 150.952 462.496 151.861C470.232 152.753 478.339 152.88 486.218 152.85Z" fill="black"/>
<path fill-rule="evenodd" clip-rule="evenodd" d="M72.1125 140.632C70.6859 130.793 69.0318 122.554 66.6399 112.881C59.4037 119.492 52.5382 126.421 46.2124 133.702C55.3763 136.522 62.9366 139.029 72.1125 140.632ZM1.59551 152.233C10.4193 151.851 18.52 152.198 27.2369 152.057C32.8861 147.656 37.0575 141.524 42.8228 137.146C52.9525 140.461 62.9242 143.335 73.1821 145.79C74.0659 147.918 73.937 149.48 74.8864 151.99C87.4953 152.061 100.522 152.32 113.014 151.86C114.158 151.817 113.26 148.516 112.011 149.419C111.101 150.075 110.483 149.252 109.503 149.368C106.522 149.719 104.934 147.178 104.345 144.676C100.825 129.753 96.4711 114.885 93.1311 99.994C97.0279 97.3971 99.6967 98.4358 103.647 97.5473C105.354 97.1633 104.233 95.049 102.724 95.096C85.6601 95.6296 68.6171 94.8283 51.6939 95.5003C50.5133 95.5474 51.264 98.3045 52.5982 98.0755C55.477 97.5816 57.2668 97.7473 60.3582 100.087C44.67 115.693 28.0165 130.501 12.0394 145.858C10.5522 147.288 8.9737 148.602 6.81175 149.112C5.01058 149.538 3.81794 149.561 1.58554 149.513C-0.759889 149.463 -0.286747 152.315 1.59551 152.233Z" fill="black"/>
<path fill-rule="evenodd" clip-rule="evenodd" d="M172.283 152.05C188.957 152.068 205.589 152.136 222.38 152.006C224.08 151.992 223.852 148.828 221.536 149.382C218.818 150.032 218.628 149.027 214.998 148.202C219.023 132.859 225.022 117.698 229.666 102.397C230.108 100.938 230.968 99.6021 232.488 98.9706C235.064 97.8995 237.268 97.8257 240.272 97.7789C242.018 97.7514 241.77 95.1589 240.229 95.1919C226.217 95.492 212.748 95.0262 198.767 95.4112C195.273 105.185 192.362 114.816 189.051 124.514C187.31 129.612 185.84 134.673 183.905 139.783C181.801 145.34 175.034 147.68 169.785 148.597C164.756 149.475 156.525 147.513 156.923 141.602C157.303 135.951 159.941 131.411 161.448 126.219C164.46 115.831 168.487 106.328 171.173 95.4851C156.718 95.25 142.342 94.9438 128.165 95.5693C126.857 95.6271 128.482 98.7768 129.867 98.1563C132.242 97.0931 134.053 98.4619 136.571 99.7393C132.321 114.953 126.868 129.21 122.168 144.539C128.782 150.583 138.338 150.294 146.854 151.272C155.163 152.226 163.793 152.04 172.283 152.05Z" fill="black"/>
<path fill-rule="evenodd" clip-rule="evenodd" d="M293.404 148.47C299.786 149.212 304.657 148.124 309.61 144.808C315.001 141.199 315.135 134.288 317.53 128.686C319.748 123.498 320.392 117.888 323.043 112.646C325.814 107.166 324.245 99.8283 317.621 98.9861C311.223 98.1725 306.067 99.1336 301.236 102.82C296.257 106.618 296.018 113.118 293.781 118.547C291.636 123.75 290.866 129.362 288.302 134.546C285.59 140.029 286.62 147.682 293.404 148.47ZM241.839 152.406C275.249 150.352 309.487 155.917 342.129 146.65C344.406 146.004 345.86 143.764 346.563 141.476C350.647 128.185 355.336 116.326 359.087 102.175C343.774 94.5447 326.358 95.624 309.69 95.302C293.104 94.981 276.355 95.5257 259.612 95.1696C257.785 95.1308 257.011 98.2773 259.505 97.9693C262.61 97.5858 263.48 98.1065 266.417 99.8108C262.017 114.583 256.645 129.204 252.09 144.005C251.42 146.182 250.273 148.326 247.776 148.863C245.584 149.334 244.35 149.778 241.675 149.508C239.257 149.263 240.035 152.517 241.839 152.406Z" fill="black"/>
<path fill-rule="evenodd" clip-rule="evenodd" d="M364.008 152.16C381.032 151.814 397.954 152.243 414.957 151.995C416.144 151.978 416.419 149.45 415.004 149.53C412.945 149.647 411.757 149.384 409.783 148.99C407.707 148.575 407.186 146.598 407.756 144.871C412.352 130.936 416.966 117.171 421.497 103.249C422.217 101.041 423.36 98.952 425.955 98.4454C428.195 98.0082 429.466 97.7988 432.038 97.8284C434.305 97.8542 433.765 95.1349 431.982 95.1748C414.799 95.5594 397.881 94.8843 380.878 95.4576C379.708 95.4968 380.594 98.431 381.822 98.0951C384.512 97.3585 386.932 98.0498 389.127 100.102C384.521 115.155 379.289 129.859 374.505 144.887C373.932 146.689 372.77 148.109 370.88 148.822C368.258 149.811 365.708 149.021 363.162 150.061C362.091 150.497 362.906 152.183 364.008 152.16Z" fill="black"/>
<path fill-rule="evenodd" clip-rule="evenodd" d="M31.4359 86.4043C40.8153 86.3321 50.9979 84.6708 58.4754 78.5574C60.2165 77.134 61.0796 74.9025 61.4236 72.7042C62.4901 65.8879 63.4979 59.0504 64.55 52.1813C64.7561 50.8341 64.6455 49.3654 62.8873 49.5106C61.4198 49.6321 60.6456 49.4358 59.4499 49.3874C57.6061 49.3126 55.9207 49.5414 54.3168 50.2542C50.7265 51.8514 46.7593 52.2535 43.3971 54.4508C41.4791 63.2347 42.4546 74.7412 33.8315 80.3232C31.9575 81.5362 29.8299 81.5868 27.9274 80.3679C23.1936 77.3358 24.1694 71.0086 24.3618 66.0494C17.5842 65.3007 10.9582 65.7504 4.20432 65.7607C3.09586 67.7138 3.18932 69.8725 2.75466 71.838C2.24235 74.1565 2.32687 77.0346 4.12048 78.7987C11.2327 85.7938 21.927 86.4779 31.4359 86.4043Z" fill="black"/>
<path fill-rule="evenodd" clip-rule="evenodd" d="M335.186 86.4091C344.994 86.2011 355.791 84.8427 363.406 78.0016C364.874 76.6827 365.505 74.7701 365.79 72.8414C368.108 57.1215 370.378 41.8259 372.656 25.8755C365.893 24.2317 359.228 24.1006 352.245 23.7653C350.546 33.2206 349.515 43.0904 347.841 52.3081C345.984 62.5413 347.193 75.2682 336.91 81.1317C335.801 81.7638 334.464 81.0746 333.541 80.8684C332.751 80.6921 331.329 80.4057 330.811 79.5185C325.624 70.6381 330.251 60.2384 331.12 50.6018C331.956 41.3331 334.252 31.8479 334.937 22.4383C327.93 21.7986 321.764 21.4484 314.646 21.4246C312.813 30.5473 311.842 39.8143 310.414 48.9387C309.665 53.716 308.844 58.6606 308.4 63.3359C307.944 68.1367 305.201 73.6089 307.967 77.8655C310.912 82.3976 316.597 84.1909 321.618 85.2806C325.92 86.2142 330.739 86.5033 335.186 86.4091Z" fill="black"/>
<path fill-rule="evenodd" clip-rule="evenodd" d="M564.31 85.438C565.44 85.4652 566.401 85.1338 566.681 83.761C567.062 81.8858 565.938 81.2341 564.07 81.2596C562.465 81.2816 562.473 79.258 561.373 78.6093C555.101 74.9062 549.003 70.5136 541.973 67.7238C540.571 73.8351 540.085 78.9839 539.451 85.1496C547.884 85.6212 555.927 85.2366 564.31 85.438Z" fill="black"/>
<path fill-rule="evenodd" clip-rule="evenodd" d="M138.192 85.6711C139.693 85.8663 141.674 84.6319 141.419 82.8349C141.25 81.6332 140.132 81.442 139.279 81.3589C138.089 81.2424 135.797 80.1166 135.913 78.6533C137.186 62.5888 140.55 46.7678 142.085 30.6009C134.735 31.282 128.28 32.5342 120.998 33.9624C119.712 41.9024 118.58 50.4636 117.49 58.1889C116.274 66.8118 115.898 78.6869 105.111 80.2317C103.64 80.4421 102.833 79.2944 102.001 78.5158C100.92 77.5052 99.5756 76.0522 99.4111 74.4333C98.1594 62.1057 102.503 50.1601 102.881 37.7093C95.6692 38.7468 88.9876 40.5543 81.78 42.5835C80.2351 52.2729 78.8889 62.2359 77.6945 71.7624C77.4444 73.7585 77.0176 76.692 78.7529 77.9604C95.8768 90.4762 118.779 83.1436 138.192 85.6711Z" fill="black"/>
<path fill-rule="evenodd" clip-rule="evenodd" d="M153.56 85.3913C161.932 85.3067 169.63 85.6398 178.256 85.1957C181.052 65.0179 184.26 45.1169 186.558 24.9128C178.901 25.4848 173.019 26.0348 165.704 27.257C162.985 44.1305 160.905 60.9916 158.414 77.8201C158.248 78.9441 157.089 79.8482 156.286 80.4541C155.795 80.8237 155.178 81.32 154.429 81.3513C152.756 81.4215 151.318 81.7301 151.267 83.7554C151.228 85.2548 152.382 85.403 153.56 85.3913Z" fill="black"/>
<path fill-rule="evenodd" clip-rule="evenodd" d="M220.656 85.5006C221.835 85.5621 222.985 84.8613 223.073 83.7382C223.329 80.4569 216.672 81.2176 217.42 77.1505C218.113 73.3827 218.378 70.8728 218.79 67.6808C219.573 61.5856 220.516 55.732 221.261 49.8283C222.049 43.5779 223.347 37.03 223.835 31.0585C224.08 28.0754 226.296 23.5224 223.865 22.3987C221.694 21.3955 218.144 22.47 215.479 22.47C212.54 22.4691 209.315 22.7753 206.128 23.1397C202.87 23.5119 203.734 28.2224 203.167 31.2266C202.101 36.8742 201.424 43.0349 200.61 48.9589C198.96 60.9459 197.06 72.9428 195.641 85.062C204.187 85.8663 212.231 85.0593 220.656 85.5006Z" fill="black"/>
<path fill-rule="evenodd" clip-rule="evenodd" d="M235.158 85.637C255.312 83.4605 278.195 90.0672 296.253 77.8833C298.258 76.5304 299.165 74.1974 299.52 71.8981C302.105 55.1055 304.268 38.5004 306.628 21.502C299.757 20.2049 293.296 20.7268 286.223 20.5913C284.192 30.6212 283.263 41.5979 281.582 51.3647C279.728 62.1276 281.234 77.1787 268.053 80.4923C267.011 80.7542 266.371 79.2345 265.707 79.0578C265.239 78.9338 264.308 78.5295 264.049 77.9236C260.144 68.8227 263.886 59.0354 264.791 49.6004C265.707 40.0544 267.748 30.5261 268.557 20.7162C261.502 20.586 254.605 20.0879 247.784 21.429C246.203 32.2825 244.842 42.572 243.271 53.2021C242.466 58.6465 241.757 63.9157 240.981 69.4259C240.578 72.2855 240.39 74.7694 239.688 77.8765C238.925 81.2543 234.445 80.6057 232.704 82.9294C231.859 84.0562 233.717 85.7927 235.158 85.637Z" fill="black"/>
<path fill-rule="evenodd" clip-rule="evenodd" d="M430.26 85.1173C446.143 85.5879 462.613 85.0083 478.53 85.2479C479.376 85.2607 480.517 85.3597 480.833 84.5849C481.162 83.7764 481.678 82.8129 481.075 82.0642C480.483 81.3297 479.641 81.3723 478.7 81.1804C476.363 80.7044 475.428 78.2756 475.761 76.1062C477.354 65.7222 478.747 55.7312 480.197 45.0879C473.837 42.4321 467.288 41.4316 460.397 39.8494C458.807 46.744 458.226 54.0891 457.186 60.7575C456.015 68.2741 455.042 78.2061 446.295 80.231C445.318 80.4569 444.61 79.7007 443.766 79.4419C443.194 79.2665 442.701 79.1101 442.247 78.6186C436.685 72.6007 439.932 64.5529 440.664 57.3864C441.371 50.483 442.811 43.4195 443.419 36.2688C436.749 34.4807 430.39 33.3878 423.319 32.5122C421.623 40.5525 420.796 49.4464 419.567 57.3477C418.221 66.0092 418.375 77.8497 408.097 80.4885C407.378 80.6731 406.88 79.7251 406.286 79.6549C405.693 79.5849 404.978 79.5236 404.522 78.9812C398.416 71.7022 402.257 62.3248 403.064 53.9378C403.83 45.9608 405.774 37.7058 406.109 29.5423C399.061 28.7178 393.193 27.3635 386.025 27.155C383.713 42.3767 381.74 57.5307 379.58 72.7049C379.458 73.5543 379.67 74.5734 379.985 75.2224C380.391 76.0571 380.501 77.565 381.439 78.2325C395.651 88.3453 413.756 84.6285 430.26 85.1173Z" fill="black"/>
<path fill-rule="evenodd" clip-rule="evenodd" d="M497.208 85.383C505.474 85.2469 513.341 85.469 521.731 85.2441C523.613 76.8438 524.138 68.9039 525.543 60.3008C519.238 57.0476 512.701 54.6409 505.872 52.9029C504.152 61.1817 503.706 68.9179 502.233 77.002C501.969 78.4567 501.249 79.6666 499.871 80.4397C499.226 80.8013 498.837 81.1385 498.046 81.2148C496.272 81.386 495.128 81.7937 494.978 83.7547C494.866 85.2359 496.038 85.4023 497.208 85.383Z" fill="black"/>
<path fill-rule="evenodd" clip-rule="evenodd" d="M562.48 67.0167C565.176 49.2141 567.656 31.7643 569.933 14.1833C570.269 11.5839 569.344 8.47054 567.026 7.09163C549.403 -3.38882 527.635 2.95665 508.389 0.71624C507.331 0.593048 506.049 2.18578 506.152 3.20479C506.259 4.26252 506.858 5.15569 508.237 5.16273C511.281 5.17681 512.002 8.27343 511.656 10.7708C510.199 21.2768 508.578 31.5531 507.267 42.2579C513.788 44.787 520.242 47.3081 526.952 49.3804C528.291 42.3301 528.892 35.3853 530.034 28.6254C531.317 21.0409 530.97 12.162 538.027 7.3125C539.107 6.57069 540.149 6.23014 541.328 6.34629C542.52 6.46421 543.912 6.23894 544.85 7.19195C551.545 14.0047 547.425 23.6659 546.647 32.0265C545.897 40.0782 544.003 48.4204 543.36 56.7713C549.934 60.1847 555.848 63.855 562.48 67.0167Z" fill="black"/>
<path fill-rule="evenodd" clip-rule="evenodd" d="M35.7507 46.0304C36.485 46.0524 36.2716 45.6344 37.1821 45.5191C41.0006 45.0369 41.0295 42.9337 38.4085 41.6481C35.4721 40.2076 33.9609 38.4934 31.2543 37.169C26.9741 35.0747 30.6581 28.6703 30.6396 25.1557C30.599 17.4691 34.7903 1.51525 44.9737 6.43694C49.9866 8.85862 48.0943 15.3915 48.5626 19.4367C48.7877 21.3788 52.4203 20.5041 54.3957 20.6273C56.1301 20.7365 58.332 20.6177 60.2995 20.6608C62.549 20.7101 64.6581 20.5675 67.142 20.7488C69.5032 20.9212 69.5575 17.7446 69.8396 15.8042C70.1413 13.7301 70.5601 11.033 69.4166 9.08741C68.1133 6.869 65.8789 5.07209 63.5637 3.96509C55.6625 0.18737 46.0303 -0.443562 37.4127 0.241936C28.6498 0.937992 18.2918 2.47001 12.8255 9.86969C10.0086 13.6835 10.9501 19.1455 9.8317 23.467C9.28607 25.5754 9.08059 28.2127 8.9132 30.227C8.76234 32.0423 7.33883 34.9339 8.5916 36.1289C10.0258 37.4973 13.1897 36.6023 15.3411 37.1506C17.2545 37.6372 19.4784 37.8959 21.4091 38.694C25.5044 40.388 29.5744 42.2905 33.1555 44.9832C33.9032 45.5455 34.5865 45.9943 35.7507 46.0304Z" fill="black"/>
<path fill-rule="evenodd" clip-rule="evenodd" d="M481.345 34.6479C483.436 25.8711 483.602 16.9816 485.616 8.17838C486.151 5.83942 489.114 5.11609 491.398 4.6057C493.326 4.1754 492.648 0.65287 490.561 0.786625C481.995 1.33749 474.279 0.564869 465.691 1.18085C464.237 10.8535 462.601 20.2287 461.811 29.9295C468.722 31.5267 474.47 33.1502 481.345 34.6479Z" fill="black"/>
<path fill-rule="evenodd" clip-rule="evenodd" d="M85.6512 31.4721C92.114 29.5379 98.1131 28.8691 104.621 27.0467C105.818 18.3623 107.346 10.1583 108.098 1.30405C99.8529 0.611511 92.114 1.28117 84.0015 0.985498C82.4986 0.930941 80.9115 1.18261 80.8644 3.11855C80.8255 4.70954 81.7942 5.03161 83.1497 5.11345C85.5353 5.25512 86.5177 7.77272 86.2233 9.91281C85.3195 16.4844 84.5922 22.7956 83.4136 29.5036C83.1593 30.9503 84.2293 31.8971 85.6512 31.4721Z" fill="black"/>
<path fill-rule="evenodd" clip-rule="evenodd" d="M444.599 26.3964C446.108 20.8174 446.281 15.4434 447.258 9.87144C447.485 8.57349 447.855 7.4744 448.853 6.4642C450.295 5.00344 452.202 5.09672 453.967 4.55818C454.473 4.40418 454.458 3.54797 454.597 3.06135C454.754 2.5096 454.553 2.10042 454.461 1.08317C449.014 0.81566 443.346 0.975821 437.86 0.945021C435.065 0.930061 432.077 0.727667 429.404 0.998699C426.575 1.28645 422.718 -0.389017 421.036 2.31689C420.16 3.72749 421.889 5.37303 423.368 5.14248C424.501 4.9656 425.739 6.24597 425.947 7.40137C426.837 12.3257 424.38 17.3662 424.797 22.6002C431.453 24.0337 437.836 24.9885 444.599 26.3964Z" fill="black"/>
<path fill-rule="evenodd" clip-rule="evenodd" d="M124.661 23.4635C131.224 22.2421 137.198 21.6252 143.654 20.2736C144.185 17.0652 144.777 13.973 145.064 10.7734C145.265 8.53652 146.371 6.37355 148.512 5.4311C149.6 4.95064 150.81 5.19879 151.781 4.68401C152.546 4.27746 152.56 3.11238 152.511 2.22624C152.457 1.23892 151.196 0.937088 150.198 0.974047C142.063 1.27676 133.901 0.681015 125.74 1.24684C123.985 8.01117 124.095 14.2783 122.678 20.9864C122.373 22.4304 123.199 23.7363 124.661 23.4635Z" fill="black"/>
<path fill-rule="evenodd" clip-rule="evenodd" d="M407.603 19.9489C408.842 13.5568 409.726 7.71992 410.18 1.1703C401.945 0.627354 394.188 1.1307 386.061 0.859674C384.524 0.807756 382.966 1.18789 382.866 3.10535C382.785 4.64882 383.864 5.04305 385.247 5.00081C385.933 4.97969 386.261 5.39065 386.834 5.75407C388.321 6.69564 388.47 8.30687 388.346 9.90841C388.144 12.4894 387.26 14.7122 387.651 17.5325C394.413 18.2136 400.69 19.4411 407.603 19.9489Z" fill="black"/>
<path fill-rule="evenodd" clip-rule="evenodd" d="M169.687 17.2086C175.988 16.3938 181.941 15.7778 188.283 15.2683C190.031 12.0687 191.614 8.47845 195.197 6.81267C196.905 6.01894 198.478 6.16766 200.296 6.85492C202.723 7.77273 203.218 10.4734 204.395 12.3979C206.092 15.1733 210.782 13.1141 213.883 13.203C216.987 13.2928 220.807 12.609 223.982 12.7842C224.767 12.8282 226.016 12.3274 225.945 11.6208C225.893 11.1087 226.133 10.2331 225.7 9.75882C217.975 1.2759 205.848 1.11662 195.131 1.02159C185.423 0.935349 175.276 1.10782 165.485 0.984623C164.093 0.967024 162.552 1.27766 162.505 3.11328C162.466 4.65675 163.274 5.11873 164.587 5.11081C167.038 5.09673 168.32 7.72873 167.882 9.93394C167.543 11.6384 167.822 13.1212 167.233 15.0756C166.728 16.7493 168.204 17.4014 169.687 17.2086Z" fill="black"/>
<path fill-rule="evenodd" clip-rule="evenodd" d="M373.48 16.0128C374.109 15.205 374.436 14.7571 374.508 14.149C374.777 11.8708 374.391 8.9519 372.559 7.29228C364.947 0.399462 353.475 -0.297476 343.691 0.13019C333.685 0.567535 321.667 2.33628 315.947 11.5021C319.863 12.6434 322.518 12.1919 325.827 12.5096C329.749 12.8854 333.276 12.9302 337.301 12.9127C338.77 9.49572 341.29 5.65641 345.364 5.26658C346.929 5.11699 348.329 5.57105 349.53 6.5531C350.709 7.51755 351.489 8.73895 352.175 10.0193C352.557 10.7321 352.198 11.8936 352.589 12.5703C354.44 15.7778 359.69 14.281 363.231 15.0325C366.41 15.7083 370.403 15.3942 373.48 16.0128Z" fill="black"/>
<path fill-rule="evenodd" clip-rule="evenodd" d="M271.519 11.5029C273.429 7.99974 280.183 3.55149 283.183 8.3403C286.305 13.3262 292.003 10.9388 297.01 11.4712C299.54 11.7405 302.106 11.6631 304.628 11.766C305.91 11.8179 307.635 11.2759 306.838 9.98055C305.902 8.45908 304.948 7.49993 303.683 6.62435C299.45 3.69581 294.37 2.53072 289.338 1.78626C279.835 0.379189 270.141 1.25916 260.496 1.03037C255.682 0.916855 251.004 1.15269 246 0.958219C243.556 0.863182 242.978 5.39591 246.034 5.21111C249.676 4.99024 249.23 9.35402 249.78 11.6208C257.289 11.5548 263.813 11.4202 271.519 11.5029Z" fill="black"/>
</svg>
