<svg width="375" height="204" viewBox="0 0 375 204" fill="none" xmlns="http://www.w3.org/2000/svg">
<path d="M266.228 0.0741177L301.915 0.0746212C302.42 4.90987 303.488 10.4611 304.305 15.3461L308.448 40.3676C311.998 63.5534 315.745 86.7086 319.688 109.831C319.845 110.711 320.008 112.306 320.558 112.941L320.958 112.811L320.96 112.601C321.05 109.426 321.733 106.311 322.2 103.176L325.305 82.4269L334.32 22.5429C335.418 15.0449 336.633 7.93663 337.555 0.372625C341.005 -0.116125 349.558 0.0241248 353.353 0.0751248C359.633 0.159625 367.063 -0.126124 373.253 0.148626C373.503 4.33213 373.388 9.28962 373.385 13.5259L373.383 34.6184L373.375 100.609L373.378 141.729C373.383 146.034 373.66 158.401 373.183 162.041C368.255 162.081 363.328 162.091 358.4 162.071C355.728 162.071 351.878 161.976 349.263 162.224C348.825 159.201 348.99 153.544 348.993 150.301L349.01 130.539L349 71.6506C348.995 64.9409 349.305 57.3521 349.18 50.8234C348.66 50.6251 348.928 50.6934 348.28 50.8224C347.238 60.3084 345.44 71.1074 343.975 80.6106L337.37 124.026L333.555 149.114C333.265 151.111 332.075 160.389 331.573 161.981C324.098 162.291 314.993 162.111 307.415 162.061C306.218 153.649 304.633 144.971 303.24 136.564L294.025 80.9011C292.618 72.0891 289.675 58.0646 289.295 49.7124C288.248 53.6904 288.583 56.1296 288.638 60.1781C288.708 64.7996 288.733 69.4216 288.715 74.0434L288.708 133.581L288.715 151.596C288.718 154.446 288.845 159.249 288.575 162.004C281.29 162.194 273.633 162.079 266.32 162.069C265.968 155.891 266.208 147.271 266.21 140.914L266.218 102.619C266.218 68.6109 265.875 34.0346 266.228 0.0741177Z" fill="black"/>
<path d="M348.28 50.8223C348.21 49.8518 348.048 49.2161 348.495 48.3706L348.858 48.3401C349.378 49.2098 349.225 49.7551 349.18 50.8233C348.66 50.6251 348.928 50.6933 348.28 50.8223Z" fill="black"/>
<path d="M229.043 0.0897329C229.395 3.65816 230.322 8.31611 230.925 11.9188L233.647 28.9569L243.053 87.6278L251.08 137.619L253.478 152.679C253.938 155.639 254.286 158.886 254.976 161.766C251.651 162.446 247.34 161.911 243.928 162.076C239.37 162.299 233.905 161.652 229.415 162.292C228.58 159.377 228.11 155.242 227.655 152.172C226.913 147.037 226.12 141.906 225.275 136.789C225.125 135.584 225.085 133.869 224.58 132.856C222.531 132.274 196.179 132.382 193.521 132.762C192.755 141.022 190.548 153.837 189.105 162.212C182.088 161.822 173.06 162.064 165.887 162.054C166.479 156.011 167.78 149.274 168.776 143.239L172.463 120.186L183.408 51.5087L187.87 23.8036C189.09 16.4494 190.725 7.45753 191.518 0.0877798L229.043 0.0897329ZM24.6826 0.0809438C34.9727 0.18417 46.4743 -0.65369 56.2959 2.67469C63.1461 4.99619 69.1962 10.1288 72.2617 16.7753C77.2778 27.6519 77.2127 49.3988 73.376 60.663C70.9632 67.746 66.2569 72.4669 59.6436 75.5858L60.0859 75.7626C78.4469 83.2978 78.7946 101.424 78.4531 118.369C78.2714 127.399 78.8812 133.932 75.1484 142.637C65.5079 163.392 45.7709 162.069 26.2637 162.076L0.00878906 162.084L0 0.0789907C8.19875 0.166491 16.4584 -0.00155616 24.6826 0.0809438ZM47.3633 91.8036C42.7866 88.2976 31.0927 89.0516 25.3613 89.0858C25.3736 105.252 25.0736 122.451 25.4355 138.541C29.8846 138.576 34.3427 138.586 38.791 138.624C42.8956 138.659 46.6124 138.299 49.6338 135.079C52.7768 130.799 53.2611 125.766 53.0381 120.504C52.6838 112.151 54.9285 97.6011 47.3633 91.8036ZM208.727 30.452C208.419 31.4809 208.25 34.4662 208.06 35.8368L205.869 50.8192C202.954 70.3249 200.202 91.2868 196.859 110.609C200.814 110.257 205.31 110.346 209.322 110.361C213.002 110.356 217.412 110.257 221.004 110.547C221.031 107.547 219.382 98.1018 218.845 94.6141L214.672 67.0243C213.302 58.2434 212.216 49.3827 210.754 40.6181C210.246 37.5749 209.827 33.755 209.112 30.8378L208.727 30.452ZM46.1748 26.1845C41.9216 22.3652 31.7681 23.091 26.2275 23.412L25.8018 23.4384C25.6974 23.6007 25.5927 23.7633 25.4883 23.9257C25.4 36.3299 25.1955 54.1931 25.4062 65.9686C32.5976 65.9124 40.2538 66.9664 45.9766 62.6356C52.1781 55.8421 50.14 46.0968 50.417 37.6698C50.5353 34.0677 48.8555 28.592 46.1748 26.1845Z" fill="black"/>
<path d="M94.7317 0.170497C102.147 -0.0837526 111.801 -0.0212571 119.239 0.147243C119.715 5.09899 119.383 15.7252 119.382 21.1607L119.383 62.4933L119.385 111.636C119.385 119.474 119.732 131.114 119.149 138.567L161.222 138.589C160.605 143.724 161.176 150.894 160.971 156.176C160.927 157.304 161.163 161.114 160.902 161.989L160.259 162.081H116.415C109.147 162.079 100.887 162.289 93.7537 161.979C93.3532 157.549 93.5695 150.797 93.5742 146.152L93.5782 118.989L93.588 29.078C93.588 25.6225 93.3175 1.5065 93.887 0.424495L94.7317 0.170497Z" fill="black"/>
<path d="M259.184 181.616C265.279 181.051 270.669 185.557 271.191 191.654C271.716 197.752 267.176 203.109 261.074 203.592C255.032 204.069 249.736 199.581 249.219 193.541C248.699 187.504 253.149 182.179 259.184 181.616ZM33.2471 182.057C39.761 181.982 51.4433 180.254 50.4297 190.081C50.1947 192.359 47.7014 194.044 46.0371 195.267C46.0352 196.499 50.0312 201.437 51.0859 202.994C50.019 203.089 48.8861 203.239 47.8154 203.364C44.8922 202.789 44.1321 198.866 42.2627 197.071C40.6047 195.479 39.3693 195.752 37.2334 195.842C36.9107 198.052 36.9889 200.909 36.9814 203.191C35.8005 203.246 34.4611 203.219 33.2666 203.219C32.8054 200.781 32.8626 184.49 33.2471 182.057ZM355.49 182.066C360.413 181.966 367.603 181.389 371.418 184.914C375.895 189.049 375.245 195.961 371.4 200.216C366.81 204.018 361.238 203.276 355.508 203.224C355.223 197.956 355.295 187.354 355.49 182.066ZM267.239 191.227C266.494 187.344 262.741 184.8 258.856 185.542C254.969 186.285 252.421 190.039 253.166 193.929C253.911 197.816 257.672 200.361 261.557 199.611C265.441 198.864 267.984 195.111 267.239 191.227ZM368.37 187.544C365.553 185.239 362.858 185.483 359.455 185.563C359.375 190.218 359.372 194.876 359.442 199.531C362.922 199.591 365.486 199.982 368.396 197.789C371.088 194.559 372.035 190.546 368.37 187.544ZM44.5469 185.894C41.8208 185.516 39.7893 185.491 37.0303 185.566L36.9707 192.358C40.1369 192.381 42.656 192.736 45.4922 191.438C47.0529 188.951 46.7623 187.731 44.5469 185.894Z" fill="black"/>
<path d="M320.578 182.051C321.798 181.994 323.52 181.729 324.398 182.649C328.418 186.861 331.51 191.809 335.478 196.156C335.013 192.679 335.21 185.841 335.228 182.059L339.195 182.046C339.198 184.604 339.438 202.439 338.865 203.239C338.38 203.269 336.44 203.401 336.133 203.086C331.958 198.776 328.188 193.091 324.385 188.476C324.5 193.251 324.393 198.441 324.385 203.249C322.983 203.294 322.123 203.184 320.75 203.029C320.248 197.924 320.5 187.471 320.578 182.051Z" fill="black"/>
<path d="M97.2289 182.061C98.3777 182.006 99.5229 182.024 100.673 182.026C103.848 185.384 108.922 192.454 112.015 196.366C111.978 191.584 111.987 186.804 112.044 182.021C113.301 182.031 114.301 181.931 115.469 182.364C116.171 183.684 116.044 202.201 115.387 203.069C114.741 203.179 113.956 203.314 113.301 203.261C111.614 203.126 102.748 190.631 101.003 188.516C100.874 193.156 100.984 198.506 100.979 203.196L97.2109 203.246L97.2289 182.061Z" fill="black"/>
<path d="M65.9883 182.047L81.9078 182.069L81.844 185.539C77.8725 185.524 73.901 185.539 69.9298 185.587L69.7133 190.794C73.271 190.769 76.829 190.769 80.3868 190.789L80.3778 194.212L70.8845 194.234L70.3253 194.294C69.45 195.267 69.783 198.267 69.8158 199.692C73.4748 199.887 78.1528 199.767 81.8878 199.772L81.6758 203.029C77.446 203.419 70.4358 203.224 66.018 203.227L65.9883 182.047Z" fill="black"/>
<path d="M165.425 182.059L169.416 182.001L169.393 190.784L179.231 190.736C179.221 187.856 179.179 184.976 179.104 182.099L182.861 182.021C182.873 189.019 182.971 196.254 182.836 203.234C181.671 203.269 180.321 203.201 179.143 203.169C179.105 200.356 179.198 197.234 179.201 194.381C175.901 194.356 172.601 194.351 169.302 194.366C169.487 197.076 169.389 200.466 169.381 203.229L165.414 203.266L165.425 182.059Z" fill="black"/>
<path d="M286.421 182.069L290.196 182.049C290.226 184.841 290.109 187.694 290.114 190.491C290.119 195.061 289.884 198.221 294.729 199.951C296.264 199.736 296.956 199.611 298.469 199.209C299.334 198.354 299.649 197.934 300.389 196.949C300.689 192.359 300.516 186.771 300.546 182.056C301.811 182.021 303.199 182.069 304.471 182.086C304.636 183.241 304.634 184.329 304.666 185.494C304.696 189.881 305.309 197.186 302.371 200.699C299.496 204.251 291.904 204.551 288.859 201.179C285.279 197.209 286.381 187.229 286.421 182.069Z" fill="black"/>
<path d="M224.322 181.861C228.689 181.359 230.632 182.326 234.259 184.411C233.509 185.436 232.777 186.549 232.057 187.599C230.187 186.331 226.092 183.821 223.867 186.004C219.817 189.976 229.697 191.046 231.644 192.001C232.332 192.341 233.384 193.419 234.002 194.026C235.824 200.034 233.522 202.769 227.507 203.501C223.872 203.756 220.929 202.119 218.119 200.079C219.142 198.774 219.679 198.254 220.869 197.116C223.302 200.091 230.452 201.334 230.977 197.334C229.507 193.814 223.359 195.039 219.787 190.934L219.567 190.674C218.579 185.711 219.669 183.771 224.322 181.861Z" fill="black"/>
<path d="M141.563 181.629C144.865 181.272 148.2 183.082 150.699 185.087L148.002 187.909C145.981 186.382 144.162 185.092 141.424 185.384C139.524 185.599 137.8 186.597 136.664 188.134C135.499 189.684 135.001 191.634 135.278 193.552C135.686 196.279 137.261 197.869 139.315 199.454C142.872 200.057 144.397 200.157 147.195 197.742C147.633 197.517 147.544 197.572 148.038 197.467C149.107 197.972 149.982 198.987 150.847 199.839C148.675 201.487 146.754 202.892 143.984 203.407C141.173 203.917 138.274 203.302 135.912 201.694C129.44 197.237 129.647 186.792 136.728 183.027C138.414 182.132 139.732 181.894 141.563 181.629Z" fill="black"/>
<path d="M2.20813 182.057C7.48138 182.034 12.7546 182.042 18.0279 182.074L17.9811 185.537C13.9894 185.529 9.99763 185.542 6.00613 185.574C5.96463 187.472 6.01664 189.374 6.05314 191.272C9.49139 191.382 13.2694 191.314 16.7329 191.319L16.4871 194.542C12.9921 194.527 9.49688 194.537 6.00213 194.572L5.98764 203.209C4.83364 203.244 3.60713 203.232 2.44588 203.242C2.08063 201.219 2.19139 197.252 2.19214 195.039L2.20813 182.057Z" fill="black"/>
</svg>
