<svg width="725" height="202" viewBox="0 0 725 202" fill="none" xmlns="http://www.w3.org/2000/svg">
<path fill-rule="evenodd" clip-rule="evenodd" d="M0 120.81L4.07485 110.311L128.14 110.064C136.361 110.119 150.053 107.153 152.801 102.829C158.85 93.3126 118.321 85.8178 111.18 86.9957L41.4571 86.7423L45.8489 75.7258L122.384 75.7623C132.439 74.9895 145.042 72.5375 151.239 69.55C169.015 60.9808 150.563 58.278 142.801 57.3596L24.6337 57.1645L28.6975 46.4055C125.916 46.1074 223.134 45.8086 320.352 45.5099C329.693 46.0848 341.438 46.4009 348.826 47.9458C356.214 49.4908 366.322 52.9679 360.029 63.9926C350.726 80.2906 321.635 85.5997 305.968 86.0935L267.184 86.7438L317.465 109.803L419.286 109.574L416.459 120.764C410.967 120.694 403.499 120.822 399.759 120.995C386.466 121.608 401.372 128.44 404.655 130.177L435.796 143.089L510.734 142.591C510.711 138.694 510.688 134.798 510.665 130.902C509.507 121.411 501.353 120.999 494.51 121.047L482.178 121.133L485.834 109.745L522.565 109.667L589.319 82.538L531.048 57.2035H520.562L525.128 45.9268L602.524 46.4334L598.46 57.4408L582.421 57.2143L619.065 72.7019L658.657 56.8442L650.015 56.7761L654.39 46.2645H716.081L712.377 57.1245L682.639 57.2828L631.569 77.9576L703.918 108.689L719.994 110.168L715.655 120.848L639.404 120.759L643.459 110.337L655.954 109.87L603.737 88.8859L548.847 109.988L570.722 109.909L566.014 121.197C551.348 121.363 540.804 121.529 527.559 121.188C522.563 121.319 519.38 121.248 519.116 128.289L518.732 200.113L396.745 148.545L356.449 131.785L323.307 120.954L289.905 120.8L214.239 86.216L203.11 86.1759L207.757 75.311C238.022 75.311 268.287 75.311 298.552 75.311C306.38 75.7599 338.167 69.9718 327.489 59.4118C324.391 56.3477 315.16 57.0591 309.669 56.9132C267.279 57.5149 230.722 56.7965 188.333 57.3976C196.206 69.6369 177.58 74.2134 170.865 76.0343C163.696 77.9789 154.552 79.6077 146.067 80.6157C155.684 81.5717 167.911 84.1505 174.262 87.3771C180.614 90.6038 183.537 95.9488 179.908 103.218C176.279 110.488 167.099 113.674 157.636 116.501C148.765 118.8 139.168 120.035 128.354 120.503L0 120.81ZM454.135 150.927L509.585 150.911L509.569 174.767L454.135 150.927Z" fill="black"/>
<path fill-rule="evenodd" clip-rule="evenodd" d="M554.482 183.493C554.482 173.469 547.558 165.244 539.334 165.244C530.895 165.244 524.188 173.469 524.188 183.493C524.188 193.518 530.895 202 539.334 202C547.558 202 554.482 193.518 554.482 183.493ZM526.784 183.493C526.784 175.011 532.41 168.329 539.334 168.329C546.26 168.329 551.885 175.011 551.885 183.493C551.885 191.975 546.26 198.658 539.334 198.658C532.41 198.658 526.784 191.975 526.784 183.493Z" fill="black"/>
<path fill-rule="evenodd" clip-rule="evenodd" d="M533.873 194.755V172.492H539.299C540.491 172.492 541.453 172.607 542.183 172.832C542.907 173.067 543.568 173.468 544.152 174.038C544.821 174.689 545.356 175.507 545.751 176.503C546.146 177.493 546.343 178.488 546.343 179.498C546.343 180.345 546.202 181.221 545.912 182.13C545.622 183.035 545.248 183.786 544.801 184.384C544.422 184.887 543.975 185.313 543.463 185.648C542.932 186.011 542.263 186.303 541.462 186.538L546.529 194.755H542.259L537.341 186.222V194.755H533.873ZM537.341 183.078H539.242C540.414 183.078 541.312 182.795 541.937 182.221C542.565 181.652 542.875 180.829 542.875 179.757C542.875 178.723 542.537 177.89 541.856 177.244C541.518 176.938 541.176 176.732 540.829 176.637C540.483 176.536 539.963 176.488 539.266 176.488H537.341V183.078Z" fill="black"/>
<path fill-rule="evenodd" clip-rule="evenodd" d="M51.3599 10.5044C51.3031 13.842 50.9487 17.1798 50.1573 20.5186C47.8066 21.4293 44.6619 22.0891 42.6486 22.0891C39.2487 22.0891 36.8849 21.0899 35.557 19.0967C34.2293 17.1035 33.8666 14.5308 34.4705 11.3737C35.1232 7.96141 36.6245 5.23467 38.9691 3.19894C41.3137 1.16321 44.0801 0.147934 47.2746 0.147934C49.458 0.147934 51.1425 0.509567 52.3285 1.23251L50.6988 5.12317C49.5949 4.48531 48.1705 4.1662 46.4257 4.1662C44.5377 4.1662 42.9176 4.77739 41.5595 6.00539C40.2019 7.23309 39.3139 8.92873 38.9011 11.0866C38.4927 13.2232 38.7164 14.9295 39.5674 16.2104C40.4188 17.4916 41.7406 18.1347 43.5391 18.1347C44.5594 18.1347 45.983 17.6201 46.4354 17.4074L47.158 10.5044H51.3599ZM95.1064 8.82232L94.3437 12.8088H87.3913L86.4278 17.8477H94.1857L93.4171 21.8661H81.4982L85.6094 0.371341H97.1523L96.384 4.38961H89.0019L88.154 8.82232H95.1064ZM125.513 21.8661L129.569 0.658459C131.152 0.33938 133.053 0.222076 135.271 0.179836C138.739 0.113285 141.572 3.21389 141.567 6.44237C141.562 9.67085 139.523 11.4312 138.006 12.0083L135.718 12.9619L139.525 21.8661H135.284L131.237 13.4146L129.62 21.8661H125.513ZM133.042 3.97507L131.914 9.87472H133.632C134.669 9.87472 135.542 9.59272 136.248 9.03478C136.954 8.47715 137.398 7.72712 137.579 6.78142C137.759 5.83573 137.631 5.1016 137.189 4.58621C136.746 4.07113 136.025 3.81556 135.032 3.81556C134.057 3.81556 133.393 3.8684 133.042 3.97507ZM189.385 21.9952L189.385 8.06511H189.246C188.37 10.3506 187.806 12.4684 183.579 21.5151H178.612L177.84 6.75416L176.035 13.7973L174.143 21.8661H170.277L175.543 0.371341H181.18L182.173 14.7773H182.28L185.402 7.299L188.401 0.371341H193.931L193.933 21.9457L189.385 21.9952ZM276.187 21.8661H272.348L276.459 0.371341H281.399L284.08 9.1572C284.6 10.8617 285.042 13.0424 285.45 15.6789H285.504C285.72 13.4256 286.178 10.4701 286.877 6.81342L288.11 0.371341H291.948L287.837 21.8661H283.434C281.575 15.541 280.475 11.7239 280.134 10.4223C279.792 9.12049 279.47 7.59984 279.168 5.85645H279.061C278.668 8.56741 278.134 11.6825 277.462 15.2006L276.187 21.8661ZM369.213 17.4011L369.125 21.2279C367.764 21.8873 366.081 22.217 364.077 22.217C361.026 22.217 358.822 21.2278 357.458 19.2562C356.095 17.2843 355.723 14.6692 356.347 11.4057C357.006 7.9615 358.482 5.20244 360.775 3.12994C363.069 1.05683 365.71 0.0203259 368.699 0.0203259C370.712 0.0203259 370.737 -0.151992 371.73 0.506832L371.604 4.89985C370.595 4.32581 369.433 4.03859 368.118 4.03859C366.301 4.03859 364.732 4.66612 363.405 5.92026C362.078 7.1747 361.201 8.90745 360.778 11.1185C360.365 13.2767 360.575 14.9827 361.404 16.2423C362.232 17.5022 363.579 18.1347 365.449 18.1347C366.8 18.1347 368.054 17.8904 369.213 17.4011ZM537.063 18.3549H530.885L529.001 21.8661H524.679L534.507 0.371341H539.984L541.751 21.8661H537.748L537.063 18.3549ZM532.493 14.9292H536.866L536.186 6.28704H536.133L532.493 14.9292ZM577.243 0.371341H581.403L579.073 12.5537C578.716 14.4245 578.737 15.8546 579.139 16.8428C579.54 17.832 580.295 18.3261 581.405 18.3261C583.75 18.3261 585.29 16.4018 586.026 12.5537L588.356 0.371341H592.517L590.235 12.2988C589.615 15.5407 588.478 18.0015 586.823 19.6865C585.167 21.3716 583.068 22.217 580.527 22.217C575.552 22.217 573.701 18.8895 574.973 12.2347L577.243 0.371341ZM621.271 21.7703L625.31 0.658459C627.16 0.33938 629.105 0.179836 631.146 0.179836C635.002 0.179836 637.588 1.13646 638.899 3.05519C640.21 4.97423 640.567 7.4828 639.975 10.5767C639.276 14.2333 637.781 17.0665 635.486 19.0755C633.192 21.0848 630.051 22.0891 626.069 22.0891C624.226 22.0891 622.627 21.9827 621.271 21.7703ZM628.799 4.1662L626.122 18.1666C626.342 18.2304 626.837 18.2623 627.607 18.2623C629.673 18.2623 631.399 17.6138 632.778 16.3223C634.157 15.0308 635.075 13.1807 635.536 10.7679C635.959 8.55681 635.767 6.8717 634.955 5.71299C634.143 4.55427 632.764 3.97507 630.823 3.97507C630.008 3.97507 629.334 4.03857 628.799 4.1662ZM672.475 0.371341H676.636L672.525 21.8661H668.364L672.475 0.371341ZM724.699 10.9271C724.046 14.3394 722.682 17.0719 720.602 19.1286C718.522 21.1856 716.106 22.217 713.359 22.217C710.692 22.217 708.741 21.1905 707.504 19.1445C706.266 17.0984 705.954 14.4776 706.565 11.278C707.192 8.00397 708.557 5.30881 710.662 3.19347C712.766 1.07812 715.161 0.0203259 717.846 0.0203259C720.548 0.0203259 722.518 1.0411 723.756 3.08199C724.994 5.12319 725.308 7.73844 724.699 10.9271ZM710.965 11.1507C710.563 13.2551 710.658 14.9779 711.252 16.3171C711.846 17.6563 712.832 18.3261 714.21 18.3261C715.624 18.3261 716.878 17.6618 717.974 16.3329C719.069 15.004 719.824 13.2551 720.238 11.0866C720.637 9.00318 720.545 7.28618 719.958 5.93602C719.37 4.58647 718.381 3.91126 716.994 3.91126C715.598 3.91126 714.346 4.58647 713.237 5.94149C712.128 7.29682 711.37 9.03475 710.965 11.1507Z" fill="black"/>
<path fill-rule="evenodd" clip-rule="evenodd" d="M445.68 22.217L449.736 1.00918C451.318 0.690407 453.22 0.573078 455.438 0.530838C458.905 0.464287 461.739 3.5648 461.734 6.79328C461.729 10.0218 459.689 11.7822 458.172 12.3593L455.884 13.3129L459.692 22.217H455.451L451.403 13.7656L449.787 22.217H445.68ZM453.209 4.32607L452.08 10.2257H453.798C454.836 10.2257 455.709 9.94372 456.415 9.38579C457.121 8.82785 457.565 8.07782 457.745 7.13243C457.926 6.18674 457.798 5.4526 457.355 4.93721C456.913 4.42182 456.192 4.16656 455.199 4.16656C454.224 4.16656 453.56 4.2194 453.209 4.32607Z" fill="black"/>
<path fill-rule="evenodd" clip-rule="evenodd" d="M234.267 18.7058H228.089L226.205 22.2169H221.883L231.712 0.722168H237.188L238.956 22.2169H234.952L234.267 18.7058ZM229.697 15.2802H234.07L233.39 6.63796H233.337L229.697 15.2802Z" fill="black"/>
<path fill-rule="evenodd" clip-rule="evenodd" d="M408.287 18.7058H402.109L400.224 22.2169H395.902L405.731 0.722168H411.207L412.975 22.2169H408.972L408.287 18.7058ZM403.717 15.2802H408.089L407.41 6.63796H407.356L403.717 15.2802Z" fill="black"/>
</svg>
