<svg width="283" height="151" viewBox="0 0 283 151" fill="none" xmlns="http://www.w3.org/2000/svg">
<path d="M62.9122 0.20111C71.9214 -0.18902 83.1685 0.108478 92.2857 0.109231L146.997 0.120528C139.518 9.3513 131.849 19.6884 124.538 29.1506L85.8113 29.1453C77.1859 29.1401 66.6813 28.3596 58.3679 30.19C27.6606 36.9875 27.0754 75.8298 58.2329 82.497C66.6028 84.2895 76.924 83.5307 85.5959 83.5288L126.588 83.5307L147.006 83.5364C139.618 92.6325 131.693 103.197 124.539 112.57L84.6172 112.574C77.1068 112.574 69.4998 112.704 62.0421 112.42C32.292 111.284 1.97068 91.1526 0.255951 59.1466C-0.49023 45.217 2.80159 32.344 12.4519 21.7014C25.6856 7.10673 43.6586 1.22351 62.9122 0.20111Z" fill="black"/>
<path d="M154.55 0.127633C168.608 -0.148772 183.618 0.114065 197.74 0.113877L283 0.114256C275.788 9.68394 267.799 19.7232 260.349 29.1481L219.323 29.1492L219.321 71.3862L219.323 112.568L184.341 112.563V29.1519L132.062 29.1393C133.008 27.8657 134.02 26.5622 135.007 25.3187C141.6 17.0151 147.883 8.36312 154.55 0.127633Z" fill="black"/>
<path d="M55.3818 124.585C66.3219 124.883 77.5808 124.001 88.4424 124.99C89.197 125.059 90.538 126.741 90.5859 127.479C90.997 133.818 90.7442 140.32 90.7676 146.688C90.7744 149.024 89.1849 150.229 87.0957 150.719C81.089 150.96 74.9946 150.762 68.9795 150.766C63.7577 150.77 58.4223 150.998 53.2119 150.731C52.3118 150.684 51.1297 150.608 50.3076 150.236C49.3197 149.789 48.5964 148.707 48.2949 147.694C47.6568 145.553 47.6812 128.249 48.6953 126.515C49.3805 125.344 50.5831 124.928 51.8301 124.634C52.9295 124.57 54.222 124.553 55.3818 124.585ZM223.146 124.562C234.283 124.255 235.266 131.241 234.778 140.269C234.579 143.959 234.81 145.07 231.869 148.124C230.807 149.069 229.113 150.306 227.733 150.478C224.02 150.941 219.505 150.762 215.713 150.762L192.065 150.731C191.809 146.421 192.096 140.551 192.026 136.132C191.983 133.419 191.898 127.101 192.152 124.579L213.737 124.57C216.592 124.549 220.358 124.639 223.146 124.562ZM79.0537 129.917C70.847 130.03 62.5586 129.772 54.3604 129.94C54.0537 130.064 53.6686 130.136 53.6309 130.536C53.4394 132.572 53.2934 143.867 53.7793 145.089C55.9012 145.914 80.1831 145.481 84.6865 145.479C85.0201 145.274 85.4461 145.046 85.4248 144.551C85.313 141.981 85.757 132.212 85.2168 130.398C84.3465 129.778 80.2468 129.902 79.0537 129.917ZM225.47 130.005C222.465 129.589 219.053 130.081 216.003 129.921C210.192 130.008 204.19 129.8 198.419 129.942L197.729 130.115C197.272 130.877 197.451 143.506 197.496 145.448C203.755 145.494 210.014 145.503 216.272 145.477C219.195 145.475 222.135 145.528 225.056 145.448C226.219 145.416 226.7 145.231 227.652 144.598C228.965 143.218 229.641 142.045 229.405 139.911C229.004 136.24 230.815 130.745 225.47 130.005Z" fill="black"/>
<path d="M243.649 124.628C245.432 124.547 247.582 124.53 249.382 124.596C260.336 124.99 271.969 124.061 282.848 124.621C282.925 126.368 282.921 128.119 282.839 129.864C280.186 130.072 275.979 129.932 273.17 129.93L254.835 129.913C253.197 129.911 247.239 129.78 245.951 130.156C245.264 131.162 245.524 133.881 245.563 135.216C249.757 135.393 254.601 135.28 258.868 135.28L282.85 135.289C282.963 138.175 282.903 141.113 282.957 144.003C283.016 147.134 282.938 149.582 279.593 150.685C274.588 150.896 268.76 150.755 263.703 150.761C255.915 150.766 247.998 150.826 240.216 150.721C240.118 149.079 240.178 147.17 240.19 145.507C244.422 145.36 276.036 145.822 277.269 145.14C277.902 144.007 277.636 141.958 277.572 140.595C273.626 140.457 269.097 140.557 265.111 140.557L240.222 140.535C240.145 139.52 240.058 137.407 240.15 136.445C240.542 132.391 238.508 126.116 243.649 124.628Z" fill="black"/>
<path d="M3.8222 124.611C5.58099 124.547 7.58775 124.545 9.35915 124.596C20.3828 124.909 31.8418 124.155 42.8149 124.619C42.8998 126.264 42.871 128.23 42.7995 129.862C38.7944 130.124 7.09557 129.559 5.84233 130.211C5.24414 131.448 5.48327 133.76 5.53768 135.219C9.61033 135.407 14.6167 135.281 18.7801 135.279L42.8292 135.293C42.8631 138.375 43.5447 146.644 42.0503 148.985C41.3785 150.037 40.454 150.431 39.2821 150.717C37.6416 150.775 35.9588 150.762 34.3145 150.753C22.9548 150.689 11.5708 150.866 0.213299 150.723C0.100139 149.216 0.162277 147.059 0.160959 145.503C8.73254 145.289 17.6924 145.65 26.2862 145.496C28.5838 145.454 35.2836 145.673 37.1492 145.242C37.8626 144.287 37.6013 141.879 37.5629 140.599C25.4694 140.181 12.4393 140.785 0.193717 140.519C0.0777321 137.294 -0.472627 128.878 1.03103 126.377C1.70246 125.259 2.59551 124.894 3.8222 124.611Z" fill="black"/>
<path d="M181.746 124.607C183.472 124.577 185.199 124.585 186.925 124.634C186.999 126.031 187.003 127.473 186.984 128.874C186.893 136.157 187.14 143.515 186.925 150.791C182.668 148.953 177.81 146.518 173.58 144.509C165.611 140.695 157.617 136.936 149.596 133.235C149.317 138.945 149.697 144.988 149.464 150.723C148.089 150.762 145.438 150.964 144.307 150.461C143.702 149.06 144.118 127.592 144.199 124.636C146.639 125.581 150.245 127.528 152.849 128.691C162.318 132.92 172.009 138.059 181.482 142.144C181.559 139.427 181.267 126.193 181.746 124.607Z" fill="black"/>
<path d="M133.541 124.634C139.185 124.361 139.279 123.751 138.927 129.518C138.855 134.709 138.912 139.881 138.902 145.07C138.901 146.709 138.876 148.433 137.62 149.587C136.982 150.175 136.18 150.551 135.322 150.666C134.281 150.815 131.437 150.762 130.278 150.764L120.427 150.766L107.184 150.762C104.607 150.76 97.8663 151.372 96.9627 148.9C95.3076 144.374 96.5385 135.788 96.1508 130.689C96.0067 128.795 96.1011 126.206 96.2366 124.604C97.5823 124.577 100.416 124.412 101.531 124.852C102.053 126.038 101.763 142.713 101.844 145.432C105.047 145.573 131.523 145.744 133.06 145.264C133.487 144.833 133.574 144.571 133.584 143.918C133.678 137.514 133.334 131.037 133.541 124.634Z" fill="black"/>
</svg>
