<svg width="260" height="147" viewBox="0 0 260 147" fill="none" xmlns="http://www.w3.org/2000/svg">
<path fill-rule="evenodd" clip-rule="evenodd" d="M0 0H65.6775C70.0436 0.289315 74.422 0.178025 78.7907 0.363467C91.0529 1.29068 103.558 3.79541 114.21 10.2117C120.359 13.8266 125.383 19.066 129.448 24.8765C133.935 18.9275 139.117 13.2654 145.752 9.69001C153.918 5.01439 163.13 2.47501 172.411 1.23628C183.316 0.150827 194.292 0.719517 205.22 0H258.999C258.992 12.5211 259.014 25.0422 258.992 37.5632C252.399 37.5187 245.814 37.9094 239.222 37.8401C239.271 31.8219 239.125 25.8037 238.923 19.7879C224.916 19.7954 210.91 19.7311 196.906 19.8176C190.432 20.0748 183.934 19.9116 177.488 20.6212C170.796 21.635 164.053 23.1778 158.081 26.4713C153.604 28.934 149.433 32.225 146.707 36.6038C143.654 41.1311 141.836 46.4373 141.178 51.8398C140.664 58.7902 140.317 65.9706 142.479 72.6959C145.054 82.2821 152.641 90.1028 161.819 93.6806C168.491 96.3089 175.632 97.8172 182.806 97.9408C191.462 98.3216 200.127 97.9977 208.78 98.3909C218.821 98.7988 228.872 98.6356 238.918 98.6456C239.049 92.5481 239.289 86.4483 239.219 80.3485C245.812 80.2768 252.397 80.6675 258.992 80.6329C259.007 93.2306 259.004 105.831 258.994 118.431C247.036 118.424 235.081 118.473 223.128 118.411C209.527 117.944 195.919 118.339 182.316 118.144C175.219 117.924 168.194 116.651 161.322 114.92C153.552 112.774 145.977 109.51 139.612 104.491C135.659 101.296 132.226 97.4711 129.47 93.2009C125.349 99.6024 119.743 105.111 113.054 108.798C103.29 114.329 92.1117 116.891 81.0022 117.783C65.2272 118.629 49.4226 117.82 33.6452 118.424C22.4293 118.466 11.2159 118.419 2.47119e-05 118.436V38.0775C6.59493 38.0825 13.1899 38.0627 19.7849 38.0825C19.8071 58.271 19.7701 78.4595 19.7973 98.648C28.8659 98.6282 37.9321 98.7395 46.9983 98.5886C56.9724 98.1832 66.9564 98.5689 76.9329 98.3612C79.5625 98.3266 82.1327 97.7307 84.7103 97.2757C91.7011 96.0024 98.724 93.8586 104.545 89.6528C109.801 85.8995 113.952 80.5142 115.929 74.3427C118.031 67.6939 118.591 60.5977 117.96 53.6745C117.307 47.7527 115.684 41.8185 112.31 36.8388C109.324 32.2867 105.067 28.6076 100.188 26.2043C92.0054 21.9094 82.6398 20.3467 73.4747 20.2849C66.051 20.2577 58.6274 20.3467 51.2086 20.0525C34.1399 19.9882 17.0687 20.0501 2.47119e-05 20.0278L0 0Z" fill="black"/>
<path fill-rule="evenodd" clip-rule="evenodd" d="M228.532 125.792C233.685 124.706 239.023 124.583 244.24 125.258C248.099 125.869 252.072 126.769 255.33 129.036C257.158 130.233 258.457 132.08 259.246 134.095V136.906C258.771 139.577 256.794 141.77 254.504 143.095C250.383 145.736 245.334 146.205 240.577 146.623H231.189C226.286 145.738 220.953 144.512 217.512 140.62C214.904 138.026 215.352 133.462 217.838 130.95C220.695 128.072 224.641 126.633 228.532 125.792ZM235.36 128.954C233.044 129.221 230.721 129.879 228.856 131.328C226.798 132.765 226.058 135.717 227.038 138.006C228.265 140.682 231.201 142.205 233.994 142.694C237.551 143.191 241.413 143.179 244.631 141.391C247.57 139.947 249.584 136.095 247.592 133.059C244.883 129.167 239.726 128.49 235.36 128.954Z" fill="black"/>
<path fill-rule="evenodd" clip-rule="evenodd" d="M60.6192 125.114C63.9909 125.107 67.3626 125.107 70.7368 125.109C70.7714 129.686 70.6577 134.283 71.1771 138.84C71.5309 140.79 73.4035 141.98 75.2142 142.395C77.9205 143.162 80.8 142.872 83.5136 142.301C85.4679 141.873 87.1327 140.197 87.2316 138.145C87.521 133.81 87.2539 129.456 87.3207 125.114C90.7814 125.104 94.2397 125.104 97.7004 125.112C97.6881 129.394 97.8662 133.682 97.6534 137.964C97.6806 140.002 96.3745 141.799 94.8458 143.018C91.5928 145.454 87.4691 146.292 83.5013 146.623H73.1091C69.3515 145.941 65.2055 145.209 62.4572 142.304C61.2401 140.993 60.6712 139.243 60.6118 137.485C60.5055 133.36 60.6192 129.236 60.6192 125.114Z" fill="black"/>
<path fill-rule="evenodd" clip-rule="evenodd" d="M121.581 125.636C130.118 125.28 138.731 124.486 147.231 125.804C150.979 126.405 154.857 127.179 158.076 129.315C159.095 130.079 160.188 130.878 160.762 132.06C162.269 134.552 161.818 137.932 159.995 140.143C158.328 141.987 156.084 143.189 153.801 144.104C148.468 145.968 142.778 146.418 137.173 146.623H122.62C122.231 146.556 121.848 146.477 121.465 146.403C121.316 139.477 121.67 132.559 121.581 125.636ZM131.857 128.793C131.837 133.501 131.839 138.209 131.859 142.917C137.297 142.964 143.399 143.315 148.159 140.165C150.689 138.76 151.52 135.141 149.937 132.755C148.203 130.675 145.482 129.837 142.899 129.434C139.238 128.959 135.545 128.759 131.857 128.793Z" fill="black"/>
<path fill-rule="evenodd" clip-rule="evenodd" d="M183.554 125.114C187.012 125.104 190.473 125.107 193.933 125.114C193.956 132.282 193.933 139.453 193.941 146.623H183.796C183.289 139.465 183.643 132.282 183.554 125.114Z" fill="black"/>
<path fill-rule="evenodd" clip-rule="evenodd" d="M14.1314 125.377C18.6509 125.342 23.1729 125.342 27.6924 125.364C32.4543 132.426 37.1222 139.552 42.0178 146.522C41.7283 146.556 41.4389 146.591 41.147 146.623H30.7326C29.5502 144.729 28.3232 142.862 27.1333 140.976C22.8167 140.914 18.4976 140.902 14.1809 140.969C13.1518 142.867 12.0683 144.739 11.012 146.623H1.64403C1.24581 146.554 0.847514 146.472 0.449219 146.396C4.8525 139.29 9.57238 132.384 14.1314 125.377ZM20.4691 128.969C18.9749 131.837 17.4685 134.703 15.7591 137.45C19.0096 137.497 22.2576 137.485 25.5081 137.462C23.6998 134.708 22.2601 131.733 20.4691 128.969Z" fill="black"/>
</svg>
