<svg width="596" height="223" viewBox="0 0 596 223" fill="none" xmlns="http://www.w3.org/2000/svg">
<path d="M457.505 15.4223C471.218 13.7648 490.32 21.9384 501.9 29.3005C539.336 53.6172 568.685 94.171 579.627 137.498C585.452 160.557 584.504 196.391 555.434 202.529C536.263 206.581 516.902 196.861 501.075 186.695C496.477 183.584 489.227 178.256 485.527 174.241C492.311 176.901 497.715 178.604 505.023 176.893C521.797 172.964 522.975 152.815 518.969 139.034C512.812 117.834 498.786 98.9576 479.741 87.6535C461.518 76.8389 440.329 80.3497 438.949 104.296C438.854 106.011 439.5 110.24 438.77 111.538C437.302 110.451 435.303 104.606 434.482 102.717C422.313 74.7261 414.237 19.6681 457.505 15.4223Z" fill="black"/>
<path d="M459.978 111.5C466.368 113.513 462.887 124.314 465.138 130.17C467.794 137.081 472.881 141.011 475.147 147.673C475.969 150.079 472.755 151.735 470.557 151.755C457.857 146.809 447.855 119.027 459.978 111.5Z" fill="black"/>
<path d="M450.607 0.12796C473.673 -1.10722 488.154 6.75332 507.596 17.1045C506.487 22.4425 506.939 22.9291 511.754 25.2852L515.81 22.375C519.192 25.7517 526.393 31.0133 530.555 34.7022C541.971 44.8811 552.225 56.2955 561.126 68.7344C562.98 71.3137 565.517 75.003 567.229 77.7344C567.879 78.7724 565.613 81.4205 566.221 83.1446C567.39 86.4712 570.322 85.4259 572.657 86.8438C575.34 90.8839 577.682 95.7205 579.842 100.061C588.716 117.879 592.619 133.132 595.963 152.436C586.73 157.394 595.125 160.25 595.344 161.506C598.042 177.733 592.332 199.059 579.892 210.223C578.37 211.591 571.885 204.456 571.407 216.254C563.813 223.726 540.526 222.56 530.229 220.58C524.229 219.227 516.401 216.636 510.917 213.983C505.686 211.45 514.36 210.322 505.123 205.155C505.051 205.205 504.978 205.25 504.909 205.296L504.554 205.533C502.57 206.844 502.318 207.112 500.693 208.904C497.219 206.806 493.768 204.67 490.34 202.503C479.287 208.553 468.968 207.44 457.613 202.56C453.948 200.985 450.466 198.929 446.771 197.454C444.053 198.1 442.852 198.107 440.017 197.511C426.346 194.633 414.028 180.874 406.518 169.604C397.93 156.71 389.277 137.071 392.158 121.416C392.903 117.361 395.147 113.49 398.655 111.2C398.759 99.8099 400.601 90.249 408.092 81.3116C406.089 72.5743 405.524 60.8323 406.22 51.8994C406.3 50.8413 410.431 50.7829 411.081 49.1768C412.816 44.8607 410.343 43.481 406.965 41.9297C411.991 22.4445 419.428 8.60044 440.04 1.94534C441.691 3.66783 443.468 5.57316 446.006 5.09964C447.664 4.04939 448.83 2.09218 449.705 0.368195L450.607 0.12796ZM521.873 35.5928C507.243 23.0313 477.837 6.01939 457.779 8.55179C424.414 11.707 414.79 41.2593 418.646 70.3448C424.536 114.808 452.999 156.926 487.113 185.021C502.099 197.323 529.452 212.532 549.514 210.024C580.995 207.345 592.055 180.011 588.944 151.906C583.968 106.993 555.563 64.5073 521.873 35.5928ZM414.973 107.971C416.845 135.016 427.039 157.202 447.287 175.679C451.362 179.396 468.702 191.385 473.854 190.418C472.952 188.836 461.876 178.771 459.242 175.901C446.343 161.86 435.68 147.614 426.603 130.789C424.256 126.47 422.093 122.054 420.113 117.554C419.2 115.524 416.628 108.794 414.973 107.971Z" fill="black"/>
<path d="M73.185 39.2539C88.3243 39.2619 103.901 38.326 118.81 40.9023C148.13 45.969 156.807 70.9201 156.783 97.3193C156.765 115.171 155.154 132.839 142.099 146.462C125.145 162.872 94.4411 159.534 72.5043 159.526L0.178169 159.587C0.669506 119.651 -0.433185 78.8989 0.204536 39.1162L73.185 39.2539ZM131.05 90.1289C130.257 58.6649 101.86 63.1355 79.3832 63.1347C61.3036 63.1344 43.0664 62.8046 25.0131 63.1279C24.7448 86.8388 24.7651 111.567 24.9868 135.286L80.4526 135.268C93.8942 135.258 113.977 137.612 124.154 127.93C132.921 117.914 131.363 102.534 131.05 90.1289Z" fill="black"/>
<path d="M297.489 39.1367C304.927 38.8695 313.205 39.0285 320.703 39.0308L374.741 39.2112C382.89 39.228 391.604 39.4355 399.706 39.2184C398.044 48.0284 398.12 52.9224 398.258 61.9177L324.952 61.9995C314.439 62.0469 303.858 61.8198 293.367 62.1764C287.905 62.1298 280.767 66.0197 280.253 72.0855C279.093 85.807 307.827 85.8491 316.425 86.5741L350.586 89.3465C366.092 90.0318 377.937 91.5831 392.215 97.4387C391.6 100.43 390.92 105.597 390.782 108.602C385.282 115.217 384.335 118.019 384.117 126.462C382.458 122.991 381.105 120.077 377.585 118.134C369.899 113.891 358.782 113.558 350.131 112.902L317.907 110.415C294.083 108.608 256.74 109.147 254.726 77.0755C252.995 49.5216 273.87 40.3245 297.489 39.1367Z" fill="black"/>
<path d="M159.709 38.9611C167.796 38.9535 175.883 38.9967 183.97 39.0914C181.592 46.7647 179.254 57.655 177.228 65.981C174.043 79.0647 169.669 94.1583 167.928 107.45C167.82 109.774 168.479 113.299 170.339 114.836C176.225 119.702 189.738 118.119 197.309 118.132L238.992 118.104C239.639 92.7633 239.055 64.5459 239.071 38.9856L262.404 38.9615L262.394 45.5264C249.239 58.8596 245.969 75.2657 254.255 92.3876C257.088 97.045 258.553 98.3796 262.419 102.074L262.43 123.417C268.355 123.554 274.64 123.471 280.593 123.484C280.356 126.597 280.444 131.353 280.409 134.585L249.377 134.612C249.568 143.468 249.306 152.438 249.663 161.281C246.13 161.362 242.364 161.293 238.812 161.282C239.469 158.542 239.073 144.349 239.04 140.651C233.385 140.134 225.46 140.354 219.692 140.359L187.961 140.389C174.908 140.395 167.305 141.274 155.12 135.411C155.253 135.103 155.382 134.793 155.506 134.482C164.117 112.76 163.36 82.5224 154.01 61.0832C156.032 54.1564 157.904 46.0309 159.709 38.9611Z" fill="black"/>
<path d="M383.432 130.526C383.646 130.741 383.86 130.956 384.074 131.171C384.41 137.441 387.858 152.121 389.669 157.24C374.412 163.441 346.552 162.084 329.482 162.088L260.958 162.091L253.967 162.101L253.981 139.134C281.714 139.725 310.405 138.93 338.259 139.137C349.068 139.217 363.243 139.667 373.774 138.273C378.07 137.704 381.223 134.115 383.432 130.526Z" fill="black"/>
</svg>
