<svg width="626" height="131" viewBox="0 0 626 131" fill="none" xmlns="http://www.w3.org/2000/svg">
<path d="M454.607 19.6088C477.835 -3.43263 513.154 0.194774 543.332 0.224991C570.764 0.160041 598.908 0.0573289 618.15 23.6371C630.436 38.6868 625.76 55.0613 611.381 66.5082C619.021 71.1798 624.329 81.0338 624.347 89.9711C624.43 97.8339 621.336 105.398 615.765 110.945C600.934 125.818 577.315 130.637 557.045 130.69L502.271 130.696C472.399 130.716 436.448 134.368 413.952 111.618C400.577 98.0917 402.566 82.1315 402.58 64.642L402.583 34.1976C394.328 33.8653 384.92 34.0866 376.578 34.0971C384.521 22.8693 394.157 11.3096 402.722 0.380265C414.74 -0.172681 430.626 0.316762 442.939 0.32753L442.891 41.2963C442.887 50.2978 442.842 59.6491 443.009 68.6107C443.568 98.64 459.329 97.1207 482.619 97.0287L508.745 97.0199L543.183 97.015C552.913 97.0119 563.661 97.6894 573.139 95.4144C575.659 94.8095 578.463 91.3833 577.314 88.7816C575.756 85.2539 570.292 83.8109 566.782 83.6039C552.754 83.0312 538.586 83.5093 524.537 83.3568C517.716 83.594 510.616 82.9963 503.826 83.5746C497.133 84.1446 490.027 85.778 493.165 93.9545C484.174 93.6082 468.319 94.989 460.154 92.9769C445.248 89.3042 444.196 74.007 458.408 66.3578C444.109 53.9422 440.409 33.6901 454.607 19.6088ZM567.844 34.4135C563.393 33.5393 555.781 33.9457 551.098 33.9457L527.061 33.9398C523.599 33.9402 506.374 33.7335 503.809 34.1478C499.303 34.7307 491.044 36.1108 491.537 42.3422C491.742 44.9697 495.811 48.0559 498.282 48.4369C513.519 50.7862 530.078 49.1477 545.484 49.5912C552.066 49.7805 560.523 49.8782 566.698 49.2523C581.286 47.0315 583.087 37.4074 567.844 34.4135Z" fill="black"/>
<path d="M36.227 0.368098C51.067 -0.239032 69.3678 0.314265 84.5809 0.314612L176.473 0.303498C201.928 0.344483 225.837 5.16887 244.074 23.9229C265.985 46.4544 264.225 85.939 242.263 107.602C215.874 133.632 186.304 130.916 152.833 130.922L93.611 130.88L93.6138 86.9932V49.431C106.882 49.1966 121.256 49.3522 134.53 49.4452C134.322 65.2647 134.47 81.3776 134.462 97.2192L164.946 97.2348C181.566 97.238 200.513 98.5641 212.908 84.7088C224.511 70.2745 220.839 50.613 205.402 40.926C191.05 31.9201 175.939 34.0732 159.546 34.0732L109.24 34.0791L37.6645 34.0735C27.1073 34.0735 10.1876 33.5671 0 34.2788C6.74764 27.0728 12.2066 22.6405 19.3898 16.157C25.0956 11.0068 30.2907 5.49744 36.227 0.368098Z" fill="black"/>
<path d="M269.923 0.478884C284.664 -0.190765 302.729 0.328839 317.77 0.308347C343.126 0.273266 368.864 0.0950882 394.199 0.373646C385.128 11.4312 376.647 22.8399 367.454 34.0374C359.883 34.2899 351.076 34.0836 343.376 34.0829L295.284 34.1149C288.213 34.1454 281.126 33.9099 274.083 34.0968C270.39 34.1947 265.768 35.7213 266.467 40.2414C266.726 41.9166 267.377 43.3913 268.907 43.9352C272.761 45.3065 281.024 44.8608 284.82 44.8581L320.384 44.8299C340.793 44.8174 362.955 42.9828 380.413 56.091C388.981 62.8486 394.168 70.7785 395.66 81.611C399.684 110.799 377.178 126.914 350.51 130.199C344.157 131.109 336.679 130.934 330.208 130.93L305.627 130.922L217.613 130.888C235.904 122.626 248.296 114.753 258.368 97.2206L316.299 97.1921C326.536 97.1914 336.881 97.6141 347.035 96.5978C351.711 96.13 357.838 92.54 358.251 87.4812C358.612 83.1142 350.913 79.4732 347.386 79.0609C337.863 77.9758 327.865 78.3819 318.225 78.3836L264.411 78.4135C266.145 50.6112 262.676 26.59 237.588 10.458C247.111 3.22243 258.317 1.25759 269.923 0.478884Z" fill="black"/>
</svg>
