<svg width="625" height="167" viewBox="0 0 625 167" fill="none" xmlns="http://www.w3.org/2000/svg">
<path d="M624.658 166.921H0V127.901H624.658V166.921ZM208.194 157.242L211.13 157.239V143.571C211.554 144.174 212.021 144.745 212.526 145.28C212.669 145.427 212.832 145.596 213.021 145.772L225.738 158.007V137.59H222.786V151.215C222.394 150.706 222.028 150.271 221.689 149.908L220.655 148.824L208.194 136.812V157.242ZM315.042 137.111C313.579 137.111 312.216 137.361 310.949 137.859C309.691 138.346 308.547 139.088 307.591 140.04C306.62 140.994 305.879 142.112 305.367 143.392C304.849 144.672 304.592 146.022 304.592 147.451C304.583 148.845 304.845 150.228 305.36 151.523C305.861 152.775 306.615 153.909 307.574 154.855C308.534 155.802 309.678 156.539 310.936 157.022C312.199 157.518 313.586 157.758 315.085 157.758C316.196 157.768 317.302 157.611 318.366 157.295C319.374 156.998 320.325 156.533 321.179 155.919V152.309C320.283 153.1 319.257 153.732 318.146 154.174C317.621 154.387 317.075 154.546 316.518 154.648C315.992 154.745 315.428 154.799 314.836 154.799C312.855 154.799 311.209 154.11 309.896 152.734C308.579 151.358 307.92 149.612 307.92 147.481C307.92 145.281 308.595 143.495 309.938 142.118C311.282 140.749 313.027 140.061 315.171 140.061C316.251 140.06 317.323 140.256 318.333 140.639C319.381 141.047 320.351 141.633 321.202 142.368L321.372 139.136C320.405 138.448 319.39 137.943 318.333 137.617C317.272 137.267 316.159 137.095 315.042 137.111ZM66.5283 137.314V149.542C66.5283 152.212 67.1967 154.2 68.5332 155.517C69.8664 156.83 71.8808 157.491 74.5703 157.491C77.2632 157.491 79.2848 156.827 80.6279 155.497C81.9711 154.181 82.6357 152.192 82.6357 149.542V137.314H79.4473V149.25C79.4472 151.022 79.0355 152.345 78.208 153.242C77.3802 154.13 76.1664 154.572 74.5674 154.572C72.9383 154.572 71.7183 154.133 70.9004 153.242C70.0826 152.348 69.6729 151.022 69.6729 149.25V137.314H66.5283ZM101.959 137.597V140.303H107.172V157.245H110.36V140.303H115.55V137.597H101.959ZM246.537 137.597V140.303H251.75V157.245H254.938V140.303H260.129V137.597H246.537ZM425.619 137.594V157.242L430.772 157.245C431.933 157.245 432.94 157.209 433.791 157.136C434.642 157.063 435.337 156.96 435.882 156.83C436.944 156.553 437.942 156.069 438.818 155.407C439.959 154.51 440.823 153.385 441.408 152.049C441.987 150.703 442.279 149.163 442.279 147.425C442.279 145.686 441.986 144.127 441.395 142.764C440.806 141.407 439.942 140.289 438.818 139.432C437.951 138.763 436.943 138.281 435.826 138.009C434.706 137.73 432.737 137.594 429.925 137.594H425.619ZM549.339 137.597V140.303H554.552V157.245H557.74V140.303H562.93V137.597H549.339ZM581.346 137.594L587.948 148.249V157.242L591.109 157.245V148.226L597.869 137.597H594.674L590.448 144.18C590.292 144.419 590.142 144.672 590.013 144.944C589.916 145.134 589.833 145.313 589.767 145.489C589.7 145.665 589.656 145.776 589.63 145.829L589.161 144.938L588.806 144.27L584.689 137.594H581.346ZM26.5225 157.242H29.877L32.1543 152.179H39.9209L42.1582 157.235L45.5127 157.242L36.0244 136.812L26.5225 157.242ZM136.346 137.594V157.242H139.53V147.697H149.186V157.242H152.374V137.594H149.186V144.841H139.53V137.594H136.346ZM175.23 137.594V157.242L186.182 157.239V154.383H178.419V148.033H186.182V145.227H178.419V140.3H186.182V137.594H175.23ZM280.426 137.594V157.242H283.614V137.594H280.426ZM368.046 137.594V157.242H371.234V148.003H378.994V145.197H371.234V140.3H378.994V137.594H368.046ZM400.312 137.594V157.242H403.5V137.594H400.312ZM463.188 137.594V157.242L474.143 157.239V154.383H466.376V148.033H474.143V145.227H466.376V140.3H474.143V137.594H463.188ZM496.7 137.594V157.242H507.023V154.387H499.889V137.594H496.7ZM526.921 137.594V157.242H530.109V137.594H526.921ZM431.111 140.449C432.72 140.449 433.92 140.545 434.722 140.755C435.523 140.964 436.192 141.294 436.73 141.736C437.475 142.381 438.049 143.2 438.399 144.12C438.768 145.074 438.951 146.164 438.951 147.397C438.951 148.664 438.768 149.768 438.393 150.709C438.017 151.656 437.465 152.438 436.73 153.066C436.192 153.542 435.556 153.871 434.821 154.067C434.08 154.257 432.969 154.353 431.49 154.353H428.804V140.449H431.111ZM36.4297 144.06L36.7891 145.041L38.7969 149.522H33.332L35.3467 145.041C35.4935 144.708 35.6146 144.365 35.709 144.014C35.7775 143.83 35.8383 143.644 35.8916 143.455L36.0547 142.813L36.4297 144.06ZM101.941 48.7324V101.963H159.364V48.8154L192.811 0.182617H623.162V119.444H1.25781V0.182617H64.6387L101.941 48.7324ZM563.376 19.5488C539.066 19.5488 519.241 38.5059 519.241 61.7451C519.241 84.9877 539.066 103.941 563.376 103.941C587.679 103.941 607.504 84.9876 607.504 61.7451C607.504 38.506 587.682 19.549 563.376 19.5488ZM387.695 23.4219V74.9668C387.695 80.9211 378.942 83.8339 374.008 84.0801C368.778 84.3394 362.059 78.4213 362.059 73.8799V23.5352H340.585V75.0234C340.08 91.8328 356.969 103.326 373.715 103.203C396.442 103.968 409.591 90.4935 409.761 75.8086V23.4219H387.695ZM87.0547 40.9727C70.4947 21.3373 56.5109 22.4644 23.3477 23.4219V101.967C57.0626 104.753 75.1586 99.5896 86.8281 82.1621C94.661 71.0479 94.1694 49.4838 87.0547 40.9727ZM481.267 40.9727C464.7 21.3377 450.72 22.4644 417.561 23.4219V101.967C451.275 104.753 469.372 99.5897 481.041 82.1621C488.871 71.0478 488.378 49.4837 481.267 40.9727ZM177.73 101.963H199.128V57.5361L236.56 101.963H255.973V23.4219H234.755V67.3975L199.367 23.4219H177.73V101.963ZM288.186 23.4219L258.539 101.963H281.077L285.682 88.4385H312.541L317.432 101.963H340.119L310.337 23.4219H288.186ZM492.501 23.4219V101.963H513.39V23.4219H492.501ZM45.4766 42.499C62.9075 41.2756 71.0528 49.1347 71.2324 62.9385C71.0895 77.4871 60.0285 83.4981 45.4766 82.8398V42.499ZM439.689 42.499C457.117 41.2757 465.258 49.1348 465.441 62.9385C465.298 77.487 454.241 83.498 439.689 82.8398V42.499ZM563.376 41.2949C575.155 41.2951 584.76 50.4814 584.76 61.7451C584.76 73.0089 575.155 82.1951 563.376 82.1953C551.597 82.1953 541.984 73.009 541.984 61.7451C541.984 50.4813 551.597 41.2949 563.376 41.2949ZM135.946 40.9062V80.9248H123.596V40.2715L94.0625 0H165.603L135.946 40.9062ZM306.135 70.8643L292.391 70.792L299.312 50.751L306.135 70.8643Z" fill="black"/>
</svg>
