<svg width="332" height="127" viewBox="0 0 332 127" fill="none" xmlns="http://www.w3.org/2000/svg">
<path d="M33.291 3.02805C34.9682 3.01863 36.788 3.11453 38.5 3.0593L38.499 3.05832C80.4913 3.01406 122.47 3.15888 164.465 3.19211L164.503 3.19308L164.539 3.18723C166.049 2.96246 167.283 3.56972 168.304 4.60129C169.333 5.64146 170.114 7.08452 170.672 8.42453C171.489 10.5833 170.83 12.8845 169.354 14.6032C167.873 16.3265 165.633 17.3896 163.411 17.115L163.381 17.112H163.35C121.931 17.123 80.5021 16.9564 39.0801 17.0339L38.5791 17.0349L38.5801 17.5359C38.6461 36.3634 38.6461 55.2024 38.5801 74.03L38.5791 74.531L39.0801 74.532C80.1313 74.5985 121.173 74.6866 162.226 74.6423C167.834 75.0595 173.053 72.0424 176.877 68.32L176.878 68.3191C182.46 62.847 184.062 54.8822 185.741 47.7751L185.74 47.7741C186.63 44.3462 186.909 40.8565 187.02 37.3806C187.131 33.8818 187.074 30.4527 187.288 27.0183C187.663 24.0685 190.303 22.3983 193.213 22.2097C196.123 22.0211 199.007 23.3353 199.844 26.0437C200.403 29.6959 200.518 33.4004 200.756 37.1462C200.979 40.6554 201.31 44.1838 202.233 47.6413L202.426 48.3318C204.612 55.8984 208.24 63.6121 214.741 68.5593V68.5603C219.568 72.4866 225.637 74.6389 231.676 75.5232L231.711 75.528H231.747C256.07 75.5722 280.397 75.5391 304.719 75.5612H304.738L304.758 75.5603C309.666 75.1823 315.193 73.9122 318.667 69.8581C319.076 69.502 319.461 69.0832 319.827 68.6823C320.208 68.2652 320.571 67.8661 320.955 67.5212C321.715 66.8393 322.488 66.4349 323.484 66.5945L323.542 66.6042L323.599 66.6003C325.396 66.4734 327.248 67.2514 328.606 68.5573C329.963 69.8619 330.779 71.6448 330.589 73.4812L330.582 73.5515L330.595 73.6218C330.897 75.2914 330.406 76.7396 329.521 78.0652C328.627 79.4049 327.353 80.5838 326.131 81.7038L326.126 81.7087C321.021 86.514 313.827 88.2408 306.927 88.9372C281.128 88.9486 255.33 88.9379 229.542 88.905C219.717 88.0123 209.849 84.1841 203.155 76.7751L203.143 76.7605L203.128 76.7468C201.557 75.2637 200.302 73.5173 199.051 71.7077C197.808 69.9107 196.566 68.0422 195.045 66.3933L194.548 65.8552L194.228 66.5134C188.702 77.8691 178.569 88.0074 165.518 88.8386C144.449 88.9436 123.38 88.9157 102.31 88.8894C81.2338 88.8631 60.156 88.8381 39.0781 88.9489L38.5771 88.9519L38.5801 89.4529C38.6461 98.92 38.6467 108.399 38.6025 117.879V117.894L38.6035 117.911C38.7849 120.892 36.5896 123.483 34.1025 125.146C31.9221 126.077 29.5297 125.471 27.7207 123.999C25.8975 122.515 24.751 120.218 25.04 117.921L25.0439 117.889V117.859C25.0552 108.377 25.0438 98.8864 25.0879 89.407L25.0898 88.9206L24.6035 88.905C21.4872 88.8049 18.3649 88.8493 15.2607 88.8728C12.1946 88.8959 9.14232 88.8976 6.09863 88.7234C4.63168 87.8097 3.08235 86.6437 1.98535 85.2507C0.867843 83.8316 0.244768 82.215 0.600586 80.3962L0.603516 80.3786L0.606445 80.3601C0.905415 77.8818 3.13534 75.6647 5.43945 74.6706C11.8183 74.3677 18.1673 74.6315 24.6045 74.5652L25.1006 74.5593L25.0986 74.0632C25.01 52.445 25.0545 30.8263 25.0654 9.21652V9.17355L25.0586 9.13058C24.8551 7.94992 25.2105 6.92265 25.8701 5.9968C26.5212 5.08308 27.4537 4.29095 28.3916 3.59152C29.9678 3.14903 31.6058 3.03751 33.291 3.02805Z" fill="black" stroke="black"/>
<path fill-rule="evenodd" clip-rule="evenodd" d="M193.544 0.108002C196.036 0.108002 198.425 1.10033 200.187 2.86668C201.948 4.63303 202.938 7.02872 202.938 9.52672C202.938 11.3896 202.387 13.2106 201.355 14.7595C200.323 16.3084 198.855 17.5156 197.139 18.2285C195.423 18.9414 193.534 19.1279 191.712 18.7645C189.889 18.401 188.215 17.504 186.902 16.1868C185.588 14.8695 184.693 13.1913 184.331 11.3642C183.968 9.53717 184.154 7.64338 184.865 5.92233C185.576 4.20129 186.78 2.73028 188.325 1.69534C189.87 0.6604 191.686 0.108002 193.544 0.108002Z" fill="black" stroke="black" stroke-width="0.216"/>
</svg>
