<svg width="600" height="137" viewBox="0 0 600 137" fill="none" xmlns="http://www.w3.org/2000/svg">
<path d="M225.4 136.599C226.2 136.399 226.8 135.999 227.4 135.599C228 135.199 228.4 134.599 228.7 133.899C229 133.199 229.2 132.499 229.2 131.699V131.599C229.2 130.899 229.1 130.199 228.8 129.699C228.6 129.199 228.2 128.699 227.7 128.299C227.2 127.899 226.6 127.499 225.9 127.299C225.2 126.999 224.4 126.799 223.5 126.499C222.6 126.299 222 126.099 221.4 125.899C220.9 125.699 220.4 125.499 220.1 125.299C219.8 125.099 219.6 124.899 219.4 124.599C219.3 124.299 219.2 123.999 219.2 123.699V123.599C219.2 122.999 219.4 122.499 219.9 122.099C220.4 121.699 221.1 121.499 222 121.499C222.8 121.499 223.6 121.699 224.4 121.999C225.2 122.299 226 122.799 226.8 123.299L228.5 120.999C227.6 120.299 226.6 119.699 225.6 119.399C224.6 118.999 223.4 118.799 222.1 118.799C221.2 118.799 220.4 118.899 219.7 119.199C219 119.399 218.3 119.799 217.8 120.199C217.3 120.599 216.9 121.199 216.6 121.799C216.3 122.399 216.2 123.099 216.2 123.899V123.999C216.2 124.799 216.3 125.499 216.6 126.099C216.9 126.699 217.2 127.099 217.7 127.499C218.2 127.899 218.8 128.199 219.5 128.499C220.2 128.799 221.1 128.999 222 129.199C222.8 129.399 223.5 129.599 224 129.799C224.5 129.999 224.9 130.199 225.2 130.399C225.5 130.599 225.7 130.799 225.8 131.099C225.9 131.299 226 131.599 226 131.899V131.999C226 132.699 225.7 133.199 225.2 133.599C224.6 133.999 223.9 134.199 222.9 134.199C221.8 134.199 220.8 133.999 220 133.599C219.1 133.199 218.3 132.599 217.4 131.899L215.5 134.099C216.6 135.099 217.7 135.799 218.9 136.199C220.1 136.699 221.4 136.899 222.8 136.899C223.8 136.899 224.6 136.799 225.4 136.599Z" fill="black"/>
<path d="M256.401 136.699H259.501V121.999H265.001V119.099H250.801V121.999H256.401V136.699Z" fill="black"/>
<path d="M288 136.699H301.1V133.899H291V129.199H299.8V126.399H291V121.899H301V119.099H288V136.699Z" fill="black"/>
<path d="M324.4 136.699H327.5V124.199L337.1 136.699H339.7V119.099H336.7V131.199L327.3 119.099H324.4V136.699Z" fill="black"/>
<path d="M402.6 131.499C402.6 132.299 402.3 132.899 401.7 133.299C401.1 133.699 400.3 133.899 399.2 133.899H394.1V129.099H399C400.2 129.099 401.1 129.299 401.7 129.699C402.3 130.099 402.6 130.699 402.6 131.499ZM401.6 124.099C401.6 124.899 401.3 125.499 400.7 125.899C400.1 126.299 399.3 126.499 398.3 126.499H394.1V121.799H398.5C399.5 121.799 400.3 121.999 400.8 122.399C401.4 122.799 401.6 123.399 401.6 124.099ZM391.1 136.699H399.2C400.2 136.699 401.1 136.599 401.9 136.399C402.7 136.199 403.4 135.899 404 135.499C404.6 135.099 405 134.599 405.3 133.999C405.6 133.399 405.8 132.699 405.8 131.899V131.799C405.8 131.199 405.7 130.699 405.6 130.199C405.4 129.699 405.2 129.399 404.9 128.999C404.6 128.699 404.2 128.399 403.8 128.099C403.4 127.899 402.9 127.599 402.4 127.499C402.7 127.299 403 127.099 403.3 126.899C403.6 126.699 403.9 126.399 404.1 126.099C404.3 125.799 404.5 125.399 404.7 124.999C404.8 124.599 404.9 124.099 404.9 123.599V123.499C404.9 122.299 404.5 121.399 403.7 120.599C402.7 119.599 401.1 118.999 399.1 118.999H391.2V136.699H391.1Z" fill="black"/>
<path d="M428.9 136.699H442V133.899H431.9V129.199H440.7V126.399H431.9V121.899H441.9V119.099H428.9V136.699Z" fill="black"/>
<path d="M470.5 136.699H473.6V129.699L480.6 119.099H477L472.1 126.899L467.2 119.099H463.5L470.5 129.699V136.699Z" fill="black"/>
<path d="M507.5 133.599C506.8 133.299 506.1 132.799 505.6 132.299C505.1 131.699 504.7 131.099 504.4 130.299C504.1 129.499 504 128.699 504 127.899V127.799C504 126.899 504.1 126.099 504.4 125.399C504.7 124.599 505.1 123.999 505.6 123.399C506.1 122.799 506.7 122.399 507.5 122.099C508.2 121.799 509 121.599 509.9 121.599C510.8 121.599 511.6 121.799 512.3 122.099C513 122.399 513.7 122.899 514.2 123.399C514.7 123.999 515.1 124.599 515.4 125.399C515.7 126.199 515.8 126.999 515.8 127.799C515.8 128.699 515.7 129.499 515.4 130.199C515.1 130.899 514.7 131.599 514.2 132.199C513.7 132.799 513.1 133.199 512.3 133.499C511.6 133.799 510.8 133.999 509.9 133.999C509 134.099 508.2 133.899 507.5 133.599ZM513.5 136.199C514.6 135.699 515.6 135.099 516.4 134.199C517.2 133.399 517.9 132.399 518.3 131.299C518.7 130.199 519 128.999 519 127.799V127.699C519 126.499 518.8 125.299 518.3 124.199C517.9 123.099 517.2 122.099 516.4 121.299C515.6 120.499 514.6 119.799 513.5 119.399C512.4 118.899 511.1 118.699 509.8 118.699C508.5 118.699 507.2 118.899 506.1 119.399C505 119.899 504 120.499 503.2 121.399C502.4 122.199 501.7 123.199 501.3 124.299C500.9 125.399 500.6 126.599 500.6 127.799V127.899C500.6 129.099 500.8 130.299 501.3 131.399C501.8 132.499 502.4 133.399 503.2 134.299C504 135.099 505 135.799 506.1 136.199C507.2 136.699 508.5 136.899 509.8 136.899C511.2 136.999 512.4 136.699 513.5 136.199Z" fill="black"/>
<path d="M542.4 136.699H545.5V124.199L555.1 136.699H557.7V119.099H554.7V131.199L545.3 119.099H542.4V136.699Z" fill="black"/>
<path d="M588.4 121.899C589.3 121.899 590.2 121.999 590.9 122.399C591.6 122.699 592.3 123.099 592.8 123.599C593.3 124.099 593.7 124.799 594 125.499C594.3 126.199 594.4 126.999 594.4 127.899V127.999C594.4 128.799 594.3 129.599 594 130.399C593.7 131.099 593.3 131.799 592.8 132.299C592.3 132.799 591.6 133.199 590.9 133.499C590.1 133.799 589.3 133.899 588.4 133.899H584.9V121.999H588.4V121.899ZM581.9 136.699H588.4C589.8 136.699 591 136.499 592.2 135.999C593.3 135.499 594.3 134.899 595.2 134.099C596 133.299 596.7 132.399 597.1 131.299C597.5 130.199 597.8 129.099 597.8 127.799V127.699C597.8 126.499 597.6 125.299 597.1 124.299C596.6 123.199 596 122.299 595.2 121.499C594.4 120.699 593.4 120.099 592.2 119.699C591.1 119.299 589.8 118.999 588.4 118.999H581.9V136.699Z" fill="black"/>
<path d="M584.3 20.499C584.3 24.599 587.6 27.999 591.7 27.999C595.8 27.999 599.1 24.599 599.1 20.499C599.1 16.399 595.8 13.099 591.7 13.099C587.6 13.099 584.3 16.499 584.3 20.499ZM583.5 20.499C583.5 15.999 587.2 12.299 591.7 12.299C596.2 12.299 599.9 15.999 599.9 20.499C599.9 24.999 596.2 28.699 591.7 28.699C587.2 28.799 583.5 25.099 583.5 20.499Z" fill="black"/>
<path d="M590.6 20.1989H591.1C592.7 20.1989 593.4 19.5989 593.4 18.4989C593.4 17.3989 592.6 16.8989 591.1 16.8989H590.5V20.1989H590.6ZM594 25.7989L590.9 21.4989H590.6V25.7989H588.9V15.3989H590.9C592.4 15.3989 593.4 15.6989 594 16.1989C594.7 16.7989 595.1 17.4989 595.1 18.4989C595.1 19.1989 594.9 19.8989 594.4 20.3989C593.9 20.8989 593.3 21.2989 592.6 21.3989L596 25.7989H594Z" fill="black"/>
<path d="M222.8 29.299H170.3V45.299H205.2V62.399H170.3V100.599H153.6V12.599H222.8V29.299Z" fill="black"/>
<path d="M300.9 56.199C300.9 48.499 298 41.899 292.3 36.399C286.6 30.899 279.7 28.099 271.6 28.099C263.5 28.099 256.6 30.799 250.9 36.199C245.2 41.599 242.3 48.299 242.3 56.199C242.3 64.199 245.2 70.999 250.9 76.699C256.6 82.399 263.5 85.199 271.6 85.199C279.7 85.199 286.5 82.399 292.3 76.699C298 70.999 300.9 64.199 300.9 56.199ZM317.6 56.199C317.6 68.799 313.1 79.599 304 88.599C294.9 97.599 284.1 102.099 271.6 102.099C259.1 102.099 248.3 97.599 239.2 88.599C230.1 79.599 225.6 68.899 225.6 56.399C225.6 43.599 230 32.899 238.9 24.199C247.7 15.499 258.6 11.099 271.6 11.099C283.8 11.099 294.6 15.599 303.8 24.499C313 33.499 317.6 43.999 317.6 56.199Z" fill="black"/>
<path d="M412.5 82.199C402.8 95.499 390.2 102.199 374.8 102.199C362.3 102.199 351.6 97.799 342.8 88.899C334 79.999 329.5 69.299 329.5 56.799C329.5 43.999 333.9 33.199 342.8 24.399C351.7 15.599 362.6 11.199 375.4 11.199C391 11.599 403.2 17.999 412.2 30.599L398.5 40.099C392 32.099 384.1 28.199 374.7 28.199C366.7 28.199 360 30.999 354.4 36.499C348.8 41.999 346.1 48.699 346.1 56.599C346.1 64.699 348.9 71.499 354.4 76.999C360 82.599 366.7 85.299 374.7 85.299C383.5 85.299 391.5 81.299 398.5 73.199L412.5 82.199Z" fill="black"/>
<path d="M481.8 64.499L467.4 33.899L452.8 64.499H481.8ZM517.3 100.599H498.8L489.9 81.399H445.1L435.9 100.599H417.4L459 12.599H475.7L517.3 100.599Z" fill="black"/>
<path d="M597.6 100.599H528.5V12.599H545.2V83.899H597.6V100.599Z" fill="black"/>
<path d="M52.8999 81.499C52.9999 92.199 58.7999 110.699 80.4999 116.899L71.3999 136.999C71.3999 136.999 53.4999 128.299 47.7999 112.899C40.9999 94.399 52.8999 81.499 52.8999 81.499Z" fill="black"/>
<path d="M67.3003 0.398944C113.3 2.99894 127.7 12.499 127.7 12.499L119.7 30.2989C119.7 30.2989 99.3003 23.899 65.2003 22.199C41.8003 21.099 23.3003 23.5989 9.20029 26.3989L0.000289648 6.39894C-0.0997104 6.49894 25.7003 -1.90106 67.3003 0.398944Z" fill="black"/>
<path d="M34.9004 37.499C34.9004 37.499 44.0004 32.899 51.3004 29.799C57.8004 27.099 63.6004 25.599 63.6004 25.599C70.7004 25.799 78.1004 26.599 85.7004 27.399C96.5004 28.499 105.4 30.399 105.4 30.399C105.4 30.399 95.7004 32.099 84.3004 36.099C72.5004 40.199 67.3004 42.799 67.3004 42.799C67.3004 42.799 51.7004 39.099 34.9004 37.499Z" fill="black"/>
<path d="M29.8 40.599C29.8 40.599 49.2 41.899 72.5 47.699C92.6 52.799 104.2 57.799 104.2 57.799L96.8 73.699C96.8 73.699 88.5 70.099 65.1 64.299C46.9 59.799 28 58.599 28 58.599L29.8 40.599Z" fill="black"/>
<path d="M60.2004 96.799C60.2004 96.799 57.4004 91.999 56.7004 85.799C56.1004 80.6989 57.0004 77.099 57.0004 77.099C57.0004 77.099 59.1004 74.699 62.6004 72.199C66.3004 69.499 68.2004 68.499 68.2004 68.499C68.2004 68.499 75.0004 70.199 80.5004 71.799C85.2004 73.199 93.7004 76.199 93.7004 76.199C93.7004 76.199 83.2004 78.199 73.0004 84.599C63.3004 90.499 60.2004 96.799 60.2004 96.799Z" fill="black"/>
</svg>
