<svg width="588" height="134" viewBox="0 0 588 134" fill="none" xmlns="http://www.w3.org/2000/svg">
<path d="M72.957 39.1643C77.6367 38.0889 87.4109 39.4571 92.644 38.8466C96.0996 38.4434 102.74 37.6009 105.892 38.025C106.288 38.5762 106.296 38.6719 106.368 39.3435C103.456 39.4648 99.0059 39.2782 95.9493 39.2658L72.957 39.1643Z" fill="black"/>
<path d="M29.2402 0.253601C33.7401 -0.0994493 38.2698 0.0157672 42.8037 0.026062L64.1396 0.0661011L89.709 0.0563354C94.6509 0.0565649 100.005 -0.107684 104.913 0.233093C115.939 0.998758 126.311 8.33218 131.067 18.2653C134.735 25.9242 134.109 34.7624 134.107 43.0358L134.092 65.9333L134.102 89.6071C134.11 94.4145 134.264 100.388 133.876 105.115C133.632 107.966 133.011 110.772 132.031 113.46C129.496 120.463 122.669 127.628 115.98 130.826C108.379 134.46 99.2359 133.959 91.042 133.961L69.4766 133.955L45.5771 133.942C37.6701 133.948 28.1266 134.535 20.8506 131.853C11.1478 128.277 3.44252 119.508 0.99707 109.523C0.737161 108.462 0.364303 106.972 0 105.971V27.8766C0.94581 25.2339 1.54018 21.8438 2.63379 19.4255C7.36718 8.95961 17.688 1.15992 29.2402 0.253601ZM105.889 38.0251C102.736 37.601 96.0963 38.4432 92.6406 38.8464C87.4076 39.4569 77.6328 38.0894 72.9531 39.1647C66.7257 39.6675 61.8469 40.8939 57.543 45.944C55.827 47.9525 54.5921 50.3263 53.9326 52.8845C52.4615 58.5322 53.2098 74.5735 53.0283 81.4079C42.4874 79.5938 32.705 80.3749 23.7793 86.6843C16.3554 91.9318 13.7839 101.041 19.2822 108.683C23.507 114.513 31.5652 117.643 38.4922 118.792C47.0223 120.206 56.9871 118.054 64.0781 113.059C72.1488 107.375 71.5199 100.566 71.4893 91.8776L71.416 76.8151C71.359 60.4965 75.1436 55.1811 92.4678 56.0222C110.732 56.9084 104.498 50.3256 106.364 39.3434C106.293 38.6719 106.284 38.5762 105.889 38.0251ZM106.224 15.0095C97.6531 14.8446 87.1027 14.7605 78.5029 14.9538C69.9473 15.2383 65.2916 16.3693 59.0508 22.8942C54.3529 27.8059 52.4671 34.1321 52.7051 40.861C52.7421 41.8675 52.788 42.8737 52.8428 43.8796C58.4299 37.0727 61.3135 34.2276 70.4688 32.6403C79.8802 31.534 96.1918 32.2694 106.239 32.1169L106.224 15.0095Z" fill="black"/>
<path d="M544.372 63.786C549.88 53.0894 564.813 49.6614 575.149 55.2137C582.467 59.1456 585.099 65.8742 587.215 73.3895V80.4578C587.06 80.947 586.888 81.7043 586.793 82.2342C584 97.6548 567.955 106.634 553.645 99.3387C540.757 92.8636 538.176 75.8277 544.372 63.786ZM564.216 63.6532C555.677 64.949 554.398 73.7393 555.453 81.0438C556.17 86.0045 558.539 90.0002 563.912 90.4295C566.223 90.2939 568.098 89.9179 569.62 87.9813C574.299 82.0238 574.156 64.3703 564.216 63.6532Z" fill="black"/>
<path d="M505.467 34.3486L505.453 100.966L494.136 100.931L493.049 95.8545C491.813 96.7878 490.566 97.7035 489.304 98.6016C484.711 101.803 480.748 102.429 475.323 101.462C453.83 95.9081 456.454 52.229 480.473 52.6826C485.279 52.7736 488.387 53.7361 491.75 57.1855C491.11 50.1931 491.254 41.419 491.311 34.3408L505.467 34.3486ZM491.254 66.9648C487.816 64.4939 485.941 63.8127 481.669 64.1865C478.899 65.5034 476.94 67.6839 476.003 70.6533C474.122 76.5997 474.199 87.3744 481.167 90.0459C482.162 90.4265 484.14 90.327 485.218 90.2656C487.867 89.5301 489.218 88.746 491.131 86.7031C491.604 81.5361 491.294 72.3325 491.254 66.9648Z" fill="black"/>
<path d="M367.481 39.032C372.43 38.7845 379.315 39.0192 384.344 39.1491C385.333 43.4736 387.754 49.4234 389.13 53.9792L403.638 100.965C398.801 100.865 393.961 100.856 389.121 100.937C388.748 99.1569 385.64 87.515 384.932 86.1599L384.284 85.9919C378.865 85.9615 371.3 85.7532 365.993 86.2077C364.906 90.7903 363.699 96.4401 362.317 100.845C357.541 101.06 352.755 101.071 347.979 100.879C349.555 95.5914 351.399 90.561 353.039 85.3288C356.248 75.0881 359.135 64.5902 362.659 54.4616C364.328 49.6633 365.635 43.5654 367.481 39.032ZM375.185 49.9558C373.178 58.8641 371.497 66.332 368.951 75.1267L376.478 75.2419C378.313 75.2055 380.329 75.2088 382.149 75.0984C381.653 72.2858 376.274 50.7161 375.259 50.0027C375.233 49.986 375.207 49.9713 375.185 49.9558Z" fill="black"/>
<path d="M232.722 52.7793C237.515 52.418 242.925 52.9409 247.061 55.5401C252.366 58.9172 256.127 64.2488 257.529 70.3799C260.817 84.6858 254.069 98.3113 239.096 101.698C231.955 102.296 227.225 101.394 221.166 96.8184C210.786 88.9806 209.862 71.0564 217.511 61.0557C221.301 56.1001 226.449 53.4724 232.722 52.7793ZM235.12 63.6475C227.054 65.0031 225.657 74.3629 226.794 81.1905C227.617 86.1325 229.889 90.1506 235.305 90.4336C237.615 90.2392 239.67 89.7071 241.062 87.7032C245.603 81.1675 245.536 64.465 235.12 63.6475Z" fill="black"/>
<path d="M436.887 53.6144C441.593 53.5367 446.298 53.5195 451.003 53.5628L451.017 72.6084L451.009 101.06L439.33 100.943C439.035 98.6625 438.806 96.3744 438.639 94.0811L438.1 94.5976C433.472 98.9934 429.639 102.136 422.878 101.932C407.128 101.458 408.665 84.6287 408.653 73.5653C408.596 66.898 408.653 60.2301 408.823 53.5648L422.115 53.5528C423.248 63.0926 421.955 73.3568 422.692 82.9721C423.446 92.8027 432.188 91.3 436.885 84.9118C437.266 75.5133 437.011 63.1064 436.887 53.6144Z" fill="black"/>
<path d="M168.219 39.0649C180.751 38.8929 194.572 38.8432 207.067 39.1254L207.043 50.6827L181.965 50.7108C181.746 55.0593 181.921 60.7315 181.938 65.1784C188.939 65.3585 196.597 65.2071 203.655 65.2524C203.586 68.8275 203.577 72.4032 203.628 75.9783L203.505 76.4646C202.307 76.9765 184.525 76.7488 181.958 76.7462C181.682 84.2736 181.909 93.3291 181.995 100.917C177.361 100.876 172.728 100.893 168.094 100.97L168.101 57.9095C168.1 54.3306 167.782 42.018 168.219 39.0649Z" fill="black"/>
<path d="M280.829 52.7778C281.098 52.7483 281.367 52.7262 281.637 52.7122C289.149 52.3204 294.763 53.4661 300.512 58.6075C298.502 61.0682 296.566 63.5892 294.709 66.1666C290.694 63.7908 283.235 60.4394 279.483 64.5906C275.359 69.1522 288.051 72.2022 290.746 73.4221C292.762 74.34 294.637 75.5339 296.323 76.9697C298.929 79.2291 300.386 81.6067 300.684 85.0978C301.584 95.633 293.16 101.214 283.377 101.797C275.335 101.983 269.688 100.476 263.623 94.7951C265.097 92.2041 267.15 89.5197 268.956 87.1628C273.43 89.8096 283.368 94.2319 286.987 89.2937C290.947 83.8919 274.453 80.3449 271.043 77.2662C265.033 71.8397 264.294 64.8997 268.985 58.3984C271.725 54.6011 276.578 53.2372 280.829 52.7778Z" fill="black"/>
<path d="M517.63 53.5454C522.307 53.513 526.986 53.5113 531.662 53.5402L531.631 100.94C526.957 100.89 522.284 100.901 517.613 100.974C517.432 85.5731 517.329 68.9126 517.63 53.5454Z" fill="black"/>
<path d="M309.725 53.5673C314.281 53.5117 318.84 53.5022 323.396 53.5392L323.388 100.908C318.966 100.794 314.118 100.9 309.665 100.913C309.656 85.2329 309.499 69.2158 309.725 53.5673Z" fill="black"/>
<path d="M522.879 32.4009C525.135 32.187 527.234 32.205 529.25 33.4032C530.761 34.2847 531.851 35.7406 532.269 37.4391C533.476 42.2978 530.721 45.2337 526.222 46.3383C522.142 46.7782 517.855 45.4545 516.878 41.1304C515.751 36.1357 518.506 33.5064 522.879 32.4009Z" fill="black"/>
</svg>
