<svg width="740" height="94" viewBox="0 0 740 94" fill="none" xmlns="http://www.w3.org/2000/svg">
<path fill-rule="evenodd" clip-rule="evenodd" d="M640.113 16.0367H637.522V62.1732H609.89V0.493431H658.493L706.11 46.7533H708.947V30.0997H709.318C709.441 30.2231 709.564 30.2231 709.811 30.3465C710.551 30.5932 711.661 30.8399 713.142 30.9633C714.005 30.9633 715.609 31.0866 718.199 31.21C720.667 31.21 723.01 31.3333 725.108 31.3333C729.302 31.3333 732.386 31.21 734.236 30.8399C735.1 30.5932 735.963 30.3464 736.703 30.0997H736.827V62.2966H688.223L640.113 16.0367ZM601.008 0.370064V14.6798H526.869V23.8084H596.69V37.6247H526.869V47.3701H601.008V62.0498H499.606V0.370064H601.008ZM721.53 3.45405C717.706 3.45405 715.115 3.57743 713.635 3.70079C712.155 3.94751 711.168 4.31758 710.428 4.93438C709.811 5.42782 709.441 6.41467 709.194 7.64827C708.947 8.88187 708.824 10.979 708.824 13.9396C708.824 17.147 708.947 19.3674 709.071 20.7244C709.318 22.0813 709.564 22.9449 710.058 23.5617C710.551 24.0551 711.044 24.3018 711.785 24.5485C712.401 24.7953 713.388 24.9186 714.869 25.042C715.362 25.042 718.076 25.1653 723.01 25.2887C727.451 25.2887 730.042 25.1653 730.905 25.1653C731.769 25.1653 732.632 25.042 733.373 24.7953C734.113 24.5486 734.73 24.3018 735.223 23.8084C735.716 23.3149 736.087 22.6981 736.21 21.958C736.58 20.3543 736.703 17.8871 736.703 14.1863C736.703 10.4856 736.58 8.01836 736.21 6.66141C735.963 5.92125 735.593 5.30445 735.1 4.81102C734.483 4.31758 733.866 3.94751 733.003 3.82415C732.016 3.70079 731.152 3.57742 730.165 3.57742C729.302 3.45406 726.341 3.45405 721.53 3.45405ZM711.291 0.986861C713.758 0.616783 717.829 0.370064 723.504 0.370064C728.315 0.370064 731.646 0.493416 733.496 0.863494C735.47 1.23357 736.827 1.85037 737.69 2.71389C738.307 3.20733 738.677 3.94749 739.047 4.68765C739.294 5.42781 739.541 6.53805 739.664 7.895C739.911 9.62204 739.911 11.8425 739.911 14.5564C739.911 18.0105 739.787 20.4777 739.417 22.3281C739.047 24.0551 738.554 25.412 737.69 26.1522C736.827 27.0157 735.47 27.6325 733.743 28.0026C731.892 28.2493 728.808 28.4961 724.614 28.4961C722.517 28.4961 720.297 28.4961 717.706 28.3727C715.239 28.2493 713.512 28.2493 712.648 28.126C711.291 28.0026 710.181 27.7559 709.318 27.5092C708.577 27.1391 707.837 26.6457 707.22 26.0289C706.357 25.1654 705.863 23.9318 705.493 22.3281C705.247 20.7244 705 18.1338 705 14.433C705 9.9921 705.37 6.90814 705.987 4.93438C707.097 2.71391 708.701 1.35694 711.291 0.986861ZM711.908 6.16798H724.614C727.575 6.16798 729.425 6.16799 730.042 6.29135C730.659 6.29135 731.152 6.53806 731.769 6.90814C732.509 7.27822 732.879 7.895 733.126 8.5118C733.373 9.25196 733.619 10.2388 733.619 11.5958C733.619 13.3228 733.373 14.5564 733.003 15.0498C732.632 15.6666 731.769 16.0368 730.535 16.1601C731.892 16.4068 732.632 16.6535 733.003 17.147C733.249 17.6404 733.496 18.874 733.496 20.8478V22.5748H727.945V21.4646C727.945 20.1076 727.821 19.2441 727.451 18.874C727.328 18.7506 727.081 18.6273 726.835 18.6273C726.588 18.6273 725.848 18.5039 724.737 18.5039H717.583V22.4514H712.031V6.16798H711.908ZM724.614 10.6089H717.583V14.063H724.614C726.341 14.063 727.328 13.9396 727.575 13.8162C727.945 13.5695 728.068 13.0761 728.068 12.2126C728.068 11.3491 727.945 10.8556 727.698 10.7323C727.328 10.7323 726.341 10.6089 724.614 10.6089ZM470.617 1.72703C479.622 2.83726 485.667 6.29132 488.504 11.9659C489.367 13.8162 490.108 16.1601 490.601 18.9974C490.971 20.9711 491.218 24.7953 491.218 30.3465C491.218 35.7743 490.971 40.0918 490.478 42.9291C490.108 45.5197 489.367 47.9869 488.257 50.4541C485.543 56.0052 479.869 59.2126 471.357 60.4462C468.026 61.063 463.832 61.5564 458.898 61.9265H371.189V0.246697H436.569C444.835 0.246697 452.359 0.370071 459.268 0.493431C463.215 0.863509 466.916 1.23359 470.617 1.72703ZM398.205 16.0367V46.6299H436.693C444.465 46.6299 449.769 46.5065 452.483 46.1365C455.937 45.7664 458.404 45.1496 459.761 44.4094C461.365 43.4226 462.352 42.0656 462.845 40.2152C463.585 38.6115 463.832 35.6509 463.832 31.5801C463.832 27.6325 463.462 24.7953 462.845 22.9449C462.598 20.9711 461.611 19.4908 460.131 18.5039C458.898 17.3937 456.677 16.6535 453.47 16.2834C450.756 16.0367 445.205 15.79 436.446 15.79H398.205V16.0367ZM295.94 14.8031H290.512L272.995 38.1181H313.457L295.94 14.8031ZM158.394 0.370064V46.6299H215.016V62.1732H129.157V0.493431H158.394V0.370064ZM119.042 11.7192C119.782 14.1863 120.029 17.517 120.029 21.8346H92.5197C92.5197 20.1076 92.2729 18.9974 91.9029 18.3806C91.6562 17.8871 91.1627 17.3937 90.2992 16.9002C88.6955 16.0367 85.4882 15.5433 80.5538 15.4199C68.3412 15.1732 61.5564 15.1732 60.3228 15.1732C51.5643 15.1732 44.7795 15.4199 39.9685 15.79C35.8976 16.1601 32.937 16.6535 31.3333 17.517C29.7297 18.5039 28.7428 19.8609 28.2493 21.7113C27.7559 23.4383 27.6325 26.6457 27.6325 31.4567C27.6325 36.7612 27.8793 40.4619 28.2493 42.4357C28.7428 44.5328 29.7297 46.0131 31.3333 46.8766C32.937 47.6168 35.0341 48.1102 37.5013 48.2336C38.4882 48.357 46.0131 48.4803 60.0761 48.8504L83.1443 48.6037C85.4882 48.4803 87.5853 48.2336 89.4357 47.8635C90.916 47.2467 91.9029 46.6299 92.3963 45.8897C92.8897 45.0262 93.1365 43.6693 93.1365 41.8189L93.3832 40.0919H56.7454V27.5092H120.029L120.276 28.9895C120.276 38.4882 119.905 45.1496 119.165 48.8504C118.055 55.8819 112.134 60.1994 101.278 61.9265C97.5774 62.4199 92.273 62.79 85.4882 63.2834C80.1837 63.5302 70.9317 63.5302 57.8556 63.5302C42.189 63.5302 31.0866 63.2834 24.6719 62.6666C18.3806 62.1732 13.3228 60.9396 9.49868 59.2126C7.15485 58.1024 5.1811 56.4987 3.57743 54.6483C2.34383 53.0446 1.48031 50.7008 0.986876 47.4934C0.370078 45.1496 0 39.5984 0 30.8399C0 24.9186 0.24672 20.7244 0.740158 18.1338C0.986877 15.2966 1.85039 12.8294 3.20735 10.6089C6.04462 5.67455 11.5958 2.7139 19.8609 1.72703C29.4829 0.61679 43.7926 0 62.79 0C74.3858 0 83.3911 0.246727 89.8058 0.740165C96.3438 1.11024 101.895 1.72703 106.336 2.46719C113.367 3.57743 117.562 6.78478 119.042 11.7192ZM362.43 62.1732H330.974L323.202 51.6876H263.249L254.984 62.1732H223.774L271.884 0.493431H314.814L362.43 62.1732Z" fill="black"/>
<path fill-rule="evenodd" clip-rule="evenodd" d="M547.224 72.5355V93.6299H543.893V69.6982H549.198L570.416 90.7927H571.279V69.6982H574.24V93.6299H569.059L547.841 72.5355H547.224ZM540.439 69.5748V93.6299H537.479V82.5276H515.274V93.6299H511.943V69.6982H515.274V79.567H537.479V69.6982H540.439V69.5748ZM505.282 70.1916C506.269 70.4383 506.886 70.8084 507.502 71.5486C508.119 72.042 508.613 72.6588 508.859 73.399C509.106 74.1391 509.106 75.4961 509.106 77.5932H506.022V76.853C506.022 75.6194 505.899 74.7559 505.652 74.2625C505.529 73.769 505.158 73.399 504.542 73.1522C503.308 72.6588 500.471 72.2888 496.03 72.2888C492.946 72.2888 490.602 72.4121 488.998 72.5355C487.395 72.6588 486.408 73.0289 485.914 73.399C485.421 73.8924 485.174 74.6326 484.928 75.7428C484.804 76.9764 484.681 78.5801 484.681 80.5538V84.2546C484.804 85.8583 484.928 87.0919 484.928 87.7087C485.051 88.5722 485.421 89.3123 485.914 89.6824C486.284 90.1759 487.025 90.4226 488.012 90.546C489.739 90.546 492.329 90.6693 495.907 90.6693C497.017 90.6693 498.374 90.6693 499.854 90.546H502.938C504.048 90.4226 504.665 90.1759 505.035 89.8058C505.405 89.5591 505.775 89.3124 506.022 88.8189C506.145 88.3255 506.145 87.0919 506.145 85.2415H509.476C509.353 87.3386 509.229 88.8189 509.229 89.6824C508.736 91.5328 507.502 92.6431 505.529 93.0131C503.925 93.2599 500.964 93.5066 496.893 93.5066C491.466 93.5066 487.888 93.3832 486.038 93.0131C484.187 92.5197 482.954 91.5328 482.337 90.1759C481.72 88.6956 481.473 85.9817 481.473 82.0342C481.473 78.0866 481.72 75.2494 482.214 73.5224C482.707 71.5486 484.187 70.315 486.531 69.8216C488.752 69.5748 491.959 69.5748 496.277 69.5748C500.224 69.5748 503.308 69.8215 505.282 70.1916ZM479.623 72.2888H459.145V79.567H478.513V82.5276H459.145V90.7927H479.623V93.6299H455.938V69.6982H479.623V72.2888ZM454.211 72.2888H442.245V93.6299H438.914V72.2888H427.072V69.5748H454.334V72.2888H454.211ZM416.216 69.5748V93.6299H410.912L389.694 72.5355H389.201V93.6299H385.993V69.6982H391.174L412.515 90.7927H413.256V69.6982H416.216V69.5748ZM378.222 88.5722H358.854L355.77 93.6299H352.316L365.886 69.6982H371.19L384.76 93.6299H381.059L378.222 88.5722ZM367.736 72.2888L360.211 85.8583H376.494L369.093 72.2888H367.736ZM330.235 93.6299L316.665 72.5355H315.308V93.6299H311.977V69.6982H318.639L331.592 90.0525L344.421 69.6982H351.082V93.6299H347.752V72.5355H346.395L332.949 93.6299H330.235ZM728.686 69.5748L713.883 83.7612V93.6299H710.922V83.7612L696.119 69.5748H700.56L712.526 80.9239L724.122 69.5748H728.686ZM674.531 72.5355C673.051 72.6588 672.064 73.0289 671.571 73.6457C671.2 74.0158 670.954 74.7559 670.83 75.8662C670.584 77.0998 670.584 78.9502 670.584 81.294C670.584 84.8714 670.707 87.2153 671.077 88.2021C671.077 88.8189 671.447 89.4357 671.817 89.9292C672.187 90.1759 672.804 90.4226 673.544 90.546C675.148 90.7927 678.602 90.7927 684.03 90.7927C686.867 90.7927 689.088 90.6693 690.568 90.546C691.802 90.4226 692.542 89.9291 692.788 89.0656C693.282 88.4488 693.405 86.8452 693.405 84.378H680.823V81.6641H696.366V84.1312C696.366 86.4751 696.242 87.9554 696.119 88.8189C695.996 90.0525 695.749 91.0394 695.132 91.7796C694.515 92.3963 693.652 92.7664 692.542 93.1365C691.185 93.63 687.854 93.8767 682.673 93.8767C677.862 93.8767 674.408 93.7533 672.434 93.3832C670.707 93.1365 669.35 92.3963 668.487 90.916C667.623 89.5591 667.253 86.5984 667.253 81.7874C667.253 78.4567 667.5 75.8662 668.116 73.8924C668.363 72.2887 669.35 71.1785 671.077 70.5617C672.804 70.0683 676.258 69.6982 681.316 69.6982H686.99C688.964 69.8216 690.321 69.9449 691.185 69.9449C692.665 70.0683 693.899 70.6851 694.886 71.7953C695.009 71.9186 695.132 72.042 695.379 72.1654C695.872 72.6588 696.119 73.1522 696.119 73.769C696.366 74.6326 696.366 75.7428 696.366 77.2231H693.158C693.158 75.3727 692.912 74.2625 692.295 73.769C692.048 73.399 691.555 73.1523 690.938 72.9056C690.445 72.7822 689.458 72.6588 688.224 72.6588C686.62 72.5355 684.4 72.4121 681.686 72.4121C678.355 72.2887 675.888 72.4121 674.531 72.5355ZM654.794 72.2888H648.256C644.925 72.2888 642.458 72.4121 640.854 72.7822C639.867 72.9055 639.127 73.2756 638.757 73.6457C638.387 74.0158 638.14 74.6326 638.017 75.3727C637.77 76.7297 637.523 78.8268 637.523 81.294C637.523 83.8845 637.647 85.8583 637.77 87.0919C637.893 88.2021 638.14 89.0657 638.51 89.5591C638.88 89.9292 639.25 90.1759 639.867 90.4226C640.607 90.5459 641.471 90.6693 642.581 90.916C644.555 90.916 646.899 91.0394 649.859 91.0394C653.683 91.0394 656.521 90.916 658.248 90.7927C659.605 90.4226 660.468 89.5591 660.838 88.0788C661.085 86.7218 661.085 84.6247 661.085 82.0342C661.085 78.8268 660.962 76.6063 660.838 75.3727C660.468 74.0158 659.605 73.2756 658.001 73.1522C657.014 72.6588 656.027 72.4121 654.794 72.2888ZM662.442 71.5486C663.059 72.042 663.429 72.5355 663.675 73.1522C663.799 73.8924 663.922 74.8793 664.046 76.1129C664.292 77.5932 664.416 79.4436 664.416 81.6641C664.416 84.6247 664.292 86.8452 664.046 88.4488C663.799 90.0525 663.305 91.0394 662.565 91.6562C661.825 92.5197 660.592 93.0132 658.988 93.2599C657.384 93.5066 654.67 93.7533 651.093 93.7533H644.925C642.828 93.63 641.471 93.5066 640.854 93.5066C639.62 93.3832 638.634 93.1365 638.017 93.0131C637.153 92.6431 636.536 92.273 636.043 91.6562C635.303 90.916 634.809 89.8058 634.686 88.4488C634.316 87.0919 634.193 84.8714 634.193 81.5407C634.193 77.8399 634.439 75.126 634.933 73.5224C635.673 71.672 637.153 70.5617 639.25 70.0683C641.471 69.8215 645.048 69.8216 649.983 69.8216C654.177 69.8216 657.137 69.9449 658.741 70.0683C660.468 70.315 661.578 70.8084 662.442 71.5486ZM633.082 93.6299H611.001V69.6982H613.962V90.7927H633.082V93.6299ZM605.573 71.5486C606.19 72.042 606.56 72.5355 606.93 73.1522C606.93 73.8924 607.053 74.8793 607.177 76.1129C607.547 77.5932 607.67 79.4436 607.67 81.6641C607.67 84.6247 607.547 86.8452 607.177 88.4488C606.93 90.0525 606.56 91.0394 605.82 91.6562C605.08 92.5197 603.969 93.0132 602.366 93.2599C600.762 93.5066 598.172 93.7533 594.471 93.7533H588.303C586.206 93.63 584.725 93.5066 584.109 93.5066C582.875 93.3832 581.888 93.1365 581.271 93.0131C580.531 92.6431 579.791 92.273 579.298 91.6562C578.557 90.916 578.064 89.8058 577.817 88.4488C577.571 87.0919 577.447 84.8714 577.447 81.5407C577.447 77.8399 577.694 75.126 578.187 73.5224C578.927 71.672 580.408 70.5617 582.505 70.0683C584.725 69.8215 588.179 69.8216 593.114 69.8216C597.308 69.8216 600.269 69.9449 601.996 70.0683C603.723 70.315 604.833 70.8084 605.573 71.5486ZM598.048 72.2888H591.51C588.056 72.2888 585.712 72.4121 584.109 72.7822C583.122 72.9055 582.382 73.2756 582.135 73.6457C581.765 74.0158 581.518 74.6326 581.271 75.3727C580.901 76.7297 580.778 78.8268 580.778 81.294C580.778 83.8845 580.901 85.8583 581.025 87.0919C581.271 88.2021 581.518 89.0657 581.765 89.5591C582.135 89.9292 582.505 90.1759 583.122 90.4226C583.862 90.5459 584.725 90.6693 585.836 90.916C587.809 90.916 590.277 91.0394 592.99 91.0394C596.815 91.0394 599.652 90.916 601.502 90.7927C602.859 90.4226 603.723 89.5591 604.093 88.0788C604.34 86.7218 604.586 84.6247 604.586 82.0342C604.586 78.8268 604.463 76.6063 604.093 75.3727C603.846 74.0158 602.859 73.2756 601.256 73.1522C600.392 72.6588 599.282 72.4121 598.048 72.2888ZM308.277 72.5355C308.893 73.5223 309.14 75.0026 309.14 76.853C309.14 78.21 309.017 79.1969 308.893 79.937C308.77 80.6772 308.523 81.1706 308.03 81.6641C307.536 82.5276 306.55 83.021 305.316 83.3911C306.303 83.5145 307.043 83.8845 307.783 84.5013C308.03 84.9948 308.4 85.6116 308.647 86.3517C308.77 87.0919 308.77 88.4488 308.77 90.4226V93.7533H305.563V91.4095V87.462C305.316 85.8583 304.452 84.8714 302.972 84.748C302.232 84.6247 301.739 84.6247 301.245 84.6247H296.434H284.715V93.8767H281.631V69.9449H296.434C300.505 69.9449 303.096 70.0683 304.329 70.1916C306.179 70.0683 307.536 70.9318 308.277 72.5355ZM296.434 72.2888H284.715V81.5407H296.434C299.518 81.5407 301.492 81.5407 302.602 81.4174C303.342 81.294 304.082 81.0473 304.823 80.8006C305.563 80.1838 305.933 78.9501 305.933 76.853C305.933 75.0026 305.563 73.769 304.823 73.1522C304.329 72.7822 303.466 72.5355 302.479 72.5355C301.368 72.4121 299.395 72.2888 296.434 72.2888ZM279.164 72.2888H258.686V79.567H278.177V82.5276H258.686V90.7927H279.164V93.6299H255.479V69.6982H279.164V72.2888ZM250.668 71.7953C251.285 72.2887 251.778 73.0289 252.025 73.769C252.271 74.6326 252.395 75.7428 252.395 77.2231H249.187C249.187 75.3727 248.941 74.2625 248.447 73.769C248.077 73.399 247.584 73.1523 246.967 72.9056C246.473 72.7822 245.61 72.6588 244.376 72.6588C242.526 72.5355 240.429 72.4121 237.838 72.4121C234.508 72.4121 232.04 72.5355 230.56 72.6588C229.203 72.7822 228.216 73.1522 227.599 73.769C227.229 74.1391 226.859 74.8793 226.736 75.9895C226.613 77.2231 226.489 79.0735 226.489 81.4174C226.489 84.9948 226.613 87.3386 226.983 88.3255C226.983 88.9423 227.353 89.5591 227.723 90.0525C228.093 90.2992 228.71 90.546 229.45 90.6693C231.054 90.916 234.631 90.916 239.812 90.916C242.773 90.916 244.87 90.7927 246.103 90.6693C247.584 90.546 248.324 90.0525 248.447 89.189C248.941 88.5722 249.064 86.9685 249.064 84.5013H236.728V81.7874H252.271C252.271 85.4882 252.148 87.9554 252.025 88.9423C251.901 90.1759 251.531 91.1628 250.914 91.9029C250.421 92.5197 249.557 92.8898 248.324 93.2599C246.844 93.7533 243.513 94 238.455 94C233.644 94 230.19 93.8767 228.216 93.5066C226.366 93.2599 225.132 92.5197 224.392 91.0394C223.405 89.6824 223.035 86.7218 223.035 81.9108C223.035 78.5801 223.282 75.9895 223.652 74.0158C224.145 72.4121 225.256 71.3019 226.859 70.6851C228.586 70.1916 232.04 69.8216 237.098 69.8216H242.649C244.623 69.9449 245.98 70.0683 246.72 70.0683C248.571 70.0683 249.681 70.6851 250.668 71.7953Z" fill="black"/>
</svg>
