<svg width="724" height="167" viewBox="0 0 724 167" fill="none" xmlns="http://www.w3.org/2000/svg">
<path d="M278.888 41.6278H238.923V70.825H208.135V41.6278H168.17V120.908H208.135V90.0489H238.923V120.908H278.888V41.6278Z" fill="black"/>
<path d="M395.463 101.901H336.708V89.1094H384.262V71.4032H336.708V59.9122H395.463V41.6278H297.537V120.908H395.463V101.901Z" fill="black"/>
<path d="M504.451 101.468H453.284V41.6278H412.957V120.908H504.451V101.468Z" fill="black"/>
<path d="M555.549 41.6278H515.223V120.908H555.549V41.6278Z" fill="black"/>
<path d="M709.257 22.476H673.339L633.084 60.1288L614.655 41.6276H568.041L608.729 80.7981L566.307 120.908H603.02L625.713 97.7817L676.663 149.238H724.001L654.043 78.4855L709.257 22.476Z" fill="black"/>
<path fill-rule="evenodd" clip-rule="evenodd" d="M43.3622 53.047V36.8585L51.3842 28.6919V53.047H43.3622ZM28.9081 97.5656V114.043L0 80.0039L7.22703 72.7768L28.9081 97.7823V97.5656ZM70.4636 146.637V162.753L44.3017 132.328V88.3872H29.2695V77.5466H52.3237V125.462L70.4636 146.709V146.637Z" fill="black"/>
<path fill-rule="evenodd" clip-rule="evenodd" d="M109.565 147.865C108.63 148.744 107.89 149.809 107.392 150.992C106.894 152.174 106.649 153.448 106.674 154.731C106.602 156.067 106.817 157.403 107.303 158.649C107.789 159.895 108.535 161.023 109.493 161.958C110.429 162.917 111.556 163.67 112.8 164.168C114.045 164.666 115.38 164.898 116.72 164.849C118.67 164.888 120.588 164.345 122.229 163.291C123.87 162.236 125.16 160.717 125.935 158.927C126.71 157.137 126.935 155.156 126.581 153.238C126.227 151.319 125.31 149.55 123.947 148.154C123.052 147.241 121.984 146.515 120.805 146.02C119.626 145.525 118.36 145.269 117.081 145.269C115.802 145.269 114.536 145.525 113.357 146.02C112.179 146.515 111.11 147.241 110.215 148.154L109.565 147.865ZM124.597 162.753C123.559 163.827 122.311 164.676 120.931 165.247C119.551 165.819 118.069 166.102 116.575 166.077C115.08 166.115 113.593 165.839 112.212 165.266C110.83 164.693 109.584 163.837 108.553 162.753C107.496 161.706 106.663 160.455 106.104 159.076C105.545 157.697 105.271 156.219 105.301 154.731C105.289 152.858 105.741 151.01 106.616 149.354C107.492 147.698 108.764 146.284 110.319 145.24C111.874 144.195 113.663 143.551 115.528 143.366C117.392 143.181 119.273 143.461 121.003 144.18C122.733 144.899 124.258 146.036 125.441 147.488C126.625 148.94 127.431 150.662 127.787 152.502C128.143 154.341 128.038 156.24 127.481 158.028C126.925 159.817 125.934 161.44 124.597 162.753ZM118.671 150.467C117.87 150.052 116.967 149.877 116.069 149.961H114.19V154.514H116.142C116.836 154.616 117.542 154.616 118.237 154.514C118.636 154.374 118.979 154.108 119.214 153.756C119.448 153.404 119.562 152.985 119.538 152.563C119.588 152.21 119.532 151.85 119.378 151.528C119.224 151.207 118.978 150.938 118.671 150.756V150.467ZM116.358 148.516C117.507 148.462 118.657 148.609 119.755 148.949C120.369 149.186 120.886 149.619 121.226 150.182C121.567 150.744 121.71 151.404 121.634 152.057C121.678 152.533 121.594 153.011 121.391 153.443C121.188 153.875 120.872 154.245 120.478 154.514C119.929 154.845 119.31 155.043 118.671 155.092C119.502 155.216 120.253 155.656 120.767 156.321C121.225 156.869 121.48 157.558 121.49 158.272V160.079C121.418 160.29 121.418 160.519 121.49 160.729H119.394V159.067C119.452 158.528 119.376 157.982 119.175 157.478C118.973 156.974 118.651 156.527 118.237 156.176C117.426 156.02 116.592 156.02 115.78 156.176H114.046V161.091H111.878V148.516H116.358Z" fill="black"/>
<path d="M80.6562 0C100.747 21.6811 152.927 82.1713 152.927 82.1713L80.6562 161.669V0Z" fill="black"/>
</svg>
