<svg width="601" height="85" viewBox="0 0 601 85" fill="none" xmlns="http://www.w3.org/2000/svg">
<path d="M122.7 3.69998C123.5 3.69998 124.2 2.99998 124.2 2.19998V1.60001C124.2 0.800006 123.5 0.100006 122.7 0.100006H101.3C100.5 0.100006 99.8 0.800006 99.8 1.60001V2.19998C99.8 2.99998 100.5 3.69998 101.3 3.69998H101.5V43.9C99.3 44.8 94.7 46.2 88.4 46.1C74.2 45.7 66.3 36.3 57.6 30.6C49 25 41.9 22.9 34.8 22.9C29.5 22.9 24.9 24.6 22.9 25.5H22.8V3.60001H23C23.8 3.60001 24.5 2.90001 24.5 2.10001V1.5C24.5 0.7 23.8 0 23 0H1.5C0.7 0 0 0.7 0 1.5V2.10001C0 2.90001 0.6 3.60001 1.5 3.60001H1.7V80.4H1.5C0.7 80.4 0 81 0 81.9V82.5C0 83.3 0.6 84 1.5 84H1.7H22.7H22.9C23.7 84 24.4 83.3 24.4 82.5V81.9C24.4 81.1 23.7 80.4 22.9 80.4H22.7V45.2H22.8C24.6 44.3 28.9 42.3 35.7 42.4C47.8 42.5 55.8 50.6 62.6 55.6C67.8 59.4 75.4 63.3 87.7 64.1C93.9 64.5 98.5 63.3 101.5 62.1V80.4H101.3C100.5 80.4 99.8 81 99.8 81.9V82.5C99.8 83.3 100.5 84 101.3 84H101.5H122.5H122.7C123.5 84 124.2 83.3 124.2 82.5V81.9C124.2 81.1 123.5 80.4 122.7 80.4H122.5V3.60001H122.7V3.69998Z" fill="black"/>
<path d="M116.099 51.9C112.899 54.5 102.899 62.1 89.1992 62.1C75.4992 62.1 66.1992 55.8 61.5992 52.4C58.1992 49.9 49.2992 40.3 35.0992 40.1C21.5992 39.8 8.19922 52.3 8.19922 52.3V37.9C9.49922 36.6 21.0992 25.3 35.1992 25.5C49.3992 25.7 59.8992 35 63.3992 37.4C66.8992 39.8 75.5992 48.7 89.2992 48.7C102.999 48.7 112.999 40.6 116.099 38V51.9Z" fill="black"/>
<path d="M242.4 71.9H241.8C241 71.9 240.3 72.6 240.3 73.4V73.7H165.2V47.4H226.5V47.5C226.5 48.3 227.2 49 228 49H228.6C229.4 49 230.1 48.3 230.1 47.5V36.8C230.1 36 229.4 35.3 228.6 35.3H228C227.2 35.3 226.5 35.9 226.5 36.8V36.9H165.2V10.6H240.3V10.9C240.3 11.7 241 12.4 241.8 12.4H242.4C243.2 12.4 243.9 11.7 243.9 10.9V10.6V0.100006H165.2H160H144C143.2 0.100006 142.5 0.800006 142.5 1.60001V2.19998C142.5 2.99998 143.2 3.69998 144 3.69998H144.2V80.5H144C143.2 80.5 142.5 81.1 142.5 82V82.6C142.5 83.4 143.2 84.1 144 84.1H144.2H160H165.2H243.9V73.6V73.4C243.9 72.5 243.2 71.9 242.4 71.9Z" fill="black"/>
<path d="M281.399 10.6H316.499C324.799 10.4 341.899 12.5 341.899 24.8V25.1C341.899 36.3 324.799 39.5 316.399 39.4H281.399V10.6ZM370.299 80.5H369.899L335.499 48.7C346.599 46.1 360.399 39.4 360.399 25.6V25C360.399 4.3 335.299 0.100006 325.599 0.100006H281.599H281.399H271.299H260.399H260.199C259.399 0.100006 258.699 0.800006 258.699 1.60001V2.19998C258.699 2.99998 259.299 3.69998 260.199 3.69998H260.399V80.5H260.199C259.399 80.5 258.699 81.1 258.699 82V82.6C258.699 83.4 259.299 84.1 260.199 84.1H260.399H281.399H281.599C282.399 84.1 283.099 83.4 283.099 82.6V82C283.099 81.2 282.499 80.5 281.599 80.5H281.399V50H316.999L352.299 84.1H356.199H369.999H370.399C371.199 84.1 371.899 83.4 371.899 82.6V82C371.699 81.2 371.099 80.5 370.299 80.5Z" fill="black"/>
<path d="M367.199 0.100006V10.8C367.199 11.6 367.899 12.3 368.699 12.3H369.299C370.099 12.3 370.799 11.7 370.799 10.8V10.6H415.499V80.5H415.199C414.399 80.5 413.699 81.1 413.699 82V82.6C413.699 83.4 414.399 84.1 415.199 84.1H415.399H436.399H436.599C437.399 84.1 438.099 83.4 438.099 82.6V82C438.099 81.2 437.499 80.5 436.599 80.5H436.399V10.6H481.099V10.8C481.099 11.6 481.799 12.3 482.599 12.3H483.199C483.999 12.3 484.699 11.7 484.699 10.8V10.6V0.100006H367.199Z" fill="black"/>
<path d="M598.6 71.9H598C597.2 71.9 596.5 72.6 596.5 73.4V73.7H510.6L600 10.7H600.1V0.199982H495.1V10.7V10.9C495.1 11.7 495.8 12.4 496.6 12.4H497.2C498 12.4 498.7 11.8 498.7 10.9V10.7H573.9L484.6 73.7V84.2H600.1V77.1V73.7V73.4C600.1 72.6 599.4 71.9 598.6 71.9Z" fill="black"/>
</svg>
