<svg width="253" height="216" viewBox="0 0 253 216" fill="none" xmlns="http://www.w3.org/2000/svg">
<path d="M178.427 83.0069C182.144 85.9007 183.351 90.7081 184.448 95.1058C184.448 95.4389 184.448 95.772 184.448 96.1152C187.203 95.9577 188.667 94.2955 190.595 92.5192C199.726 84.3553 199.726 84.3553 204.151 83.8132C205.908 84.0377 206.726 84.4701 208.154 85.5166C211.253 90.0682 213.703 96.6034 213.703 102.172C214.035 102.172 214.368 102.172 214.711 102.172C214.888 101.537 215.065 100.902 215.247 100.247C216.391 96.841 218.072 93.1698 221.15 91.1727C223.035 90.4687 224.523 90.3448 226.533 90.3427C227.167 90.333 227.801 90.3232 228.454 90.3132C230.992 90.6488 232.871 91.3731 234.539 93.3764C235.148 94.2889 235.686 95.2151 236.211 96.1783C236.402 96.5183 236.592 96.8584 236.789 97.2087C237.166 97.8848 237.54 98.5629 237.909 99.2431C238.331 99.9976 238.794 100.729 239.267 101.452C240.781 103.912 241.091 106.109 241.048 108.955C241.045 109.342 241.042 109.729 241.039 110.128C240.94 117.258 240.462 124.383 240.073 131.502C239.608 140.078 239.346 148.594 239.426 157.183C245.918 157.433 245.918 157.433 252.54 157.688C252.54 167.015 252.54 176.341 252.54 185.951C244.801 186.201 244.801 186.201 236.904 186.456C236.881 189.317 236.874 192.174 236.904 195.035C236.907 195.401 236.91 195.767 236.913 196.144C236.927 197.163 236.963 198.181 236.999 199.199C237.017 199.795 237.034 200.391 237.052 201.005C237.506 203.043 238.387 203.77 239.931 205.129C241.071 206.841 241.117 207.589 241.16 209.608C241.18 210.128 241.2 210.647 241.221 211.182C240.827 213.307 240.179 213.982 238.418 215.223C236.819 215.581 235.29 215.576 233.657 215.539C233.027 215.553 233.027 215.553 232.384 215.568C230.264 215.551 228.776 215.408 227.083 214.068C224.836 211.657 224.637 209.988 224.673 206.738C224.669 206.392 224.665 206.045 224.661 205.688C224.662 205.344 224.664 205.001 224.665 204.646C224.666 204.339 224.667 204.032 224.669 203.716C224.799 202.606 224.799 202.606 225.308 201.178C226.127 198.363 225.914 195.447 225.871 192.543C225.866 191.958 225.862 191.372 225.857 190.768C225.845 189.331 225.829 187.893 225.808 186.456C225.193 186.457 224.578 186.459 223.945 186.461C209.363 186.505 194.781 186.538 180.199 186.559C178.405 186.561 176.612 186.564 174.818 186.566C174.461 186.567 174.104 186.568 173.736 186.568C167.949 186.577 162.162 186.593 156.376 186.611C150.441 186.63 144.505 186.641 138.57 186.646C135.236 186.648 131.901 186.654 128.566 186.669C125.43 186.683 122.294 186.687 119.158 186.684C118.005 186.684 116.851 186.688 115.698 186.696C114.128 186.706 112.558 186.704 110.988 186.698C110.527 186.704 110.067 186.71 109.592 186.716C106.522 186.687 106.522 186.687 105.227 185.508C104.647 184.192 104.584 183.252 104.613 181.814C104.62 181.292 104.627 180.77 104.634 180.233C104.658 179.392 104.658 179.392 104.682 178.534C104.693 177.957 104.704 177.38 104.715 176.785C104.74 175.566 104.768 174.346 104.801 173.127C104.849 171.255 104.884 169.384 104.917 167.512C104.943 166.328 104.97 165.145 104.997 163.961C105.008 163.399 105.018 162.836 105.029 162.257C105.044 161.738 105.059 161.219 105.074 160.684C105.086 160.226 105.097 159.769 105.108 159.297C105.259 158.193 105.259 158.193 106.268 157.183C107.176 157.058 107.176 157.058 108.298 157.059C108.725 157.057 109.153 157.055 109.593 157.053C110.065 157.056 110.537 157.059 111.023 157.062C111.522 157.061 112.022 157.06 112.536 157.059C114.22 157.058 115.904 157.063 117.587 157.069C118.79 157.069 119.993 157.069 121.195 157.068C124.129 157.068 127.063 157.072 129.997 157.079C133.409 157.086 136.822 157.087 140.235 157.089C146.321 157.091 152.408 157.098 158.494 157.107C164.408 157.116 170.321 157.124 176.235 157.128C176.599 157.128 176.963 157.128 177.339 157.129C179.166 157.13 180.994 157.131 182.822 157.132C197.991 157.143 213.16 157.161 228.33 157.183C228.49 156.547 228.65 155.911 228.815 155.256C228.905 154.898 228.996 154.54 229.088 154.171C231.427 144.582 231.027 134.18 230.852 124.378C230.842 123.826 230.842 123.826 230.833 123.262C230.692 117.348 230.033 110.508 226.312 105.704C225.09 105.039 225.09 105.039 223.79 105.2C220.713 107.781 219.776 111.686 219.373 115.562C219.303 116.565 219.242 117.57 219.188 118.574C219.151 119.121 219.115 119.667 219.077 120.23C218.879 123.291 218.721 126.353 218.562 129.416C218.498 130.634 218.433 131.853 218.368 133.071C218.283 134.665 218.206 136.258 218.133 137.852C218.096 138.586 218.059 139.321 218.021 140.055C217.991 140.706 217.96 141.358 217.929 142.029C217.738 143.556 217.738 143.556 216.729 144.566C214.636 145.152 213.152 145.216 211.181 144.345C207.72 142.395 205.294 139.264 204.119 135.481C203.849 133.661 203.769 131.844 203.694 130.007C203.666 129.478 203.638 128.949 203.609 128.404C203.521 126.715 203.441 125.026 203.363 123.337C203.057 116.891 202.73 110.47 201.897 104.066C201.812 103.386 201.812 103.386 201.725 102.691C201.379 100.228 200.857 98.2962 199.58 96.1152C198.083 95.896 196.982 95.861 195.655 96.6475C193.517 98.3829 191.43 100.546 190.501 103.181C190.703 105.455 191.368 107.59 192.014 109.773C194.359 117.72 194.542 127.119 191.129 134.837C188.86 138.987 185.268 141.916 180.789 143.438C176.769 144.215 173.47 142.05 170.168 139.992C167.078 136.613 165.584 132.352 164.546 127.952C164.37 126.914 164.37 126.914 163.768 126.397C163.225 118.111 163.627 109.798 165.281 101.667C165.357 101.284 165.432 100.902 165.51 100.508C165.965 98.2387 166.468 95.9852 167.017 93.7371C167.213 92.9327 167.406 92.1272 167.595 91.3211C167.894 90.0559 168.209 88.7956 168.528 87.5354C168.62 87.1456 168.711 86.7558 168.805 86.3542C169.511 83.6913 169.511 83.6913 171.009 82.7565C173.538 82.2482 176.034 81.8142 178.427 83.0069ZM177.387 103.181C174.766 105.307 173.983 107.467 173.351 110.751C173.159 113.146 173.112 115.52 173.126 117.921C173.131 119.025 173.116 120.127 173.1 121.23C173.099 121.936 173.1 122.643 173.101 123.349C173.1 123.983 173.099 124.617 173.098 125.27C173.397 127.196 173.857 127.738 175.369 128.92C176.82 130.101 176.82 130.101 178.616 129.867C180.562 129.388 181.231 128.976 182.43 127.406C184.503 121.186 182.741 111.482 179.909 105.704C179.122 104.748 178.328 103.996 177.387 103.181Z" fill="#191919"/>
<path d="M130.982 62.8053C133.552 64.3945 135.73 66.0809 137.035 68.8617C137.333 73.328 136.308 78.7353 134.071 82.6146C132.999 83.4978 132.999 83.4978 131.675 83.7186C130.477 83.4978 130.477 83.4978 129.469 82.4884C129.317 81.2948 129.219 80.094 129.153 78.8925C129.097 77.9225 129.097 77.9225 129.039 76.9328C129.014 76.4345 128.99 75.9362 128.964 75.4227C128.299 75.4227 127.633 75.4227 126.947 75.4227C126.058 76.3655 125.37 77.2322 124.646 78.2932C124.43 78.6028 124.215 78.9125 123.993 79.2316C116.717 89.7266 116.717 89.7266 114.03 101.604C114.182 102.135 114.182 102.135 114.337 102.676C117.579 103.145 120.772 103.322 124.047 103.37C124.788 103.398 124.788 103.398 125.544 103.427C128.388 103.52 128.388 103.52 130.722 102.081C130.974 101.611 131.226 101.141 131.486 100.657C131.736 100.225 131.986 99.7935 132.243 99.3484C132.617 98.6223 132.617 98.6223 132.999 97.8816C149.458 66.8095 149.458 66.8095 160.741 63.31C162.055 63.176 162.055 63.176 163.357 63.1839C163.791 63.1813 164.225 63.1787 164.671 63.176C165.785 63.31 165.785 63.31 166.793 64.3194C166.6 66.637 165.91 68.8808 165.322 71.1255C162.445 82.1529 160.304 93.4091 158.723 104.695C158.658 105.161 158.592 105.626 158.524 106.106C157.414 114.075 156.673 121.91 156.58 129.961C156.569 130.515 156.558 131.068 156.547 131.638C156.545 132.163 156.542 132.687 156.54 133.228C156.533 133.934 156.533 133.934 156.526 134.653C156.848 137.04 158.215 138.581 159.858 140.244C160.991 141.544 161.237 141.832 161.308 143.62C160.464 145.78 159.347 147.088 157.557 148.54C155.665 149.333 154.626 149.197 152.671 148.603C149.378 145.692 148.211 141.239 147.627 136.995C147.575 135.601 147.544 134.219 147.542 132.824C147.54 132.424 147.539 132.024 147.537 131.612C147.534 130.766 147.533 129.919 147.533 129.072C147.532 127.81 147.523 126.547 147.513 125.285C147.484 117.074 148.467 109.144 149.896 101.068C150.004 100.44 150.111 99.8125 150.222 99.166C150.633 96.8037 151.043 94.4936 151.707 92.188C152.299 90.0926 152.5 88.0265 152.702 85.8636C153.112 81.6056 153.112 81.6056 153.679 80.4697C147.341 83.9578 143.675 91.7038 140.628 97.9763C140.43 98.378 140.231 98.7796 140.027 99.1935C138.823 101.739 138.172 103.891 138.043 106.714C138.674 108.101 139.439 109.088 140.376 110.278C142.88 113.809 142.062 120.325 141.574 124.378C140.749 127.794 139.167 130.874 137.539 133.967C137.334 134.371 137.129 134.775 136.918 135.191C131.33 146.158 131.33 146.158 127.451 148.099C121.48 148.773 121.48 148.773 119.286 147.417C116.577 144.34 116.101 140.787 116.16 136.808C116.442 134.156 117.272 131.761 118.191 129.273C118.828 127.539 119.369 125.804 119.885 124.031C120.712 121.286 121.759 118.693 122.935 116.08C123.533 114.703 123.533 114.703 123.416 112.77C117.137 112.034 117.137 112.034 111.413 113.961C109.908 115.815 109.06 117.981 108.227 120.201C107.496 122.08 106.557 123.848 105.636 125.64C105.303 126.311 104.97 126.983 104.637 127.655C100.713 135.438 100.713 135.438 96.6342 136.859C93.4429 137.428 90.9554 136.362 88.1089 134.977C87.9067 135.539 87.7045 136.101 87.4961 136.68C81.6559 152.542 81.6559 152.542 74.4904 156.174C72.539 157.026 70.9684 157.46 68.8791 156.891C65.5794 155.416 63.2381 153.173 61.7231 149.897C60.5181 146.51 60.4247 143.082 60.3675 139.519C60.3599 139.061 60.3523 138.604 60.3444 138.132C60.296 134.556 60.3147 130.982 60.3675 127.406C60.373 126.823 60.373 126.823 60.3786 126.227C60.4433 121.499 61.1308 116.996 62.0383 112.36C62.1902 111.583 62.1902 111.583 62.3451 110.791C63.0075 107.598 63.9108 104.568 64.9761 101.488C65.4685 99.9778 65.7555 98.5108 65.9473 96.9353C66.4065 93.9271 66.9754 91.9584 69.2574 89.8381C71.4966 88.8007 73.1573 88.7932 75.4992 89.5542C76.9808 90.7844 76.9808 90.7844 78.0211 92.0776C78.354 92.4107 78.6869 92.7438 79.0299 93.087C79.5578 97.2467 78.73 100.964 77.4222 104.884C77.2617 105.388 77.1013 105.892 76.936 106.411C75.8657 109.74 74.7055 113.033 73.5092 116.319C70.4925 124.815 69.488 133.569 69.9509 142.547C70.2006 143.047 70.2006 143.047 70.4553 143.557C71.9119 143.616 72.6654 143.603 73.986 143.052C76.8236 140.175 78.5038 136.249 80.2239 132.635C80.7093 131.635 81.218 130.646 81.7765 129.685C86.0524 122.256 85.4522 112.203 85.9778 103.92C86.1387 101.442 86.3173 98.9674 86.5327 96.4937C86.56 96.107 86.5874 95.7203 86.6155 95.3219C86.8742 92.5233 87.5998 89.9269 89.1177 87.5354C90.9257 86.152 92.5763 85.5928 94.8236 85.2958C96.3939 85.5516 96.7715 85.7588 97.6923 87.0307C97.929 90.4243 97.1507 93.8977 96.4746 97.2094C95.6018 101.69 95.1115 106.194 94.6709 110.735C94.5382 112.093 94.3975 113.45 94.2561 114.807C94.1689 115.68 94.0822 116.553 93.996 117.427C93.9541 117.827 93.9121 118.228 93.8688 118.641C93.6631 120.827 93.6824 122.714 94.1615 124.883C96.0012 124.754 96.9934 124.534 98.4488 123.369C101.389 119.838 106.033 114.159 105.654 109.387C105.273 108.111 105.273 108.111 104.249 106.714C103.533 103.189 103.695 100.033 104.754 96.6199C104.866 96.225 104.979 95.8301 105.095 95.4232C106.636 90.6191 109.297 86.325 111.815 81.9837C112.011 81.6422 112.207 81.3006 112.409 80.9487C124.199 60.465 124.199 60.465 130.982 62.8053ZM132.495 115.798C129.23 120.57 126.69 126.068 126.947 131.949C128.474 131.612 128.474 131.612 129.024 130.594C129.197 130.231 129.37 129.867 129.548 129.492C129.74 129.089 129.933 128.686 130.131 128.27C130.328 127.84 130.526 127.409 130.73 126.965C130.932 126.531 131.135 126.097 131.343 125.65C132.733 122.609 133.869 119.596 134.513 116.303C133.847 116.136 133.181 115.97 132.495 115.798Z" fill="#1B1B1B"/>
<path d="M111.527 161.661C112.012 161.659 112.497 161.657 112.997 161.656C113.537 161.656 114.076 161.657 114.632 161.658C115.2 161.657 115.768 161.656 116.354 161.655C118.274 161.651 120.194 161.652 122.114 161.652C123.484 161.651 124.854 161.649 126.223 161.647C129.568 161.643 132.912 161.642 136.257 161.641C138.974 161.641 141.691 161.64 144.408 161.638C152.104 161.634 159.799 161.632 167.495 161.632C168.118 161.632 168.118 161.632 168.753 161.632C169.169 161.632 169.585 161.632 170.013 161.632C176.754 161.632 183.495 161.627 190.236 161.62C197.15 161.613 204.064 161.61 210.978 161.61C214.862 161.61 218.747 161.609 222.632 161.603C225.939 161.599 229.246 161.598 232.553 161.601C234.242 161.603 235.931 161.602 237.619 161.598C239.447 161.595 241.274 161.597 243.101 161.601C243.64 161.598 244.178 161.596 244.733 161.593C245.22 161.595 245.706 161.598 246.208 161.6C246.63 161.6 247.052 161.6 247.487 161.6C248.504 161.726 248.504 161.726 249.513 162.735C249.608 164.104 249.642 165.421 249.629 166.79C249.629 167.191 249.629 167.592 249.629 168.004C249.627 168.852 249.623 169.699 249.617 170.546C249.608 171.847 249.607 173.149 249.607 174.45C249.604 175.272 249.601 176.094 249.598 176.916C249.597 177.307 249.597 177.699 249.596 178.103C249.572 180.845 249.572 180.845 249.009 181.409C248.263 181.458 247.514 181.472 246.766 181.472C246.279 181.473 245.791 181.475 245.289 181.476C244.747 181.475 244.206 181.474 243.647 181.473C242.791 181.474 242.791 181.474 241.918 181.475C239.99 181.477 238.062 181.476 236.134 181.474C234.758 181.474 233.383 181.476 232.007 181.477C228.648 181.479 225.29 181.478 221.932 181.477C219.203 181.476 216.475 181.476 213.747 181.476C213.165 181.476 213.165 181.476 212.572 181.476C211.785 181.477 210.998 181.477 210.211 181.477C202.821 181.478 195.431 181.477 188.041 181.474C181.693 181.472 175.345 181.472 168.996 181.474C161.634 181.477 154.271 181.478 146.908 181.477C146.124 181.476 145.34 181.476 144.555 181.476C143.976 181.476 143.976 181.476 143.386 181.476C140.659 181.476 137.932 181.476 135.206 181.477C131.885 181.479 128.565 181.478 125.244 181.476C123.549 181.474 121.853 181.474 120.157 181.476C118.323 181.477 116.489 181.475 114.655 181.473C113.842 181.474 113.842 181.474 113.013 181.476C112.525 181.475 112.038 181.474 111.536 181.472C111.112 181.472 110.688 181.472 110.251 181.472C109.293 181.409 109.293 181.409 108.789 180.904C108.738 179.528 108.718 178.164 108.722 176.788C108.721 176.375 108.721 175.962 108.72 175.537C108.72 174.663 108.721 173.789 108.723 172.915C108.726 171.573 108.723 170.23 108.72 168.888C108.72 168.041 108.721 167.194 108.722 166.347C108.721 165.942 108.72 165.538 108.719 165.122C108.734 161.663 108.734 161.663 111.527 161.661Z" fill="#050505"/>
<path d="M49.4919 28.1391C51.5513 28.5368 53.2619 29.0621 54.8195 30.5049C57.1486 34.1763 56.4015 38.4393 55.5229 42.5229C55.1659 43.7543 54.7595 44.9479 54.3151 46.1504C54.1343 46.6592 53.9536 47.1679 53.7674 47.6921C53.2868 49.0324 52.7967 50.3685 52.2976 51.702C51.1324 51.5355 49.9673 51.3689 48.7668 51.1973C48.701 51.5478 48.6352 51.8983 48.5673 52.2595C48.2598 53.883 47.9459 55.5052 47.632 57.1275C47.5286 57.6786 47.4252 58.2296 47.3187 58.7973C46.7837 61.5385 46.1681 64.1544 45.2322 66.7877C44.0191 70.272 43.4616 73.8032 42.9033 77.4415C42.8006 78.0856 42.6979 78.7296 42.592 79.3932C42.3888 80.6681 42.1876 81.9433 41.9886 83.2188C41.7336 84.8334 41.4644 86.4446 41.1892 88.0558C40.6133 91.4891 40.1509 94.9363 39.6878 98.3863C38.7592 105.304 38.7592 105.304 38.1885 108.567C36.8879 116.215 36.1693 123.975 35.2944 131.681C35.1632 132.828 35.0289 133.975 34.893 135.122C33.7065 145.281 33.4037 155.379 33.2771 165.601C33.2702 166.123 33.2633 166.645 33.2561 167.184C33.2438 168.168 33.2337 169.152 33.2262 170.137C33.1991 172.434 33.0917 174.606 32.6264 176.866C32.9593 176.866 33.2922 176.866 33.6352 176.866C33.6976 176.304 33.76 175.742 33.8243 175.163C34.1396 173.333 34.1396 173.333 35.1483 172.324C36.4724 172.513 36.4724 172.513 37.6703 172.829C38.9041 176.738 38.4854 179.925 37.8267 183.933C37.6708 184.938 37.5443 185.942 37.4279 186.952C36.4248 195.498 36.4248 195.498 34.1396 198.284C31.8334 200.087 31.8334 200.087 30.199 200.051C28.2118 199.466 26.8612 198.65 25.565 197.054C20.8076 188.198 23.6511 173.391 24.0518 163.744C23.5954 164.142 23.1389 164.541 22.6687 164.951C19.3599 167.701 14.6783 168.649 10.4333 168.287C6.97733 166.933 4.80471 164.277 2.8675 161.221C2.64464 160.876 2.42177 160.53 2.19215 160.174C0.023552 156.391 -0.0251074 152.849 0.0106159 148.576C0.00891331 147.852 0.00646259 147.129 0.00330441 146.405C-0.000388835 144.9 0.00491371 143.394 0.016773 141.888C0.0312204 139.96 0.0228063 138.033 0.00776444 136.105C-0.00134887 134.615 0.00154732 133.126 0.00808384 131.637C0.00976216 130.925 0.00771957 130.214 0.0018344 129.503C-0.00457829 128.512 0.00692936 127.521 0.0192359 126.529C0.0212423 125.966 0.0232487 125.403 0.025316 124.823C0.345561 123.369 0.345561 123.369 1.54812 122.18C3.63357 120.868 5.52785 120.884 7.91138 121.35C9.3359 122.455 10.1383 123.283 10.9377 124.883C10.9054 125.894 10.8364 126.903 10.7486 127.911C10.7031 128.452 10.6575 128.994 10.6107 129.551C10.5189 130.531 10.4253 131.51 10.3064 132.486C9.86152 136.311 9.80034 140.135 9.78006 143.981C9.77422 144.751 9.76385 145.522 9.74903 146.292C9.57704 152.289 9.57704 152.289 11.9465 157.688C13.1481 158.89 13.485 158.859 15.1304 158.887C16.7809 158.844 17.4247 158.739 18.8818 157.877C19.4436 157.284 19.4436 157.284 20.0167 156.679C20.4382 156.25 20.8598 155.822 21.294 155.381C22.9041 153.426 23.1216 151.443 23.4115 148.984C23.4727 148.536 23.5339 148.087 23.597 147.626C23.7898 146.197 23.9683 144.766 24.1464 143.336C24.2712 142.392 24.397 141.449 24.5237 140.506C24.827 138.233 25.1197 135.958 25.4083 133.684C26.0735 128.459 26.8013 123.246 27.5825 118.038C28.3706 112.757 28.3706 112.757 29.1272 107.471C29.5574 104.427 30.0361 101.393 30.5214 98.3575C30.8527 96.2791 31.1748 94.2001 31.4758 92.1171C32.1603 87.3849 32.9412 82.6881 33.8594 77.9955C34.6244 74.0744 35.3057 70.1409 35.958 66.1996C36.2931 64.2178 36.6351 62.2775 37.2132 60.3509C37.6182 58.9481 37.7953 57.7867 37.8594 56.3389C38.0103 54.5009 38.374 53.0769 39.1243 51.3965C40.2798 48.611 40.8834 45.8229 41.4532 42.8699C44.0869 29.2208 44.0869 29.2208 49.4919 28.1391Z" fill="#171717"/>
<path d="M69.9511 0.223156C75.9289 -0.170938 75.9289 -0.170938 78.0843 1.29563C78.3964 1.77446 78.7085 2.25329 79.03 2.74663C79.3168 3.16886 79.6035 3.59109 79.8989 4.02611C80.8239 6.53659 80.2727 8.42211 79.6921 10.9795C79.5975 11.4332 79.5028 11.887 79.4054 12.3546C79.1231 13.6968 78.8269 15.0353 78.5257 16.3734C78.3481 17.1685 78.1708 17.9637 77.9937 18.7589C77.8709 19.3103 77.8709 19.3103 77.7456 19.8729C76.3277 26.3386 75.0967 32.867 74.0197 39.3981C73.4546 42.8119 72.8444 46.2166 72.2208 49.6202C72.1135 50.2174 72.0062 50.8146 71.8957 51.43C71.7897 52.0077 71.6837 52.5854 71.5746 53.1806C71.4806 53.6971 71.3867 54.2136 71.2899 54.7457C70.9472 56.3016 70.457 57.7629 69.9511 59.2724C69.7832 60.0751 69.6341 60.8819 69.5038 61.6914C68.8823 65.278 68.0818 68.8223 67.2857 72.373C67.014 73.5853 66.7439 74.7979 66.474 76.0105C65.7133 79.4241 64.9485 82.8365 64.1526 86.2421C62.77 92.1595 61.6367 98.0849 60.6423 104.08C60.3388 105.875 60.0203 107.668 59.6998 109.46C59.5856 110.104 59.4715 110.747 59.354 111.411C59.1328 112.657 58.9097 113.904 58.6841 115.15C58.0794 118.594 57.6876 121.988 57.4555 125.477C57.323 127.13 57.0284 128.695 56.6478 130.308C55.4748 135.845 54.9424 141.47 54.315 147.089C54.2208 147.909 54.1263 148.728 54.0313 149.548C53.5097 154.093 53.0588 158.644 52.649 163.201C52.6104 163.622 52.5717 164.043 52.5319 164.478C52.4987 164.848 52.4655 165.218 52.4313 165.6C52.3299 166.488 52.192 167.373 52.0373 168.253C51.8036 169.734 51.7147 171.133 51.6867 172.63C51.6733 173.164 51.6599 173.697 51.6462 174.247C51.6322 174.81 51.6183 175.372 51.6039 175.952C51.4335 181.577 50.833 186.988 49.7755 192.512C50.0805 192.265 50.3854 192.017 50.6996 191.763C52.0196 190.839 52.737 190.827 54.315 190.998C55.2132 191.897 54.886 193.094 54.8897 194.29C54.8861 194.862 54.8861 194.862 54.8825 195.445C54.8793 196.029 54.8793 196.029 54.8762 196.624C54.81 203.464 54.049 209.14 50.7843 215.223C49.9974 215.292 49.2088 215.341 48.42 215.381C47.9811 215.41 47.5422 215.439 47.0901 215.47C45.1437 215.114 44.461 214.207 43.2185 212.7C42.9578 211.261 42.9578 211.261 43.0352 209.581C43.046 209.26 43.0568 208.939 43.0678 208.608C43.0936 207.868 43.1251 207.129 43.1611 206.39C43.2242 205.004 43.263 203.618 43.2985 202.231C43.3889 198.801 43.5059 195.373 43.6283 191.944C43.6502 191.326 43.6722 190.708 43.6948 190.071C44.2709 174.123 45.1145 158.202 47.0406 142.355C47.4385 138.943 47.78 135.525 48.1319 132.108C49.165 122.101 50.3608 112.13 51.7931 102.172C51.9496 101.071 52.1059 99.9701 52.262 98.8693C52.4209 97.7515 52.5798 96.6337 52.7388 95.5158C52.8242 94.9151 52.9096 94.3143 52.9975 93.6953C53.445 90.5586 53.9005 87.4235 54.3722 84.2903C54.4629 83.6861 54.5537 83.0818 54.6473 82.4592C54.8197 81.3156 54.9935 80.1722 55.1689 79.0291C55.5506 76.4972 55.882 73.9806 56.0942 71.4285C56.2539 69.5313 56.5248 67.77 57.0261 65.9281C57.9045 62.3782 58.3508 58.7984 58.7646 55.1672C59.065 52.7147 59.5038 50.5857 60.4467 48.304C62.0245 44.0595 62.6898 39.5621 63.2521 35.0905C63.3248 34.5381 63.3974 33.9857 63.4723 33.4165C63.7017 31.6683 63.9265 29.9195 64.1506 28.1706C65.8659 14.9095 65.8659 14.9095 66.6883 9.7059C66.741 9.35338 66.7937 9.00086 66.8479 8.63766C67.3544 5.5626 68.5211 2.97478 69.9511 0.223156Z" fill="#171717"/>
<path d="M111.527 161.661C112.012 161.659 112.497 161.657 112.997 161.656C113.537 161.656 114.076 161.657 114.632 161.658C115.2 161.657 115.768 161.656 116.354 161.655C118.274 161.651 120.194 161.652 122.114 161.652C123.484 161.651 124.854 161.649 126.223 161.647C129.568 161.643 132.912 161.642 136.257 161.641C138.974 161.641 141.691 161.64 144.408 161.638C152.104 161.634 159.799 161.632 167.495 161.632C168.118 161.632 168.118 161.632 168.753 161.632C169.169 161.632 169.585 161.632 170.013 161.632C176.754 161.632 183.495 161.627 190.236 161.62C197.15 161.613 204.064 161.61 210.978 161.61C214.862 161.61 218.747 161.609 222.632 161.603C225.939 161.599 229.246 161.598 232.553 161.601C234.242 161.603 235.931 161.602 237.619 161.598C239.447 161.595 241.274 161.597 243.101 161.601C243.64 161.598 244.178 161.596 244.733 161.593C245.22 161.595 245.706 161.598 246.208 161.6C246.63 161.6 247.052 161.6 247.487 161.6C248.504 161.726 248.504 161.726 249.513 162.735C249.608 164.104 249.642 165.421 249.629 166.79C249.629 167.191 249.629 167.592 249.629 168.004C249.627 168.852 249.623 169.699 249.617 170.546C249.608 171.847 249.607 173.149 249.607 174.45C249.604 175.272 249.601 176.094 249.598 176.916C249.597 177.307 249.597 177.699 249.596 178.103C249.572 180.845 249.572 180.845 249.009 181.409C248.263 181.458 247.514 181.472 246.766 181.472C246.279 181.473 245.791 181.475 245.289 181.476C244.747 181.475 244.206 181.474 243.647 181.473C242.791 181.474 242.791 181.474 241.918 181.475C239.99 181.477 238.062 181.476 236.134 181.474C234.758 181.474 233.383 181.476 232.007 181.477C228.648 181.479 225.29 181.478 221.932 181.477C219.203 181.476 216.475 181.476 213.747 181.476C213.165 181.476 213.165 181.476 212.572 181.476C211.785 181.477 210.998 181.477 210.211 181.477C202.821 181.478 195.431 181.477 188.041 181.474C181.693 181.472 175.345 181.472 168.996 181.474C161.634 181.477 154.271 181.478 146.908 181.477C146.124 181.476 145.34 181.476 144.555 181.476C143.976 181.476 143.976 181.476 143.386 181.476C140.659 181.476 137.932 181.476 135.206 181.477C131.885 181.479 128.565 181.478 125.244 181.476C123.549 181.474 121.853 181.474 120.157 181.476C118.323 181.477 116.489 181.475 114.655 181.473C113.842 181.474 113.842 181.474 113.013 181.476C112.525 181.475 112.038 181.474 111.536 181.472C111.112 181.472 110.688 181.472 110.251 181.472C109.293 181.409 109.293 181.409 108.789 180.904C108.738 179.528 108.718 178.164 108.722 176.788C108.721 176.375 108.721 175.962 108.72 175.537C108.72 174.663 108.721 173.789 108.723 172.915C108.726 171.573 108.723 170.23 108.72 168.888C108.72 168.041 108.721 167.194 108.722 166.347C108.721 165.942 108.72 165.538 108.719 165.122C108.734 161.663 108.734 161.663 111.527 161.661ZM110.302 164.754C110.252 165.794 110.236 166.835 110.235 167.877C110.234 168.51 110.234 169.144 110.233 169.797C110.234 170.128 110.235 170.46 110.236 170.802C110.239 171.815 110.236 172.829 110.233 173.842C110.234 174.476 110.234 175.109 110.235 175.762C110.236 176.349 110.236 176.935 110.237 177.539C110.149 178.845 110.149 178.845 110.806 179.39C112.096 179.438 113.371 179.453 114.66 179.447C115.064 179.447 115.467 179.447 115.883 179.447C117.223 179.447 118.563 179.443 119.903 179.439C120.83 179.438 121.756 179.437 122.683 179.437C125.127 179.435 127.57 179.43 130.014 179.425C132.505 179.419 134.997 179.417 137.489 179.415C142.381 179.409 147.274 179.4 152.166 179.39C152.166 179.057 152.166 178.724 152.166 178.38C151.5 178.214 150.835 178.047 150.149 177.876C150.149 177.543 150.149 177.21 150.149 176.866C149.529 176.333 149.529 176.333 148.898 175.788C147.309 173.982 147.327 172.683 147.469 170.4C147.48 170.05 147.492 169.701 147.504 169.34C147.533 168.484 147.578 167.628 147.627 166.772C148.293 166.772 148.958 166.772 149.644 166.772C149.675 167.35 149.705 167.927 149.737 168.521C149.779 169.274 149.822 170.026 149.865 170.779C149.885 171.159 149.905 171.54 149.925 171.933C149.866 173.798 149.866 173.798 150.653 175.352C153.223 175.629 153.223 175.629 155.569 174.83C156.549 173.294 156.36 171.717 156.296 169.958C156.289 169.604 156.282 169.25 156.275 168.885C156.257 168.012 156.23 167.14 156.201 166.268C157.034 166.434 157.866 166.601 158.723 166.772C158.973 170.77 158.973 170.77 159.228 174.848C158.895 174.848 158.562 174.848 158.219 174.848C157.126 175.773 157.126 175.773 156.201 176.866C156.201 177.199 156.201 177.533 156.201 177.876C155.369 178.042 154.537 178.209 153.679 178.38C153.679 178.714 153.679 179.047 153.679 179.39C160.37 179.402 167.06 179.411 173.751 179.416C176.857 179.419 179.964 179.422 183.07 179.428C186.066 179.433 189.061 179.436 192.057 179.438C193.202 179.439 194.347 179.441 195.492 179.443C197.092 179.447 198.691 179.447 200.29 179.447C200.767 179.449 201.245 179.451 201.737 179.453C202.171 179.452 202.605 179.451 203.053 179.451C203.62 179.451 203.62 179.451 204.199 179.452C205.176 179.447 205.176 179.447 206.136 178.885C205.969 174.888 205.803 170.891 205.631 166.772C206.63 167.022 206.63 167.022 207.649 167.277C207.664 169.012 207.673 170.747 207.68 172.482C207.685 172.975 207.689 173.467 207.693 173.975C207.695 174.449 207.697 174.922 207.698 175.409C207.701 175.846 207.703 176.282 207.706 176.731C207.649 177.876 207.649 177.876 207.145 179.39C220.46 179.39 233.776 179.39 247.496 179.39C247.855 171.744 247.855 171.744 246.991 164.249C229.651 164.237 212.31 164.229 194.97 164.223C192.925 164.223 190.88 164.222 188.834 164.221C188.224 164.221 188.224 164.221 187.601 164.221C180.999 164.219 174.398 164.215 167.797 164.21C161.029 164.205 154.26 164.203 147.492 164.202C143.312 164.201 139.132 164.199 134.953 164.195C132.09 164.192 129.228 164.191 126.366 164.192C124.712 164.192 123.058 164.191 121.404 164.189C119.615 164.186 117.826 164.187 116.037 164.188C115.245 164.186 115.245 164.186 114.436 164.184C113.96 164.185 113.485 164.186 112.995 164.187C112.582 164.187 112.168 164.187 111.742 164.186C110.798 164.146 110.798 164.146 110.302 164.754Z" fill="#717171"/>
<path d="M185.456 36.0565C187.031 37.0038 187.404 37.3645 188.01 39.1477C187.959 42.2661 186.631 44.4197 184.495 46.6492C183.501 47.5421 182.483 48.3685 181.421 49.1785C180.672 49.7719 180.672 49.7719 179.908 50.3772C178.472 51.1553 177.872 51.306 176.314 51.4181C174.34 51.4996 174.34 51.4996 173.327 52.7844C172.311 54.271 171.532 55.7511 170.766 57.3798C169.427 60.2263 169.427 60.2263 168.307 60.7865C166.112 61.0352 165.129 61.0477 163.326 59.7141C162.106 58.0626 161.857 57.2705 161.75 55.2349C162.219 53.9536 162.685 52.8866 163.326 51.702C163.476 51.4041 163.625 51.1061 163.779 50.7991C164.595 49.2296 165.481 47.873 166.632 46.5289C167.878 45.2248 167.878 45.2248 168.307 43.6269C169.373 42.7517 170.425 41.9524 171.554 41.1665C171.874 40.9428 172.194 40.7191 172.524 40.4886C180.488 35.01 180.488 35.01 185.456 36.0565Z" fill="#0D0D0D"/>
<path d="M109.293 161.726C127.01 161.702 144.728 161.685 162.445 161.674C164.535 161.673 166.625 161.671 168.715 161.67C169.131 161.67 169.547 161.67 169.976 161.669C176.72 161.665 183.465 161.657 190.209 161.648C197.125 161.638 204.041 161.633 210.957 161.631C215.227 161.629 219.498 161.625 223.768 161.617C226.693 161.611 229.618 161.61 232.543 161.611C234.233 161.612 235.923 161.61 237.612 161.605C239.441 161.6 241.269 161.601 243.098 161.604C243.637 161.601 244.175 161.598 244.73 161.595C245.217 161.597 245.704 161.599 246.206 161.601C246.628 161.601 247.051 161.601 247.486 161.6C248.504 161.726 248.504 161.726 249.513 162.735C249.601 164.11 249.63 165.433 249.611 166.808C249.609 167.411 249.609 167.411 249.607 168.026C249.601 169.311 249.589 170.597 249.576 171.882C249.571 172.753 249.566 173.624 249.562 174.495C249.551 176.631 249.534 178.768 249.513 180.904C249.346 180.904 249.18 180.904 249.008 180.904C249.008 175.075 249.008 169.245 249.008 163.24C248.509 163.24 248.01 163.24 247.495 163.24C247.578 163.509 247.66 163.779 247.744 164.057C248.053 165.508 248.056 166.843 248.049 168.326C248.047 168.911 248.046 169.497 248.044 170.1C248.04 170.709 248.036 171.318 248.031 171.946C248.029 172.562 248.027 173.179 248.024 173.815C248.018 175.337 248.01 176.858 248 178.38C247.833 178.38 247.667 178.38 247.495 178.38C247.329 173.717 247.162 169.054 246.991 164.249C202.216 164.249 157.442 164.249 111.311 164.249C111.311 164.082 111.311 163.916 111.311 163.744C139.44 163.578 167.57 163.411 196.552 163.24C167.757 162.906 138.961 162.573 109.293 162.23C109.293 162.064 109.293 161.897 109.293 161.726Z" fill="#757575"/>
<path d="M16.487 92.0776C17.6289 92.9917 17.9481 93.6692 18.1243 95.1156C18.261 99.8399 16.5776 104.811 13.9651 108.733C12.641 109.079 12.641 109.079 11.4431 109.237C11.4724 109.572 11.5016 109.907 11.5318 110.253C11.7171 113.881 11.7171 113.881 10.3713 115.861C8.65651 116.98 7.90275 117.142 5.89485 116.808C4.22284 116.123 3.55193 115.619 2.67938 114.032C1.71769 108.643 3.25673 103 6.30664 98.5322C6.93076 97.6397 6.93076 97.6397 7.36073 96.6218C8.03405 95.3874 8.83434 94.6634 9.89843 93.7494C10.2463 93.4456 10.5941 93.1417 10.9525 92.8287C12.8566 91.3913 14.2542 91.4725 16.487 92.0776Z" fill="#0E0E0E"/>
<path d="M247.496 163.24C247.996 163.24 248.495 163.24 249.01 163.24C249.01 169.069 249.01 174.898 249.01 180.904C203.902 180.904 158.795 180.904 112.32 180.904C112.32 180.737 112.32 180.571 112.32 180.399C127.317 179.921 142.307 179.792 157.31 179.741C160.494 179.73 163.679 179.716 166.864 179.703C172.184 179.681 177.504 179.66 182.824 179.641C188.292 179.621 193.76 179.6 199.228 179.578C199.738 179.576 199.738 179.576 200.258 179.574C201.963 179.567 203.669 179.56 205.375 179.553C219.415 179.496 233.456 179.442 247.496 179.39C247.496 174.06 247.496 168.731 247.496 163.24Z" fill="white"/>
<path d="M231.387 166.047C234.199 166.084 236.113 166.368 238.246 168.263C239.597 170.327 239.403 172.506 238.922 174.848C238.071 176.425 238.071 176.425 236.904 177.371C234.258 178.059 231.547 178.178 228.834 177.876C227.091 176.843 226.424 176.025 225.303 174.343C225.028 172.632 225.025 171.007 225.303 169.296C226.533 167.75 226.533 167.75 227.825 166.772C228.754 165.843 230.136 166.094 231.387 166.047Z" fill="#E6E6E6"/>
<path d="M181.296 166.047C181.651 166.03 182.006 166.014 182.371 165.997C184.34 165.977 185.616 166.18 187.201 167.397C188.483 168.79 188.877 169.285 188.956 171.125C188.994 171.697 188.994 171.697 189.033 172.281C188.988 173.333 188.988 173.333 188.483 174.848C188.15 174.848 187.817 174.848 187.474 174.848C187.308 175.347 187.142 175.847 186.97 176.362C185.082 177.621 183.576 177.538 181.39 177.529C180.836 177.541 180.836 177.541 180.27 177.553C179.197 177.554 179.197 177.554 177.387 177.371C176.088 175.421 176.229 173.793 176.252 171.535C176.248 171.142 176.244 170.748 176.24 170.342C176.254 166.239 177.567 166.077 181.296 166.047Z" fill="#E7E7E7"/>
<path d="M108.789 162.23C114.253 162.214 119.717 162.204 125.182 162.199C125.607 162.198 126.031 162.198 126.469 162.197C144.104 162.182 161.738 162.317 179.372 162.483C180.334 162.492 180.334 162.492 181.316 162.501C189.253 162.576 197.19 162.654 205.127 162.735C205.127 162.901 205.127 163.068 205.127 163.24C199.336 163.635 193.574 163.824 187.77 163.84C186.931 163.844 186.091 163.848 185.252 163.853C183.465 163.862 181.678 163.869 179.89 163.876C177.065 163.886 174.24 163.9 171.415 163.914C164.919 163.947 158.423 163.975 151.928 164.003C145.949 164.029 139.969 164.056 133.99 164.086C131.18 164.101 128.369 164.112 125.559 164.123C123.819 164.129 122.078 164.138 120.338 164.147C119.529 164.151 118.72 164.154 117.911 164.157C116.811 164.16 115.711 164.166 114.611 164.173C113.994 164.175 113.378 164.178 112.742 164.18C111.337 164.151 111.337 164.151 110.302 164.754C110.302 164.254 110.302 163.754 110.302 163.24C109.803 163.24 109.304 163.24 108.789 163.24C108.789 162.906 108.789 162.573 108.789 162.23Z" fill="#A9A9A9"/>
<path d="M108.79 163.24C109.289 163.24 109.789 163.24 110.303 163.24C110.47 168.736 110.636 174.232 110.808 179.894C117.798 179.894 124.789 179.894 131.992 179.894C131.992 180.061 131.992 180.228 131.992 180.399C189.916 180.649 189.916 180.649 249.01 180.904C249.01 181.07 249.01 181.237 249.01 181.409C231.22 181.42 213.429 181.429 195.639 181.434C193.541 181.435 191.443 181.436 189.345 181.436C188.927 181.436 188.509 181.437 188.079 181.437C181.307 181.439 174.534 181.443 167.762 181.448C160.818 181.452 153.874 181.455 146.93 181.456C142.642 181.457 138.354 181.459 134.065 181.463C131.129 181.466 128.192 181.467 125.256 181.466C123.559 181.466 121.862 181.466 120.165 181.469C118.33 181.471 116.495 181.471 114.659 181.469C113.846 181.471 113.846 181.471 113.016 181.474C112.529 181.473 112.041 181.472 111.539 181.471C111.114 181.471 110.69 181.471 110.253 181.471C109.295 181.409 109.295 181.409 108.79 180.904C108.745 179.595 108.732 178.299 108.741 176.991C108.742 176.403 108.742 176.403 108.743 175.805C108.746 174.55 108.752 173.295 108.759 172.04C108.761 171.191 108.763 170.343 108.765 169.494C108.771 167.409 108.78 165.324 108.79 163.24Z" fill="#B2B2B2"/>
<path d="M123.922 166.268C125.057 166.11 125.057 166.11 126.444 166.268C128.072 167.999 128.958 169.744 129.817 171.946C130.431 173.784 130.431 173.784 131.487 175.352C131.508 176.193 131.509 177.035 131.487 177.876C130.29 177.939 130.29 177.939 128.966 177.876C128.633 177.543 128.3 177.209 127.957 176.866C127.957 176.367 127.957 175.867 127.957 175.352C125.959 175.519 123.962 175.685 121.904 175.857C121.904 176.523 121.904 177.189 121.904 177.876C121.072 177.876 120.24 177.876 119.382 177.876C119.122 175.139 119.845 174.024 121.4 171.819C122.124 170.327 122.768 168.803 123.417 167.277C123.584 166.944 123.75 166.611 123.922 166.268Z" fill="#E0E0E0"/>
<path d="M147.627 166.268C148.459 166.434 149.291 166.601 150.149 166.772C150.315 169.437 150.482 172.102 150.653 174.848C151.985 174.848 153.316 174.848 154.688 174.848C156.124 173.411 155.927 171.918 156.012 169.99C156.032 169.633 156.051 169.277 156.071 168.909C156.119 168.029 156.161 167.148 156.202 166.268C157.042 166.246 157.883 166.247 158.723 166.268C159.228 166.772 159.228 166.772 159.277 168.588C159.274 169.339 159.268 170.09 159.259 170.842C159.257 171.224 159.255 171.607 159.252 172.002C159.247 172.95 159.237 173.899 159.228 174.848C158.895 174.848 158.562 174.848 158.219 174.848C158.101 175.166 157.984 175.484 157.862 175.812C157.21 176.866 157.21 176.866 156.133 177.338C153.075 177.942 151.328 178.011 148.636 176.362C147.304 175.06 147.127 174.398 146.957 172.507C146.962 171.826 146.976 171.144 146.996 170.463C146.999 170.115 147.002 169.768 147.004 169.409C147.045 166.85 147.045 166.85 147.627 166.268Z" fill="#E7E7E7"/>
<path d="M108.789 162.23C121.439 162.23 134.089 162.23 147.123 162.23C147.123 162.397 147.123 162.563 147.123 162.735C147.955 162.901 148.787 163.068 149.645 163.24C149.645 163.406 149.645 163.573 149.645 163.744C149.166 163.749 148.688 163.755 148.196 163.76C143.698 163.809 139.2 163.861 134.703 163.916C132.39 163.943 130.078 163.97 127.765 163.995C125.535 164.019 123.304 164.046 121.074 164.074C120.221 164.084 119.369 164.094 118.517 164.102C117.326 164.114 116.135 164.129 114.944 164.145C114.412 164.15 114.412 164.15 113.869 164.154C112.023 164.161 112.023 164.161 110.302 164.754C110.302 164.254 110.302 163.754 110.302 163.24C109.803 163.24 109.304 163.24 108.789 163.24C108.789 162.906 108.789 162.573 108.789 162.23Z" fill="#999999"/>
<path d="M233.373 168.287C234.824 169.107 234.824 169.107 235.895 170.305C236.211 171.819 236.211 171.819 235.895 173.333C234.584 174.8 233.78 175.294 231.829 175.573C230.142 175.322 229.43 175.151 228.33 173.838C228.04 171.843 228.02 170.77 229.149 169.075C230.718 168.042 231.526 167.985 233.373 168.287Z" fill="#0A0A0A"/>
<path d="M247.497 163.24C247.996 163.24 248.495 163.24 249.01 163.24C249.01 169.069 249.01 174.898 249.01 180.904C234.196 180.737 219.382 180.571 204.119 180.399C204.119 180.233 204.119 180.066 204.119 179.894C218.434 179.728 232.748 179.561 247.497 179.39C247.497 174.06 247.497 168.731 247.497 163.24Z" fill="#D3D3D3"/>
<path d="M65.412 18.3922C65.5785 18.3922 65.7449 18.3922 65.9164 18.3922C65.9438 19.6751 65.9637 20.9574 65.9794 22.2404C65.9879 22.6002 65.9964 22.96 66.0051 23.3307C66.0261 25.6221 65.6562 27.3119 64.9076 29.4954C64.8228 30.7659 64.7736 32.0391 64.75 33.3122C64.6158 36.8754 64.0383 40.2254 63.2053 43.69C63.0998 44.1321 62.9942 44.5742 62.8855 45.0297C62.4002 46.9592 61.8733 48.6917 61.0597 50.5152C60.2791 52.4245 60.1502 53.9369 60.0844 55.9919C59.9951 58.6119 59.6206 60.8046 58.855 63.31C58.7286 64.0532 58.6186 64.7998 58.5397 65.5496C58.4461 66.4396 58.4461 66.4396 58.3506 67.3476C58.0177 67.3476 57.6848 67.3476 57.3418 67.3476C57.6254 64.8812 57.915 62.4156 58.2104 59.9506C58.3406 58.8523 58.4651 57.7534 58.589 56.6543C58.9438 53.695 59.2797 50.9599 60.458 48.2129C62.7952 42.2747 63.1939 35.6429 63.9934 29.3693C64.132 28.3027 64.2709 27.2361 64.4101 26.1696C64.7478 23.5776 65.0811 20.985 65.412 18.3922Z" fill="#919191"/>
<path d="M46.2441 150.622C46.4105 150.622 46.5769 150.622 46.7484 150.622C46.3877 165.626 46.3877 165.626 45.7397 171.882C44.7541 181.652 44.68 191.488 44.6148 201.301C44.6082 202.188 44.5991 203.075 44.5876 203.962C44.5726 205.209 44.5676 206.455 44.5654 207.702C44.5592 208.076 44.553 208.449 44.5466 208.834C44.5559 211.009 44.8624 212.057 46.2441 213.709C46.0776 214.209 45.9112 214.708 45.7397 215.223C43.2971 213.138 43.2971 213.138 42.957 211.261C42.9826 210.706 43.0082 210.152 43.0345 209.581C43.0452 209.26 43.056 208.939 43.0671 208.608C43.0928 207.868 43.1243 207.129 43.1603 206.39C43.2234 205.004 43.2623 203.618 43.2978 202.231C43.3881 198.801 43.5055 195.373 43.6275 191.944C43.6492 191.329 43.6708 190.714 43.693 190.081C44.0043 181.366 44.4248 172.665 45.0146 163.965C45.0469 163.486 45.0791 163.008 45.1123 162.514C45.2042 161.168 45.2987 159.821 45.3949 158.475C45.4222 158.086 45.4495 157.697 45.4776 157.296C45.6441 155.053 45.9014 152.846 46.2441 150.622Z" fill="#DFDFDF"/>
<path d="M185.455 36.0565C187.037 36.997 187.403 37.3642 188.009 39.1477C187.959 42.2661 186.63 44.4197 184.494 46.6491C183.5 47.5421 182.482 48.3685 181.42 49.1785C180.921 49.5741 180.422 49.9696 179.907 50.3772C178.471 51.1553 177.871 51.306 176.313 51.4181C174.339 51.4996 174.339 51.4996 173.326 52.7843C172.31 54.2709 171.531 55.751 170.765 57.3798C169.426 60.2263 169.426 60.2263 168.306 60.7865C167.129 60.8068 165.952 60.8083 164.775 60.7865C164.775 60.62 164.775 60.4534 164.775 60.2818C165.379 60.2506 165.982 60.2194 166.604 60.1872C167.761 59.972 167.761 59.972 168.81 59.2724C169.773 57.6822 170.449 56.0896 171.12 54.3576C171.857 52.6649 172.544 51.4874 173.854 50.1879C175.066 49.9021 175.066 49.9021 176.345 49.904C178.68 49.7772 179.745 49.3885 181.42 47.6644C181.857 47.2585 182.294 46.8525 182.744 46.4342C183.978 45.1906 183.978 45.1906 184.793 43.7215C185.012 43.3572 185.23 42.9929 185.455 42.6175C185.788 42.6175 186.121 42.6175 186.464 42.6175C186.478 41.871 186.487 41.1245 186.496 40.3779C186.501 39.9622 186.507 39.5465 186.513 39.1181C186.581 38.0795 186.581 38.0795 185.96 37.5705C182.155 37.1792 179.189 37.1636 176.118 39.5913C175.87 39.7572 175.623 39.9231 175.368 40.094C175.035 39.9275 174.702 39.7609 174.359 39.5893C177.678 36.6706 181.028 35.2995 185.455 36.0565Z" fill="#D0D0D0"/>
<path d="M16.4852 92.0776C17.6271 92.9916 17.9463 93.6692 18.1225 95.1156C18.2592 99.8399 16.5758 104.811 13.9632 108.733C12.6392 109.079 12.6392 109.079 11.4413 109.237C11.4706 109.572 11.4998 109.907 11.53 110.253C11.7153 113.881 11.7153 113.881 10.3695 115.861C8.6547 116.98 7.90093 117.142 5.89303 116.808C4.44292 116.114 4.44292 116.114 3.37109 115.294C3.37109 114.96 3.37109 114.627 3.37109 114.284C4.03689 114.451 4.70268 114.617 5.38865 114.789C5.38865 115.122 5.38865 115.455 5.38865 115.798C7.72106 115.645 7.72106 115.645 9.78037 114.673C10.6395 113.496 10.6002 112.7 10.6217 111.256C10.7182 109.888 10.7182 109.888 10.9369 108.733C12.1033 107.912 12.1033 107.912 13.4589 107.218C14.2763 105.936 14.8657 104.571 15.4764 103.181C15.7446 102.739 15.7446 102.739 16.0182 102.288C16.6972 100.651 16.7212 98.9989 16.8004 97.2507C16.8199 96.8987 16.8394 96.5468 16.8595 96.1841C16.9068 95.3202 16.9487 94.4559 16.9896 93.5917C15.4319 93.1393 14.0686 92.8861 12.4501 93.087C11.3162 94.0162 10.5358 94.9869 9.67989 96.1743C8.91936 97.1245 8.91936 97.1245 7.4062 97.6292C7.68299 95.7283 8.41883 94.9712 9.86509 93.7494C10.3937 93.2936 10.3937 93.2936 10.933 92.8287C12.8543 91.4037 14.2413 91.4695 16.4852 92.0776Z" fill="#BABABA"/>
<path d="M182.146 168.633C183.943 168.791 183.943 168.791 184.92 169.359C185.723 170.777 185.684 171.732 185.456 173.333C184.699 174.532 184.699 174.532 183.438 175.352C182.047 175.517 180.813 175.446 179.403 175.352C179.376 174.448 179.356 173.544 179.34 172.639C179.328 172.136 179.317 171.632 179.305 171.114C179.463 169.002 180.099 168.82 182.146 168.633Z" fill="#101010"/>
<path d="M238.922 134.977C239.089 134.977 239.255 134.977 239.427 134.977C239.427 142.305 239.427 149.633 239.427 157.183C245.918 157.433 245.918 157.433 252.541 157.688C252.541 158.188 252.541 158.687 252.541 159.202C250.281 159.132 248.022 159.057 245.763 158.981C244.795 158.951 244.795 158.951 243.807 158.921C242.888 158.889 242.888 158.889 241.95 158.857C241.383 158.839 240.815 158.82 240.23 158.801C238.922 158.697 238.922 158.697 238.418 158.193C238.367 156.778 238.347 155.377 238.351 153.962C238.35 153.534 238.35 153.106 238.349 152.666C238.349 151.757 238.35 150.848 238.352 149.939C238.355 148.557 238.352 147.174 238.349 145.792C238.349 144.909 238.35 144.026 238.351 143.142C238.35 142.732 238.349 142.321 238.348 141.898C238.357 139.539 238.531 137.304 238.922 134.977Z" fill="#A8A8A8"/>
<path d="M150.149 177.371C152.146 177.371 154.144 177.371 156.202 177.371C155.869 177.704 155.536 178.037 155.193 178.38C154.693 178.38 154.194 178.38 153.68 178.38C153.68 178.714 153.68 179.047 153.68 179.39C154.512 179.39 155.344 179.39 156.202 179.39C156.202 179.556 156.202 179.723 156.202 179.895C141.221 179.895 126.241 179.895 110.807 179.895C110.807 179.728 110.807 179.561 110.807 179.39C124.455 179.39 138.104 179.39 152.166 179.39C152.166 179.057 152.166 178.724 152.166 178.38C151.501 178.047 150.835 177.714 150.149 177.371Z" fill="#616161"/>
<path d="M132.999 64.8241C134.403 65.3256 135.135 65.955 136.183 67.0321C138.126 71.208 136.447 76.7693 135.017 80.9743C134.071 82.6146 134.071 82.6146 132.999 83.4978C131.675 83.7186 131.675 83.7186 130.477 83.4978C129.036 82.0554 129.263 80.9003 129.153 78.8925C129.116 78.2458 129.078 77.5991 129.039 76.9328C129.014 76.4345 128.99 75.9361 128.964 75.4227C126.923 75.2361 126.923 75.2361 125.434 76.4321C125.78 75.4542 125.78 75.4542 126.442 74.4133C127.703 73.9717 127.703 73.9717 128.964 73.9086C130.406 75.351 130.179 76.5061 130.288 78.5139C130.326 79.1606 130.364 79.8073 130.403 80.4736C130.427 80.9719 130.452 81.4703 130.477 81.9837C131.31 81.9837 132.142 81.9837 132.999 81.9837C134.696 79.2354 134.832 76.7653 134.954 73.6247C134.984 73.154 135.014 72.6833 135.045 72.1984C135.162 69.6209 135.179 67.9389 133.504 65.8335C133.337 65.5004 133.171 65.1673 132.999 64.8241Z" fill="#C4C4C4"/>
<path d="M33.1315 144.566C33.298 144.566 33.4644 144.566 33.6359 144.566C33.5816 148.33 33.5247 152.095 33.4648 155.859C33.437 157.607 33.4101 159.355 33.3851 161.103C33.3563 163.115 33.3238 165.127 33.2911 167.139C33.2827 167.764 33.2743 168.388 33.2656 169.032C33.2555 169.618 33.2455 170.204 33.2351 170.807C33.2273 171.321 33.2194 171.834 33.2113 172.363C33.1285 173.895 32.9068 175.359 32.6271 176.866C32.96 176.866 33.2929 176.866 33.6359 176.866C33.6359 176.034 33.6359 175.201 33.6359 174.343C33.8024 174.343 33.9688 174.343 34.1403 174.343C34.2034 177.75 34.2034 177.75 33.6359 178.885C33.303 178.885 32.9701 178.885 32.6271 178.885C31.8594 177.349 32.0512 175.75 32.0558 174.065C32.0551 173.68 32.0544 173.295 32.0537 172.899C32.0527 171.645 32.0558 170.392 32.0597 169.138C32.0603 168.714 32.0609 168.29 32.0616 167.854C32.0749 160.073 32.0937 152.289 33.1315 144.566Z" fill="#E9E9E9"/>
<path d="M24.5566 162.735C24.5596 163.063 24.5625 163.391 24.5656 163.729C24.598 167.168 24.6407 170.607 24.689 174.046C24.7057 175.327 24.7198 176.607 24.7314 177.888C24.7484 179.737 24.7748 181.586 24.8029 183.435C24.8061 184 24.8093 184.565 24.8127 185.147C24.9003 189.932 25.4437 194.484 28.0873 198.568C26.8313 198.075 26.1849 197.739 25.4491 196.587C21.5169 186.774 23.6229 174.081 24.0522 163.744C23.5529 163.911 23.0535 164.077 22.5391 164.249C22.5391 163.916 22.5391 163.583 22.5391 163.24C23.5478 162.735 23.5478 162.735 24.5566 162.735Z" fill="#D8D8D8"/>
<path d="M0.346247 127.406C0.512695 127.406 0.679143 127.406 0.850635 127.406C1.31126 130.99 1.45933 134.522 1.51461 138.133C1.5251 138.709 1.53558 139.285 1.54638 139.879C1.57914 141.704 1.60898 143.529 1.63874 145.354C1.66055 146.598 1.68255 147.842 1.70475 149.085C1.75851 152.121 1.80989 155.157 1.85941 158.193C0.383801 156.55 0.159956 155.491 0.174464 153.304C0.174579 152.728 0.174693 152.152 0.174811 151.559C0.182621 150.94 0.19043 150.321 0.198477 149.684C0.200618 149.048 0.202759 148.412 0.204965 147.758C0.211998 146.071 0.225583 144.386 0.242346 142.7C0.257854 140.978 0.264742 139.256 0.272362 137.534C0.28905 134.158 0.314377 130.782 0.346247 127.406Z" fill="#151515"/>
<path d="M205.631 166.772C206.879 167.022 206.879 167.022 208.153 167.277C208.153 170.442 208.153 173.606 208.153 176.866C207.321 177.033 206.488 177.199 205.631 177.371C205.631 173.874 205.631 170.376 205.631 166.772Z" fill="#FAFAFA"/>
<path d="M230.348 162.23C232.771 162.205 235.195 162.187 237.619 162.175C238.444 162.17 239.269 162.163 240.094 162.154C241.278 162.142 242.463 162.136 243.647 162.132C244.017 162.126 244.387 162.121 244.768 162.116C245.678 162.116 246.588 162.169 247.497 162.23C247.83 162.563 248.163 162.896 248.506 163.24C248.173 163.24 247.84 163.24 247.497 163.24C247.62 163.644 247.62 163.644 247.746 164.057C248.054 165.508 248.058 166.843 248.051 168.326C248.049 168.911 248.047 169.497 248.046 170.1C248.039 171.014 248.039 171.014 248.033 171.946C248.03 172.562 248.028 173.179 248.026 173.815C248.02 175.337 248.012 176.858 248.001 178.38C247.835 178.38 247.668 178.38 247.497 178.38C247.484 178.024 247.472 177.668 247.459 177.301C247.4 175.684 247.338 174.067 247.276 172.45C247.256 171.889 247.237 171.329 247.216 170.751C247.195 170.211 247.174 169.671 247.152 169.115C247.124 168.369 247.124 168.369 247.096 167.609C247.02 166.139 247.02 166.139 246.488 164.249C243.825 164.082 241.162 163.916 238.418 163.744C238.418 163.578 238.418 163.411 238.418 163.24C235.755 163.073 233.092 162.906 230.348 162.735C230.348 162.568 230.348 162.402 230.348 162.23Z" fill="#8E8E8E"/>
<path d="M237.937 185.389C238.618 185.389 239.298 185.392 239.979 185.397C240.515 185.398 240.515 185.398 241.062 185.399C242.208 185.402 243.354 185.408 244.5 185.415C245.276 185.417 246.051 185.419 246.826 185.422C248.73 185.427 250.635 185.436 252.539 185.446C252.539 185.613 252.539 185.779 252.539 185.951C244.799 186.201 244.799 186.201 236.903 186.456C236.879 189.317 236.872 192.174 236.903 195.035C236.906 195.401 236.909 195.767 236.912 196.144C236.926 197.163 236.961 198.181 236.998 199.199C237.015 199.795 237.033 200.391 237.051 201.005C237.501 203.028 238.435 203.746 239.929 205.129C239.929 205.629 239.929 206.129 239.929 206.643C237.029 204.814 237.029 204.814 235.894 203.11C235.802 201.797 235.765 200.539 235.778 199.227C235.778 198.849 235.778 198.472 235.779 198.083C235.78 197.286 235.784 196.489 235.79 195.693C235.8 194.469 235.801 193.245 235.801 192.021C235.803 191.248 235.806 190.474 235.809 189.701C235.81 189.333 235.811 188.965 235.811 188.585C235.841 185.467 235.841 185.467 237.937 185.389Z" fill="#C9C9C9"/>
<path d="M51.7934 102.172C51.9599 102.172 52.1263 102.172 52.2978 102.172C52.3256 103.17 52.3449 104.169 52.3609 105.168C52.3726 105.724 52.3843 106.281 52.3963 106.854C52.3184 108.34 52.1482 109.516 51.8053 110.943C51.2551 113.246 51.1088 115.456 51.0369 117.817C50.8971 121.122 50.6804 124.402 50.3118 127.69C50.2741 128.053 50.2364 128.417 50.1975 128.791C49.8977 131.322 49.8977 131.322 48.7671 132.453C48.6372 128.138 49.0786 123.929 49.5737 119.651C49.7117 118.458 49.8456 117.264 49.9788 116.07C50.5026 111.424 51.1009 106.796 51.7934 102.172Z" fill="#B1B1B1"/>
<path d="M40.1933 48.6738C41.003 50.2943 40.5496 52.0004 40.1933 53.7208C40.0353 54.102 39.8773 54.4833 39.7145 54.8761C39.0583 56.5701 38.7409 58.2796 38.4279 60.061C38.3633 60.4159 38.2986 60.7707 38.232 61.1363C37.8414 63.2975 37.483 65.4629 37.1354 67.6314C36.7855 69.7881 36.3156 71.8273 35.6538 73.9086C35.4873 73.9086 35.3209 73.9086 35.1494 73.9086C35.0357 71.0612 35.4562 68.5703 36.0951 65.8019C36.751 62.8605 37.3106 59.9621 37.6713 56.9698C38.0589 53.9698 38.8997 51.4007 40.1933 48.6738Z" fill="#A7A7A7"/>
<path d="M7.91153 121.35C9.33604 122.455 10.1384 123.283 10.9379 124.883C10.9056 125.894 10.8366 126.903 10.7487 127.911C10.6986 128.496 10.6486 129.081 10.597 129.683C10.3861 131.954 10.1695 134.223 9.92908 136.491C9.76263 136.491 9.59618 136.491 9.42469 136.491C9.17502 129.995 9.17502 129.995 8.9203 123.369C6.67535 122.246 3.61287 122.625 1.29143 123.369C0.979341 123.535 0.667251 123.702 0.345703 123.873C2.42429 121.1 4.51476 120.636 7.91153 121.35Z" fill="#B2B2B2"/>
<path d="M239.426 103.686C240.939 105.2 240.939 105.2 241.104 106.96C241.1 107.697 241.086 108.434 241.065 109.17C241.059 109.57 241.053 109.969 241.047 110.38C240.957 115.24 240.698 120.093 240.435 124.946C240.386 125.877 240.337 126.808 240.289 127.739C240.172 129.984 240.052 132.228 239.93 134.472C239.764 134.472 239.597 134.472 239.426 134.472C239.426 124.312 239.426 114.153 239.426 103.686Z" fill="#EEEEEE"/>
<path d="M54.8195 79.9649C54.986 79.9649 55.1524 79.9649 55.3239 79.9649C55.4197 84.4606 55.4469 88.7604 54.5673 93.1915C54.2222 95.1206 54.1224 97.0474 54.0334 99.0033C53.7722 100.352 53.3465 100.813 52.2976 101.667C52.17 98.2283 52.6631 95.046 53.2748 91.6675C53.9738 87.7702 54.5276 83.9154 54.8195 79.9649Z" fill="#B3B3B3"/>
<path d="M108.789 162.23C112.451 162.23 116.113 162.23 119.886 162.23C119.886 162.563 119.886 162.896 119.886 163.24C120.884 163.24 121.883 163.24 122.912 163.24C122.912 163.406 122.912 163.573 122.912 163.744C122.566 163.757 122.22 163.77 121.863 163.783C120.3 163.841 118.737 163.903 117.175 163.965C116.63 163.985 116.085 164.005 115.523 164.025C115.003 164.046 114.483 164.067 113.947 164.089C113.466 164.108 112.986 164.126 112.49 164.145C111.3 164.177 111.3 164.177 110.302 164.754C110.302 164.254 110.302 163.754 110.302 163.24C109.803 163.24 109.304 163.24 108.789 163.24C108.789 162.906 108.789 162.573 108.789 162.23Z" fill="#8B8B8B"/>
<path d="M109.293 163.24C109.626 163.24 109.959 163.24 110.302 163.24C110.468 168.902 110.635 174.565 110.806 180.399C110.307 180.399 109.807 180.399 109.293 180.399C109.293 174.737 109.293 169.074 109.293 163.24Z" fill="#D7D7D7"/>
<path d="M152.167 79.9649C152.999 79.9649 153.831 79.9649 154.689 79.9649C153.1 93.2942 153.1 93.2942 151.663 96.6198C151.496 96.6198 151.33 96.6198 151.158 96.6198C151.23 95.8941 151.304 95.1687 151.379 94.4433C151.42 94.0393 151.461 93.6353 151.503 93.2191C151.663 92.0776 151.663 92.0776 152.167 90.5635C152.267 89.8657 152.349 89.1653 152.419 88.4639C152.461 88.0635 152.502 87.663 152.545 87.2505C152.63 86.408 152.714 85.5655 152.797 84.723C152.839 84.3233 152.881 83.9235 152.924 83.5116C152.96 83.1459 152.996 82.7802 153.034 82.4035C153.176 81.479 153.176 81.479 153.68 80.4696C153.014 80.6361 152.349 80.8027 151.663 80.9743C151.829 80.6412 151.995 80.3081 152.167 79.9649Z" fill="#B8B8B8"/>
<path d="M75.4994 89.5542C76.7919 90.3427 76.7919 90.3427 77.5169 91.0682C77.3505 91.4013 77.184 91.7344 77.0126 92.0776C76.7733 91.8382 76.534 91.5988 76.2875 91.3521C74.4319 90.22 72.5931 90.1914 70.4555 90.0588C70.304 90.3692 70.1525 90.6795 69.9964 90.9992C69.4467 92.0776 69.4467 92.0776 68.7217 93.1816C67.666 95.083 67.0569 97.0702 66.4204 99.1434C66.254 99.1434 66.0875 99.1434 65.916 99.1434C66.131 95.3905 66.3701 92.5209 69.2576 89.838C71.5 88.7992 73.1415 88.9095 75.4994 89.5542Z" fill="#CACACA"/>
<path d="M60.8725 47.1598C61.039 47.1598 61.2054 47.1598 61.3769 47.1598C60.9356 51.0712 60.9356 51.0712 60.3681 52.2067C60.226 54.0739 60.1424 55.9411 60.0549 57.8116C59.8654 59.7603 59.4247 61.4424 58.855 63.31C58.7286 64.0532 58.6186 64.7999 58.5397 65.5496C58.4461 66.4396 58.4461 66.4396 58.3506 67.3476C58.0177 67.3476 57.6848 67.3476 57.3418 67.3476C57.6254 64.8812 57.915 62.4156 58.2104 59.9506C58.3406 58.8523 58.4651 57.7534 58.589 56.6544C58.9951 53.267 59.4724 50.2802 60.8725 47.1598Z" fill="#B2B2B2"/>
<path d="M247.496 163.24C247.995 163.24 248.495 163.24 249.009 163.24C249.009 167.903 249.009 172.566 249.009 177.371C248.676 177.371 248.343 177.371 248 177.371C247.834 172.708 247.668 168.044 247.496 163.24Z" fill="#F3F3F3"/>
<path d="M16.4852 92.0776C17.431 92.8346 17.431 92.8346 17.9984 94.0964C18.1165 95.6195 18.0863 97.1145 17.9984 98.6386C17.832 98.6386 17.6655 98.6386 17.494 98.6386C17.2443 96.1404 17.2443 96.1404 16.9896 93.5917C14.722 93.0226 14.722 93.0226 12.4501 93.087C11.3162 94.0162 10.5358 94.9869 9.67994 96.1743C8.91941 97.1245 8.91941 97.1245 7.40625 97.6292C7.68304 95.7283 8.41888 94.9712 9.86514 93.7494C10.2175 93.4456 10.5699 93.1417 10.933 92.8287C12.8543 91.4037 14.2413 91.4695 16.4852 92.0776Z" fill="#D4D4D4"/>
<path d="M69.9511 0.223145C70.2664 1.16945 70.2664 1.16945 70.4555 2.24192C70.1226 2.57502 69.7897 2.90812 69.4467 3.25131C68.3621 5.83432 68.1447 8.40893 67.902 11.1687C67.8241 12.0225 67.7447 12.8762 67.6636 13.7296C67.6304 14.1042 67.5972 14.4787 67.563 14.8646C67.4292 15.8687 67.4292 15.8687 66.9248 17.3828C66.5919 17.3828 66.259 17.3828 65.916 17.3828C66.7146 6.70006 66.7146 6.70006 68.9423 2.24192C69.14 1.83596 69.3377 1.43 69.5413 1.01173C69.6765 0.751497 69.8118 0.491264 69.9511 0.223145Z" fill="#B3B3B3"/>
<path d="M78.5264 2.74664C79.4914 3.54433 79.9964 4.14687 80.4435 5.32532C80.5906 7.46183 80.1086 9.37709 79.6298 11.4526C79.5397 11.8605 79.4496 12.2685 79.3569 12.6887C79.0846 13.918 78.8057 15.1457 78.5264 16.3734C78.3348 17.2328 78.1436 18.0924 77.9531 18.9521C77.8094 19.6001 77.6657 20.248 77.5176 20.9157C77.3512 20.9157 77.1847 20.9157 77.0132 20.9157C76.8956 17.7373 77.3325 14.9281 78.022 11.8312C78.6773 8.81504 78.5711 5.81796 78.5264 2.74664Z" fill="#CDCDCD"/>
<path d="M238.416 157.688C243.077 157.688 247.737 157.688 252.539 157.688C252.539 158.188 252.539 158.687 252.539 159.202C248.045 159.035 243.551 158.869 238.92 158.697C238.754 158.364 238.588 158.031 238.416 157.688Z" fill="#939393"/>
<path d="M117.363 131.948C117.53 131.948 117.696 131.948 117.868 131.948C117.862 132.256 117.856 132.563 117.85 132.879C117.806 137.128 118.075 141.339 118.372 145.575C116.755 143.957 116.406 142.158 116.221 139.913C116.223 139.367 116.226 138.82 116.229 138.257C116.226 137.711 116.223 137.164 116.221 136.601C116.36 134.908 116.763 133.532 117.363 131.948Z" fill="#9D9D9D"/>
<path d="M164.776 106.209C164.943 106.209 165.109 106.209 165.281 106.209C165.344 110.021 165.344 110.021 165.03 111.14C164.719 112.519 164.711 113.791 164.709 115.205C164.709 115.765 164.708 116.326 164.707 116.903C164.709 117.486 164.711 118.068 164.713 118.669C164.711 119.257 164.71 119.846 164.707 120.452C164.708 121.29 164.708 121.29 164.709 122.144C164.71 122.657 164.711 123.171 164.711 123.699C164.643 124.862 164.643 124.862 165.281 125.387C165.301 126.565 165.302 127.743 165.281 128.92C165.047 128.436 165.047 128.436 164.808 127.942C164.356 126.934 164.356 126.934 163.768 126.397C163.656 124.403 163.674 122.407 163.674 120.41C163.673 119.416 163.664 118.421 163.654 117.427C163.649 113.572 163.913 109.969 164.776 106.209Z" fill="#C8C8C8"/>
<path d="M94.1613 107.723C94.3278 107.723 94.4942 107.723 94.6657 107.723C94.5938 109.227 94.52 110.73 94.445 112.234C94.4252 112.653 94.4054 113.072 94.3849 113.504C94.2602 115.972 94.0636 118.412 93.7604 120.864C93.6202 122.206 93.6224 123.535 93.6569 124.883C93.4905 124.883 93.324 124.883 93.1525 124.883C92.7259 121.683 92.6174 118.671 92.8058 115.451C92.8236 115.04 92.8415 114.628 92.8599 114.204C92.9857 111.881 93.2958 109.911 94.1613 107.723Z" fill="#B1B1B1"/>
<path d="M53.3063 46.1504C53.7878 47.2454 53.8833 47.9488 53.5073 49.0898C53.1254 49.9702 52.7131 50.8371 52.2975 51.702C51.1324 51.5355 49.9672 51.3689 48.7668 51.1973C48.2675 53.529 47.7681 55.8607 47.2536 58.2631C46.7505 56.2494 46.8046 55.3554 47.1906 53.3738C47.3291 52.6371 47.3291 52.6371 47.4704 51.8854C47.758 50.6926 47.758 50.6926 48.2624 50.1879C49.6094 50.1167 50.9479 50.1665 52.2975 50.1879C52.3703 49.8028 52.4432 49.4177 52.5182 49.0208C52.8019 47.6645 52.8019 47.6645 53.3063 46.1504Z" fill="#B6B6B6"/>
<path d="M43.7235 199.073C43.8899 199.073 44.0564 199.073 44.2279 199.073C44.2389 199.63 44.2389 199.63 44.2502 200.199C44.2877 201.885 44.3365 203.57 44.3855 205.255C44.3969 205.84 44.4082 206.425 44.42 207.028C44.4379 207.59 44.4557 208.153 44.4742 208.733C44.4874 209.251 44.5006 209.769 44.5142 210.303C44.7593 211.863 45.3008 212.484 46.2454 213.709C46.079 214.209 45.9125 214.708 45.741 215.223C44.1086 213.865 43.2891 213.148 42.9551 211.01C42.9921 210.082 42.9921 210.082 43.0299 209.135C43.0521 208.473 43.0742 207.811 43.0969 207.128C43.2613 204.438 43.444 201.754 43.7235 199.073Z" fill="#CCCCCC"/>
<path d="M32.1231 159.202C32.2895 159.202 32.456 159.202 32.6275 159.202C32.6275 165.031 32.6275 170.86 32.6275 176.866C32.9604 176.866 33.2933 176.866 33.6363 176.866C33.6363 176.034 33.6363 175.201 33.6363 174.343C33.8027 174.343 33.9692 174.343 34.1406 174.343C34.2037 177.75 34.2037 177.75 33.6363 178.885C33.3034 178.885 32.9705 178.885 32.6275 178.885C31.8139 177.257 32.0623 175.48 32.0738 173.692C32.0746 173.279 32.0753 172.866 32.076 172.441C32.0788 171.119 32.0852 169.797 32.0916 168.476C32.0941 167.581 32.0964 166.686 32.0985 165.791C32.104 163.594 32.1127 161.398 32.1231 159.202Z" fill="#5C5C5C"/>
<path d="M212.189 96.6199C213.484 98.5626 213.476 99.8675 213.703 102.172C214.036 102.172 214.368 102.172 214.711 102.172C215.211 100.673 215.71 99.1736 216.225 97.6293C216.978 99.1367 216.43 100.128 216.004 101.73C215.859 102.283 215.714 102.836 215.565 103.406C215.392 104.044 215.392 104.044 215.216 104.695C214.239 104.506 214.239 104.506 213.198 104.19C212.484 102.761 212.519 101.427 212.41 99.8373C212.368 99.2375 212.326 98.6376 212.282 98.0196C212.251 97.5577 212.221 97.0958 212.189 96.6199Z" fill="#ABABAB"/>
<path d="M251.531 183.932C251.864 183.932 252.197 183.932 252.54 183.932C252.54 184.432 252.54 184.931 252.54 185.446C244.55 185.696 244.55 185.696 236.399 185.951C236.233 187.117 236.066 188.283 235.895 189.484C235.728 189.484 235.562 189.484 235.39 189.484C235.341 186.379 235.341 186.379 235.39 185.446C236.339 184.497 237.97 184.83 239.236 184.8C239.737 184.786 239.737 184.786 240.248 184.771C241.683 184.732 243.117 184.697 244.551 184.663C245.596 184.637 246.64 184.608 247.685 184.579C248.313 184.563 248.941 184.548 249.588 184.532C250.975 184.599 250.975 184.599 251.531 183.932Z" fill="#626262"/>
<path d="M248 177.371C248.333 177.371 248.666 177.371 249.009 177.371C249.009 178.537 249.009 179.703 249.009 180.904C244.515 180.737 240.021 180.571 235.391 180.399C235.391 180.233 235.391 180.066 235.391 179.895C239.385 179.728 243.38 179.561 247.496 179.39C247.662 178.724 247.829 178.057 248 177.371Z" fill="#DDDDDD"/>
<path d="M163.264 63.2154C163.711 63.2082 164.158 63.201 164.619 63.1937C165.786 63.31 165.786 63.31 166.794 64.3194C166.605 65.8965 166.605 65.8965 166.29 67.3475C166.056 66.8635 166.056 66.8635 165.817 66.3697C165.365 65.361 165.365 65.361 164.777 64.8241C163.787 64.8699 162.799 64.9491 161.813 65.0449C160.266 65.1922 158.766 65.3288 157.211 65.3288C159.401 64.0022 160.69 63.2341 163.264 63.2154Z" fill="#B2B2B2"/>
<path d="M0.345267 138.51C0.511715 138.51 0.678163 138.51 0.849655 138.51C0.862293 138.978 0.874931 139.447 0.887952 139.93C0.935895 141.666 0.985949 143.402 1.03745 145.139C1.05931 145.89 1.08033 146.642 1.10049 147.394C1.1296 148.474 1.16172 149.554 1.19445 150.634C1.21294 151.284 1.23143 151.934 1.25048 152.604C1.2508 154.111 1.2508 154.111 1.85843 155.164C1.8786 156.174 1.88036 157.183 1.85843 158.193C0.333655 156.651 0.173142 155.382 0.17383 153.252C0.18164 152.876 0.18945 152.5 0.197497 152.113C0.199638 151.723 0.201779 151.334 0.203985 150.933C0.212434 149.694 0.231421 148.455 0.250694 147.216C0.258286 146.374 0.265189 145.532 0.271382 144.69C0.288038 142.63 0.314143 140.57 0.345267 138.51Z" fill="#454545"/>
<path d="M124.93 111.761C124.93 112.593 124.93 113.426 124.93 114.284C124.431 114.534 124.431 114.534 123.921 114.789C123.755 114.123 123.588 113.456 123.417 112.77C121.609 112.782 119.802 112.821 117.995 112.865C117.482 112.868 116.97 112.871 116.442 112.874C113.394 112.897 113.394 112.897 110.957 114.562C110.741 114.97 110.525 115.378 110.303 115.798C110.681 113.401 110.681 113.401 111.816 112.265C113.279 112.108 114.699 112.006 116.166 111.95C116.561 111.93 116.956 111.911 117.362 111.891C119.887 111.774 122.403 111.743 124.93 111.761Z" fill="white"/>
<path d="M65.4112 18.3922C65.5776 18.3922 65.7441 18.3922 65.9156 18.3922C65.943 19.6751 65.9629 20.9574 65.9786 22.2404C65.9871 22.6002 65.9955 22.96 66.0042 23.3307C66.0251 25.6081 65.7069 27.3364 64.9068 29.4954C64.7746 30.3116 64.6664 31.1324 64.5915 31.9558C64.5538 32.3501 64.5161 32.7443 64.4773 33.1505C64.4526 33.4433 64.4279 33.7361 64.4024 34.0377C64.236 34.0377 64.0695 34.0377 63.898 34.0377C63.7915 30.4066 64.096 26.9614 64.6546 23.376C64.7268 22.8933 64.7989 22.4105 64.8733 21.9132C65.0493 20.739 65.2287 19.5654 65.4112 18.3922Z" fill="#C7C7C7"/>
<path d="M171.838 41.1035C172.171 41.27 172.504 41.4366 172.847 41.6081C166.927 48.3554 166.927 48.3554 165.281 49.1786C165.607 48.5003 165.947 47.8293 166.29 47.1598C166.571 46.5873 166.852 46.0148 167.141 45.4249C168.311 43.3596 169.855 42.3627 171.838 41.1035Z" fill="#9F9F9F"/>
<path d="M225.807 199.073C225.973 199.073 226.14 199.073 226.311 199.073C226.325 199.819 226.335 200.566 226.343 201.312C226.349 201.728 226.354 202.144 226.36 202.572C226.311 203.615 226.311 203.615 225.807 204.12C225.444 207.895 225.574 210.612 227.824 213.709C226.686 213.253 225.957 212.913 225.243 211.897C224.617 210.186 224.652 208.535 224.672 206.738C224.668 206.391 224.664 206.045 224.66 205.688C224.669 203.307 225.062 201.334 225.807 199.073Z" fill="#CFCFCF"/>
<path d="M239.426 103.686C240.939 105.2 240.939 105.2 241.127 106.189C241.125 106.556 241.124 106.922 241.122 107.299C241.122 107.7 241.122 108.1 241.121 108.513C241.113 108.929 241.105 109.345 241.097 109.773C241.098 110.191 241.1 110.609 241.101 111.04C241.074 114.149 241.074 114.149 239.93 115.294C239.764 111.463 239.597 107.632 239.426 103.686Z" fill="#C3C3C3"/>
<path d="M35.6537 193.017C36.2676 194.468 36.1585 195.034 35.6222 196.549C34.4672 198.339 33.5285 199.146 31.6186 200.082C29.9478 200.019 29.9478 200.019 28.5923 199.578C28.4258 199.245 28.2594 198.911 28.0879 198.568C28.6184 198.62 29.149 198.672 29.6956 198.726C31.6553 198.741 31.6553 198.741 33.0057 197.496C34.1294 196.059 34.9182 194.682 35.6537 193.017Z" fill="#D1D1D1"/>
<path d="M217.232 162.23C217.565 162.563 217.898 162.896 218.241 163.24C214.572 164.187 210.846 163.778 207.145 163.24C207.145 163.073 207.145 162.906 207.145 162.735C208.258 162.649 209.372 162.566 210.486 162.483C211.106 162.436 211.727 162.389 212.366 162.341C215.702 162.14 215.702 162.14 217.232 162.23Z" fill="#AEAEAE"/>
<path d="M96.1801 85.5166C97.0411 86.0725 97.0411 86.0725 97.6933 87.0307C97.7307 88.6138 97.7307 88.6138 97.5357 90.4058C97.4752 91.0011 97.4147 91.5964 97.3524 92.2097C97.2985 92.6658 97.2445 93.1218 97.1889 93.5917C97.0224 93.5917 96.856 93.5917 96.6845 93.5917C96.6539 93.1662 96.6234 92.7407 96.5919 92.3024C96.5496 91.7494 96.5074 91.1964 96.4638 90.6266C96.4229 90.0762 96.3819 89.5258 96.3397 88.9588C96.2659 87.562 96.2659 87.562 95.6757 86.526C94.3441 86.526 93.0126 86.526 91.6406 86.526C93.3905 85.3587 94.1233 85.3022 96.1801 85.5166Z" fill="#C8C8C8"/>
<path d="M207.648 176.866C207.648 178.38 207.648 178.38 207.144 179.39C209.141 179.39 211.139 179.39 213.197 179.39C213.197 179.556 213.197 179.723 213.197 179.895C210.034 179.895 206.872 179.895 203.613 179.895C205.126 178.885 205.126 178.885 206.135 178.885C206.135 178.385 206.135 177.886 206.135 177.371C206.635 177.204 207.134 177.038 207.648 176.866Z" fill="#5E5E5E"/>
<path d="M109.293 162.735C112.455 162.735 115.618 162.735 118.876 162.735C118.876 163.068 118.876 163.401 118.876 163.744C118.075 163.79 118.075 163.79 117.257 163.837C116.557 163.88 115.857 163.922 115.156 163.965C114.804 163.985 114.452 164.005 114.089 164.025C112.131 164.119 112.131 164.119 110.302 164.754C110.302 164.254 110.302 163.754 110.302 163.24C109.969 163.073 109.636 162.906 109.293 162.735Z" fill="#999999"/>
<path d="M38.1756 101.667C38.3421 101.667 38.5085 101.667 38.68 101.667C38.8132 105.132 38.306 108.358 37.6713 111.761C37.5048 111.761 37.3384 111.761 37.1669 111.761C37.1394 110.646 37.12 109.532 37.1038 108.417C37.0921 107.796 37.0804 107.176 37.0684 106.536C37.1653 104.724 37.5186 103.349 38.1756 101.667Z" fill="#AEAEAE"/>
<path d="M235.392 177.876C234.892 178.042 234.393 178.209 233.878 178.38C233.878 178.714 233.878 179.047 233.878 179.39C232.047 179.39 230.216 179.39 228.33 179.39C229.339 177.876 229.339 177.876 230.505 177.6C230.953 177.566 231.4 177.532 231.861 177.497C232.308 177.458 232.755 177.419 233.216 177.379C234.383 177.371 234.383 177.371 235.392 177.876Z" fill="#3C3C3C"/>
<path d="M40.1924 48.6738C41.1596 50.6095 40.405 52.9922 39.82 54.9963C39.4551 56.0916 39.0777 57.1796 38.6792 58.263C38.5127 58.263 38.3463 58.263 38.1748 58.263C37.9364 54.5655 38.6294 52.018 40.1924 48.6738Z" fill="#C0C0C0"/>
<path d="M152.166 79.9649C152.999 79.9649 153.831 79.9649 154.688 79.9649C154.356 82.6297 154.023 85.2945 153.68 88.04C153.513 88.04 153.347 88.04 153.175 88.04C153.162 86.9676 153.152 85.8951 153.144 84.8226C153.138 84.2254 153.132 83.6281 153.126 83.0128C153.175 81.479 153.175 81.479 153.68 80.4696C153.014 80.6361 152.348 80.8027 151.662 80.9743C151.829 80.6412 151.995 80.3081 152.166 79.9649Z" fill="#878787"/>
<path d="M24.557 189.988C24.7234 189.988 24.8899 189.988 25.0614 189.988C25.1531 190.396 25.2447 190.804 25.3392 191.225C25.466 191.764 25.5928 192.303 25.7234 192.859C25.8463 193.392 25.9692 193.925 26.0958 194.473C26.5708 196.033 27.1918 197.215 28.0877 198.568C26.6069 198.057 26.0827 197.577 25.1875 196.266C24.4011 194.102 24.4206 192.263 24.557 189.988Z" fill="#B8B8B8"/>
<path d="M123.92 170.305C125.168 170.555 125.168 170.555 126.442 170.81C126.442 171.643 126.442 172.475 126.442 173.333C125.61 173.167 124.777 173 123.92 172.829C123.92 171.996 123.92 171.163 123.92 170.305Z" fill="#646464"/>
<path d="M233.373 168.287C233.082 168.411 232.791 168.536 232.491 168.665C231.139 169.416 230.29 170.09 229.338 171.315C229.169 172.913 229.169 172.913 229.338 174.343C229.005 174.176 228.672 174.01 228.329 173.838C228.086 170.671 228.086 170.671 229.149 169.075C230.651 168.086 231.61 168.126 233.373 168.287Z" fill="#525252"/>
<path d="M52.8027 95.6105C53.1356 95.6105 53.4685 95.6105 53.8115 95.6105C53.8525 96.3355 53.8818 97.0612 53.9061 97.787C53.9324 98.393 53.9324 98.393 53.9593 99.0112C53.7803 100.394 53.3608 100.805 52.2984 101.667C52.2263 97.3409 52.2263 97.3409 52.8027 95.6105Z" fill="#949494"/>
<path d="M9.92819 93.5917C11.0059 93.7908 11.0059 93.7908 11.9457 94.0964C11.3814 94.6882 10.8133 95.2763 10.2434 95.8628C9.92744 96.1907 9.61145 96.5186 9.28588 96.8564C8.41503 97.6292 8.41503 97.6292 7.40625 97.6292C7.67809 95.7252 8.41268 94.7615 9.92819 93.5917Z" fill="#797979"/>
<path d="M204.055 83.8132C205.788 84.0213 206.74 84.5183 208.153 85.5166C207.987 85.8497 207.82 86.1828 207.649 86.526C207.365 86.3607 207.082 86.1955 206.79 86.0252C205.496 85.4571 204.638 85.4122 203.235 85.4535C202.631 85.4672 202.631 85.4672 202.014 85.4811C201.557 85.4987 201.557 85.4987 201.092 85.5166C202.424 84.0262 202.424 84.0262 204.055 83.8132Z" fill="#BEBEBE"/>
<path d="M241.947 162.23C242.851 162.203 243.755 162.183 244.658 162.167C245.162 162.155 245.665 162.144 246.183 162.132C247.496 162.23 247.496 162.23 248.504 163.24C248.171 163.24 247.839 163.24 247.496 163.24C247.329 163.573 247.163 163.906 246.991 164.249C246.991 163.916 246.991 163.583 246.991 163.24C246.024 163.271 246.024 163.271 245.037 163.303C243.937 163.338 243.937 163.338 242.956 163.24C242.623 162.906 242.29 162.573 241.947 162.23Z" fill="#A6A6A6"/>
<path d="M32.1217 173.838C32.2881 173.838 32.4546 173.838 32.6261 173.838C32.6261 174.837 32.6261 175.837 32.6261 176.866C32.959 176.866 33.2919 176.866 33.6348 176.866C33.6348 176.034 33.6348 175.201 33.6348 174.343C33.8013 174.343 33.9677 174.343 34.1392 174.343C34.2023 177.75 34.2023 177.75 33.6348 178.885C33.3019 178.885 32.969 178.885 32.6261 178.885C31.8154 177.263 32.0927 175.637 32.1217 173.838Z" fill="#AFAFAF"/>
<path d="M132.496 115.294C133.328 115.294 134.161 115.294 135.018 115.294C135.018 116.626 135.018 117.958 135.018 119.331C134.519 119.498 134.019 119.664 133.505 119.836C133.671 118.67 133.838 117.504 134.009 116.303C133.51 115.97 133.011 115.637 132.496 115.294Z" fill="#9F9F9F"/>
<path d="M70.4565 0.223145C71.2888 0.223145 72.121 0.223145 72.9785 0.223145C72.4972 0.803171 72.0133 1.38107 71.5283 1.95803C71.2592 2.28007 70.99 2.60211 70.7127 2.93391C69.9521 3.75601 69.9521 3.75601 68.9434 4.2607C69.1774 3.82351 69.1774 3.82351 69.4162 3.37749C69.9147 2.32119 70.2128 1.36105 70.4565 0.223145Z" fill="#2A2A2A"/>
<path d="M251.532 183.932C251.865 183.932 252.197 183.932 252.54 183.932C252.54 184.432 252.54 184.931 252.54 185.446C250.044 185.446 247.547 185.446 244.975 185.446C244.975 185.28 244.975 185.113 244.975 184.941C245.406 184.911 245.837 184.88 246.281 184.849C247.117 184.785 247.117 184.785 247.969 184.721C248.525 184.68 249.081 184.639 249.654 184.596C250.982 184.586 250.982 184.586 251.532 183.932Z" fill="#5B5B5B"/>
<path d="M68.4389 90.5635C69.5107 90.7528 69.5107 90.7528 70.4564 91.0682C70.1443 91.3701 69.8322 91.672 69.5107 91.983C68.3699 93.0911 68.3699 93.0911 67.4301 94.6011C67.3671 93.1501 67.3671 93.1501 67.4301 91.5729C67.763 91.2398 68.0959 90.9067 68.4389 90.5635Z" fill="#6C6C6C"/>
<path d="M109.293 173.838C109.459 173.838 109.626 173.838 109.797 173.838C109.797 175.504 109.797 177.169 109.797 178.885C110.13 178.885 110.463 178.885 110.806 178.885C110.806 179.385 110.806 179.884 110.806 180.399C110.307 180.399 109.807 180.399 109.293 180.399C109.293 178.234 109.293 176.069 109.293 173.838Z" fill="#ECECEC"/>
<path d="M120.895 111.761C122.226 111.761 123.558 111.761 124.93 111.761C124.93 112.593 124.93 113.426 124.93 114.284C124.43 114.534 124.43 114.534 123.921 114.789C123.754 114.123 123.588 113.456 123.416 112.77C122.584 112.604 121.752 112.437 120.895 112.265C120.895 112.099 120.895 111.932 120.895 111.761Z" fill="#A7A7A7"/>
<path d="M221.268 91.0682C221.767 91.2348 222.266 91.4013 222.781 91.5729C221.867 92.5823 221.867 92.5823 220.763 93.5917C220.264 93.5917 219.764 93.5917 219.25 93.5917C220.133 91.636 220.133 91.636 221.268 91.0682Z" fill="#969696"/>
<path d="M241.947 214.718C242.956 215.223 242.956 215.223 242.956 215.223L241.947 214.718Z" fill="white"/>
</svg>
