<svg width="634" height="81" viewBox="0 0 634 81" fill="none" xmlns="http://www.w3.org/2000/svg">
<path fill-rule="evenodd" clip-rule="evenodd" d="M189.78 80.96H202.09L212.09 64.23H276.46L286.46 80.96H298.8L251 1.73001H237.5L189.78 80.96ZM530.44 51.32C530.44 71.32 537.34 80.96 559.03 80.96H605.32C627.08 80.96 633.98 71.35 633.98 51.32V29.64C633.98 9.64001 627.08 0 605.32 0H559C537.31 0 530.41 9.61001 530.41 29.64V51.32H530.44ZM404.08 80.96H468.75C495.99 80.96 503.34 70.45 503.34 41.34C503.34 10.06 495.99 1.73001 469.05 1.73001H404.05V80.96H404.08ZM300.6 0.900024V60.18C300.6 76.31 308.85 80.96 329.19 80.96H366.33C386.81 80.96 394.99 76.31 394.99 60.18V0.900024H384.18V60.1C384.18 67.75 381.41 72.18 366.63 72.18H328.89C314.18 72.18 311.48 67.75 311.48 60.1V0.900024H300.6ZM622.85 55.96C622.85 69.76 614.44 72.84 604.01 72.84H559.9C549.47 72.84 541.06 69.76 541.06 55.96V26.25C541.06 12.44 549.47 9.36002 559.9 9.36002H604C614.43 9.36002 622.84 12.44 622.84 26.25V55.96H622.85ZM492.45 45.76C492.45 69.47 483.3 72.32 470.09 72.32H414.87V10.57H471.87C485.23 10.57 492.43 14.77 492.43 37.66V45.76H492.45ZM0 50.87V59.65C0 74.51 7.5 80.96 26.56 80.96H47.27C67 80.96 74.95 76.16 74.95 57.85V0.900024H64.15V60.03C64.15 70.16 58.9 72.18 46.37 72.18H27.33C13.33 72.18 10.22 69.63 10.22 57.18V50.88L0 50.87ZM83.18 1.73001V80.96H156.41V72.18H94.08V1.73001H83.18ZM271.71 55.48H217.77L244.77 10.48L271.7 55.48H271.71ZM511.09 1.73001V80.96H522V1.73001H511.09Z" fill="black"/>
</svg>
