<svg width="708" height="113" viewBox="0 0 708 113" fill="none" xmlns="http://www.w3.org/2000/svg">
<path fill-rule="evenodd" clip-rule="evenodd" d="M149.365 22.4593H220.979C222.729 22.45 224.463 22.7865 226.082 23.4496C227.701 24.1127 229.173 25.0893 230.413 26.3231C231.654 27.557 232.638 29.0238 233.31 30.6393C233.981 32.2549 234.327 33.9872 234.327 35.7368V89.8355H220.979V39.4093C220.979 38.5223 220.632 37.6706 220.011 37.0369C219.391 36.4031 218.546 36.0378 217.66 36.0193H187.644V90.1181H174.296V36.0193H147.67C146.783 36.0378 145.939 36.4031 145.319 37.0369C144.698 37.6706 144.351 38.5223 144.351 39.4093V90.1181H131.073V36.0193C131.036 34.252 131.351 32.4951 132.002 30.8514C132.652 29.2078 133.624 27.7105 134.861 26.4475C136.098 25.1845 137.574 24.1812 139.204 23.4963C140.833 22.8115 142.583 22.4589 144.351 22.4593H149.365Z" fill="black"/>
<path fill-rule="evenodd" clip-rule="evenodd" d="M367.885 22.7419H470.997V36.0194H424.455V90.1182H411.178V36.0194H367.885V22.7419Z" fill="black"/>
<path fill-rule="evenodd" clip-rule="evenodd" d="M589.436 22.4591V35.7366H502.991C502.092 35.7366 501.229 36.0938 500.594 36.7295C499.958 37.3653 499.601 38.2275 499.601 39.1266V72.1791C499.601 74.0154 501.084 76.4872 502.991 76.4872H589.436V89.8354H499.601C496.073 89.8167 492.696 88.4022 490.208 85.9009C487.72 83.3997 486.323 80.0152 486.323 76.4872V36.0191C486.286 34.2518 486.601 32.4949 487.252 30.8512C487.902 29.2076 488.874 27.7103 490.111 26.4473C491.348 25.1843 492.824 24.181 494.454 23.4961C496.083 22.8113 497.833 22.4587 499.601 22.4591H589.436Z" fill="black"/>
<path fill-rule="evenodd" clip-rule="evenodd" d="M604.754 22.7419H618.031V49.7913H694.518V22.7419H707.866V90.1182H694.518V63.0688H618.031V90.1182H604.754V22.7419Z" fill="black"/>
<path d="M65.6035 0C79.7285 15.1138 115.818 57.3475 115.818 57.3475L65.6035 113V0Z" fill="black"/>
<path d="M0 0C14.125 15.1138 50.2144 57.3475 50.2144 57.3475L0 113V0Z" fill="black"/>
<path fill-rule="evenodd" clip-rule="evenodd" d="M267.806 22.4588H339.278C342.806 22.4587 346.191 23.8553 348.692 26.3433C351.193 28.8313 352.608 32.2084 352.627 35.7363V89.835H339.278V66.3875H262.792V90.1175H249.232V36.0187C249.193 34.2275 249.517 32.4469 250.185 30.7843C250.853 29.1217 251.85 27.6115 253.117 26.3446C254.384 25.0777 255.895 24.0803 257.557 23.4125C259.22 22.7446 261 22.4202 262.792 22.4588H267.806ZM339.278 54.4519V39.4088C339.279 38.5218 338.931 37.6701 338.311 37.0363C337.69 36.4026 336.846 36.0372 335.959 36.0187H266.111C265.224 36.0372 264.38 36.4026 263.759 37.0363C263.139 37.6701 262.791 38.5218 262.792 39.4088V54.7344L339.278 54.4519Z" fill="black"/>
</svg>
