<svg width="214" height="214" viewBox="0 0 214 214" fill="none" xmlns="http://www.w3.org/2000/svg">
<path d="M195.081 0.00488281C200.094 0.00633275 204.637 2.03994 207.922 5.3252L207.926 5.32227C211.207 8.60493 213.238 13.1438 213.24 18.1611H213.246V195.488H213.24C213.239 200.502 211.206 205.044 207.921 208.33L207.923 208.333C204.64 211.615 200.101 213.646 195.085 213.648V213.653H18.166V213.648C13.1467 213.647 8.60418 211.614 5.32031 208.33C2.03967 205.048 0.00810326 200.509 0.00585938 195.493H0V18.165H0.00585938C0.00692604 13.145 2.03938 8.60333 5.32324 5.31934H5.3291C8.6114 2.0396 13.1485 0.00631571 18.1611 0.00488281V0H195.081V0.00488281ZM95.6182 157.311C90.2411 157.311 85.959 159.173 82.7705 162.896C79.5826 166.619 77.9884 171.622 77.9883 177.905C77.9883 183.77 79.5008 188.448 82.5273 191.939C85.5513 195.407 89.6365 197.141 94.7803 197.141C100.948 197.139 105.497 195.174 108.43 191.241C111.362 187.309 112.829 182.329 112.829 176.3C112.828 170.064 111.163 165.339 107.836 162.127C104.508 158.916 100.436 157.311 95.6182 157.311ZM161.795 157.555C156.535 157.556 152.276 159.428 149.019 163.175C145.759 166.922 144.131 171.797 144.131 177.802C144.131 183.9 145.748 188.647 148.984 192.044C152.218 195.419 156.163 197.105 160.817 197.105C162.725 197.105 164.437 196.919 165.949 196.547C168.765 195.895 171.128 194.64 173.037 192.777C174.176 191.707 175.201 190.334 176.109 188.658C177.04 186.959 177.586 185.424 177.75 184.051H171.571C171.105 185.703 170.314 187.157 169.196 188.414C167.242 190.578 164.624 191.66 161.343 191.66C157.827 191.66 155.234 190.52 153.558 188.239C151.88 185.935 150.984 182.888 150.869 179.094H178.273C178.272 175.323 178.087 172.577 177.715 170.854C177.296 168.342 176.458 166.141 175.201 164.257C173.897 162.279 172 160.674 169.511 159.439C167.02 158.184 164.45 157.555 161.795 157.555ZM58.4971 157.555C56.1462 157.555 54.0282 158.043 52.1436 159.021C50.2587 159.974 48.6181 161.454 47.2217 163.454C46.3823 161.826 45.4531 160.591 44.4297 159.754C42.613 158.287 40.2149 157.555 37.2373 157.555C34.6067 157.556 32.2557 158.265 30.1855 159.684C28.9746 160.523 27.6248 161.861 26.1357 163.699V158.393H19.9219V195.779H26.2061V175.951C26.2061 171.134 27.1713 167.806 29.1035 165.968C31.0587 164.129 33.2233 163.209 35.5967 163.209C38.2028 163.209 39.9837 164.082 40.9385 165.828C41.542 166.992 41.8457 168.842 41.8457 171.378V195.779H48.2334V174.031C48.2334 170.169 49.1177 167.411 50.8867 165.759C52.6777 164.107 54.8078 163.279 57.2754 163.279C59.0665 163.28 60.5806 163.746 61.8145 164.676C63.0705 165.608 63.6992 167.318 63.6992 169.808V195.779H70.2275V170.89C70.2275 167.586 69.7383 164.955 68.7607 163C66.9457 159.37 63.5241 157.555 58.4971 157.555ZM137.696 157.555C135.206 157.555 133.007 158.462 131.098 160.277C129.19 162.069 127.992 163.594 127.503 164.85V158.393H121.533V195.779H127.815V174.276C127.815 171.623 128.665 169.284 130.365 167.259C132.064 165.211 134.495 164.188 137.661 164.188C138.033 164.188 138.37 164.2 138.673 164.223C138.998 164.247 139.348 164.292 139.722 164.361V157.729C139.046 157.659 138.569 157.613 138.289 157.59C138.009 157.566 137.812 157.555 137.696 157.555ZM187.223 144.499V195.779H193.507V144.499H187.223ZM95.4434 162.791C99.7718 162.793 102.82 164.513 104.59 167.957C105.707 170.145 106.266 172.984 106.266 176.475C106.265 180.339 105.486 183.853 103.927 187.018C102.39 190.16 99.5391 191.73 95.373 191.73C91.579 191.73 88.8106 190.403 87.0654 187.751C85.3201 185.098 84.4463 181.781 84.4463 177.802C84.4463 173.66 85.3201 170.122 87.0654 167.189C88.8106 164.257 91.6034 162.791 95.4434 162.791ZM161.412 163.035C165.437 163.036 168.312 164.548 170.035 167.573C170.964 169.203 171.557 171.378 171.814 174.102H151.043C151.159 170.89 152.194 168.248 154.15 166.177C156.105 164.082 158.525 163.035 161.412 163.035ZM24.4023 17.6699V46.4785C40.3414 45.8985 53.8418 58.9159 53.8418 74.8652C53.8416 90.8144 40.3413 103.832 24.4023 103.252V131.849C56.12 132.37 82.3825 106.585 82.4404 74.8652C82.4994 43.0879 56.1779 17.1486 24.4023 17.6699ZM80.2754 17.6699V46.4785C96.2149 45.8986 109.715 58.9159 109.715 74.8652C109.715 90.8144 96.2148 103.832 80.2754 103.252V131.849C111.993 132.37 138.255 106.585 138.312 74.8652C138.371 43.0879 112.05 17.1486 80.2754 17.6699ZM136.147 17.6699V46.4785C152.087 45.8985 165.588 58.9159 165.588 74.8652C165.588 90.8144 152.087 103.832 136.147 103.252V131.849C167.866 132.37 194.129 106.585 194.187 74.8652C194.245 43.0879 167.923 17.1486 136.147 17.6699ZM191.488 14.6074C189.811 14.6074 188.38 15.1998 187.196 16.3838C186.012 17.5677 185.42 19.002 185.42 20.6846C185.42 22.3752 186.008 23.8171 187.187 25.0078C188.371 26.1918 189.804 26.7832 191.488 26.7832C193.172 26.7831 194.606 26.189 195.791 24.9971C196.975 23.7998 197.566 22.3618 197.566 20.6846C197.566 19.0089 196.971 17.5784 195.78 16.3945C194.596 15.2026 193.165 14.6075 191.488 14.6074ZM191.488 15.6133C192.891 15.6134 194.087 16.1106 195.072 17.1025C196.064 18.0944 196.559 19.2889 196.56 20.6846C196.56 22.0606 196.06 23.2494 195.062 24.248C194.068 25.2479 192.877 25.746 191.488 25.7461C190.099 25.7461 188.908 25.2511 187.915 24.2578C186.923 23.2578 186.427 22.0686 186.427 20.6846C186.427 19.3034 186.923 18.1119 187.915 17.1133C188.915 16.1133 190.106 15.6133 191.488 15.6133ZM189.014 17.1133C188.836 17.1133 188.696 17.1639 188.592 17.2666C188.489 17.3626 188.439 17.4996 188.438 17.6768C188.438 17.8621 188.489 17.9999 188.592 18.0879C188.702 18.1771 188.862 18.2207 189.074 18.2207H189.435V22.8916H189.055C188.849 22.8929 188.696 22.9411 188.592 23.0371C188.489 23.1251 188.438 23.2665 188.438 23.457C188.439 23.6355 188.489 23.7753 188.592 23.8779C188.696 23.9806 188.836 24.0332 189.014 24.0332H190.861C191.121 24.0332 191.311 23.9874 191.427 23.8994C191.543 23.8101 191.602 23.6622 191.602 23.457C191.602 23.2731 191.539 23.1331 191.416 23.0371C191.293 22.9411 191.115 22.8916 190.883 22.8916H190.625V21.168H190.821C191.025 21.168 191.18 21.2093 191.282 21.292C191.392 21.3667 191.554 21.5654 191.766 21.8867L192.833 23.498C192.962 23.7114 193.08 23.8547 193.183 23.9307C193.292 23.9986 193.422 24.0332 193.572 24.0332H194.188C194.366 24.0332 194.504 23.9806 194.599 23.8779C194.702 23.7753 194.753 23.6355 194.753 23.457C194.753 23.2517 194.694 23.109 194.578 23.0264C194.462 22.9371 194.253 22.8916 193.953 22.8916L192.885 21.2705C192.829 21.1879 192.781 21.1232 192.741 21.0752C192.699 21.0207 192.663 20.9819 192.628 20.9619C193.025 20.8246 193.337 20.5997 193.562 20.2852C193.794 19.9706 193.912 19.6078 193.912 19.1973C193.911 18.4854 193.672 17.9606 193.192 17.626C192.714 17.2833 191.971 17.1133 190.964 17.1133H189.014ZM191.241 18.2207C191.707 18.2207 192.047 18.297 192.259 18.4463C192.477 18.5982 192.587 18.8301 192.587 19.1445C192.587 19.4605 192.471 19.6993 192.237 19.8633C192.012 20.0206 191.673 20.0996 191.222 20.0996H190.625V18.2207H191.241Z" fill="black"/>
</svg>
