<svg width="746" height="58" viewBox="0 0 746 58" fill="none" xmlns="http://www.w3.org/2000/svg">
<path fill-rule="evenodd" clip-rule="evenodd" d="M732.639 51.7901L732.887 53.2804L733.384 54.6466L734.253 55.8886L735.371 56.8822L736.737 57.6273L738.228 57.9999H739.718L741.084 57.6273L742.45 56.8822L743.568 55.8886L744.437 54.6466L744.934 53.2804L745.183 51.7901V6.20979L744.934 4.71945L744.437 3.35327L743.568 2.1113L742.45 1.11771L741.084 0.496721L739.718 0.124146H738.228L736.737 0.496721L735.371 1.11771L734.253 2.1113L733.384 3.35327L732.887 4.71945L732.639 6.20979V51.7901Z" fill="black"/>
<path fill-rule="evenodd" clip-rule="evenodd" d="M285.653 13.5375V21.7345L285.777 22.2313L286.15 22.6039L286.647 22.8522H361.165L363.276 22.9764L365.388 23.4732L367.251 24.3426L368.989 25.3362L370.728 26.7023L371.97 28.3169L373.088 30.1799L373.957 32.0428L374.454 34.1542L374.578 36.2655V44.5867L374.454 46.5739L373.957 48.6852L373.088 50.6724L371.97 52.4111L370.728 54.0257L368.989 55.3919L367.251 56.5096L365.388 57.379L363.276 57.8758L361.165 58H279.443L277.953 57.7516L276.463 57.2548L275.221 56.5096L274.351 55.2677L273.606 54.0257L273.234 52.5353V51.045L273.606 49.5546L274.351 48.1884L275.221 47.1948L276.463 46.3255L277.953 45.7045L279.443 45.5803H361.165L361.662 45.4561L362.034 45.0835L362.159 44.5867V36.2655L362.034 35.7687L361.662 35.2719H361.165H286.647L284.535 35.0236L282.424 34.5268L280.561 33.7816L278.698 32.6638L277.084 31.2977L275.842 29.6831L274.6 27.8201L273.855 25.9572L273.358 23.8458L273.109 21.7345V13.5375L273.358 11.4261L273.855 9.31477L274.6 7.32761L275.842 5.58886L277.084 3.97432L278.698 2.60814L280.561 1.49038L282.424 0.745189L284.535 0.248409L286.523 0H368.368L369.859 0.248409L371.349 0.745189L372.591 1.61458L373.461 2.73235L374.206 4.09852L374.578 5.46466V6.95504L374.206 8.44542L373.461 9.68739L372.591 10.9294L371.349 11.7987L369.859 12.2955L368.368 12.4197H286.647L286.15 12.5439L285.653 13.0407V13.5375Z" fill="black"/>
<path fill-rule="evenodd" clip-rule="evenodd" d="M401.405 0L399.418 0.248409L397.307 0.745189L395.444 1.49038L393.581 2.60814L391.966 3.97432L390.724 5.58886L389.483 7.32761L388.737 9.31477L388.241 11.4261L387.992 13.5375V44.5867L388.241 46.5739L388.737 48.6852L389.483 50.6724L390.724 52.4111L391.966 54.0257L393.581 55.3919L395.444 56.5096L397.307 57.379L399.418 57.8758L401.53 58H483.251L484.742 57.7516L486.232 57.2548L487.474 56.3854L488.343 55.2677L489.089 54.0257L489.461 52.5353V51.045L489.089 49.5546L488.343 48.1884L487.474 47.1948L486.232 46.3255L484.742 45.7045L483.251 45.5803H401.53L401.033 45.4561L400.66 45.0835L400.536 44.5867V13.5375L400.66 13.0407L401.033 12.5439L401.53 12.4197H483.251L484.742 12.2955L486.232 11.7987L487.474 10.9294L488.343 9.68739L489.089 8.44542L489.461 6.95504V5.46466L489.089 4.09852L488.343 2.73235L487.474 1.61458L486.232 0.745189L484.742 0.248409L483.251 0H401.405Z" fill="black"/>
<path fill-rule="evenodd" clip-rule="evenodd" d="M78.6167 51.7902L78.4925 53.2805L77.8715 54.6467L77.0021 55.8886L75.8844 56.8822L74.6424 57.6274L73.152 58H71.6617L70.1713 57.6274L68.9293 56.8822L67.8115 55.8886L66.9422 54.6467L66.3212 53.2805L66.197 51.7902V13.5375L66.0728 13.0407L65.7002 12.5439L65.0792 12.4197H13.4133L12.9165 12.5439L12.4197 13.0407V13.5375V51.7902L12.1713 53.2805L11.6745 54.6467L10.8051 55.8886L9.68737 56.8822L8.3212 57.6274L6.83083 58H5.34047L3.9743 57.6274L2.60814 56.8822L1.49036 55.8886L0.620985 54.6467L0.124197 53.2805L0 51.7902V13.4133L0.124197 11.4261L0.620985 9.31477L1.49036 7.32761L2.48394 5.58886L3.85011 3.97432L5.46467 2.60814L7.32762 1.49038L9.19058 0.745189L11.3019 0.248409L13.4133 0H131.4L133.512 0.248409L135.623 0.745189L137.486 1.49038L139.225 2.60814L140.964 3.97432L142.206 5.58886L143.447 7.32761L144.193 9.31477L144.689 11.4261L144.938 13.5375V51.7902L144.689 53.2805L144.068 54.6467L143.323 55.8886L142.206 56.8822L140.839 57.6274L139.349 58H137.859L136.492 57.6274L135.002 56.8822L134.009 55.8886L133.139 54.6467L132.642 53.2805L132.394 51.7902V13.5375L132.27 13.0407L131.897 12.5439L131.4 12.4197H79.6103L79.1135 12.5439L78.7409 13.0407L78.6167 13.5375V51.7902Z" fill="black"/>
<path fill-rule="evenodd" clip-rule="evenodd" d="M630.3 13.4133L630.424 13.0407L630.797 12.5439L631.293 12.4197H705.811L706.308 12.5439L706.681 13.0407L706.805 13.5375V51.7902L707.053 53.2805L707.55 54.6467L708.42 55.8886L709.537 56.8822L710.904 57.6274L712.27 57.8758H713.76L715.25 57.6274L716.617 56.8822L717.734 55.8886L718.604 54.6467L719.101 53.2805L719.225 51.7902V13.5375L719.101 11.4261L718.604 9.31477L717.734 7.32761L716.617 5.58886L715.375 3.97432L713.636 2.60814L711.897 1.49038L710.034 0.745189L707.923 0.248409L705.811 0H631.293L629.182 0.248409L627.071 0.745189L625.208 1.49038L623.469 2.60814L621.73 3.97432L620.488 5.58886L619.246 7.32761L618.501 9.31477L618.004 11.4261L617.756 13.5375V51.7902L618.004 53.2805L618.501 54.6467L619.37 55.8886L620.488 56.8822L621.854 57.6274L623.345 57.8758H624.835L626.201 57.6274L627.567 56.8822L628.685 55.8886L629.555 54.6467L630.051 53.2805L630.3 51.7902V13.4133Z" fill="black"/>
<path fill-rule="evenodd" clip-rule="evenodd" d="M246.283 0H171.765L169.653 0.124205L167.542 0.620985L165.555 1.36617L163.692 2.35973L162.077 3.72591L160.711 5.34049L159.718 7.20345L158.973 9.19057L158.476 11.3019L158.352 13.4133V44.4625L158.476 46.5739L158.973 48.561L159.718 50.5482L160.711 52.2869L162.077 53.9015L163.692 55.2677L165.555 56.3854L167.542 57.1306L169.653 57.6274L171.765 57.7516H246.283L248.394 57.6274L250.506 57.1306L252.493 56.3854L254.232 55.2677L255.846 53.9015L257.212 52.2869L258.33 50.5482L259.075 48.561L259.572 46.5739L259.696 44.4625V13.4133L259.572 11.3019L259.075 9.19057L258.33 7.20345L257.212 5.34049L255.846 3.72591L254.232 2.35973L252.493 1.36617L250.506 0.620985L248.394 0.124205L246.283 0ZM170.771 44.5867L170.895 45.0835L171.392 45.4561L171.889 45.5803H246.407L246.904 45.4561L247.277 45.0835L247.401 44.5867V13.5375L247.277 13.0407L246.904 12.5439L246.407 12.4197H171.889L171.392 12.5439L170.895 13.0407L170.771 13.5375V44.5867Z" fill="black"/>
<path fill-rule="evenodd" clip-rule="evenodd" d="M590.93 0H516.411L514.3 0.124205L512.189 0.620985L510.201 1.36617L508.339 2.35973L506.724 3.72591L505.358 5.34049L504.364 7.20345L503.619 9.19057L503.122 11.3019L502.998 13.4133V44.4625L503.122 46.5739L503.619 48.561L504.364 50.5482L505.358 52.2869L506.724 53.9015L508.339 55.2677L510.201 56.3854L512.189 57.1306L514.3 57.6274L516.411 57.7516H590.93L593.041 57.6274L595.152 57.1306L597.139 56.3854L598.878 55.2677L600.493 53.9015L601.859 52.2869L602.977 50.5482L603.722 48.561L604.219 46.5739L604.343 44.4625V13.4133L604.219 11.3019L603.722 9.19057L602.977 7.20345L601.859 5.34049L600.493 3.72591L598.878 2.35973L597.139 1.36617L595.152 0.620985L593.041 0.124205L590.93 0ZM515.418 44.5867L515.542 45.0835L516.039 45.4561L516.536 45.5803H591.054L591.551 45.4561L591.923 45.0835L592.047 44.5867V13.5375L591.923 13.0407L591.426 12.5439L590.93 12.4197H516.411L515.915 12.5439L515.418 13.0407L515.294 13.5375V44.5867H515.418Z" fill="black"/>
</svg>
