<svg width="273" height="141" viewBox="0 0 273 141" fill="none" xmlns="http://www.w3.org/2000/svg">
<path d="M179.356 0.248047C181.96 0.09761 184.511 -0.242383 187.103 0.283203C187.682 0.400564 190.462 0.823661 190.781 1.08105C191.996 1.3222 193.685 2.01859 194.483 2.1582C197.066 3.09343 202.775 6.9727 204.469 9.21094C209.469 15.8163 214.463 22.6427 219.405 29.2891L253.477 75.4111L266.658 93.1592C268.269 95.327 271.212 98.7071 272.291 101.021C273.496 103.607 273 107.361 272.023 109.957C270.843 113.097 268.202 115.7 265.166 117.072C260.926 118.989 249.648 117.26 244.379 117.977C243.841 118.318 242.812 118.623 242.185 118.742C240.701 119.256 240.481 119.216 238.954 119.451C238.1 119.55 237.184 119.494 236.455 119.778L236.198 120.109C235.213 121.763 233.351 123.73 231.506 124.274C230.459 124.815 229.47 125.102 228.325 125.358C226.594 125.531 224.526 125.265 223.478 123.706L223.353 123.627C223.166 123.12 222.809 122.387 222.948 121.904L223.062 121.581C222.398 121.361 219.945 122.614 218.918 122.894C215.566 124.216 213.261 124.504 209.627 124.126C210.112 123.855 210.303 123.95 210.871 123.586C209.962 123.495 209.884 123.205 209.359 122.499C208.881 122.387 208.297 122.089 207.84 121.876L207.174 122.188C206.866 121.523 206.903 121.008 206.603 120.435C206.171 120.408 205.665 120.816 205.202 120.987C203.307 121.905 199.425 123.493 197.55 121.933C196.829 121.202 196.555 120.609 195.9 119.943C194.887 121.117 192.347 123.596 190.86 124.014C189.202 124.906 187.077 125.648 185.167 125.347C184.175 125.19 183.705 124.674 183.033 123.994C182.97 122.648 183.293 121.4 183.558 120.088C182.616 120.546 182.002 120.754 181.003 121.087C177.829 122.372 174.09 123.36 170.742 124.105C169.875 124.291 168.283 124.289 167.455 123.914C164.851 122.736 166.437 118.823 166.149 118.052C165.423 117.985 163.501 118.97 162.805 119.3C160.482 120.204 156.632 122.389 155.104 119.5C154.933 118.941 154.971 118.451 154.979 117.871C153.913 117.891 151.465 117.981 150.513 117.834C149.861 118.889 149.421 121.169 148.769 122.294C148.4 123.714 147.762 125.438 147.299 126.867L146.577 129.188C146.2 130.434 145.832 131.729 145.463 132.975C144.983 134.591 143.2 142.288 140.584 138.868C140.327 138.53 140.441 136.314 140.441 135.806C140.384 129.251 140.512 125.562 136.668 120.209C134.501 122.872 133 125.683 131.179 128.572C130.337 129.907 129.455 131.475 128.415 132.643L126.993 133.173C125.926 132.012 126.087 131.714 126.535 130.254C126.758 129.726 127.35 128.899 127.639 128.351C128.75 126.244 131.02 123.05 131.737 120.945C129.998 121.524 128.676 121.376 126.892 121.199C126.545 121 125.937 120.79 125.545 120.642L124.749 119.42C124.641 119.066 124.636 118.328 124.619 117.925C123.998 117.612 112.325 118.024 110.637 117.867C110.364 117.842 109.467 118.341 109.163 118.512C108.337 119.075 107.995 119.227 107.081 119.625C105.872 120.247 101.868 122.183 100.69 122.369C98.8904 123.177 95.9797 123.762 93.9814 123.621C92.4618 123.605 90.7226 123.081 90.1582 121.55C89.8122 120.806 89.7805 120.433 89.6562 119.639C89.0294 119.985 87.7933 120.869 87.291 121.035C84.5871 122.61 82.4653 123.481 79.459 124.378C76.3544 124.99 74.8805 125.279 72.0078 123.819C71.4979 123.099 71.3883 122.718 71.1016 121.906C70.8443 121.209 70.4668 119.263 70.2051 118.324C68.7446 119.321 67.3084 120.353 65.8984 121.42C63.7939 123.004 61.8708 124.945 59.1816 125.361C56.7839 125.732 56.1684 123.852 56.9512 121.997C57.4594 120.793 58.2031 118.937 59.0498 117.982C57.0308 117.849 55.2366 117.778 53.1963 117.937C50.3168 123.911 43.9508 132.216 39 136.762C36.5418 139.019 31.3816 141.709 28.1436 140.014C26.1593 138.975 25.8676 136.768 25.6387 134.734C25.1404 129.279 27.3172 125.81 28.3008 120.755C28.3836 120.33 27.5066 118.429 27.4502 117.773C27.2813 115.808 28.6177 110.702 29.708 109.307L29.7832 109.278L29.875 109.03C29.6088 108.429 25.8439 106.297 24.9385 105.646C20.9245 102.809 17.1744 99.6158 13.7324 96.1064C4.94365 87.1648 0.919122 76.1691 0.0810547 63.7871C-0.123025 60.7714 0.11665 58.0813 0.146484 55.1025C0.176365 52.9731 2.51956 44.4268 3.54395 42.3555C3.70701 42.0372 4.20422 40.7412 4.38281 40.3154C5.39216 37.9094 6.08285 36.415 7.55566 34.2637C9.15613 31.1351 11.4506 28.6392 13.0049 25.9424C13.444 25.5313 13.968 25.2207 14.4482 24.7441C16.0764 23.1287 17.7187 21.527 19.3193 19.8838C22.4298 16.6079 27.1289 13.2606 30.9932 10.9326C38.7393 6.23334 47.3931 3.22874 56.3848 2.11719C57.525 1.97375 58.7186 1.96871 59.874 1.88281C61.0585 1.79474 62.6279 1.45697 63.7744 1.45117C68.7875 1.42605 73.8381 1.44785 78.8486 1.44824L105.04 1.44531C108.237 1.44369 111.428 1.42668 114.624 1.38379C115.561 1.37133 115.992 1.85749 117.115 1.7373C119.468 1.32061 126.325 2.51471 128.638 3.42383C131.23 4.09575 135.164 5.21698 137.523 6.46387C140.894 8.1642 143.591 9.75656 146.609 12.085C147.719 12.9402 148.79 14.0215 149.837 14.7793C150.086 15.4482 150.51 16.4764 150.615 17.1504C152.994 17.1836 153.541 17.9297 154.639 15.4414C155.95 14.3615 156.869 12.8669 157.995 11.5986C160.949 8.31165 164.542 5.66259 168.557 3.81543C171.218 1.96864 174.234 1.35121 177.339 0.705078C178.214 0.522897 178.353 0.366322 179.356 0.248047ZM37.8936 112.976C36.8823 113.126 33.3828 118.559 33.5654 119.748C35.25 121.667 41.8682 117.424 43.5176 116.646C44.076 116.382 44.1384 116.338 44.707 116.554L44.9062 116.706C45.2482 116.981 45.2815 117.02 45.3877 117.444C45.2115 118.982 41.1589 120.921 39.793 121.505C39.3519 121.758 38.171 122.327 37.6621 122.37C35.5254 123.281 33.7354 123.118 31.4551 123.108C30.4439 125.762 27.5364 135.661 29.7998 137.647C34.2507 141.552 49.7165 119.013 49.5479 117.018C49.3119 116.841 47.475 116.443 46.8447 116.234C43.7935 115.226 40.8861 114.141 37.8936 112.976ZM143.165 117.834C142.686 117.914 142.263 117.92 141.963 118.285C141.405 119.523 143.854 122.054 143.88 124.295L144.063 124.39L144.272 124.215C145.103 122.091 145.438 120 146.176 117.896C145.119 117.935 144.222 117.888 143.165 117.834ZM190.49 117.861C190.05 117.888 189.538 117.851 189.222 118.106C188.589 119.168 187.549 121.157 187.567 122.378L187.745 122.542C188.138 122.476 188.191 122.483 188.53 122.289C190.041 120.833 190.828 119.322 192.43 117.971C191.869 117.93 191.029 117.844 190.49 117.861ZM85.1484 118.066C84.5504 117.707 76.0511 117.875 74.8057 117.954L75.3975 120.271C75.6543 121.172 75.8824 121.359 76.5459 122.02C77.9911 121.437 79.4901 120.919 80.9385 120.311C81.8994 119.907 84.4253 118.495 85.2627 118.628C85.2533 118.453 85.1906 118.242 85.1484 118.066ZM217.634 117.873C215.815 117.888 213.994 117.887 212.175 117.871C211.853 118.691 211.342 120.471 211.743 121.28C212.318 121.446 212.84 120.971 213.275 120.917C214.87 120.675 218.858 118.84 220.295 118.01C219.942 117.989 217.851 117.846 217.634 117.873ZM170.625 117.838C170.507 118.584 170.41 119.373 170.307 120.125C170.205 120.35 170.241 120.423 170.285 120.664C171.713 121.713 177.661 119.039 179.378 118.507C179.648 118.561 179.871 118.605 180.045 118.64C180.019 118.169 180.085 118.317 179.853 117.983C176.898 117.717 173.522 118.056 170.625 117.838ZM231.05 119.156C229.98 118.97 229.52 119.921 229.062 120.788L229.783 120.864C230.393 120.372 230.752 119.87 231.05 119.156ZM102.087 117.979C101.121 117.811 99.9891 117.766 99.0586 118.109C98.7305 118.526 98.3981 118.844 98.3906 119.365C98.8746 120.237 101.23 118.566 102.305 118.479L102.319 118.164L102.087 117.979ZM32.8223 110.827C32.615 111.654 32.0619 112.461 32.3477 113.198C33.7955 113.124 32.9969 112.529 34.1318 111.765C34.2267 111.4 34.2211 111.347 34.1709 110.972C33.7232 110.665 33.4645 110.753 32.8496 110.718L32.8223 110.827ZM192.205 15.1289C187.023 12.1282 180.549 11.4744 174.798 13.0264C171.317 13.952 168.122 15.7315 165.502 18.2031C162.919 20.6251 158.602 26.6862 156.225 29.8301L142.666 47.6484L136.127 56.2617C134.875 57.8863 133.408 59.6919 132.281 61.3809C131.465 62.8345 131.251 64.7071 130.749 66.2686C128.164 74.313 120.889 81.1395 112.763 83.3887C110.012 84.1499 104.071 83.8464 101.039 83.8457L84.4238 83.8467L70.0967 83.8486C67.5331 83.8482 63.6603 83.9541 61.2441 83.6445C58.0222 83.2038 54.9161 82.1427 52.0977 80.5205C46.2567 77.1509 42.0064 71.5847 40.2939 65.0625C40.2252 64.2296 39.9096 62.776 39.8057 61.8145C39.4043 58.1027 39.7273 55.7295 40.7637 52.2246C43.6968 44.0292 48.5237 38.9928 56.918 36.0615C60.9952 34.6379 65.4832 34.8201 69.7217 34.8193L83.1172 34.8145L101.626 34.8125C103.586 34.8126 109.159 34.6904 110.877 35.0283C114.834 35.8064 119.87 38.6508 122.98 41.1602C126.028 43.8755 127.671 45.8679 129.663 49.4746L129.882 49.3887C130.785 46.9007 132.749 44.6936 133.998 42.4512C135.886 39.06 137.485 36.441 140.28 33.7363C141.098 32.944 142.058 30.15 143.141 29.168C144.307 28.1091 145.449 28.4495 146.093 27.8857C145.178 26.6931 143.621 25.172 142.499 24.1279C135.683 17.8347 127.075 13.8213 117.873 12.6455C114.191 12.1626 109.834 12.2794 106.081 12.2793L90.2656 12.2832L70.9004 12.2803C66.9433 12.2778 62.6028 12.1158 58.6533 12.4355C36.5155 14.2277 15.2661 31.5994 12.2129 54.123C10.8291 64.8647 13.5843 76.376 20.2686 84.9746C23.7769 89.4877 28.7838 93.4943 33.3896 96.8076C34.3288 97.4832 35.4437 98.3273 36.5957 98.415C41.0369 93.2751 51.3576 83.1587 58.667 88.4023C62.7363 91.3216 60.9592 100.834 59.4316 104.757C59.1126 105.4 58.3154 107.718 58.0117 108.534C61.9411 108.685 66.7202 108.566 70.6904 108.565L94.6006 108.561L111.469 108.57C120.626 108.576 120.405 108.981 128.689 104.687C138.594 99.5757 147.417 92.5981 154.673 84.1377C157.186 81.1829 159.549 77.8738 161.9 74.7646L174.185 58.502C175.397 56.8924 179.978 50.5561 181.218 49.627C182.197 49.4577 182.731 50.1276 183.292 50.8652C184.897 52.9744 186.47 55.1123 188.05 57.2402L195.305 66.8799L203.062 77.2012C204.377 78.9474 207.539 82.7692 208.239 84.6826C208.244 85.0276 208.17 85.0724 207.953 85.3682C206.893 85.9101 164.964 85.5775 159.898 85.6348C158.929 87.0631 157.535 88.8278 156.443 90.1553C156.15 90.4066 156.108 90.5199 155.921 90.8613C156.463 90.8419 156.744 90.7269 157.104 90.9854C157.069 91.1121 157.031 91.282 156.97 91.3916C156.39 92.7723 155.92 94.6253 155.476 96.0898C154.938 97.8423 154.332 99.5737 153.662 101.28C153.015 103.362 152.095 106.223 151.656 108.354C152.507 107.905 152.276 107.273 153.081 106.363C153.471 105.282 153.674 103.468 154.405 102.578L154.649 102.633L154.798 102.997L154.313 104.428C154.352 104.578 154.401 104.975 154.562 105.003C157.223 105.469 160.148 105.053 162.893 105.416L163.039 105.344C164.466 104.648 168.213 102.719 169.728 103.231C170.307 103.428 170.488 103.959 170.724 104.488L170.934 105.312C170.873 105.281 199.328 105.238 200.086 104.984C200.176 104.954 200.267 104.921 200.356 104.887C201.718 102.444 204.597 96.2885 207.254 94.9072C208.256 94.3855 210.069 95.0694 209.168 96.9033C207.931 99.4174 206.556 101.992 205.236 104.497C205.387 104.726 205.663 105.255 205.868 105.258C208.426 105.288 211.683 105.168 214.174 105.17L250.536 105.201C253.205 105.195 255.891 105.176 258.561 105.305C259.423 105.346 260.638 105.93 261.388 105.838C260.571 104.145 255.697 97.7864 254.356 95.9834L239.718 76.2363L210.239 36.3164L201.749 24.8643C200.668 23.4204 199.563 21.7624 198.421 20.3955C196.68 18.2839 194.573 16.5004 192.205 15.1289Z" fill="#02060A"/>
<path d="M169.366 60.8854C171.298 58.3937 173.209 55.8845 175.099 53.3583C176.269 51.7777 177.556 49.8941 178.897 48.4769C180.015 47.2948 181.156 47.3464 182.622 47.3575L183.826 48.0799C184.774 49.0306 185.934 50.6924 186.765 51.8031L191.752 58.4847C195.58 63.5083 199.372 68.5583 203.129 73.6342C205.325 76.5546 207.563 79.4262 209.676 82.4073C210.828 84.0318 211.019 85.521 209.452 87.0126C209.208 87.2439 208.946 87.4569 208.67 87.6494C205.93 87.7994 203.063 87.6697 200.309 87.6978C187.299 87.8306 174.203 87.4809 161.201 87.7106C160.631 88.432 158.641 91.0395 158.075 91.3806C157.671 90.4006 157.452 90.456 156.445 90.1557C157.537 88.8282 158.932 87.0636 159.901 85.6351C164.967 85.5779 206.895 85.9099 207.955 85.368C208.172 85.0722 208.246 85.028 208.241 84.6831C207.541 82.7697 204.379 78.9475 203.065 77.2012L195.307 66.8799L188.052 57.2407C186.472 55.1126 184.899 52.9748 183.294 50.8656C182.733 50.1279 182.2 49.4579 181.22 49.6272C179.981 50.5563 175.399 56.8921 174.187 58.5016L161.902 74.7645C159.551 77.8736 157.189 81.1829 154.675 84.1376C147.419 92.5981 138.596 99.5758 128.692 104.687C120.407 108.981 120.629 108.576 111.471 108.57L94.6033 108.56L70.6926 108.566C66.7222 108.566 61.9431 108.684 58.0137 108.534C58.3174 107.717 59.115 105.399 59.434 104.756C59.5402 104.954 59.655 105.27 59.8797 105.274C64.1062 105.339 69.8433 105.296 73.8888 105.291L102.552 105.286L109.897 105.296C110.692 105.298 113.05 105.345 113.714 105.231L114.781 106.299C115.895 106.32 118.461 106.405 119.461 106.159C122.961 105.297 127.56 102.749 130.639 100.883C133.408 99.2033 136.607 97.3036 139.122 95.4424C147.97 88.895 155.016 80.4258 161.297 71.4636C162.345 69.9679 163.549 68.5962 164.604 67.0691C165.073 66.7139 168.834 61.6313 169.366 60.8854Z" fill="#C4C4C4"/>
<path d="M113.715 105.231C116.082 103.751 117.798 104.136 120.271 103.635C125.101 102.915 128.238 100.609 132.295 98.4776C137.115 95.9461 138.286 93.168 142.21 89.803C143.235 88.9238 144.319 87.721 145.382 86.9068C148.892 84.2168 151.736 81.0541 154.591 77.7011C157.176 74.1698 159.453 69.9402 162.333 66.5237C162.993 65.7418 163.538 64.516 164.202 63.7522C169.045 58.1899 173.039 51.4772 178.688 46.7168C178.921 46.5205 181.28 45.772 181.705 45.964C182.79 46.4513 183.276 47.0668 183.826 48.08L182.623 47.3575C181.156 47.3465 180.016 47.2948 178.897 48.477C177.557 49.8941 176.27 51.7777 175.099 53.3583C173.21 55.8846 171.299 58.3937 169.366 60.8854C168.834 61.6313 165.074 66.714 164.605 67.0692C163.549 68.5963 162.346 69.968 161.298 71.4636C155.016 80.4258 147.97 88.8951 139.122 95.4425C136.607 97.3037 133.408 99.2034 130.639 100.883C127.561 102.749 122.961 105.297 119.461 106.159C118.462 106.405 115.895 106.32 114.781 106.299L113.715 105.231Z" fill="#B3AEA9"/>
<path d="M164.606 67.0691C163.434 67.3703 163.008 69.5443 161.619 69.3234L161.629 69.1055C163.841 66.6109 166.646 61.5864 169.122 59.9986C169.266 60.2815 169.302 60.5719 169.367 60.8853C168.835 61.6312 165.075 66.7139 164.606 67.0691Z" fill="#C3C1BF"/>
<path d="M39.3902 50.6708C39.355 50.7962 39.0993 51.0968 39.0031 51.1932C37.9459 52.2502 38.404 53.1221 38.1885 53.9741C37.4331 56.9608 36.8235 60.0887 38.1833 63.0149C38.3078 63.2919 39.1229 65.8529 39.181 66.189C38.9529 65.5067 38.5521 64.7642 38.2686 64.0803C35.5666 57.5637 38.115 50.4374 41.8957 44.9603C43.7031 42.3423 43.9006 41.3535 46.6262 39.6426C46.561 39.9058 46.5556 39.8872 46.6574 40.1374C50.0843 38.3794 53.4822 36.1964 56.8566 34.3095C56.9774 34.242 59.0216 33.4562 59.1345 33.4421C64.187 32.8153 69.396 33.0233 74.4909 33.0242L95.2099 33.0299C97.5907 33.0295 100.049 33.0607 102.428 33.0131C104.612 32.9279 106.784 32.8107 108.968 32.9926C109.549 33.0409 110.313 33.0121 110.849 33.2009C113.278 34.0567 115.743 34.7265 118.056 35.8823L118.045 35.9732C117.409 35.8945 114.727 34.8402 114.11 35.0276C115.513 35.8672 122.72 40.0724 122.982 41.1601C119.872 38.6507 114.835 35.8064 110.878 35.0285C109.159 34.6905 103.586 34.8132 101.627 34.813L83.1186 34.8146L69.7225 34.8191C65.484 34.8198 60.9964 34.6376 56.9191 36.0612C48.5248 38.9925 43.6982 44.0293 40.765 52.2248C39.7287 55.7297 39.406 58.1027 39.8074 61.8144C39.9113 62.7759 40.2262 64.2297 40.295 65.0626C39.5372 64.3629 39.2611 59.9677 39.2848 58.8562C39.3374 56.3887 38.6598 52.9343 39.6732 50.6719L39.5659 50.5877L39.6605 50.5787L39.3902 50.6708Z" fill="#B3AEA9"/>
<path d="M39.3882 50.6707C39.987 48.7951 44.1145 40.9325 46.3292 41.2634C45.8102 41.8823 45.1481 42.3781 44.5393 43.0817C42.4737 45.4686 40.6842 48.991 40.763 52.2247C39.7267 55.7296 39.404 58.1026 39.8053 61.8143C39.9093 62.7758 40.2242 64.2296 40.293 65.0625C39.5351 64.3628 39.2591 59.9676 39.2828 58.8561C39.3354 56.3886 38.6578 52.9342 39.6712 50.6718L39.5639 50.5876L39.6585 50.5786L39.3882 50.6707Z" fill="#C3C1BF"/>
<path d="M155.921 90.8617C156.108 90.52 156.15 90.407 156.443 90.1557C157.45 90.4559 157.668 90.4006 158.073 91.3805C157.699 95.6072 156.11 99.0347 154.798 102.997L154.65 102.633L154.406 102.578C153.674 103.467 153.471 105.282 153.081 106.363C152.276 107.273 152.508 107.905 151.656 108.354C152.095 106.223 153.015 103.362 153.662 101.28C154.332 99.5736 154.938 97.8421 155.476 96.0896C155.92 94.625 156.39 92.7725 156.97 91.3918C157.031 91.2822 157.069 91.1126 157.105 90.9858C156.744 90.7271 156.463 90.8423 155.921 90.8617Z" fill="#363738"/>
<path d="M130.068 56.776C127.275 48.5387 124.244 43.4163 116.2 39.2678C111.142 36.6587 108.163 37.1111 102.698 37.115L89.9236 37.1263L73.0151 37.1207C70.2217 37.119 66.3989 37.0077 63.6683 37.1817C61.5507 37.3077 59.4589 37.7113 57.4466 38.3826C51.6948 40.3063 46.9491 44.4469 44.2634 49.8851C41.6855 55.1038 41.302 61.1367 43.1981 66.64C45.1696 72.3124 49.3305 76.959 54.7517 79.5425C60.2708 82.2072 63.4979 81.7829 69.3837 81.7765L82.8459 81.7671L100.791 81.7698C104.434 81.7711 109.984 82.1946 113.273 81.0357C119.474 78.8888 124.565 74.3612 127.42 68.4534C128.031 67.1752 128.466 65.9404 128.863 64.5927C129.172 63.5403 129.32 61.8276 129.882 60.982C131.29 58.8634 133.004 56.694 134.539 54.6697L144.223 41.9482L156.049 26.3944C158.135 23.6473 161.136 19.4152 163.459 17.1316C166.008 14.6548 169.062 12.7569 172.411 11.5679C178.782 9.36479 185.759 9.7351 191.86 12.5999C194.878 14.0129 197.559 16.0544 199.723 18.5877C202.331 21.6084 206.392 27.4065 208.85 30.7624L222.676 49.4678L252.418 89.6896L257.761 96.9442C259.668 99.4828 262.24 102.493 263.667 105.364C264.085 106.208 262.938 108.274 261.966 108.338C261.353 108.402 260.722 108.632 260.076 108.572C250.642 108.561 241.196 108.553 231.761 108.563L223.507 108.573C222.584 108.574 220.164 108.641 219.41 108.483C219.277 108.177 219.399 107.927 219.494 107.585C219.327 106.889 219.039 106.424 218.432 106.025C215.263 105.186 214.907 106.07 213.017 108.519C210.219 108.699 205.938 108.568 203.033 108.544C203.726 107.41 204.582 105.7 205.238 104.497C205.389 104.727 205.663 105.256 205.869 105.258C208.427 105.289 211.684 105.168 214.175 105.17L250.537 105.201C253.206 105.195 255.892 105.175 258.562 105.304C259.425 105.346 260.64 105.93 261.389 105.837C260.572 104.144 255.698 97.786 254.357 95.9832L239.719 76.236L210.24 36.3166L201.75 24.8641C200.669 23.4203 199.563 21.7629 198.422 20.3959C196.68 18.2842 194.575 16.5007 192.207 15.1292C187.024 12.1281 180.55 11.4746 174.798 13.0267C171.317 13.9523 168.123 15.7314 165.503 18.203C162.921 20.6248 158.603 26.6861 156.226 29.83L142.667 47.6482L136.128 56.2615C134.876 57.8861 133.409 59.6919 132.283 61.381C131.466 62.8348 131.251 64.7073 130.75 66.2688C128.165 74.3133 120.891 81.1399 112.764 83.3891C110.013 84.1504 104.073 83.8462 101.04 83.8455L84.4253 83.8469L70.0979 83.8488C67.5343 83.8484 63.6618 83.9541 61.2456 83.6445C58.0235 83.2037 54.9172 82.1428 52.0986 80.5205C46.2577 77.1509 42.0073 71.5847 40.2948 65.0625C40.2261 64.2296 39.9112 62.7758 39.8072 61.8143C39.4059 58.1025 39.7285 55.7296 40.7649 52.2247C43.6981 44.0292 48.5247 38.9924 56.919 36.0611C60.9962 34.6375 65.4839 34.8197 69.7223 34.819L83.1185 34.8145L101.627 34.8129C103.586 34.8131 109.159 34.6904 110.878 35.0283C114.835 35.8063 119.871 38.6506 122.982 41.16C126.029 43.8753 127.672 45.8674 129.664 49.4741L129.883 49.389C130.786 46.9009 132.749 44.6936 133.999 42.451C135.887 39.0599 137.486 36.4413 140.281 33.7366C141.099 32.9446 142.059 30.1503 143.141 29.1681C144.308 28.1089 145.449 28.4496 146.094 27.8858C145.179 26.6931 143.622 25.1719 142.5 24.1278C135.684 17.8344 127.076 13.8211 117.874 12.6454C114.192 12.1625 109.836 12.2794 106.082 12.2793L90.2668 12.2833L70.9013 12.2807C66.9441 12.2782 62.6036 12.1156 58.6541 12.4354C36.5163 14.2276 15.2673 31.5993 12.214 54.1229C10.8302 64.8646 13.585 76.3756 20.2693 84.9743C23.7776 89.4876 28.7848 93.4943 33.3908 96.8077C34.33 97.4833 35.4445 98.3268 36.5965 98.4145C35.9964 99.3305 35.7538 99.6674 35.0035 100.462C23.2752 93.1698 13.955 83.7549 10.7329 69.9095C7.99887 58.432 9.98126 46.3375 16.236 36.3332C24.1271 23.6767 36.7762 14.7251 51.3368 11.4931C58.379 9.86019 64.4048 10.2354 71.553 10.2382L90.4733 10.2468L105.76 10.24C110.988 10.239 115.033 10.0547 120.234 10.9227C126.19 11.9571 131.893 14.1196 137.037 17.2939C141.949 20.3158 146.243 24.2434 149.69 28.8675C145.235 35.1319 140.831 41.4321 136.476 47.7674C134.882 50.0657 131.779 54.8346 130.068 56.776Z" fill="#B4B4B4"/>
<path d="M146.092 27.8858C146.48 28.2962 146.584 28.4411 146.888 28.9187C146.816 29.3494 144.706 31.8914 144.255 32.5293L132.802 48.8652C132.439 49.3741 131.204 51.595 130.933 51.7589L130.805 51.5934C130.411 50.9458 130.019 50.1534 129.662 49.4741L129.881 49.389C130.784 46.9009 132.747 44.6936 133.997 42.4511C135.885 39.0599 137.484 36.4413 140.279 33.7366C141.098 32.9446 142.057 30.1503 143.14 29.1682C144.306 28.109 145.448 28.4496 146.092 27.8858Z" fill="#C3C1BF"/>
<path d="M146.092 27.8858C146.48 28.2962 146.584 28.4411 146.888 28.9187C144.326 29.5537 143.436 30.8907 141.992 32.9813C138.386 38.2 134.735 43.3977 131.163 48.6382C130.338 49.8512 131.2 50.5394 130.805 51.5934C130.411 50.9458 130.019 50.1534 129.662 49.4741L129.881 49.389C130.784 46.9009 132.747 44.6936 133.997 42.4511C135.885 39.0599 137.484 36.4413 140.279 33.7366C141.098 32.9446 142.057 30.1503 143.14 29.1682C144.306 28.109 145.448 28.4496 146.092 27.8858Z" fill="#EEECEE"/>
<path d="M43.5341 94.4934C43.5432 94.4741 43.5521 94.455 43.5611 94.4357C45.7231 92.0172 48.9694 89.7243 52.0679 88.7771C53.4293 88.3611 54.9967 88.2268 56.1167 88.8808C57.301 89.5723 57.4964 90.3372 57.8083 91.5146C58.1061 90.5737 57.611 90.0231 57.3086 89.0144L57.4713 88.9257C58.2826 89.32 58.9676 90.3779 59.352 90.499C60.0711 92.3429 59.8428 94.9278 59.663 96.8678C58.4252 104.021 56.5977 107.829 53.5243 114.244L53.1422 114.785L52.6858 115.755L52.009 116.969C48.547 123.053 41.6567 133.433 35.9002 137.405C34.4287 138.402 32.7969 139.137 31.0759 139.579C31.0549 139.585 31.0341 139.59 31.0131 139.595C30.3302 139.642 28.5547 139.163 27.9656 138.744C26.5444 137.733 26.4706 136.956 26.1592 135.416L25.6395 134.734C25.1412 129.279 27.3182 125.809 28.3018 120.754C28.3846 120.329 27.5069 118.43 27.4505 117.774C27.2814 115.809 28.6186 110.703 29.709 109.307L30.0449 109.453L29.5691 110.508C31.0574 109.511 31.7919 106.233 32.7655 105.524L32.9318 105.625C32.9233 106.525 32.2016 106.029 32.0116 108.201C32.1643 108.292 32.1896 108.347 32.3081 108.482C31.3434 110.542 29.1377 113.797 31.1431 115.699C32.3311 115.261 33.6805 112.917 34.2902 111.839L34.1325 111.764C34.2274 111.399 34.2215 111.347 34.1713 110.972C33.7235 110.665 33.465 110.753 32.8499 110.718C32.6453 109.501 36.5451 103.917 37.4365 102.704C38.4174 100.799 43.1473 96.1012 43.5341 94.4934ZM44.9072 116.706C45.2493 116.981 45.2818 117.02 45.3881 117.445C45.2119 118.983 41.1597 120.921 39.7938 121.505C39.3528 121.758 38.1715 122.327 37.6626 122.37C35.5257 123.281 33.7359 123.118 31.4554 123.109C30.4442 125.762 27.5366 135.661 29.8 137.647C34.2507 141.554 49.7187 119.011 49.5483 117.017C49.3123 116.841 47.4759 116.443 46.8456 116.235C43.7942 115.227 40.8869 114.141 37.8942 112.976C36.883 113.125 33.3831 118.56 33.5663 119.748C35.2509 121.667 41.8684 117.424 43.5177 116.645C44.0764 116.382 44.1391 116.337 44.7079 116.553L44.9072 116.706Z" fill="#02060A"/>
<path d="M41.2305 99.0588C43.9242 96.1839 56.9903 82.8138 57.4005 93.767C57.5252 97.0942 56.7923 100.797 55.8061 103.974C55.5162 104.002 55.2254 104.022 54.9344 104.034C53.7016 104.087 49.6442 103.549 48.8525 102.825C49.038 102.254 49.0081 100.667 48.6799 100.164C47.5689 98.4605 45.4998 99.6228 44.1898 100.386C43.1933 99.8415 41.9929 100.112 41.2305 99.0588Z" fill="#FEFEFE"/>
<path d="M39.8375 100.639C40.3707 99.9216 40.5589 99.68 41.23 99.0588C41.9924 100.112 43.1929 99.8415 44.1894 100.386C45.4994 99.6228 47.5685 98.4604 48.6795 100.164C49.0076 100.667 49.0375 102.254 48.852 102.825C48.3796 103.528 48.285 103.685 47.6063 104.174L45.3446 105.596C42.4112 105.699 38.219 112.602 34.9511 113.929L34.525 114.142C34.443 114.287 34.2555 114.641 34.1605 114.748C32.9989 115.383 32.3255 116.893 30.9959 116.151C30.9939 115.825 30.9499 115.972 31.1427 115.699C32.3308 115.261 33.6802 112.917 34.2899 111.839L34.1322 111.764C34.2271 111.399 34.2212 111.347 34.171 110.972C33.7232 110.665 33.4646 110.753 32.8496 110.718C32.645 109.501 36.5448 103.917 37.4362 102.704L37.9317 102.303C38.8318 102.834 38.0308 102.789 39.2492 102.95C38.8801 102.734 38.8469 102.789 38.65 102.443C38.7459 101.888 39.4406 101.159 39.8375 100.639Z" fill="#030507"/>
<path d="M47.7518 99.8138C48.7726 102.175 43.9938 104.276 42.7396 105.426C41.0529 106.973 35.6474 111.947 34.9511 113.929L34.525 114.142C34.443 114.287 34.2555 114.641 34.1605 114.748C32.9989 115.383 32.3255 116.893 30.9959 116.151C30.9939 115.825 30.9499 115.972 31.1427 115.699C32.3308 115.261 33.6802 112.917 34.2899 111.839C34.8227 111.179 35.3076 110.445 35.8727 109.747C36.5593 108.349 40.3491 104.316 41.539 103.295C43.235 101.841 45.3817 99.7145 47.7518 99.8138Z" fill="#D4D5D6"/>
<path d="M47.7522 99.8138C48.773 102.175 43.9942 104.276 42.74 105.426C41.0532 106.973 35.6477 111.947 34.9515 113.929L34.5254 114.142C34.6652 113.343 34.771 113.156 35.1388 112.422C37.8454 108.776 41.0785 104.62 44.8645 101.992C45.7625 101.369 47.1905 100.715 47.7522 99.8138Z" fill="#BBBDBF"/>
<path d="M34.2899 111.839C34.8227 111.179 35.3076 110.445 35.8727 109.747C35.7851 110.674 33.4582 113.521 33.6376 113.812C34.1683 113.182 34.3648 112.74 35.1385 112.422C34.7706 113.156 34.6648 113.343 34.525 114.142C34.443 114.287 34.2555 114.641 34.1605 114.748C32.9989 115.383 32.3255 116.893 30.9959 116.151C30.9939 115.825 30.9499 115.972 31.1427 115.699C32.3308 115.261 33.6802 112.917 34.2899 111.839Z" fill="#F7FBFE"/>
<path d="M39.8379 100.639C40.3711 99.9216 40.5593 99.68 41.2304 99.0588C41.9928 100.112 43.1933 99.8415 44.1898 100.386C43.4504 100.909 42.8424 101.31 42.1963 101.954C41.4253 101.567 40.5193 101.145 39.8379 100.639Z" fill="#EEECEE"/>
<path d="M39.2476 102.95C38.8785 102.734 38.8453 102.789 38.6484 102.443C38.7444 101.888 39.439 101.159 39.8359 100.639C40.5174 101.145 41.4233 101.567 42.1943 101.954C41.5441 102.63 41.2946 102.889 40.5224 103.439C40.2663 103.331 39.4669 102.969 39.2476 102.95Z" fill="#AAACAF"/>
<path d="M57.8094 91.5146C58.1072 90.5737 57.6121 90.0231 57.3097 89.0144L57.4724 88.9256C58.2837 89.3199 58.9687 90.3779 59.3531 90.4989C60.0722 92.3429 59.8439 94.9278 59.6641 96.8677C58.4263 104.021 56.5988 107.829 53.5254 114.244L53.1433 114.785L53.0131 114.536C52.4544 115.138 51.106 118.223 50.7787 118.327C49.7074 116.836 53.3287 114.08 53.1068 111.996C53.1941 111.561 53.9053 110.171 54.1433 109.653C56.8976 103.65 58.437 98.189 57.8094 91.5146Z" fill="#AAACAF"/>
<path d="M29.709 109.307L30.0449 109.453L29.5691 110.508C28.6375 112.544 27.8885 114.895 27.9853 117.162C27.9334 119.059 28.7999 118.982 28.7723 120.631L28.4919 122.32C28.7849 122.023 28.9158 121.903 29.1434 121.538L29.5442 121.356C29.7722 121.974 29.3899 122.116 29.7945 123.3C28.5541 126.797 26.6852 132.865 28.1882 136.5C28.7123 137.768 29.8365 138.141 31.0305 138.691C30.9074 139.067 30.8001 139.215 31.0131 139.595C30.3302 139.642 28.5547 139.163 27.9656 138.744C26.5444 137.733 26.4706 136.956 26.1592 135.416L25.6395 134.734C25.1412 129.279 27.3182 125.809 28.3018 120.754C28.3846 120.329 27.5069 118.43 27.4505 117.774C27.2814 115.809 28.6186 110.703 29.709 109.307Z" fill="#909090"/>
<path d="M29.709 109.307L30.0449 109.453L29.5691 110.508C28.6375 112.544 27.8885 114.895 27.9853 117.162C27.9334 119.059 28.7999 118.982 28.7723 120.631L28.4919 122.32C26.6014 127.843 25.9387 129.358 26.1592 135.416L25.6395 134.734C25.1412 129.279 27.3182 125.809 28.3018 120.754C28.3846 120.329 27.5069 118.43 27.4505 117.774C27.2814 115.809 28.6186 110.703 29.709 109.307Z" fill="#3E3F40"/>
<path d="M29.5688 110.508C31.0571 109.511 31.7916 106.233 32.7653 105.524L32.9315 105.625C32.923 106.525 32.2013 106.029 32.0113 108.201C32.164 108.292 32.1894 108.347 32.3078 108.482C31.3431 110.542 29.1374 113.797 31.1428 115.699C30.95 115.972 30.994 115.825 30.996 116.151C32.3255 116.893 32.9989 115.383 34.1605 114.748C33.4956 115.91 31.9205 117.972 32.2128 119.326C32.3772 120.087 33.2385 120.316 33.8863 120.601L33.4779 120.82L33.4308 121.083C33.9155 121.55 35.803 121.417 36.5315 121.41C35.4402 121.648 33.9678 121.596 32.8278 121.579C32.1632 121.551 31.4105 121.501 30.7528 121.522C30.3157 122.192 30.066 122.532 29.7943 123.299C29.3896 122.116 29.772 121.974 29.5439 121.356L29.1431 121.538C28.9155 121.903 28.7847 122.023 28.4916 122.319L28.772 120.631C28.7996 118.982 27.9331 119.059 27.985 117.162C27.8882 114.895 28.6373 112.544 29.5688 110.508Z" fill="#AAACAF"/>
<path d="M27.9866 117.162C28.0863 117.381 28.4788 118.321 28.5983 118.441C29.1507 118.997 30.1735 118.902 29.9303 119.799C29.4758 120.293 29.3915 120.391 28.7736 120.631C28.8012 118.982 27.9347 119.059 27.9866 117.162Z" fill="#BBBDBF"/>
<path d="M53.1067 111.996C53.3285 114.08 49.7073 116.836 50.7786 118.327C51.1059 118.223 52.4543 115.138 53.0129 114.536L53.1432 114.785L52.6868 115.755L52.0099 116.969C48.548 123.053 41.6576 133.433 35.9011 137.406C34.4296 138.402 32.7978 139.137 31.0769 139.579C31.0559 139.585 31.035 139.59 31.014 139.595C30.8011 139.215 30.9083 139.067 31.0314 138.691C32.3158 138.224 33.7522 137.72 34.8396 136.852C42.2166 130.967 48.7617 120.231 53.1067 111.996Z" fill="#F7FBFE"/>
<path d="M48.8511 102.825C49.6429 103.549 53.7003 104.087 54.933 104.034C55.2241 104.022 55.5149 104.002 55.8047 103.974L54.8962 106.383C54.6339 107.115 54.2549 107.91 53.9344 108.626C51.1023 107.805 47.9965 106.847 45.3438 105.596L47.6054 104.174C48.2841 103.685 48.3787 103.528 48.8511 102.825Z" fill="#AAACAF"/>
<path d="M48.8492 102.825C49.641 103.549 53.6984 104.087 54.9312 104.034C55.2222 104.022 55.513 104.002 55.8029 103.974L54.8944 106.383C53.1297 106.215 48.9072 105.188 47.6035 104.174C48.2822 103.685 48.3769 103.528 48.8492 102.825Z" fill="#C3C1BF"/>
<path d="M33.8852 120.602C38.4324 121.157 41.2856 117.482 44.7066 116.553L44.9059 116.706C45.248 116.981 45.2805 117.02 45.3868 117.445C45.2106 118.983 41.1584 120.921 39.7924 121.505C39.589 121.308 39.6665 121.426 39.5953 121.116C39.9027 120.663 40.1908 120.277 40.5247 119.843C39.2305 120.476 37.9563 121.14 36.5304 121.41C35.8019 121.417 33.9144 121.55 33.4297 121.083L33.4769 120.82L33.8852 120.602Z" fill="#F7FBFE"/>
<path d="M44.9082 116.706C45.2503 116.981 45.2828 117.02 45.3891 117.445C45.213 118.983 41.1607 120.921 39.7948 121.505C39.5913 121.308 39.6688 121.426 39.5977 121.116C39.9051 120.663 40.1931 120.277 40.527 119.843C41.9965 118.723 43.6765 118.459 44.9082 116.706Z" fill="#02060A"/>
<path d="M36.5337 121.41C37.9596 121.14 39.2338 120.476 40.528 119.843C40.1941 120.277 39.9061 120.663 39.5986 121.116C39.6698 121.426 39.5923 121.308 39.7958 121.505C39.3548 121.758 38.1735 122.327 37.6646 122.37C37.1762 122.056 35.041 122.263 34.3054 122.05C33.8201 121.91 33.3161 121.723 32.8301 121.579C33.9701 121.596 35.4424 121.648 36.5337 121.41Z" fill="#363738"/>
<path d="M155.921 90.8617C156.463 90.8423 156.743 90.7271 157.104 90.9858C157.068 91.1127 157.031 91.2822 156.969 91.3918C156.389 92.7725 155.919 94.6251 155.475 96.0896C154.937 97.8421 154.332 99.5736 153.662 101.28C153.014 103.362 152.094 106.223 151.656 108.354L151.446 109.013C150.938 109.952 150.15 112.882 150.179 113.894C149.627 115.415 149.028 117.426 148.469 118.834C148.767 118.668 148.882 118.608 149.063 118.317L149.23 118.283C148.811 119.474 148.384 121.043 148.768 122.294C148.4 123.714 147.762 125.438 147.299 126.867L146.577 129.188C146.2 130.434 145.832 131.729 145.462 132.975C144.982 134.591 143.199 142.289 140.583 138.868C140.326 138.531 140.441 136.314 140.441 135.805C140.383 129.251 140.511 125.562 136.668 120.209C134.501 122.872 132.999 125.682 131.178 128.572C130.336 129.907 129.454 131.475 128.414 132.643L126.993 133.173C125.926 132.012 126.087 131.714 126.535 130.254C126.757 129.726 127.348 128.898 127.638 128.35C128.749 126.244 131.019 123.05 131.737 120.946C129.997 121.524 128.676 121.376 126.891 121.199C126.545 121 125.937 120.791 125.545 120.642L124.748 119.42C124.888 119.169 124.99 118.48 125.046 118.158L125.161 117.963C126.942 114.207 132.15 114.579 135.555 114.979C137.467 113.5 138.796 110.916 140.133 108.924C142.293 105.702 150.238 93.8895 152.61 92.1312C153.548 91.4369 154.813 91.1797 155.921 90.8617ZM144.272 124.215C145.103 122.091 145.438 120 146.175 117.895C145.119 117.935 144.221 117.888 143.164 117.834C142.686 117.914 142.263 117.92 141.962 118.285C141.404 119.523 143.853 122.054 143.879 124.295L144.063 124.39L144.272 124.215Z" fill="#BBBDBF"/>
<path d="M152.963 97.4061C153.333 97.539 153.59 97.5449 153.72 97.8841C154.098 98.8685 153.556 100.178 153.662 101.28C153.015 103.362 152.095 106.223 151.656 108.354L151.446 109.013C150.938 109.952 150.15 112.882 150.179 113.894C149.627 115.415 149.029 117.426 148.469 118.834C148.767 118.668 148.882 118.608 149.063 118.317L149.23 118.283C148.812 119.474 148.385 121.043 148.769 122.294C148.4 123.714 147.762 125.438 147.299 126.867C146.862 126.759 146.653 126.411 145.942 126.263L146.154 125.23C145.605 125.877 145.095 126.644 144.26 126.725C144.061 126.446 144.111 126.573 144.141 126.172C142.631 124.306 141.878 119.346 140.519 118.395C139.985 118.395 140.164 118.374 139.675 118.675L138.872 118.455L138.838 118.327C138.995 117.793 139.183 117.379 139.505 116.929C141.363 114.327 142.906 111.622 144.506 108.856C144.745 108.687 145.136 108.648 145.437 108.592C146.051 107.541 147.003 105.918 147.69 104.959C148.218 105.911 149.703 105.581 150.439 105.09C151.002 102.899 151.535 100.799 152.008 98.5886C152.2 98.2321 152.276 98.0465 152.565 97.754L152.772 97.9218L152.963 97.4061ZM144.272 124.215C145.103 122.091 145.438 120 146.176 117.895C145.119 117.935 144.222 117.888 143.165 117.834C142.686 117.914 142.263 117.92 141.963 118.285C141.405 119.523 143.854 122.054 143.879 124.295L144.063 124.39L144.272 124.215Z" fill="#02060A"/>
<path d="M152.963 97.4061C153.333 97.539 153.59 97.5449 153.719 97.8841C154.098 98.8685 153.555 100.178 153.662 101.28C153.015 103.362 152.095 106.223 151.656 108.354L151.446 109.013C150.938 109.952 150.15 112.882 150.179 113.894C149.627 115.415 149.029 117.426 148.469 118.834C148.767 118.668 148.882 118.608 149.063 118.317L149.23 118.283C148.812 119.474 148.385 121.043 148.768 122.294C148.4 123.714 147.762 125.438 147.299 126.867C146.862 126.759 146.653 126.411 145.941 126.263L146.154 125.23L146.333 124.487C146.321 123.75 147.88 116.741 148.18 115.893C148.574 115.568 149.095 115.302 149.24 114.854C149.088 114.318 149.129 114.474 148.628 114.07C149.887 108.758 151.525 103.402 152.772 97.9218L152.963 97.4061Z" fill="#AAACAF"/>
<path d="M148.469 118.834C148.767 118.668 148.882 118.608 149.063 118.317L149.23 118.283C148.812 119.474 148.385 121.043 148.768 122.294C148.4 123.714 147.762 125.438 147.299 126.867C146.862 126.759 146.653 126.411 145.941 126.263L146.154 125.23L146.333 124.487C146.994 123.139 147.737 120.482 148.469 118.834Z" fill="#343435"/>
<path d="M147.298 115.925L148.179 115.893C147.879 116.741 146.32 123.75 146.331 124.487L146.153 125.23C145.604 125.877 145.093 126.644 144.259 126.725C144.059 126.446 144.11 126.573 144.14 126.172C145.29 123.505 146.116 119.038 147.298 115.925Z" fill="#F7FBFE"/>
<path d="M145.439 108.592C146.053 107.541 147.005 105.918 147.693 104.959C148.221 105.912 149.706 105.581 150.442 105.09C150.147 106.24 149.824 107.428 149.595 108.589C148.43 108.577 146.548 108.502 145.439 108.592Z" fill="#C4C4C4"/>
<path d="M148.628 114.07C149.13 114.474 149.088 114.318 149.24 114.854C149.095 115.302 148.575 115.568 148.181 115.893L147.299 115.925C147.358 115.642 147.351 115.656 147.253 115.379C145.897 115.296 141.416 118.048 140.61 118.07L140.42 117.858C140.841 116.538 146.432 115.031 147.805 114.686C148.304 114.561 148.283 114.449 148.628 114.07Z" fill="#BBBDBF"/>
<path d="M133.224 122.312C137.259 115.767 137.416 119.854 139.731 124.743C140.036 125.386 140.276 126.911 140.394 127.633C140.587 128.805 140.714 129.986 140.776 131.172C140.834 132.399 140.645 138.173 141.093 138.713C142.913 138.557 144.471 130.433 145.136 128.887C145.399 128.558 145.578 128.345 145.873 128.038L146.097 128.066C146.302 128.479 146.416 128.757 146.58 129.188C146.203 130.434 145.835 131.729 145.466 132.975C144.985 134.591 143.202 142.289 140.587 138.868C140.329 138.531 140.444 136.314 140.444 135.805C140.387 129.251 140.515 125.562 136.671 120.209C134.504 122.872 133.003 125.682 131.181 128.572C130.339 129.907 129.457 131.475 128.417 132.643L126.996 133.173C125.929 132.012 126.09 131.714 126.538 130.254C126.761 129.726 127.352 128.898 127.641 128.35C128.753 126.244 131.023 123.05 131.74 120.945C130.001 121.524 128.679 121.376 126.895 121.199C128.115 120.915 129.295 120.934 130.51 120.695C130.849 120.628 130.886 120.319 131.056 119.941C131.707 119.688 132.048 119.89 132.557 120.265L132.601 120.772C133.066 121.266 133.096 121.564 133.224 122.312Z" fill="#02060A"/>
<path d="M126.891 121.199C128.112 120.915 129.291 120.934 130.507 120.695C130.845 120.628 130.883 120.319 131.052 119.941C131.704 119.688 132.045 119.89 132.554 120.265L132.598 120.772C133.062 121.266 133.093 121.564 133.221 122.312C132.145 124.097 128.256 131.105 127.013 131.936L126.596 131.904C126.421 131.378 126.499 130.81 126.535 130.254C126.757 129.726 127.348 128.898 127.638 128.35C128.749 126.244 131.019 123.05 131.737 120.945C129.997 121.524 128.676 121.376 126.891 121.199Z" fill="#F7FBFE"/>
<path d="M126.891 121.199C128.112 120.915 129.291 120.934 130.507 120.695C130.845 120.628 130.883 120.319 131.052 119.941C131.704 119.688 132.045 119.89 132.554 120.265L132.598 120.772C131.209 122.891 129.912 125.112 128.656 127.313C127.815 128.786 126.72 130.202 126.596 131.904C126.421 131.378 126.499 130.81 126.535 130.254C126.757 129.726 127.348 128.898 127.638 128.35C128.749 126.244 131.019 123.05 131.737 120.945C129.997 121.524 128.676 121.376 126.891 121.199Z" fill="#363738"/>
<path d="M155.919 90.8617C156.461 90.8423 156.742 90.7271 157.103 90.9858C157.067 91.1127 157.029 91.2822 156.968 91.3918C155.996 91.9096 153.783 92.5473 153.279 93.0644C148.929 97.5339 145.091 103.848 141.486 108.939C139.926 111.143 138.168 114.471 136.196 115.937C133.846 116 130.592 115.13 128.89 116.161L127.97 116.752C127.017 117.328 126.394 118.626 125.466 118.651C125.164 118.304 125.256 118.467 125.16 117.963C126.941 114.207 132.149 114.579 135.553 114.979C137.466 113.5 138.794 110.916 140.132 108.924C142.292 105.702 150.236 93.8895 152.609 92.1312C153.547 91.4369 154.812 91.1797 155.919 90.8617Z" fill="#F7FBFE"/>
<path d="M150.877 97.0873C151.358 96.4944 152.133 95.7931 152.957 96.1617C153.239 96.6248 153.164 96.8901 152.965 97.4061L152.773 97.9218L152.566 97.7539C152.277 98.0464 152.201 98.2321 152.01 98.5885C151.537 100.799 151.003 102.899 150.441 105.09C149.705 105.581 148.219 105.911 147.691 104.959C147.004 105.918 146.052 107.541 145.438 108.592C145.138 108.648 144.747 108.687 144.508 108.856C144.925 106.33 149.59 101.153 150.721 98.6307C150.976 98.0634 150.92 97.6979 150.877 97.0873Z" fill="#363738"/>
<path d="M147.689 104.959C148.257 104.007 151.404 98.7834 152.008 98.5886C151.535 100.799 151.001 102.899 150.439 105.09C149.703 105.581 148.217 105.911 147.689 104.959Z" fill="#EEECEE"/>
<path d="M150.876 97.0873C150.92 97.6979 150.976 98.0634 150.721 98.6307C149.589 101.153 144.925 106.33 144.508 108.856C142.907 111.622 141.364 114.327 139.506 116.929C139.184 117.38 138.996 117.793 138.839 118.327L138.874 118.455L139.676 118.675C139.029 119.289 138.483 118.746 138.163 118.122C137.943 116.595 149.298 99.4872 150.876 97.0873Z" fill="#3E3F40"/>
<path d="M125.161 117.963C125.257 118.467 125.165 118.304 125.467 118.651C126.396 118.626 127.018 117.328 127.971 116.752C127.925 117.732 128.109 118.36 129.251 118.495L129.347 118.525C129.847 118.916 130.063 118.876 130.752 118.929C130.268 118.96 129.819 118.926 129.459 119.231L129.531 119.447C129.797 119.576 129.918 119.653 130.206 119.71L130.886 119.678L131.086 119.633C131.554 119.632 132.111 119.564 132.464 119.815L132.554 120.265C132.045 119.89 131.704 119.688 131.053 119.941C130.883 120.319 130.845 120.628 130.507 120.695C129.291 120.934 128.112 120.915 126.891 121.199C126.545 121 125.937 120.791 125.545 120.642L124.748 119.42C124.888 119.169 124.99 118.48 125.046 118.158L125.161 117.963Z" fill="#3E3F40"/>
<path d="M125.162 117.963C125.258 118.467 125.166 118.304 125.468 118.651C126.397 118.626 127.019 117.328 127.972 116.752C127.926 117.732 128.109 118.36 129.252 118.495L129.348 118.525C129.848 118.916 130.064 118.876 130.753 118.929C130.269 118.96 129.82 118.926 129.46 119.231L129.532 119.447C129.798 119.576 129.919 119.653 130.207 119.71C129.322 119.87 127.398 119.653 126.442 119.558C125.938 119.476 125.848 119.465 125.38 119.233C125.056 118.901 125.083 118.615 125.047 118.158L125.162 117.963Z" fill="#AAACAF"/>
<path d="M126.441 119.558C127.397 119.653 129.322 119.87 130.206 119.71L130.887 119.678C130.249 120.954 128.125 120.948 127.144 120.106C126.928 119.92 126.668 119.74 126.441 119.558Z" fill="#343435"/>
<path d="M128.893 116.161C130.177 116.235 132.569 115.877 133.324 116.693C133.483 116.865 133.532 117.476 133.559 117.741C132.986 118.148 132.861 118.241 132.197 118.449C131.55 118.594 131.363 118.663 130.754 118.929C130.065 118.876 129.849 118.916 129.349 118.525L129.253 118.495C128.111 118.36 127.927 117.732 127.973 116.752L128.893 116.161Z" fill="#02060A"/>
<path d="M131.474 118.227C131.781 118.412 131.836 118.414 132.195 118.449C131.549 118.594 131.361 118.663 130.753 118.929C130.063 118.876 129.847 118.916 129.348 118.525C130.146 118.493 130.717 118.513 131.474 118.227Z" fill="#3E3F40"/>
<path d="M129.252 118.495C129.864 117.799 130.68 118.036 131.475 118.227C130.718 118.513 130.147 118.493 129.348 118.525L129.252 118.495Z" fill="#B3AEA9"/>
<path d="M133.558 117.741C133.744 117.74 133.946 117.728 134.127 117.758L134.312 118.027C133.71 119.408 132.403 119.541 131.086 119.633L130.887 119.678L130.206 119.71C129.918 119.653 129.797 119.577 129.532 119.447L129.459 119.231C129.819 118.926 130.269 118.96 130.752 118.929C131.361 118.663 131.548 118.594 132.195 118.449C132.859 118.241 132.984 118.148 133.558 117.741Z" fill="#F7FBFE"/>
<path d="M145.941 126.263C146.653 126.411 146.861 126.759 147.298 126.867L146.577 129.188C146.413 128.757 146.299 128.479 146.093 128.066L145.869 128.038C145.574 128.345 145.396 128.558 145.133 128.888C145.241 128.278 145.727 126.913 145.941 126.263Z" fill="#363738"/>
<path d="M19.3199 19.8842C22.4304 16.6082 27.1293 13.2603 30.9937 10.9322C38.7398 6.23291 47.3939 3.22849 56.3855 2.11693C57.5258 1.97348 58.7195 1.96826 59.8751 1.88234C61.0597 1.79427 62.6289 1.4573 63.7754 1.45155C68.7887 1.42643 73.8391 1.44784 78.8498 1.44823L105.041 1.4456C108.238 1.44397 111.428 1.42711 114.624 1.38421C115.561 1.37163 115.993 1.85771 117.116 1.73739C117.742 1.78411 118.67 1.77316 119.16 2.10429C119.612 2.80283 119.388 3.55645 119.206 4.41666C114.64 3.85352 110.334 3.95779 105.745 3.95349L89.198 3.94423L70.1301 3.93344C66.1074 3.92774 61.2068 3.79583 57.2664 4.11338C45.9143 5.05412 35.0805 9.27502 26.084 16.2622C20.7276 20.4441 16.6456 24.908 12.7359 30.533C11.7244 31.9881 10.7769 34.1447 9.8096 35.6595C8.77152 36.2915 8.40282 37.8012 7.93821 38.882C7.17105 39.4251 6.4187 37.921 6.00586 37.3053C6.50699 36.5456 7.53414 35.1226 7.55629 34.2635C9.15675 31.1349 11.4515 28.6393 13.0058 25.9425C13.4449 25.5314 13.9685 25.2209 14.4488 24.7444C16.077 23.1288 17.7192 21.5275 19.3199 19.8842Z" fill="#8D8D8D"/>
<path d="M232.457 112.477C232.872 113.282 234.122 113.229 234.165 114.093C233.708 114.529 233.617 114.472 233.501 114.987C233.814 115.697 235.645 116.3 236.384 116.436L235.944 116.58L235.866 116.852C236.433 117.59 238.837 117.601 239.763 117.651C238.079 118.034 236.528 117.858 235.133 118.906L234.852 119.34L234.75 119.568L234.92 119.982C235.446 120.01 235.705 119.9 236.2 120.109C235.215 121.763 233.353 123.73 231.508 124.274C230.461 124.815 229.471 125.102 228.327 125.358C226.595 125.531 224.528 125.265 223.479 123.706L223.354 123.627C223.167 123.12 222.811 122.388 222.95 121.905L223.064 121.581C222.401 121.36 219.946 122.614 218.92 122.894C215.568 124.216 213.263 124.503 209.629 124.126C210.113 123.855 210.305 123.95 210.873 123.586C209.964 123.496 209.886 123.205 209.361 122.499C210.44 122.755 211.779 122.938 212.874 122.714C213.733 122.597 214.209 122.525 215.059 122.293C215.747 121.943 216.363 121.588 217.029 121.202C217.364 120.987 220.13 119.795 220.858 119.414C223.755 117.895 230.1 114.531 232.457 112.477ZM229.785 120.865C230.395 120.372 230.754 119.87 231.052 119.156C229.982 118.97 229.522 119.921 229.063 120.788L229.785 120.865Z" fill="#BBBDBF"/>
<path d="M215.059 122.293C215.533 122.24 216.032 122.131 216.489 122.063C218.255 121.802 222.399 119.227 223.978 119.797C224.316 120.188 224.233 120.015 224.207 120.621L223.731 121.28L223.113 122.172L222.95 121.905L223.064 121.581C222.401 121.36 219.946 122.614 218.92 122.894C215.568 124.216 213.263 124.503 209.629 124.126C210.113 123.855 210.305 123.95 210.873 123.586C209.964 123.495 209.886 123.205 209.361 122.499C210.44 122.755 211.779 122.938 212.874 122.714C213.733 122.597 214.209 122.525 215.059 122.293Z" fill="#343435"/>
<path d="M210.873 123.586C211.592 123.423 213.766 123.712 214.712 123.621C216.271 123.471 217.417 122.398 218.92 122.894C215.568 124.216 213.263 124.503 209.629 124.126C210.114 123.855 210.305 123.95 210.873 123.586Z" fill="#363738"/>
<path d="M227.047 122.697C226.146 121.899 226.875 120.671 227.45 119.901C228.288 118.781 230.15 116.318 231.652 117.516C231.921 117.987 231.747 118.588 231.657 119.141L231.626 119.441L231.049 119.156C229.979 118.97 229.519 119.921 229.06 120.788C228.602 121.162 228.448 121.337 228.061 121.791C227.989 122.478 227.684 122.45 227.047 122.697Z" fill="#3E3F40"/>
<path d="M222.95 121.905L223.112 122.172C223.482 122.777 223.641 122.965 224.321 123.226C225.14 123.54 227.269 124.241 228.043 123.717L228.438 123.721C229.711 123.708 230.286 123.782 231.487 123.402C231.818 123.476 231.72 123.459 232 123.735C231.579 124.04 231.595 123.89 231.507 124.274C230.46 124.815 229.471 125.102 228.326 125.358C226.595 125.531 224.527 125.265 223.479 123.706L223.354 123.627C223.167 123.12 222.81 122.388 222.95 121.905Z" fill="#3E3F40"/>
<path d="M223.479 123.706C224.666 124.246 226.71 124.762 228.035 125.028C228.149 125.157 228.245 125.267 228.326 125.358C226.595 125.531 224.527 125.265 223.479 123.706Z" fill="#363738"/>
<path d="M231.661 119.141C232.23 119.207 232.133 119.11 232.501 119.44C232.672 120.522 230.618 122.478 229.892 123.211L228.44 123.721L228.044 123.717C227.827 123.602 227.793 123.525 227.649 123.331L227.731 122.838L227.051 122.697C227.688 122.45 227.993 122.478 228.065 121.791C228.451 121.337 228.605 121.162 229.064 120.788L229.786 120.865C230.396 120.372 230.755 119.87 231.053 119.156L231.629 119.441L231.661 119.141Z" fill="#D4D5D6"/>
<path d="M231.053 119.156L231.629 119.441C230.922 120.994 229.301 122.23 227.731 122.838L227.051 122.697C227.688 122.45 227.993 122.478 228.065 121.791C228.451 121.337 228.605 121.162 229.064 120.788L229.786 120.865C230.396 120.372 230.755 119.87 231.053 119.156Z" fill="#363738"/>
<path d="M228.061 121.791C228.447 121.337 228.601 121.162 229.06 120.788L229.782 120.865C229.378 121.241 228.916 121.753 228.401 121.89L228.061 121.791Z" fill="#B3AEA9"/>
<path d="M229.89 123.21C232.606 122.083 232.773 121.575 234.749 119.568L234.918 119.982C235.445 120.01 235.704 119.9 236.198 120.109C235.213 121.763 233.351 123.73 231.506 124.274C231.594 123.89 231.578 124.04 231.999 123.734C231.719 123.459 231.817 123.476 231.486 123.402C230.285 123.782 229.71 123.708 228.438 123.721L229.89 123.21Z" fill="#020F1A"/>
<path d="M224.207 120.621C224.598 120.898 224.791 120.985 224.942 121.451C224.877 122.026 224.965 121.808 224.597 122.271C224.135 122.417 224.329 122.418 223.86 122.253C223.64 121.858 223.722 121.785 223.731 121.28L224.207 120.621Z" fill="#AAACAF"/>
<path d="M202.396 102.437C203.272 100.829 204.28 98.9446 205.307 97.4595L205.601 97.9553L205.879 98.023C206.412 97.6626 206.296 97.6208 206.839 97.627L206.815 97.7397C204.445 103.028 201.01 108.199 198.992 113.625C198.6 114.68 198.591 116.058 198.772 117.172C199.212 117.699 199.642 118.265 200.192 118.673L200.423 118.887C200.465 120.165 202.449 119.861 203.489 119.963L205.761 118.775L205.869 118.599C206.759 118.52 206.827 118.635 207.662 118.899C207.32 120.138 206.839 120.8 207.837 121.876L207.172 122.188C206.864 121.523 206.901 121.008 206.601 120.434C206.169 120.408 205.663 120.815 205.2 120.987C203.305 121.904 199.422 123.494 197.547 121.933C196.827 121.202 196.552 120.609 195.898 119.944C194.884 121.118 192.345 123.596 190.858 124.014C190.271 123.561 189.408 123.926 188.366 123.869L187.877 123.841L187.608 123.773L187.506 123.48C192.165 120.37 199.503 107.667 202.396 102.437Z" fill="#BBBDBF"/>
<path d="M202.396 102.437C202.789 103.126 202.494 103.694 202.537 104.44C200.511 108.048 198.376 111.592 196.131 115.068C194.916 116.959 192.218 119.89 191.739 121.556C190.701 122.384 189.584 123.355 188.366 123.87L187.877 123.841L187.608 123.773L187.506 123.48C192.165 120.37 199.503 107.667 202.396 102.437Z" fill="#F7FBFE"/>
<path d="M205.871 118.599C206.761 118.52 206.829 118.635 207.664 118.899C207.322 120.138 206.842 120.8 207.84 121.876L207.174 122.189C206.866 121.523 206.904 121.008 206.603 120.435C206.172 120.408 205.666 120.815 205.203 120.987C203.307 121.904 199.425 123.494 197.55 121.933C196.829 121.202 196.555 120.609 195.9 119.944C196.125 119.644 196.358 119.641 196.824 118.951C196.852 119.734 196.926 119.97 197.143 120.733C199.195 121.029 201.626 121.029 203.491 119.963L205.763 118.776L205.871 118.599Z" fill="#343435"/>
<path d="M205.763 118.775C205.115 121.084 200.472 121.106 200.111 121.362L200.374 121.798C199.84 122.165 198.4 121.723 197.55 121.933C196.829 121.202 196.555 120.609 195.9 119.944C196.125 119.644 196.358 119.641 196.824 118.951C196.852 119.734 196.926 119.97 197.143 120.733C199.195 121.029 201.626 121.029 203.491 119.963L205.763 118.775Z" fill="#3E3F40"/>
<path d="M207.666 118.899C207.323 120.138 206.843 120.8 207.841 121.876L207.175 122.189C206.868 121.523 206.905 121.008 206.604 120.434C206.173 120.408 205.667 120.815 205.204 120.987L204.775 120.905C205.978 120.225 205.356 119.234 207.666 118.899Z" fill="#363738"/>
<path d="M191.743 121.556C193.369 120.463 195.23 117.07 196.824 118.951C196.359 119.641 196.126 119.644 195.901 119.944C194.887 121.118 192.348 123.596 190.861 124.014C190.274 123.561 189.412 123.926 188.369 123.87C189.587 123.355 190.704 122.384 191.743 121.556Z" fill="#3E3F40"/>
<path d="M202.396 102.437C203.272 100.829 204.28 98.9446 205.307 97.4595L205.602 97.9553L205.879 98.023C206.413 97.6626 206.296 97.6208 206.84 97.627L206.815 97.7397C205.717 98.505 203.594 103.065 202.537 104.44C202.494 103.694 202.789 103.126 202.396 102.437Z" fill="#F7FBFE"/>
<path d="M170.725 104.488L170.935 105.312C170.874 105.281 199.329 105.238 200.087 104.985C200.177 104.954 200.268 104.921 200.357 104.887C199.64 106.113 198.913 107.335 198.177 108.551L177.953 108.564C174.518 108.566 169.111 108.729 165.846 108.447C167.149 107.942 168.94 107.363 169.953 106.462C170.7 105.797 170.69 105.421 170.725 104.488Z" fill="#C4C4C4"/>
<path d="M99.5668 110.981C100.162 111.295 100.307 111.401 100.826 111.832C102.529 114.001 99.2969 116.568 99.0582 118.109C98.7301 118.526 98.3976 118.844 98.3901 119.365C98.8742 120.237 101.229 118.566 102.304 118.479L102.433 118.609C100.838 119.353 99.2867 120.05 97.6378 120.668L97.177 120.97L97.1333 121.224C97.5663 121.548 97.9717 121.527 98.5093 121.517C97.5071 121.849 96.7554 121.943 95.7117 122.103C97.2515 122.277 97.8479 122.444 99.3514 122.127C99.6937 122.185 100.441 122.265 100.69 122.369C98.89 123.177 95.9795 123.762 93.9811 123.621C92.4613 123.605 90.7221 123.081 90.1577 121.55C89.8117 120.806 89.7802 120.433 89.656 119.639L90.1537 119.288L90.2917 119.33C90.5979 118.808 90.7198 118.614 90.2965 118.202C89.7818 118.031 89.3024 118.154 88.7617 118.235C89.7473 117.262 91.0859 116.837 92.1198 115.951C93.2012 115.024 93.9834 113.436 95.3738 112.93L95.4624 112.807C96.6346 111.294 98.9524 112.5 99.5668 110.981Z" fill="#AAACAF"/>
<path d="M88.7617 118.235C89.7473 117.262 91.0859 116.837 92.1198 115.951C93.2012 115.024 93.9834 113.436 95.3738 112.93C94.4752 114.043 92.5357 116.835 93.5827 118.194C94.2147 118.497 94.2899 118.368 95.0629 118.297C94.6635 118.766 94.4064 118.917 94.2955 119.458L94.4657 119.645C95.2552 119.677 95.9052 119.18 96.5103 118.71C96.3087 119.209 96.1749 119.436 96.2474 119.969C96.6621 120.631 96.886 120.624 97.6378 120.668L97.177 120.97L97.1333 121.224C97.5663 121.548 97.9717 121.527 98.5093 121.517C97.5071 121.849 96.7554 121.943 95.7117 122.103C97.2515 122.277 97.8479 122.444 99.3514 122.127C99.6937 122.185 100.441 122.265 100.69 122.369C98.89 123.177 95.9795 123.762 93.9811 123.621C92.4613 123.605 90.7221 123.081 90.1577 121.55C89.8117 120.806 89.7802 120.433 89.656 119.639L90.1537 119.288L90.2917 119.33C90.5979 118.808 90.7198 118.614 90.2965 118.202C89.7818 118.031 89.3024 118.154 88.7617 118.235Z" fill="#BBBDBF"/>
<path d="M90.1602 121.55L91.0038 121.62C91.2953 121.674 92.4736 121.865 92.6878 121.936C93.8949 122.112 94.4862 122.116 95.7142 122.103C97.254 122.277 97.8503 122.444 99.3539 122.127C99.6961 122.185 100.443 122.265 100.692 122.369C98.8924 123.177 95.9819 123.762 93.9836 123.621C92.4638 123.605 90.7246 123.081 90.1602 121.55Z" fill="#3E3F40"/>
<path d="M90.1602 121.55L91.0038 121.62C91.2953 121.674 92.4736 121.865 92.6878 121.936C93.003 122.981 93.5874 122.9 94.6103 123.139L94.6432 123.339C94.4758 123.408 94.129 123.539 93.9836 123.621C92.4638 123.605 90.7246 123.081 90.1602 121.55Z" fill="#363738"/>
<path d="M90.1559 119.288L90.2939 119.33C90.324 120.439 90.369 120.718 91.0036 121.62L90.1599 121.55C89.8139 120.806 89.7824 120.433 89.6582 119.639L90.1559 119.288Z" fill="#343435"/>
<path d="M95.4631 112.807C96.1181 112.642 96.8046 112.386 97.3974 112.74C97.6242 112.876 97.7786 113.106 97.819 113.367C98.0191 114.6 95.8402 117.35 95.0636 118.298C94.2905 118.368 94.2153 118.497 93.5833 118.194C92.5364 116.836 94.4759 114.044 95.3745 112.93L95.4631 112.807Z" fill="#02060A"/>
<path d="M100.829 111.832C102.532 114.001 99.2999 116.568 99.0612 118.109C98.7331 118.526 98.4006 118.844 98.3931 119.365C98.8772 120.237 101.232 118.566 102.307 118.479L102.436 118.609C100.841 119.353 99.2897 120.05 97.6408 120.668C96.889 120.624 96.6651 120.631 96.2504 119.969C96.1779 119.436 96.3117 119.209 96.5133 118.71C98.1996 116.873 100.454 114.422 100.829 111.832Z" fill="#343435"/>
<path d="M180.046 118.639C181.603 118.262 185.54 116.801 186.639 115.826C188.985 113.744 189.364 112.885 192.327 111.511C192.845 111.719 192.911 111.75 193.292 112.164C192.201 112.604 191.621 112.925 190.751 113.764C190.06 115.179 189.241 115.654 188.268 116.941C187.399 118.087 185.017 122.048 186.792 123.187C186.882 123.244 187.369 123.428 187.509 123.48L187.611 123.773L187.88 123.841L188.369 123.87C189.411 123.926 190.274 123.561 190.861 124.014C189.203 124.906 187.077 125.648 185.168 125.346C184.175 125.19 183.705 124.674 183.034 123.994C182.97 122.648 183.294 121.4 183.558 120.088C182.617 120.546 182.003 120.754 181.003 121.087C177.83 122.373 174.091 123.36 170.743 124.105C169.8 123.744 168.977 123.971 168.693 123.79C168.138 123.436 168.117 122.888 167.219 122.505C169.14 122.726 169.879 122.712 171.8 122.475C171.012 122.188 170.712 122.232 170.519 121.41C172.843 121.373 177.867 119.64 180.046 118.639Z" fill="#F7FBFE"/>
<path d="M184.009 118.435C184.752 118.099 185.914 117.765 186.522 117.293C188.253 115.948 188.813 114.947 190.748 113.764C190.057 115.179 189.238 115.654 188.265 116.941C187.396 118.087 185.014 122.048 186.79 123.187C186.879 123.244 187.366 123.428 187.506 123.48L187.608 123.773L187.877 123.841L188.366 123.87C189.408 123.926 190.271 123.561 190.858 124.014C189.2 124.906 187.074 125.648 185.165 125.346C184.172 125.19 183.702 124.674 183.031 123.994C182.967 122.648 183.291 121.4 183.556 120.088C182.614 120.546 182 120.754 181 121.087C180.864 120.08 181.286 119.88 181.932 119.158C182.397 118.953 183.481 118.616 184.009 118.435Z" fill="#AAACAF"/>
<path d="M184.009 118.435C184.582 118.649 184.485 118.513 184.746 118.958C184.65 120.303 182.825 122.167 183.666 123.441C184.023 123.981 187.494 124.131 187.877 123.841L188.366 123.869C189.408 123.926 190.271 123.561 190.858 124.014C189.2 124.906 187.074 125.648 185.165 125.346C184.172 125.19 183.702 124.674 183.031 123.994C182.967 122.648 183.291 121.4 183.556 120.088C182.614 120.546 182 120.754 181 121.087C180.864 120.08 181.286 119.88 181.932 119.158C182.397 118.953 183.481 118.616 184.009 118.435Z" fill="#363738"/>
<path d="M171.8 122.475C174.935 121.743 178.937 120.338 181.935 119.158C181.289 119.88 180.867 120.08 181.003 121.087C177.83 122.373 174.091 123.36 170.743 124.105C169.8 123.744 168.977 123.971 168.693 123.79C168.138 123.436 168.117 122.888 167.219 122.505C169.14 122.726 169.879 122.712 171.8 122.475Z" fill="#343435"/>
<path d="M179.355 0.247849C180.887 0.647132 184.16 -0.0710662 185.133 0.523983C185.421 1.75846 184.091 1.72526 185.533 2.82073C177.598 1.74186 170.641 3.34269 164.185 8.24389C162.601 9.45238 161.128 10.7993 159.783 12.2686C158.267 13.9223 156.256 16.7804 154.582 18.2004C153.893 18.7851 150.226 19.0381 149.363 18.4548C149.118 17.7049 150.029 17.419 150.614 17.1509C152.993 17.1841 153.541 17.9301 154.638 15.4418C155.949 14.3619 156.868 12.8668 157.994 11.5985C160.948 8.31152 164.541 5.66305 168.556 3.81589C171.218 1.96906 174.233 1.35137 177.338 0.705226C178.214 0.52302 178.352 0.366137 179.355 0.247849Z" fill="#9B9A9B"/>
<path d="M152.497 110.526C157.946 108.444 163.325 105.54 168.84 103.613C169.271 103.463 169.567 103.746 169.912 103.971C169.813 104.947 169.635 106.584 168.38 106.505C167.173 106.43 166.752 107.583 165.99 107.901C162.162 109.5 158.217 110.83 154.47 112.63C152.851 113.405 150.711 114.029 150.428 116.18C150.347 116.791 150.201 117.304 150.514 117.834C149.863 118.889 149.423 121.17 148.77 122.294C148.386 121.043 148.813 119.474 149.231 118.283L149.065 118.317C148.883 118.608 148.768 118.668 148.471 118.834C149.03 117.426 149.628 115.415 150.18 113.894C150.152 112.882 150.94 109.952 151.447 109.013C151.552 109.871 151.601 110.043 152.339 110.508L152.497 110.526Z" fill="#363738"/>
<path d="M152.494 110.526C157.943 108.444 163.322 105.54 168.837 103.613C169.268 103.463 169.565 103.746 169.91 103.971C169.498 104.555 169.405 104.664 168.854 105.112C165.652 105.617 153.866 111.924 152.284 111.25C152.231 110.839 152.248 110.968 152.494 110.526Z" fill="#F7FBFE"/>
<path d="M152.497 110.526C152.251 110.968 152.234 110.839 152.287 111.25C153.869 111.924 165.655 105.617 168.857 105.112C165.8 107.416 151.802 111.603 150.18 113.894C150.152 112.882 150.94 109.952 151.447 109.013C151.552 109.871 151.601 110.043 152.339 110.508L152.497 110.526Z" fill="#BBBDBF"/>
<path d="M59.311 118.151C60.1842 117 60.8235 115.637 61.8882 114.637C62.4926 114.07 63.7475 113.813 64.3562 114.473C64.2324 114.873 64.1892 114.797 63.7669 115.066C63.0355 116.171 62.4465 117.162 62.0229 118.43C62.2218 118.627 62.7976 119.223 62.9859 119.362L62.7602 119.905C63.1842 120.448 64.3885 119.592 65.4072 119.689C66.8818 118.606 67.8831 117.742 69.6363 117.156C70.307 117.207 70.3813 117.103 70.8436 117.441C71.3667 118.657 70.9704 119.851 71.4161 121.544L71.1017 121.906C70.8445 121.209 70.4669 119.263 70.2051 118.324C68.7446 119.321 67.3086 120.353 65.8987 121.42C63.7941 123.004 61.8708 124.945 59.1813 125.361C56.7835 125.732 56.1689 123.852 56.9517 121.997C57.4599 120.793 58.2031 118.937 59.0498 117.983L59.311 118.151Z" fill="#BBBDBF"/>
<path d="M69.6363 117.156C70.307 117.207 70.3813 117.103 70.8436 117.441C71.3667 118.657 70.9704 119.851 71.4161 121.544L71.1017 121.906C70.8445 121.209 70.4669 119.263 70.2051 118.324C68.7446 119.321 67.3086 120.353 65.8987 121.42C63.7941 123.004 61.8708 124.945 59.1813 125.361C56.7835 125.732 56.1689 123.852 56.9517 121.997C57.4599 120.793 58.2031 118.937 59.0498 117.982L59.311 118.151C58.4057 119.76 57.2317 121.662 57.1768 123.542C58.6442 125.474 64.1609 120.778 65.4072 119.689C66.8818 118.606 67.8831 117.742 69.6363 117.156Z" fill="#363738"/>
<path d="M59.31 118.151C60.1832 117 60.8225 115.637 61.8872 114.637C62.4916 114.07 63.7465 113.813 64.3552 114.473C64.2314 114.873 64.1882 114.797 63.7659 115.066C60.7029 115.815 59.265 122.57 57.737 123.47C57.5367 123.505 57.3777 123.547 57.1758 123.542C57.2307 121.662 58.4047 119.76 59.31 118.151Z" fill="#F7FBFE"/>
<path d="M85.2615 118.627C86.7421 118.152 90.3477 115.882 91.4842 114.81C93.7224 112.699 96.0182 109.634 99.566 110.981C98.9516 112.5 96.6338 111.294 95.4616 112.807L95.373 112.93C93.9826 113.436 93.2004 115.024 92.119 115.951C91.0851 116.837 89.7465 117.262 88.7609 118.235C89.3016 118.154 89.781 118.031 90.2957 118.202C90.719 118.614 90.5971 118.808 90.2909 119.33L90.1529 119.288L89.6552 119.639C89.0284 119.985 87.7919 120.869 87.2896 121.036C84.5856 122.611 82.4637 123.481 79.4572 124.378L79.0461 123.841C79.0904 123.484 79.1467 123.183 79.2143 122.833C78.1484 123.103 77.3061 123.314 76.1888 123.318C76.0121 122.861 75.9625 122.79 76.1888 122.414C77.9665 122.35 83.5855 119.563 85.2615 118.627Z" fill="#F7FBFE"/>
<path d="M88.7617 118.235C89.3024 118.154 89.7818 118.031 90.2965 118.202C90.7198 118.614 90.5979 118.808 90.2917 119.33L90.1537 119.288L89.656 119.639C89.0292 119.985 87.7927 120.869 87.2904 121.036C84.5864 122.611 82.4645 123.481 79.458 124.378L79.0469 123.841C79.0912 123.484 79.1475 123.183 79.2151 122.833C82.5804 121.714 85.7885 120.168 88.7617 118.235Z" fill="#343435"/>
<path d="M87.291 121.036L87.3526 120.735C87.8387 120.482 87.9129 120.448 88.1621 119.96L88.0665 119.989C88.2946 119.379 89.0971 118.546 89.8229 118.58C90.1453 118.933 90.0466 118.765 90.1543 119.288L89.6566 119.639C89.0298 119.985 87.7933 120.869 87.291 121.036Z" fill="#02060A"/>
<path d="M0.146484 55.1023C0.176366 52.9728 2.51909 44.426 3.54342 42.3551C3.74157 43.1859 4.03952 44.3202 4.17742 45.1404C4.76901 45.4569 5.00181 45.4575 5.30767 45.9689C5.27532 46.3889 5.24095 46.9631 5.27618 47.3788C3.88681 54.0801 3.67945 56.372 3.78111 63.3737C3.61417 62.8691 3.57131 58.4273 3.34023 57.9478L2.93161 58.8429L2.71286 58.9233C2.09711 57.8979 1.9702 53.6254 1.20252 51.8736C0.897309 52.4065 0.433533 54.4764 0.43244 55.1534C0.574411 55.3728 0.748062 55.6411 0.953362 55.9585C0.99538 56.739 1.12711 59.0056 1.01338 59.6676C0.934409 58.4191 0.785493 56.1384 0.146484 55.1023Z" fill="#424242"/>
<path d="M102.434 118.609C106.049 117.308 109.483 115.09 112.808 113.197C113.076 113.043 113.43 112.882 113.733 112.926C113.847 112.942 113.903 113.072 113.997 113.193C113.802 113.678 113.309 113.932 112.841 114.364C112.105 114.848 111.404 115.308 110.69 115.826C110.904 115.996 111.084 116.141 111.286 116.325L111.265 116.548C110.637 116.848 108.413 117.615 109.164 118.512C108.338 119.075 107.996 119.227 107.082 119.625C105.873 120.247 101.869 122.184 100.691 122.369C100.442 122.265 99.6948 122.185 99.3526 122.127C97.849 122.444 97.2527 122.277 95.7129 122.103C96.7566 121.943 97.5082 121.849 98.5105 121.517C97.9728 121.528 97.5675 121.548 97.1345 121.225L97.1782 120.97L97.6389 120.668C99.2879 120.05 100.839 119.353 102.434 118.609Z" fill="#F7FBFE"/>
<path d="M109.991 116.269C110.081 116.165 110.541 115.913 110.689 115.826C110.903 115.996 111.083 116.141 111.285 116.325L111.264 116.547C110.636 116.848 108.412 117.615 109.163 118.512C108.337 119.075 107.995 119.227 107.081 119.625C105.872 120.247 101.868 122.183 100.69 122.369C100.441 122.265 99.6938 122.185 99.3516 122.127C99.9649 121.765 100.672 121.315 101.298 120.946C102.359 120.321 105.277 119.554 105.7 118.561C106.373 118.028 109.1 116.745 109.991 116.269Z" fill="#3E3F40"/>
<path d="M109.993 116.269C110.083 116.165 110.543 115.913 110.691 115.826C110.905 115.996 111.085 116.141 111.287 116.325L111.266 116.547C110.638 116.848 108.415 117.615 109.165 118.512C108.339 119.075 107.997 119.227 107.083 119.625C107.499 119.002 107.921 118.857 108.582 118.421L108.616 118.124C108.238 118.021 107.545 118.496 107.07 118.474C108.053 117.431 109.467 117.469 109.993 116.269Z" fill="#343435"/>
<path d="M98.5105 121.517C100.567 120.909 103.719 119.45 105.701 118.561C105.278 119.554 102.36 120.321 101.299 120.946C100.673 121.315 99.9659 121.765 99.3526 122.127C97.849 122.444 97.2527 122.277 95.7129 122.103C96.7566 121.943 97.5082 121.849 98.5105 121.517Z" fill="#031D38"/>
<path d="M169.681 114.209C170.831 115.584 166.834 119.905 170.518 121.41C170.711 122.232 171.011 122.188 171.799 122.475C169.878 122.712 169.139 122.726 167.218 122.505C168.116 122.888 168.137 123.436 168.692 123.79C168.976 123.971 169.799 123.744 170.742 124.106C169.875 124.292 168.283 124.289 167.455 123.914C164.851 122.736 166.437 118.823 166.149 118.052C165.423 117.985 163.5 118.97 162.805 119.3L162.595 118.912C162.215 118.785 160.046 118.942 159.396 118.943L160.315 118.621C161.798 118.121 163.365 117.336 164.736 116.588C166.156 115.452 167.288 115.533 168.949 115.022C169.462 114.865 169.485 114.628 169.681 114.209Z" fill="#BBBDBF"/>
<path d="M164.736 116.588C165.439 116.499 166.355 116.306 166.985 116.603C167.298 117.132 167.146 117.335 166.893 117.878C166.801 118.113 166.681 118.369 166.641 118.612C166.404 119.802 166.026 121.831 167.218 122.505C168.116 122.888 168.137 123.436 168.692 123.79C168.976 123.971 169.799 123.744 170.742 124.105C169.875 124.292 168.283 124.289 167.455 123.914C164.851 122.736 166.437 118.823 166.149 118.052C165.423 117.985 163.5 118.97 162.805 119.3L162.595 118.912C162.215 118.785 160.046 118.942 159.396 118.943L160.315 118.621C161.798 118.121 163.365 117.335 164.736 116.588Z" fill="#363738"/>
<path d="M166.891 117.878C167.474 117.884 167.395 117.798 167.825 118.074C168.224 118.936 167.822 120.645 167.032 121.19L166.795 121.121C166.539 120.393 166.632 119.423 166.64 118.612C166.68 118.37 166.799 118.113 166.891 117.878Z" fill="#AAACAF"/>
<path d="M117.117 1.73741C119.47 1.32071 126.326 2.51505 128.639 3.42417C129.253 3.97004 129.327 4.67532 129.671 4.95871C130.221 5.41209 131.574 5.57945 132.15 6.11983C131.822 7.69732 131.824 6.83558 130.988 7.45693C130.565 7.34996 129.948 7.12501 129.529 6.97317C126.074 5.72158 122.854 4.90169 119.207 4.41668C119.389 3.55646 119.613 2.80285 119.161 2.10431C118.67 1.77317 117.743 1.78413 117.117 1.73741Z" fill="#5A595A"/>
<path d="M72.7511 116.04C75.1179 118.319 72.9297 120.427 76.1909 122.414C75.9645 122.79 76.0141 122.861 76.1909 123.318C77.3082 123.314 78.1504 123.103 79.2164 122.833C79.1488 123.183 79.0924 123.484 79.0481 123.841L79.4593 124.378C76.3547 124.99 74.8813 125.279 72.0087 123.819C71.4988 123.099 71.3889 122.718 71.1022 121.906L71.4165 121.544C70.9709 119.851 71.3672 118.657 70.844 117.441C70.3817 117.103 70.3074 117.207 69.6367 117.156C71.0606 116.884 72.0062 117.644 72.7511 116.04Z" fill="#BBBDBF"/>
<path d="M71.4159 121.544C72.4236 123.207 74.3659 123.465 76.1903 123.318C77.3076 123.314 78.1498 123.103 79.2158 122.833C79.1482 123.183 79.0918 123.484 79.0475 123.841L79.4587 124.378C76.3541 124.99 74.8807 125.279 72.0081 123.819C71.4982 123.099 71.3883 122.718 71.1016 121.906L71.4159 121.544Z" fill="#3E3F40"/>
<path d="M155.667 117.54C156.222 115.868 157.184 112.243 159.087 111.954L160.089 112.98C159.011 114.369 158.179 116.512 159.901 117.753L159.688 118.121L159.774 118.414C159.951 118.491 160.129 118.581 160.315 118.621L159.396 118.943C160.046 118.942 162.214 118.785 162.594 118.912L162.804 119.3C160.482 120.204 156.631 122.39 155.104 119.5L155.417 119.459C155.467 118.843 155.579 118.158 155.667 117.54Z" fill="#BBBDBF"/>
<path d="M159.396 118.943C160.046 118.942 162.214 118.785 162.594 118.912L162.804 119.3C160.482 120.204 156.631 122.39 155.104 119.5L155.417 119.459C156.475 119.635 158.346 119.201 159.396 118.943Z" fill="#343435"/>
<path d="M155.668 117.54C156.223 115.868 157.185 112.243 159.087 111.954C159.141 112.891 157.096 118.244 156.076 118.523L155.792 118.354C155.727 118.043 155.692 117.856 155.668 117.54Z" fill="#AAACAF"/>
<path d="M36.7763 101.755C38.2771 99.9889 41.6835 95.8367 43.5345 94.4933C43.1477 96.1011 38.4178 100.799 37.4369 102.704C36.5455 103.917 32.6457 109.501 32.8503 110.718L32.8235 110.827C32.6162 111.654 32.0623 112.461 32.3483 113.199C33.7967 113.124 32.9976 112.529 34.1329 111.764L34.2906 111.839C33.6809 112.917 32.3315 115.261 31.1435 115.699C29.1381 113.797 31.3438 110.542 32.3085 108.482C33.9457 106.333 34.4557 104.412 36.7763 101.755Z" fill="#363738"/>
<path d="M31.832 114.745C31.4149 114.104 31.7504 113.531 32.349 113.199L32.5359 113.363C32.5036 113.81 32.0919 114.342 31.832 114.745Z" fill="#C3C1BF"/>
<path d="M42.6764 93.1635C45.518 90.0233 52.978 85.97 57.2863 88.127C58.2604 88.6145 59.0024 89.4671 59.3509 90.4989C58.9666 90.3779 58.2815 89.3199 57.4702 88.9256L57.3076 89.0144C57.61 90.0231 58.1051 90.5737 57.8073 91.5146C57.4954 90.3372 57.2999 89.5723 56.1156 88.8808C54.9956 88.2268 53.4282 88.3611 52.0669 88.7771C48.9683 89.7243 45.7221 92.0172 43.5601 94.4357C43.551 94.455 43.5421 94.4741 43.533 94.4934C41.6821 95.8367 38.2756 99.9889 36.7748 101.755C35.9421 99.9106 43.2765 94.0627 43.6532 93.0588L43.5164 92.895L42.6764 93.1635Z" fill="#C6C6C6"/>
<path d="M212.678 112.248L213.633 112.974C211.839 114.73 208.376 120.103 211.502 121.905L211.268 122.197C211.504 122.712 212.342 122.674 212.873 122.714C211.777 122.938 210.438 122.755 209.36 122.499C208.881 122.388 208.297 122.089 207.84 121.876C206.842 120.8 207.322 120.138 207.664 118.899C206.829 118.635 206.761 118.52 205.871 118.599C207.099 117.664 212.083 113.338 212.678 112.248Z" fill="#BBBDBF"/>
<path d="M179.355 0.247865C181.96 0.0974378 184.511 -0.242745 187.102 0.282865C187.681 0.400189 190.461 0.823501 190.78 1.08091C191.399 1.85846 190.969 1.83572 191.479 2.60554C191.89 2.8432 192.296 3.08714 192.7 3.33724C193.334 3.77357 194.274 4.59266 194.595 5.30397C194.444 5.515 194.407 5.50246 194.165 5.59035L193.949 5.87556C191.764 4.47995 188.095 3.43393 185.533 2.82075C184.091 1.72527 185.421 1.75847 185.133 0.523999C184.16 -0.0710501 180.887 0.647148 179.355 0.247865Z" fill="#545355"/>
<path d="M7.55688 34.2635C7.53473 35.1226 6.50759 36.5456 6.00645 37.3053C6.4193 37.921 7.17165 39.4251 7.93881 38.882C8.40342 37.8012 8.77211 36.2915 9.81019 35.6595C7.48944 40.2219 6.80007 42.4959 5.27768 47.3787C5.24245 46.963 5.27682 46.3888 5.30918 45.9688C5.00332 45.4574 4.77051 45.4569 4.17893 45.1404C4.04102 44.3201 3.74308 43.1859 3.54492 42.355C3.70799 42.0368 4.20524 40.7416 4.38384 40.3158C5.3933 37.9095 6.08396 36.415 7.55688 34.2635Z" fill="#656464"/>
<path d="M42.6749 93.1635L43.5148 92.8951L43.6517 93.0588C43.2749 94.0627 35.9405 99.9107 36.7733 101.755C34.4527 104.412 33.9426 106.333 32.3055 108.482C32.187 108.347 32.1617 108.292 32.009 108.201C32.1989 106.029 32.9206 106.525 32.9291 105.625L32.7629 105.524C31.7892 106.233 31.0547 109.511 29.5664 110.508L30.0422 109.453C30.9404 108.117 31.8521 106.225 32.7371 104.812C34.8737 101.4 39.4712 95.5045 42.6749 93.1635Z" fill="#C0C0C0"/>
<path d="M214.807 120.915C217.566 119.919 220.045 118.492 222.81 117.155C225.709 115.754 228.828 113.169 231.805 112.085C232.019 112.006 232.264 112.304 232.455 112.477C230.098 114.531 223.754 117.895 220.856 119.414C220.129 119.795 217.362 120.987 217.027 121.202C216.232 121.124 215.898 121.273 215.133 121.257L214.807 120.915Z" fill="#D4D5D6"/>
<path d="M153.188 108.554C153.596 107.162 153.849 105.885 154.312 104.428C154.351 104.579 154.4 104.975 154.561 105.003C157.221 105.469 160.146 105.053 162.891 105.416C159.213 106.865 157.197 108.67 153.188 108.554Z" fill="#C4C4C4"/>
<path d="M239.763 117.651C242.623 117.135 244.904 116.137 247.433 114.779L247.88 115.171C247.419 116.323 244.945 116.639 244.38 117.977C243.842 118.319 242.813 118.623 242.186 118.742C240.702 119.256 240.483 119.215 238.956 119.451C238.102 119.55 237.186 119.494 236.457 119.778L236.199 120.109C235.705 119.9 235.446 120.01 234.92 119.982L234.75 119.568L234.852 119.34L235.133 118.906C236.527 117.858 238.079 118.034 239.763 117.651Z" fill="#3E3F40"/>
<path d="M235.133 118.907C235.314 118.89 235.988 118.875 236.162 118.893C237.584 119.04 241.047 118.036 242.186 118.742C240.702 119.256 240.483 119.215 238.956 119.451C238.102 119.55 237.186 119.494 236.457 119.778L236.199 120.109C235.705 119.9 235.446 120.01 234.92 119.982L234.75 119.568L234.852 119.34L235.133 118.907Z" fill="#343435"/>
<path d="M234.852 119.34C235.935 118.898 237.886 118.94 238.956 119.451C238.102 119.55 237.186 119.494 236.457 119.778L236.199 120.109C235.705 119.9 235.446 120.01 234.92 119.982L234.75 119.568L234.852 119.34Z" fill="#363738"/>
<path d="M190.781 1.0809C191.996 1.32199 193.686 2.01904 194.484 2.15857C195.153 3.21439 195.691 4.60284 196.391 5.45149C197.001 6.09222 199.409 8.61507 199.418 9.37295C198.726 9.41546 194.3 6.36755 193.951 5.87555L194.166 5.59034C194.408 5.50245 194.445 5.51499 194.596 5.30395C194.276 4.59264 193.335 3.77356 192.701 3.33723C192.297 3.08712 191.891 2.84319 191.48 2.60553C190.97 1.83571 191.4 1.85845 190.781 1.0809Z" fill="#1D1D1D"/>
<path d="M190.781 1.0809C191.996 1.32199 193.686 2.01904 194.484 2.15857C195.153 3.21439 195.691 4.60284 196.391 5.45149C194.828 4.8874 194.06 3.22058 192.701 3.33723C192.297 3.08712 191.891 2.84319 191.48 2.60553C190.97 1.83571 191.4 1.85845 190.781 1.0809Z" fill="#242428"/>
<path d="M203.57 118.445C205.826 117.449 207.411 115.713 209.161 114.052C210.225 113.043 211.14 111.758 212.677 112.248C212.082 113.338 207.097 117.664 205.869 118.599L205.762 118.776L203.49 119.963C202.45 119.861 200.466 120.165 200.424 118.887C201.625 119.323 202.446 118.889 203.57 118.445Z" fill="#F7FBFE"/>
<path d="M236.383 116.436C240.969 116.731 243.228 115.254 247.44 113.631C248.048 113.397 249.108 112.925 249.7 113.189L249.713 113.373C249.236 113.858 248.079 114.426 247.432 114.779C244.903 116.137 242.622 117.135 239.762 117.651C238.836 117.6 236.432 117.59 235.865 116.852L235.943 116.58L236.383 116.436Z" fill="#F7FBFE"/>
<path d="M132.148 6.11989C133.514 6.70063 136.664 8.13319 137.909 8.85107C138.796 9.44859 142.687 12.1094 143.104 12.774C142.112 12.5772 139.215 9.62205 138.054 9.28092C138.063 9.32756 138.073 9.37417 138.081 9.42081C138.29 9.52164 138.198 10.4811 138.212 10.4978C138.638 10.9622 139.258 11.2337 139.796 11.5666C140.714 12.1343 141.701 12.6141 142.453 13.4082L142.339 13.4588C137.752 10.4324 136.225 9.6269 130.986 7.45699C131.822 6.83564 131.82 7.69738 132.148 6.11989Z" fill="#3A3A3B"/>
<path d="M62.9836 119.362C63.0561 119.327 63.1281 119.292 63.2 119.256C63.8402 118.934 63.7844 118.933 64.0186 118.224C64.1564 118.309 64.5234 118.474 64.6765 118.384C67.3934 116.791 69.444 115.278 72.7483 116.04C72.0034 117.643 71.0578 116.884 69.6339 117.156C67.8807 117.742 66.8795 118.606 65.4048 119.689C64.3862 119.592 63.1819 120.448 62.7578 119.905L62.9836 119.362Z" fill="#F7FBFE"/>
<path d="M53.5254 114.244C56.5988 107.829 58.4263 104.021 59.6641 96.8677C59.6644 101.068 57.8931 108.373 55.7067 111.996C55.1529 112.692 54.3084 113.855 53.5254 114.244Z" fill="#343435"/>
<path d="M159.9 117.753C163.025 116.139 166.082 113.703 169.68 114.209C169.484 114.628 169.461 114.865 168.948 115.022C167.287 115.533 166.156 115.452 164.735 116.588C163.364 117.335 161.797 118.121 160.314 118.621C160.129 118.581 159.951 118.491 159.774 118.414L159.688 118.121L159.9 117.753Z" fill="#F7FBFE"/>
<path d="M128.637 3.42418C131.229 4.09613 135.164 5.21696 137.523 6.46398L137.226 6.69018C135.957 6.23453 135.027 5.34365 133.598 5.30386C133.589 5.30364 133.045 4.97663 132.919 4.91972L132.679 5.06754C132.575 5.60927 132.558 5.38958 132.732 5.90353C133.244 6.44143 136.239 7.8323 136.822 7.8559L137.088 7.64463C137.397 8.0111 137.651 8.44475 137.909 8.85102C136.663 8.13314 133.514 6.70058 132.148 6.11984C131.571 5.57946 130.219 5.4121 129.668 4.95872C129.324 4.67533 129.251 3.97005 128.637 3.42418Z" fill="#373539"/>
<path d="M214.808 120.915L215.135 121.257C215.9 121.273 216.233 121.124 217.029 121.202C216.363 121.588 215.747 121.943 215.059 122.293C214.209 122.525 213.733 122.597 212.874 122.714C212.344 122.674 211.505 122.712 211.27 122.197L211.504 121.905C212.201 121.839 214.081 121.161 214.808 120.915Z" fill="#F7FBFE"/>
<path d="M205.307 97.4595C206.082 96.3468 206.877 95.0284 208.447 95.4278L208.572 95.6432C208.395 96.0616 207.291 97.0207 206.84 97.627C206.296 97.6208 206.412 97.6627 205.879 98.023L205.601 97.9553L205.307 97.4595Z" fill="#F7FBFE"/>
<path d="M200.457 118.128C201.336 117.805 202.183 117.966 203.071 118.232L203.573 118.445C202.449 118.889 201.628 119.323 200.427 118.887L200.195 118.673L200.457 118.128Z" fill="#363738"/>
<path d="M200.455 118.128C201.334 117.805 202.181 117.966 203.069 118.232C202.284 118.539 201.157 118.696 200.455 118.128Z" fill="#C3C1BF"/>
<path d="M53.524 114.244C54.307 113.855 55.1515 112.692 55.7053 111.996C55.2542 113.181 54.8543 113.912 54.2445 115.035C53.6033 115.516 53.468 115.584 52.6855 115.755L53.142 114.785L53.524 114.244Z" fill="#031D38"/>
<path d="M151.657 108.354C152.508 107.905 152.277 107.273 153.082 106.363C153.071 107.607 151.971 108.318 152.339 110.508C151.601 110.043 151.552 109.871 151.447 109.013L151.657 108.354Z" fill="#3E3F40"/>
<path d="M52.6866 115.755C53.469 115.584 53.6043 115.516 54.2455 115.035C53.9158 115.663 53.4088 116.882 52.8541 117.136L52.7781 117.102C52.5341 116.994 52.2756 116.863 52.0098 116.969L52.6866 115.755Z" fill="#343435"/>
<path d="M192.326 111.511C193.347 111.173 193.605 111.056 194.604 111.379L194.824 111.601C194.493 112.15 193.908 112.094 193.291 112.164C192.91 111.75 192.844 111.719 192.326 111.511Z" fill="#F7FBFE"/>
<path d="M110.689 115.826C111.404 115.308 112.104 114.848 112.84 114.364C112.367 115.078 112.573 114.907 112.319 115.628C112.229 115.884 111.484 116.318 111.264 116.548L111.285 116.325C111.083 116.141 110.903 115.996 110.689 115.826Z" fill="#3E3F40"/>
<path d="M144.925 100.159L145.164 100.771C144.616 101.503 142.958 104.102 142.436 104.58C142.184 104.935 141.298 106.234 141.063 106.497C140.636 107.187 140.164 107.862 139.705 108.533C137.706 108.665 135.002 108.588 132.987 108.57L132.629 106.311C137.646 104.399 140.351 102.954 144.925 100.159Z" fill="#C4C4C4"/>
<path d="M137.977 106.576C138.68 106.061 141.497 104.454 142.253 104.37L142.437 104.58C142.186 104.935 141.3 106.234 141.064 106.497C140.036 106.548 139.006 106.574 137.977 106.576Z" fill="#EEECEE"/>
<path d="M216.354 106.164C217.086 106.185 217.952 106.279 218.228 107.012C217.98 107.982 216.061 109.026 215.201 109.545C214.565 109.801 214.065 110.145 213.441 109.809C213.162 108.586 215.309 106.599 216.354 106.164Z" fill="#D4D5D6"/>
<path d="M144.926 100.159C145.344 99.8847 145.918 99.4821 146.341 99.246C146.043 99.6362 145.471 100.438 145.164 100.771L144.926 100.159Z" fill="#BBBDBF"/>
<path d="M207.84 121.876C208.297 122.089 208.881 122.388 209.36 122.499C209.884 123.205 209.962 123.496 210.871 123.586C210.303 123.95 210.112 123.855 209.627 124.126C208.341 123.563 208.094 123.213 207.174 122.189L207.84 121.876Z" fill="#02060A"/>
</svg>
