<svg width="694" height="119" viewBox="0 0 694 119" fill="none" xmlns="http://www.w3.org/2000/svg">
<path d="M195.257 2.58372C210.243 1.66155 226.364 4.95491 238.64 13.7907C285.998 47.8765 260.713 107.986 206.514 113.054C205.96 113.139 205.402 113.204 204.842 113.253C174.214 116.025 140.074 94.4207 137.408 62.1189C136.362 48.6831 140.746 35.3887 149.581 25.2116C161.391 11.4099 177.271 3.97912 195.257 2.58372ZM222.132 16.2605C216.077 11.3429 205.409 8.69225 197.657 9.61008C197.518 9.62627 197.378 9.64522 197.24 9.6677C188.775 10.8183 179.56 14.3858 174.357 21.7107C160.656 41.0005 160.341 83.4813 180.055 99.2243C187.254 104.972 197.007 105.509 205.767 105.116C234.149 101.672 238.981 71.6754 236.646 47.8327C235.528 36.4103 231.182 23.8548 222.132 16.2605Z" fill="black"/>
<path d="M486.757 2.55866C539.289 -1.91821 579.188 55.2021 537.293 96.1807C525.917 107.304 513.485 110.894 498.631 112.995C497.512 113.115 496.394 113.224 495.275 113.322C479.666 114.581 459.574 108.41 447.882 97.794C407.666 61.2749 435.533 6.39946 486.594 2.58503C486.646 2.57633 486.701 2.56735 486.757 2.55866ZM528.055 49.1563C526.545 26.6525 513.636 6.92524 488.884 9.66608C479.927 10.857 471.262 14.3228 465.63 22.0225C451.376 41.4953 451.53 82.9582 471.147 99.1231C478.088 104.841 488.069 105.384 496.627 105.11C525.585 102.067 529.664 73.1068 528.055 49.1563Z" fill="black"/>
<path d="M55.3034 0.209029C62.7726 -0.509187 71.7603 0.686916 78.952 2.82417C81.9648 3.71947 92.721 8.42325 94.0313 10.9056C92.7024 12.0815 56.6533 11.1175 51.7594 11.591C50.8001 11.6839 50.5625 11.7412 49.9664 12.4788C49.747 13.7927 49.4854 14.5967 50.0297 15.8038C50.9261 16.662 52.3262 16.8383 53.533 16.8829C70.0057 17.4936 86.5883 16.511 103.048 17.4972C105.558 21.2021 108.752 24.0362 111.423 28.4633C104.72 28.4566 63.8347 27.7091 60.8005 29.259C60.0689 29.633 59.7179 30.0373 59.4843 30.8468C59.2064 31.8093 59.4467 32.9394 60.0025 33.7387C61.1662 34.6122 62.4362 35.0067 63.8833 35.0791C81.0655 35.9376 98.9375 34.462 116.07 35.4522C116.828 39.3283 117.749 42.7012 118.783 46.4954C104.321 46.1634 89.5774 46.7488 75.0862 46.578C72.6711 46.5496 68.1364 46.212 66.5779 48.0848C66.4609 49.2378 66.4312 51.2723 67.2384 52.1894C68.4784 53.5981 114.03 53.0586 119.778 53.108L119.716 63.6982L92.5471 63.6962C88.0994 63.6907 71.7038 62.4025 70.9405 67.4668C72.2979 70.8808 75.5483 70.5088 78.5915 70.6294C91.6158 71.0397 105.636 70.6559 118.853 70.8049C117.94 74.8327 117.215 77.8594 115.828 81.7398C109.74 82.0999 78.3729 81.0362 75.757 83.1149C75.3332 83.4521 75.1838 83.9608 75.1305 84.4937C75.0779 85.0182 75.2099 86.1416 75.5712 86.491C77.18 88.0472 107.608 87.3562 112.394 87.5863C109.547 92.3201 108.072 94.9617 104.135 98.8959C99.9166 99.3295 79.6738 98.2342 77.6788 100.556C71.69 107.528 93.5827 105.797 96.6062 105.678C93.3594 108.528 89.7928 110.544 85.8946 112.373C65.0999 122.131 39.2979 119.273 21.6436 104.434C9.11864 93.9676 1.36266 78.8776 0.142049 62.6009C-0.221763 58.3094 0.158768 55.2203 0.768046 51.013C4.87713 22.6393 26.9535 2.49016 55.3034 0.209029Z" fill="black"/>
<path d="M279.175 3.63608C283.927 3.9104 290.247 3.74596 295.107 3.74596L322.622 3.73172C336.845 3.69496 348.585 2.7218 360.33 12.4385C371.12 21.3654 374.194 38.0784 364.925 49.1955C358.741 56.6129 350.015 59.8597 340.627 60.6324C345.507 69.5641 355.002 81.8121 360.543 90.8944C362.56 94.2004 371.417 107.685 373.51 109.949C364.487 110.093 355.461 110.091 346.438 109.943C336.443 93.8071 325.26 77.9803 315.517 62.0349C313.967 59.5336 312.395 57.0461 310.801 54.5725C321.211 54.191 333.063 55.4452 340.805 47.5216C344.741 43.5194 346.891 38.0962 346.768 32.4845C346.211 9.15492 320.882 10.8629 304.503 11.4258L304.466 110.042C296.272 110.266 287.028 110.092 278.86 109.931C278.26 85.4696 279.389 60.4131 278.922 35.8807C278.728 25.7288 278.466 13.6219 279.175 3.63608Z" fill="black"/>
<path d="M568.167 3.61746C570.7 3.9068 576.333 3.71588 579.092 3.73446C583.112 3.76094 588.12 4.0072 592.049 3.76489C593.824 6.13813 596.658 8.79083 598.71 11.0834C611.181 25.0216 623.877 38.7792 636.399 52.6759C642.862 59.8525 649.424 67.5691 656.218 74.369C656.471 58.7991 656.538 43.2264 656.424 27.655C656.42 20.2317 656.171 10.8763 656.697 3.61983C659.349 3.86253 666.571 3.86095 669.148 3.62932C669.452 17.6371 669.255 32.2445 669.255 46.2882L669.164 109.951C665.365 110.094 661.566 110.119 657.768 110.025C654.91 109.309 643.182 95.6111 640.372 92.5588L611.473 61.2261L592.018 40.2445C588.701 36.6803 583.634 31.5449 580.883 27.8763C580.567 55.1246 580.78 82.7121 580.78 109.985C576.57 110.049 572.357 110.055 568.147 110.003C567.819 96.2159 568.096 81.4302 568.092 67.5635L568.167 3.61746Z" fill="black"/>
<path d="M389.553 3.6405C393.324 4.06424 410.455 3.88281 414.791 3.72075C415.06 15.9043 414.867 28.7354 414.867 40.9553L414.863 110.062C406.408 110.112 397.953 110.093 389.498 110.005C389.178 94.1934 389.45 77.6057 389.446 61.7017C389.375 42.3479 389.407 22.994 389.553 3.6405Z" fill="black"/>
<path d="M691.419 3.28525C692.043 3.31292 692.482 3.47458 693.079 3.64731C694.265 5.75097 694.51 10.8397 692.589 12.7248L691.925 12.592C691.767 11.6485 691.624 10.7022 691.502 9.75313L690.944 9.67645C689.616 10.8544 687.505 12.9707 685.628 12.6414C683.96 10.9718 685.826 7.2716 683.703 5.35373C682.893 5.85375 682.81 6.36365 682.446 7.25974C682.434 8.59459 682.588 12.2382 681.201 12.7588C680.723 11.1366 681.059 7.80166 680.659 6.18419C680.6 5.94466 678.549 6.00711 677.746 4.72444L678.469 4.1169C681.015 3.74731 686.288 3.7987 688.826 4.18528C688.96 5.19402 689.094 5.39878 689.561 6.31068L690.308 6.34349C691.375 5.14107 691.087 5.12486 691.419 3.28525Z" fill="black"/>
</svg>
