<svg width="711" height="193" viewBox="0 0 711 193" fill="none" xmlns="http://www.w3.org/2000/svg">
<path fill-rule="evenodd" clip-rule="evenodd" d="M300.708 107.819C299.212 106.171 297.611 103.425 295.959 101.805C304.701 93.2917 313.273 82.392 314.03 70.3577C314.591 61.4199 313.575 55.871 307.556 50.9166C296.225 41.5824 282.105 47.3047 278.105 49.7522C276.062 51.0057 268.434 57.07 264.46 60.8948C264.335 57.4713 264.196 46.849 264.036 43.4849C263.055 22.716 262.225 14.9128 256.781 8.91298C251.339 2.91814 244.848 -1.52588e-05 236.937 -1.52588e-05C229.975 -1.52588e-05 222.808 2.79926 217.195 8.19461C212.827 4.37476 207.715 2.19476 202.631 2.19476C185.387 2.19476 172.149 14.9871 170.439 33.3036C170.221 35.652 170.049 41.0027 169.916 48.043C161.496 42.7219 151.177 39.8682 139.051 39.5461C123.767 39.1448 110.603 46.6508 101.703 59.4085C98.0165 53.7654 93.3544 49.1478 87.9468 46.0414C77.2626 39.8979 65.194 40.215 53.3167 46.5815C52.7888 45.8482 44.3802 38.253 31.7695 38.1193C20.709 38.0004 8.65779 46.8341 6.57961 64.6353C6.57961 64.6403 5.06416 77.8091 4.61547 80.8759C2.29718 84.9584 -0.997695 92.4098 0.288659 101.846C0.691634 104.791 1.62558 108.445 3.67836 112.111C3.37337 157.045 4.00391 163.755 4.60281 166.668C4.60754 166.706 4.61231 166.745 4.61547 166.78C5.87488 178.03 11.5402 191.198 31.0724 191.42C35.7138 192.614 44.3328 193.522 51.9052 187.071C55.5179 183.991 61.6384 176.688 62.0288 162.367C62.0935 159.962 62.1914 157.79 62.3067 155.832C65.6774 155.439 69.0437 154.767 71.7918 153.647C77.3289 151.386 87.9929 143.989 96.7903 132.345C98.9583 136.982 101.776 141.528 105.453 145.516C111.528 152.106 122.214 159.445 138.778 157.632C148.102 157.724 161.99 154.082 173.603 142.753C176.948 156.622 196.866 156.255 196.866 156.255C203.188 156.279 216.759 151.916 217.141 151.578C223.325 157.494 231.688 155.155 235.817 155.155C242.845 155.155 250.243 156.801 256.745 148.398C258.371 146.295 262.713 143.434 263.616 140.999C273.978 148.685 280.373 155.704 290.53 155.704C303.842 155.704 312.621 148.214 313.161 134.348C313.513 125.258 310.417 118.478 300.708 107.819ZM32.443 56.8427C32.443 56.8427 23.0246 55.7478 21.6799 67.2817C20.5228 77.2004 19.4374 87.6047 18.5413 89.2496C17.6436 90.8945 11.3654 98.5857 18.99 104.628C18.99 104.628 18.5413 158.449 19.4374 162.295C20.3351 166.138 18.5413 173.28 32.892 172.73C32.892 172.73 46.3466 178.222 46.7937 161.745C47.2423 145.268 49.0361 137.58 49.0361 137.58C49.0361 137.58 61.593 138.13 66.9755 135.932C72.3561 133.735 95.6765 116.71 95.6765 91.9944C95.6765 67.2817 74.1499 45.8588 47.6914 72.7712C47.6914 72.7712 43.6551 72.7712 43.2065 68.3816C42.7574 63.9821 45.4489 54.6479 32.443 56.8427ZM46.5715 85.9539C46.5715 85.9539 46.3473 120.827 48.1407 124.123C49.9329 127.419 58.0065 122.201 63.6116 113.413C69.2187 104.627 83.569 76.3423 63.1646 71.6752C63.1646 71.6752 50.6061 72.4977 46.5715 85.9539ZM138.726 58.2143C120.567 57.7387 105.539 73.5928 104.867 100.232C104.867 100.232 105.316 143.347 138.278 138.951C138.278 138.951 172.81 140.326 178.639 95.0157C178.639 95.0157 180.433 59.3191 138.726 58.2143ZM138.5 71.1264C127.513 72.2213 125.719 94.4667 125.495 101.057C125.27 107.649 127.288 127.968 135.362 128.792C143.434 129.617 153.973 122.476 155.767 100.233C157.56 77.9883 142.524 70.7251 138.5 71.1264ZM202.637 20.8684C194.339 20.8684 186.491 25.8129 185.594 35.4244C184.699 45.036 184.699 125.221 184.699 125.221C184.699 125.221 184.922 138.678 195.461 138.678C206 138.678 211.382 139.502 211.829 123.3C212.278 107.099 213.623 31.0348 211.607 27.4627C209.588 23.8905 206 20.8684 202.637 20.8684ZM236.942 18.6737C230.889 18.6737 221.918 22.7958 221.918 35.4246C221.918 48.0584 221.695 122.475 222.367 125.496C223.04 128.517 222.816 139.777 234.924 139.777C247.034 139.777 248.827 139.227 247.93 118.907C247.93 118.907 248.827 110.67 253.759 114.786C258.693 118.907 278.875 138.13 292.328 138.13C292.328 138.13 300.401 138.13 300.624 132.361C300.85 126.595 286.498 111.767 275.959 104.353C275.959 104.353 272.148 100.782 275.959 96.6613C279.771 92.5441 298.159 79.6379 298.831 68.9264C299.504 58.215 281.789 62.0645 279.099 63.7094C276.408 65.3592 260.038 83.2051 253.536 84.8549C251.171 85.4544 250.173 86.2273 249.948 79.0879C249.725 71.9486 248.827 25.2631 246.585 22.7958C244.342 20.3236 241.653 18.6737 236.942 18.6737ZM511.405 62.8867C507.368 65.0815 503.779 61.7868 503.779 61.7868C479.114 37.0742 455.945 65.0567 455.945 65.0567C452.526 55.7969 442.566 51.0209 438.796 50.3619C433.144 49.376 426.4 49.6336 425.648 49.6683L426.17 49.6534C416.113 49.6534 410.4 55.3312 407.168 61.4103C401.152 51.8235 390.169 44.377 372.534 44.377C359.072 44.377 332.231 54.9448 317.522 83.2989L314.111 89.8734L315.708 97.419C316.344 100.426 317.836 104.103 320.412 107.433C311.991 121.952 316.305 140.491 324.448 149.674C331.604 157.738 342.795 159.217 355.056 158.402C366.417 157.645 374.149 155.555 380.318 152.143C384.728 155.749 390.314 158.698 396.674 158.464C401.387 158.288 408.289 161.313 413.414 154.245C421.348 162.525 432.343 161.131 437.441 161.131C447.502 161.131 458.328 155.188 465.047 151.247C465.047 151.247 480.287 162.782 498.678 151.799C506.069 159.447 513.266 159.738 525.459 160.26C527.081 160.386 538.17 160.177 547.159 154.756C561.06 171.231 585.402 154.055 585.402 154.055C607.377 164.49 625.756 150.43 625.756 150.43C634.086 158.414 642.071 161.421 655.802 161.524C676.434 161.679 691.678 150.547 698.199 141.642C710.526 124.807 711.509 102.895 710.845 95.8732C710.829 95.6899 710.801 95.3282 710.776 94.9814C708.657 66.4638 691.556 50.9763 659.936 50.9763C640.202 50.9763 624.866 63.4317 624.866 63.4317C619.036 56.2973 609.169 51.9028 609.169 51.9028C609.169 51.9028 629.352 45.8584 629.352 18.9509C629.352 -10.3 605.132 7.96198 605.132 7.96198C590.333 -3.02197 582.485 17.9897 582.485 17.9897C571.275 9.75052 557.504 11.4301 557.504 11.4301C539.707 11.0089 539.489 32.962 539.048 37.1584C538.631 41.1219 538.417 47.1663 538.219 53.7804C527.009 52.1306 515.442 60.6919 511.405 62.8867ZM370.134 59.3201C360.495 59.3201 337.848 67.8318 325.738 91.1721C325.738 91.1721 327.309 98.5859 339.642 96.939C351.974 95.2892 358.7 85.1277 361.167 82.6604C363.633 80.1881 375.519 75.7936 376.862 89.7997C376.862 89.7997 379.33 94.4668 373.278 94.4668C367.222 94.4668 329.551 97.2115 325.738 126.046C325.738 126.046 326.223 146.864 350.181 145.268C370.81 143.896 380.001 133.186 380.001 133.186C380.001 133.186 387.401 144.445 394.804 144.171C402.203 143.896 403.546 143.896 400.856 129.342C398.166 114.786 397.268 82.9329 397.045 79.0883C396.818 75.2436 394.355 59.3201 370.134 59.3201ZM366.998 107.922C359.599 107.922 343.902 116.71 343.902 129.891C343.902 143.071 362.066 136.481 365.652 133.186C369.241 129.891 377.538 121.653 377.538 113.689C377.538 105.725 366.998 107.922 366.998 107.922ZM425.969 64.8095C422.83 64.8095 419.242 65.082 417.45 72.7713C415.653 80.4605 412.292 108.471 413.861 118.907C415.431 129.342 419.691 146.367 435.837 146.367C451.982 146.367 465.66 133.185 465.66 133.185C465.66 133.185 468.795 140.602 471.939 141.974C476.454 143.947 488.979 145.268 489.65 129.067C490.131 117.519 489.877 75.521 489.65 73.0487C489.428 70.5764 490.099 64.8095 479.334 65.6319C470.834 66.281 466.109 66.1819 464.985 71.9488C463.864 77.7158 463.864 116.983 464.985 120.554C464.985 120.554 464.985 124.672 456.687 124.399C448.394 124.124 442.338 121.653 441.217 104.628C440.096 87.6048 441.666 66.1819 436.957 65.3594C432.248 64.532 425.969 64.8095 425.969 64.8095ZM561.855 24.9899C558.274 24.7521 551.094 24.7125 550.195 33.2291C549.297 41.7408 549.297 68.1033 548.403 68.9257C547.501 69.7482 538.536 66.7309 531.808 66.7309C525.081 66.7309 499.517 67.8308 498.846 115.062C498.846 115.062 496.827 145.541 528.892 146.641C528.892 146.641 541.671 147.738 549.746 134.284C549.746 134.284 552.886 135.656 552.886 138.129C552.886 140.601 552.886 144.17 558.489 144.994C564.096 145.816 577.551 149.387 576.876 130.988C576.204 112.589 575.982 43.6631 574.861 37.3463C573.74 31.0343 574.189 25.8123 561.855 24.9899ZM601.317 70.2988C597.263 70.5664 587.416 71.6761 586.967 81.2827C586.518 90.8943 586.741 133.46 586.741 136.481C586.741 139.502 589.208 141.698 592.57 141.973C595.936 142.246 602.886 142.796 606.701 141.151C610.512 139.502 613.874 131.263 613.429 123.025C612.98 114.786 613.874 82.3826 613.429 80.7378C612.98 79.0879 613.874 69.4764 601.317 70.2988ZM657.376 66.1812C652.222 66.0672 626.655 72.4981 621.723 109.568C621.723 109.568 619.931 143.07 656.705 143.347C693.479 143.62 696.169 103.528 695.497 96.3883C694.822 89.249 695.497 67.0036 657.376 66.1812ZM661.415 76.8924C656.261 76.5308 636.301 89.7987 635.403 116.16C635.403 116.16 634.731 133.734 650.428 134.284C666.124 134.831 673.524 103.253 673.075 93.9159C672.625 84.5817 669.264 77.4374 661.415 76.8924ZM543.689 79.365C535.618 79.365 518.129 96.1159 518.129 115.063C518.129 115.063 517.955 131.286 530.011 129.891C546.605 127.967 547.354 111.643 549.073 93.9162C550.643 77.7152 543.689 79.365 543.689 79.365ZM605.127 11.8111C605.127 11.8111 592.125 1.64468 586.518 17.8506C581.384 32.6891 605.803 50.2524 605.803 50.2524C605.803 50.2524 629.218 43.2964 627.329 18.123C625.537 -5.76717 605.127 11.8111 605.127 11.8111Z" fill="black"/>
</svg>
