<svg width="598" height="189" viewBox="0 0 598 189" fill="none" xmlns="http://www.w3.org/2000/svg">
<path d="M37.3023 0.133552C42.9931 -0.155033 51.2293 0.113996 57.1196 0.113571L97.1871 0.116882L123.585 0.252671C128.021 0.264028 136.845 -0.0148402 140.825 0.720803C148.509 2.14129 157.081 7.62253 161.572 14.1327C164.032 17.5494 168.464 26.2081 168.094 30.7826C167.662 36.1249 170.325 51.9172 165.224 55.418C162.778 57.0959 153.654 56.8703 150.645 56.345C153.196 58.4101 156.276 60.0814 158.944 62.2102C166.026 67.8599 169.371 76.0091 171.904 84.3916C172.129 82.1911 172.207 79.8782 172.225 77.6421C172.404 54.7011 172.159 31.74 172.782 8.81015C172.857 6.06577 174.209 5.15058 176.207 3.57186C181.232 2.85729 188.74 3.08946 194.037 3.09295L222.356 3.11694L242.35 3.06143C245.271 3.05268 251.537 2.90523 254.121 3.40971C258.419 4.24896 263.244 16.776 265.109 20.6617L281.534 55.3147C283.354 59.2087 288.375 70.6158 290.524 73.8639C291.859 71.8738 296.256 62.0712 297.42 59.5518L312.328 27.8569C315.341 21.3638 318.458 14.485 321.674 8.07927C322.646 6.14474 323.901 4.75921 325.574 3.40804C328.931 2.77934 334.638 2.85874 338.198 2.82717L357.915 2.75472L385.167 2.73289C389.827 2.73167 399.106 2.16227 403.714 3.59864C406.242 4.38694 407.217 7.5764 407.286 10.2318C407.429 15.4943 407.405 20.9557 407.402 26.2932L407.387 63.4843C407.49 82.584 407.496 101.684 407.405 120.784C407.356 125.661 407.49 130.548 407.42 135.429C407.356 139.998 405.874 140.743 402.718 143.472C400.844 143.669 398.936 143.726 397.041 143.709C384.575 143.597 371.896 144.451 359.488 143.404C357.073 143.2 355.211 141.121 353.948 139.239C353.368 136.125 353.598 126.681 353.617 123.155C353.623 117.209 353.945 65.8889 352.93 63.5141C352.274 63.9435 346.567 75.298 345.816 76.7124L319.715 126.085C317.2 130.845 314.885 135.872 312.057 140.434C310.672 142.666 307.611 144.473 304.965 144.435C294.932 144.294 284.913 144.336 274.88 144.374C273.868 144.378 272.282 144.066 271.287 143.727C267.118 141.622 263.578 132.865 261.52 128.933L249.844 106.23C242.279 91.2245 233.538 74.9995 226.471 59.8892C225.899 62.1677 226.069 74.2917 226.063 77.3558L225.708 116.56C225.645 123.255 225.718 129.97 225.456 136.668C225.297 140.714 223.37 143.198 219.189 143.559C213.39 143.949 207.684 143.712 201.827 143.68C194.271 143.638 186.416 144.2 178.9 143.467C176.54 143.236 174.973 142.077 173.149 140.702C172.042 136.967 172.409 118.928 171.863 118.329C171.091 119.782 170.156 122.312 169.715 124.021C167.625 132.124 157.805 144.492 148.817 145.11C142.858 145.52 134.771 145.259 128.511 145.295L81.7073 145.302L48.9572 145.408C34.1888 145.455 21.0288 146.094 8.75105 136.03C4.95751 132.921 -0.0332098 126.388 0.0667243 121.223C0.244358 112.043 -0.503751 102.401 0.717935 93.3422C0.996961 91.4198 2.54248 89.7097 3.69807 88.335C7.6386 87.0555 12.2087 87.3045 16.334 87.3697C6.6925 81.0548 2.18718 69.5521 1.93777 58.4004C2.01544 47.8162 0.999816 34.9531 2.90998 24.556C5.73766 9.16502 24.7151 3.15914 37.3023 0.133552ZM180.24 10.3156C179.388 23.2491 179.647 37.7427 179.645 50.7953L179.654 111.26C179.651 118.873 179.928 128.54 179.61 136.014C191.656 136.139 206.848 136.401 218.817 136.014C218.441 127.801 218.777 117.439 218.826 109.123L218.821 64.5507C218.825 57.0288 219.125 48.5741 218.908 41.1515C220.686 41.0792 222.694 40.9489 224.45 41.0452C228.259 45.9117 232.217 56.0292 235.605 61.7651C236.54 63.348 237.418 65.7134 238.481 67.3079L262.305 114.302L269.726 129.104C270.588 130.813 272.554 134.923 273.508 136.273C282.735 136.692 292.195 136.075 301.447 136.214C302.808 136.235 304.263 136.238 305.615 136.195C308.012 133.605 313.546 122.142 315.611 118.191L346.096 60.0726C347.821 56.8296 354.306 43.6815 356.126 41.4958C357.745 41.3816 359.333 41.2417 360.958 41.2836L361.001 101.312C360.998 112.766 361.162 124.661 360.974 136.084L399.841 136.056C400.23 94.0448 400.337 52.0317 400.163 10.0192L349.765 9.9995C343.347 10.0031 335.234 10.3375 329.095 10.1616C326.656 14.0252 325.593 17.3896 323.658 21.3291C321.55 25.6175 319.657 29.663 317.659 34.0039L299.09 73.457C296.436 78.9849 293.348 86.1385 290.432 91.4319C286.581 82.6669 281.748 73.6234 277.71 64.9081C271.085 50.4655 264.321 36.0863 257.42 21.7728C255.706 18.2213 254.044 14.1601 252.302 10.7286C245.522 10.1641 236.629 10.4076 229.633 10.407L196.445 10.3438C191.566 10.3584 184.88 10.6138 180.24 10.3156ZM53.6711 44.1263L52.9303 47.9635C66.7707 48.8869 80.622 49.6344 94.4813 50.2059C101.79 50.5035 109.761 50.4701 116.98 50.9878C117.784 49.6757 116.812 45.9445 115.888 44.6385C113.984 43.6016 86.6041 43.9751 82.6098 44.007C73.8216 44.0774 62.3945 43.5582 53.6711 44.1263ZM47.6505 95.1853L21.1175 95.2339C17.2946 95.2479 11.5413 95.4637 7.85335 95.2816C7.52302 102.011 7.386 108.75 7.37306 115.495C7.36325 120.614 7.34536 123.881 10.981 127.902C16.9673 134.523 26.3071 137.291 34.9995 137.846C44.6667 138.083 54.877 138.022 64.6569 138.018L123.902 137.917C128.279 137.933 145.148 138.464 148.359 137.454C161.889 133.199 166.391 113.543 165.843 100.997C166.068 63.6277 144.296 59.2324 112.345 58.1408C94.9964 57.2259 77.4642 56.5002 60.1231 55.7171C53.6799 55.4262 45.4379 56.0575 45.742 47.0929C46.1253 35.7873 53.4466 36.5452 61.7636 36.5048L76.7841 36.4486C88.809 36.3915 100.908 36.2178 112.934 36.1923C116.391 36.185 118.409 36.6025 120.824 39.213C123.453 42.0542 124.46 45.462 124.879 49.2315C136.716 49.9171 149.302 49.0733 161.123 49.5157C161.151 36.7185 162.808 25.4879 153.058 15.2717C143.85 5.62238 131.444 7.61251 118.773 7.64151L69.1782 7.65839C60.0544 7.65544 50.4234 7.4807 41.3564 7.75474C31.8384 8.01451 21.5097 11.8569 14.6689 18.7066C13.1503 20.2843 10.169 24.4002 9.93851 26.5874C8.81329 37.2648 9.59676 48.5267 9.46022 59.2785C9.34054 68.7028 15.7409 81.5319 25.8414 83.232C39.0215 85.4504 52.7997 86.096 66.1468 86.9292C81.7751 88.1799 97.3696 89.5806 112.99 90.9671C117.697 91.5054 123.751 91.6132 128.026 93.0671C133.29 94.8577 133.967 105.488 130.932 107.484C127.784 109.555 107.144 108.744 103.34 108.783C91.1804 108.909 80.5239 108.937 68.5309 109C63.6016 108.955 57.5403 108.972 52.7274 108.358C49.1285 107.9 47.9284 97.7821 47.6505 95.1853ZM55.1801 93.4381C55.2722 96.4217 55.3779 98.8376 55.7889 101.813C78.5122 102.646 102.714 101.211 125.327 102.015C125.276 100.764 125.469 100.692 124.842 99.7497C121.508 98.1003 107.697 97.8383 103.237 97.4563C92.0476 96.4977 80.551 95.7844 69.3726 94.7171C65.8436 94.3803 58.2505 94.0072 55.1801 93.4381Z" fill="black"/>
<path d="M420.584 2.00682C429.587 1.73339 439.195 1.87938 448.25 1.87737L494.979 1.87844L525.955 1.92116C537.176 1.96825 548.065 1.93859 559.149 3.86629C571.937 6.09034 581.144 11.8429 588.452 22.6244C590.521 25.6773 592.638 28.8741 593.616 32.5354C598.011 48.96 597.437 67.0849 597.173 83.9701C597.06 91.1883 596.641 99.9349 595.557 106.908C594.002 116.903 587.687 129.423 579.245 135.286C573.851 139.494 568.845 142.098 561.877 142.514C554.256 142.968 546.191 142.769 538.528 142.83L486.507 142.901L442.257 142.904C434.265 142.921 426.097 143.099 418.106 142.779C413.191 142.583 412.161 138.355 412.009 134.24C411.678 125.121 411.742 115.928 411.739 106.781L411.639 62.894L411.623 27.6759C411.605 21.6497 411.38 15.5528 411.611 9.53818C411.845 3.44218 415.42 2.3394 420.584 2.00682ZM419.032 135.381C430.69 135.609 442.755 135.461 454.443 135.46L516.664 135.458L545.666 135.473C554.708 135.484 563.942 136.544 571.879 131.393C574.334 129.799 577.046 127.732 578.857 125.423C582.833 120.953 585.712 115.618 587.267 109.842C589.998 99.8268 589.342 84.6132 589.497 74.0344C589.603 66.9728 589.591 59.1998 589.239 52.0295C588.552 38.1441 585.992 28.7611 575.579 18.8358C570.021 13.5372 559.426 10.9811 551.859 10.1382C540.535 8.87663 526.766 9.18872 515.269 9.09945L452.083 8.89585C442.123 8.90074 428.855 9.31762 419.117 8.86719L419.153 94.1987L419.163 121.196C419.166 124.689 419.369 132.137 419.032 135.381Z" fill="black"/>
<path d="M449.565 77.2632C449.763 74.6048 449.614 70.5496 449.644 67.7402C449.723 60.5371 449.605 53.3219 449.741 46.1127C449.775 43.6945 449.957 37.3149 452.004 35.7514C454.869 33.5618 464.917 34.2921 468.404 34.2921L492.063 34.3173L521.001 34.368C526.991 34.3738 532.939 34.3547 538.91 34.5827C546.92 34.5651 554.335 41.9668 556.303 49.4574C557.877 55.4435 557.789 65.6348 557.369 72.045C557.412 72.8637 557.4 73.0446 557.743 73.8062L557.612 74.4712C557.318 79.277 557.512 85.1917 557.476 90.1114C559.529 89.9507 562.369 89.8305 564.125 88.7665C564.814 88.7608 566.53 88.6338 567.004 88.9615L567.18 89.2931C565.154 92.314 560.96 92.4331 557.646 92.7886C557.406 103.441 553.044 106.502 543.227 109.794C534.132 112.844 527.243 112.105 517.806 112.101L487.659 112.154L467.544 112.205C463.589 112.239 459.218 112.419 455.285 112.075C453.073 111.882 451.442 109.636 450.194 107.964C449.261 101.289 449.605 87.4952 449.438 79.976C449.507 79.5323 449.541 77.8076 449.565 77.2632ZM457.071 76.5779C460.287 76.3674 476.635 75.373 477.513 72.8546C476.064 70.3313 465.205 69.2627 464.224 65.6199C465.634 59.0605 483.114 60.6714 488.345 60.0492C488.837 60.1959 490.462 60.8602 490.675 60.8496C492.385 60.9273 496.331 61.3245 497.713 61.1569C498.363 61.6497 498.159 61.3898 498.472 62.1586L498.964 61.7472C499.365 63.1804 499.942 63.2845 501.16 64.173L501.109 64.7281C500.373 64.9075 499.936 64.9209 499.192 64.9667C498.108 66.1804 498.068 70.8648 497.944 72.7076C499.502 72.4058 501.537 72.3326 503.159 72.2291C503.034 69.0754 502.649 60.5551 506.774 59.9526C510.16 61.371 509.322 69.0359 509.173 72.1197C510.713 72.2133 512.238 72.0939 513.778 72.0077C514.091 70.2915 514.537 69.5233 515.306 67.9598C522.146 63.1956 536.532 62.9536 540.438 70.8848C541.316 72.663 548.257 72.0362 550.492 72.0241C550.456 66.2311 550.647 59.4762 549.803 53.7437C549.429 51.2079 547.318 47.6701 546.085 45.2847C544.834 44.5174 540.794 41.8878 539.649 41.8289C531.386 41.4029 522.447 41.4497 514.191 41.4251L457.271 41.2435C456.867 45.1359 457.01 50.4212 457.007 54.4569L457.071 76.5779ZM550.538 93.2356L550.514 91.067C550.55 85.9487 550.714 79.2897 550.331 74.2814C547.273 74.1821 544.214 74.0306 541.158 73.8265C540.159 78.5409 538.279 81.2823 534.603 84.4611C533.859 84.8556 533.382 85.2224 532.577 85.0226C532.45 84.1195 532.702 84.0652 533.233 83.0744C533.756 81.4286 540.098 76.7898 538.063 74.2853C536.247 73.5375 519.306 73.7175 516.378 73.8372C516.017 74.9272 516.238 75.097 515.594 75.7386C514.865 75.2075 514.732 75.0156 514.167 74.313C511.269 73.2153 508.924 73.8712 507.414 76.5563L506.491 76.6711C506.184 77.1827 505.012 79.065 504.927 79.5348C504.025 81.7304 500.377 83.6225 498.241 84.5349C497.397 83.9847 496.631 83.4539 495.714 83.0279C495.325 80.5681 495.635 76.6899 494.274 75.4969C493.405 75.2591 493.187 75.3117 492.288 75.4049C492.017 76.5229 493.05 78.4365 493.132 79.7601C493.433 84.493 489.113 89.3383 485.298 91.6068C480.842 94.2555 477.389 94.4796 472.635 92.9201C471.08 86.1212 472.201 82.7568 475.414 76.8994C469.382 76.9945 463.368 77.5775 457.432 78.6427C456.77 82.5044 456.907 100.135 457.162 104.688L504.717 104.737C513.584 104.734 524.03 105.103 532.851 104.208C540.274 103.454 549.557 102.229 550.538 93.2356ZM478.446 70.2475C479.22 70.3021 480.718 70.3015 481.304 70.6774L481.444 70.9082C486.571 73.8147 489.469 73.4515 495.091 72.9654C495.699 69.7804 496.434 67.583 496.546 64.3012C494.611 63.877 491.361 63.2985 489.718 62.4091C489.669 62.1486 489.53 62.0338 489.353 61.8058C487.71 62.0083 487.968 62.8655 486.191 63.6942L485.705 63.4719L485.602 62.5901C479.858 61.0998 471.119 63.3009 465.649 65.4851C469.892 67.1348 474.157 68.7225 478.446 70.2475ZM505.543 62.1993C504.972 64.9388 504.061 69.1984 505.212 71.786C506.011 72.3526 505.741 72.1935 506.871 72.1644C508.177 70.8004 508.037 64.6913 506.907 63.0486L505.543 62.1993ZM498.022 74.7329C497.503 78.0639 497.461 79.0544 498.053 82.3578C500.021 81.459 500.495 81.4726 501.607 79.6745C502.946 78.9788 505.048 77.3686 504.216 75.7504C501.914 74.2598 500.486 74.9364 498.022 74.7329ZM525.485 66.5955C519.109 67.5669 519.798 68.132 514.562 71.3676C518.993 72.0651 525.366 71.8471 530.017 71.8279C532.173 71.8616 536.073 72.2208 537.744 71.0135C538.506 67.5635 528.124 66.2111 525.485 66.5955ZM477.209 76.9459C475.472 81.3688 469.594 92.6113 478.355 92.3131C483.145 90.9604 487.783 87.9412 490.414 83.5666C492.828 79.5487 491.656 76.4971 486.726 76.0641C483.749 76.2265 480.095 76.3398 477.209 76.9459Z" fill="black"/>
<path d="M504.926 79.5348C505.011 79.065 506.183 77.1827 506.49 76.6711L507.413 76.5563C507.067 82.4908 524.214 86.9179 526.036 85.809L525.836 85.4604C526.07 84.9661 526.437 83.5675 526.617 82.9639C527.491 83.6219 528.734 84.7456 529.754 84.8313C531.616 84.4888 531.188 83.6619 533.232 83.0744C532.701 84.0652 532.449 84.1195 532.576 85.0226C533.381 85.2224 533.858 84.8556 534.602 84.4611C533.867 85.6375 533.518 85.8916 532.473 86.7385C535.966 88.6648 546.421 91.1666 550.513 91.067L550.537 93.2356C549.805 93.0009 547.986 92.9562 547.108 92.8903C542.606 92.5521 533.257 90.7958 529.873 87.6998C522.519 86.7069 518.102 88.356 510.566 83.6076C508.844 82.5211 506.192 79.9347 504.926 79.5348Z" fill="black"/>
<path d="M488.348 60.0492C489.046 57.9252 497.63 50.4606 499.936 54.1402C500.151 55.7401 499.252 59.8718 498.967 61.7471L498.475 62.1586C498.162 61.3898 498.365 61.6497 497.715 61.1569C497.402 59.2284 499.006 56.089 497.314 55.3502C494.742 55.7592 492.178 58.8549 490.677 60.8496C490.465 60.8602 488.84 60.1958 488.348 60.0492Z" fill="black"/>
<path d="M514.168 74.3129C514.733 75.0156 514.867 75.2075 515.596 75.7385C516.24 75.0969 516.018 74.9272 516.379 73.8371C517.388 74.9354 517.354 75.4683 518.542 76.5587C521.112 78.922 523.785 80.9297 526.619 82.9638C526.44 83.5675 526.072 84.966 525.838 85.4604C523.572 81.786 514.788 78.6463 514.168 74.3129Z" fill="black"/>
<path d="M485.602 62.5901L485.705 63.4719L486.191 63.6942C487.968 62.8655 487.71 62.0084 489.353 61.8058C489.529 62.0339 489.669 62.1486 489.718 62.4092C487.464 62.5294 482.701 68.947 481.443 70.9082L481.304 70.6774C480.717 70.3015 479.22 70.3021 478.445 70.2475C480.778 69.2215 483.284 64.8231 485.602 62.5901Z" fill="black"/>
<path d="M557.371 72.0449C560.093 72.1561 572.799 71.9824 574.114 73.2923L574.071 73.7687C572.173 75.3356 569.129 74.8512 566.772 74.7747C564.254 74.6934 559.95 75.13 557.614 74.4711L557.745 73.8061C557.401 73.0446 557.414 72.8636 557.371 72.0449Z" fill="black"/>
<path d="M440.609 79.723C439.877 78.9423 438.838 78.0189 438.58 77.0257L438.932 76.7035C440.573 76.8438 442.337 77.776 443.868 78.4692L449.567 77.2631C449.542 77.8076 449.509 79.5323 449.439 79.9759C445.308 79.9243 445.244 80.8443 440.609 79.723Z" fill="black"/>
<path d="M564.126 88.7665C565.241 88.4122 565.344 88.5883 565.909 87.8183C564.661 86.0747 559.746 86.0191 559.336 83.9598C561.505 81.7754 566.793 84.93 567.528 87.4587C567.464 88.0994 567.443 88.7031 567.182 89.2931L567.006 88.9615C566.532 88.6338 564.816 88.7608 564.126 88.7665Z" fill="black"/>
<path d="M378.422 161.868C383.288 161.611 399.175 160.885 402.731 162.896C404.469 163.879 405.456 165.548 405.957 167.431C407.023 171.445 406.926 179.328 405.799 183.304C405.438 184.582 404.776 185.72 404.117 186.864C400.876 189.285 383.097 188.68 378.383 188.258C378.614 185.296 378.48 180.724 378.483 177.663C378.486 172.486 378.571 167.025 378.422 161.868ZM398.98 181.14C400.842 177.727 401.368 168.229 395.542 168.418C392.076 168.53 388.364 168.707 384.941 168.568C384.85 172.824 384.91 177.466 384.734 181.653C387.826 181.777 396.353 182.307 398.98 181.14Z" fill="black"/>
<path d="M295.957 161.892C300.204 161.521 316.445 161.129 319.762 162.805C321.405 163.637 322.472 165.05 323.052 166.776C324.695 171.661 324.082 181.865 321.797 186.409C317.876 189.581 301.792 188.491 296.07 188.535C295.723 180.224 295.918 170.283 295.957 161.892ZM302.375 181.768C305.875 181.848 313.809 182.457 316.424 180.73C317.648 178.268 318.386 170.272 315.054 169.085C311.3 167.747 306.537 168.854 302.467 168.463C302.175 172.788 302.284 177.417 302.375 181.768Z" fill="black"/>
<path d="M205.58 161.858C209.752 161.481 213.375 161.608 217.542 161.879C217.319 164.186 217.434 168.707 217.43 171.22L217.386 188.376C215.48 188.506 212.941 188.335 210.985 188.258C210.986 182.522 210.884 176.452 211.113 170.75C211.222 169.939 211.205 169.836 211.018 169.057C208.078 168.764 204.573 186.389 201.773 188.162C200.338 189.07 197.666 188.166 196.122 187.698C193.284 179.478 191.199 175.026 188.002 167.293C187.239 171.126 187.552 183.815 187.562 188.492C185.534 188.42 183.851 188.354 181.812 188.481C181.62 180.117 181.67 171.406 181.726 163.015C181.732 162.195 181.698 162.262 182.274 161.732C185.967 161.548 189.668 161.604 193.353 161.899C193.664 163.972 198.458 176.215 199.566 178.721C201.653 173.207 203.458 167.163 205.58 161.858Z" fill="black"/>
<path d="M505.95 161.409C510.217 161.391 519.397 160.557 522.34 163.362C524.621 165.538 524.472 168.359 524.615 171.217C523.239 171.268 521.799 171.361 520.423 171.307C518.507 171.233 518.124 170.771 517.532 169.12C515.084 167.589 507.836 168.235 504.683 168.361C503.927 169.533 503.146 171.317 503.137 172.861C503.122 174.388 502.718 180.779 503.936 181.618C506.202 183.177 515.788 183.183 517.869 181.272C518.279 180.509 518.215 180.334 518.091 179.489C516.171 177.463 513.586 179.876 510.047 178.101C509.379 177.131 509.616 176.791 509.643 175.458C509.631 174.609 509.665 174.492 509.938 173.695C510.734 173.222 522.562 173.326 524.369 173.319C524.673 176.769 525.062 183.925 523.121 186.462C520.36 190.075 501.229 189.375 498.584 187.185C495.747 184.837 495.622 166.518 498.654 163.288C500.224 161.642 503.501 161.605 505.95 161.409Z" fill="black"/>
<path d="M534.297 161.72C537.899 161.594 541.31 161.497 544.892 161.998C548.178 166.888 552.367 177.449 556.319 182.068C556.741 176.858 556.361 167.371 556.346 161.741C558.816 161.692 560.167 161.674 562.658 161.977C562.054 169.032 563.284 180.652 562.409 188.029C562.369 188.358 562.123 188.386 561.768 188.567C557.929 188.691 554.527 188.891 550.836 187.765C549.032 184.211 547.106 180.489 545.162 177.015C543.437 173.938 541.493 171.456 540.026 168.146C539.792 174.655 539.98 181.925 540.026 188.493C537.832 188.52 535.639 188.514 533.443 188.474C533.364 185.096 533.003 164.169 533.574 162.077L534.297 161.72Z" fill="black"/>
<path d="M454.376 161.393C458.96 161.376 464.749 161.032 469.044 162.374C472.68 165.799 473.771 172.365 466.228 170.393C464.916 170.049 465.779 168.126 464.117 167.924C461.545 167.612 455.773 167.145 453.532 168.444C452.927 169.347 452.933 169.048 452.991 169.979C454.935 172.886 467.267 170.712 470.557 173.347C471.79 174.634 472.313 177.224 472.376 178.876C472.662 186.202 471.656 188.403 464.233 188.841C458.358 188.941 452.071 189.675 447.034 186.599C446.403 184.168 446.381 182.123 446.4 179.634C448.453 179.846 452.165 178.969 452.654 181.279C453.838 183.024 457.927 182.769 459.886 182.73C462.383 182.68 465.047 183.384 466.225 180.762C466.238 179.579 466.38 180 465.709 179.067C459.109 175.628 444.252 183.023 446.554 168.329C447.04 165.233 447.332 163.924 449.881 161.924C451.299 161.65 452.921 161.534 454.376 161.393Z" fill="black"/>
<path d="M13.9545 161.413L14.7168 161.411C17.9804 161.405 21.971 160.923 24.439 163.505C25.5993 164.72 26.7065 169.151 25.377 170.34C23.3054 170.496 22.2714 170.501 20.1977 170.369C18.7677 169.216 19.5328 168.81 18.4571 167.855C16.1923 167.32 8.25561 167.019 7.23886 169.595C7.95978 172.201 20.5255 171.86 23.7024 172.428C26.2235 174.962 26.4158 175.746 26.6442 179.186C27.3471 189.77 22.2268 188.869 13.8641 188.91C5.06962 188.78 1.31374 189.965 0.908203 179.72C2.02664 179.687 3.14539 179.666 4.26426 179.656C8.65558 179.641 6.45072 180.818 7.93794 182.291C10.5162 182.955 18.6859 183.474 20.2498 181.133C20.5051 175.405 7.72681 179.895 4.00145 177.088C-0.688463 173.555 1.03101 166.408 3.62067 162.076C6.85407 161.32 10.6197 161.423 13.9545 161.413Z" fill="black"/>
<path d="M582.891 161.414C586.864 161.391 589.801 161.222 593.683 162.236C597.92 166.314 597.316 173.175 590.087 170.11C590.035 169.917 589.98 169.725 589.926 169.533C589.768 168.997 589.537 168.199 589.039 168.021C586.83 167.237 580.388 167.556 578.429 168.195C577.721 169.035 577.766 169.725 578.176 170.673C579.805 172.04 589.95 171.611 593.95 172.43C594.166 172.618 594.378 172.81 594.588 173.004C596.714 174.986 596.994 177.4 597.14 180.14C597.656 189.686 591.891 188.829 584.753 188.902C581.651 188.886 575.522 189.24 573.341 187.242C571.342 185.413 571.473 182.271 571.309 179.72C574.689 179.648 576.311 178.904 578.186 181.879C579.85 182.88 591.9 183.818 590.934 180.562C589.482 175.647 576.597 180.077 573.016 176.189C570.498 173.458 571.382 165.653 573.565 162.814C575.109 161.008 580.479 161.414 582.891 161.414Z" fill="black"/>
<path d="M267.89 161.719C271.003 161.533 274.125 161.606 277.226 161.938C278.583 164.433 288.388 186.733 288.124 188.079C284.948 189.425 279.981 187.977 279.428 184.622C279.347 184.133 277.307 184.214 276.764 184.198C273.141 183.994 269.166 184.193 265.509 184.303C264.779 186.234 264.567 186.733 263.382 188.411C261.896 188.486 257.412 188.643 256.445 187.656C258.82 184.99 266.24 162.695 267.89 161.719ZM267.64 178.038L272.74 178.126L276.997 178.146C276.315 175.86 274.088 168.661 272.103 168.011C270.989 170.732 269.021 175.596 267.64 178.038Z" fill="black"/>
<path d="M332.496 161.865C339.817 161.536 348.747 161.688 356.128 161.855L356.092 168.135C350.509 168.27 344.71 168.227 339.109 168.252L338.905 171.735C343.632 172.009 350.32 171.844 355.193 171.864C355.114 173.894 355.074 175.926 355.074 177.958C351.961 177.822 348.395 177.874 345.248 177.846C343.182 177.888 341.114 177.916 339.048 177.931C339.054 179.257 338.89 180.822 338.784 182.161C344.431 182.339 350.463 182.284 356.14 182.326L356.155 188.401C349.102 188.401 339.319 188.667 332.463 188.202C332.87 180.815 332.545 169.511 332.496 161.865Z" fill="black"/>
<path d="M415.332 161.863C423.208 161.659 431.091 161.668 438.967 161.889C438.839 164.112 438.712 165.926 438.87 168.166L421.665 168.236C421.717 169.303 421.565 170.614 421.474 171.697C426.115 172.038 433.047 171.819 437.931 171.91C437.8 173.795 437.779 176.008 437.709 177.923L427.503 177.844L421.547 177.929C421.674 179.294 421.516 180.825 421.422 182.205C426.665 182.229 433.988 182.075 439.04 182.483C438.909 184.554 438.958 186.235 439.019 188.295C433.396 188.622 420.818 188.536 415.223 188.219C415.435 185.731 415.299 181.341 415.293 178.66C415.268 173.061 415.28 167.462 415.332 161.863Z" fill="black"/>
<path d="M135.306 161.854C140.969 161.561 153.287 161.539 158.89 161.949C158.655 164.015 158.603 166.098 158.733 168.173L141.618 168.228C141.615 169.336 141.497 170.604 141.421 171.721C146.426 172.032 152.602 171.769 157.837 171.929C157.717 173.773 157.719 176.029 157.667 177.908L147.317 177.849L141.492 177.962C141.578 179.125 141.431 180.961 141.367 182.191C146.743 182.271 153.817 182.054 158.986 182.494C158.842 184.771 158.824 186.034 158.969 188.305C153.338 188.638 140.82 188.525 135.213 188.22C135.655 181.122 135.222 169.389 135.306 161.854Z" fill="black"/>
<path d="M226.475 161.891C233.778 161.556 242.785 161.652 250.132 161.863C250.034 163.755 250.122 166.194 250.137 168.126C244.854 168.354 238.426 168.214 233.055 168.239C233.051 169.27 232.892 170.634 232.801 171.687C237.791 172.11 243.837 171.662 249.127 171.963C249.048 173.917 249.076 175.951 249.076 177.912C243.6 177.853 238.42 177.795 232.945 178.001C233.011 179.279 232.849 180.874 232.758 182.174C238.144 182.271 243.53 182.303 248.917 182.272C248.569 184.879 249.054 185.697 248.428 188.598C247.01 188.181 230.008 188.435 226.418 188.209C226.863 181.091 226.424 169.413 226.475 161.891Z" fill="black"/>
<path d="M67.2285 161.853C73.3427 161.584 84.2431 162.222 89.5424 161.623C88.8222 163.77 90.1602 165.751 88.8699 167.391C86.4857 168.083 79.4335 167.305 78.5846 168.16C77.1979 168.253 75.2952 168.213 73.8655 168.223C73.7655 169.481 73.6793 170.088 73.9113 171.357C74.9423 172.117 88.0388 171.873 90.0694 171.895C89.8905 173.913 89.8188 175.913 89.7337 177.936C84.3953 177.833 79.0548 177.843 73.7166 177.965C73.857 179.481 73.686 180.665 73.5298 182.171C79.2978 182.305 85.2057 182.284 90.9998 182.374L90.9651 188.344C85.778 188.592 72.2362 188.588 67.2899 188.158C67.4825 185.097 67.3054 179.646 67.2953 176.441C67.282 172.026 67.5529 166.031 67.2285 161.853Z" fill="black"/>
<path d="M120.904 161.875C123.278 161.752 125.767 161.855 128.151 161.91C127.461 163.021 126.671 165.437 126.192 166.759C125.034 169.598 119.043 186.526 117.662 188.153C115.2 189.211 110.048 188.483 107.404 187.982C105.259 179.515 99.2772 169.698 97.459 161.862C99.8683 161.776 101.928 161.852 104.325 161.946C106.764 167.689 110.428 178.204 112.883 182.83C115.224 176.466 118.354 168.094 120.904 161.875Z" fill="black"/>
<path d="M36.325 161.704C43.4103 161.63 52.8092 161.371 59.7172 161.87C59.5914 164.022 59.647 166.597 59.6382 168.782C56.8652 168.811 53.0762 169.035 50.4509 168.602C50.1171 172.796 50.2122 177.411 50.2146 181.649L50.1417 188.465C47.9802 188.458 45.7063 188.309 43.5391 188.203C43.8358 182.64 43.5704 174.582 43.5628 168.828C40.1711 168.795 37.5011 168.729 34.1328 168.42C34.4481 165.937 33.6574 163.52 34.8867 161.891L36.325 161.704Z" fill="black"/>
<path d="M480.983 161.869C482.79 161.848 484.771 161.877 486.539 161.599C486.341 162.5 486.344 187.805 486.545 188.625C485.764 188.406 481.97 188.256 480.938 188.197C481.29 180.344 480.889 170.007 480.983 161.869Z" fill="black"/>
<path d="M486.539 161.599C486.797 161.708 487.562 161.97 487.568 162.128C487.72 166.29 488.215 184.729 487.626 187.953C487.186 188.366 487.119 188.441 486.545 188.625C486.344 187.805 486.341 162.5 486.539 161.599Z" fill="black"/>
<path d="M89.5418 161.623C89.8434 161.732 90.5803 161.919 90.6642 162.131C91.2993 163.734 90.888 166.391 90.9263 168.137C86.8126 168.222 82.6977 168.23 78.584 168.16C79.433 167.305 86.4852 168.083 88.8693 167.391C90.1596 165.751 88.8216 163.77 89.5418 161.623Z" fill="black"/>
<path d="M248.915 182.272C249.172 182.346 249.862 182.473 249.964 182.677C250.636 184.025 250.739 187.167 249.652 188.32L248.426 188.598C249.052 185.697 248.567 184.879 248.915 182.272Z" fill="black"/>
</svg>
