<svg width="767" height="42" viewBox="0 0 767 42" fill="none" xmlns="http://www.w3.org/2000/svg">
<path d="M280.875 0.454798C288.849 0.135518 301.292 -0.740526 308.699 1.63719C328.712 8.05912 327.904 33.0384 308.344 39.5594C307.237 39.9287 304.784 40.4758 303.889 40.8868C293.957 41.3875 279.412 42.6419 271.124 36.7794C265.673 32.9238 262.511 28.9331 261.609 22.166C260.008 10.1443 270.416 2.54194 280.875 0.454798ZM299.902 30.0974C310.607 29.764 314.063 19.6885 306.638 12.963C303.401 10.0312 289.876 10.5503 285.691 10.7304C285.213 10.7527 284.739 10.784 284.261 10.8242C280.836 12.0484 276.193 13.0985 275.007 17.1293C270.615 32.0559 289.987 31.1927 299.13 30.6075C299.291 30.5971 299.787 30.1958 299.902 30.0974Z" fill="black"/>
<path d="M15.4898 24.3821C10.5271 24.233 5.68865 22.6725 2.02274 19.2053C0.866392 18.087 0.735996 16.7298 0.456159 15.2556C-0.112856 12.2546 -0.534948 8.68093 1.66136 6.20917C5.39265 2.01046 10.817 0.316168 16.2916 0.237785C26.6879 0.0889936 37.0868 0.313475 47.4836 0.217597C49.2721 0.201719 50.8962 0.121863 52.6658 0.447538C52.9636 1.4639 45.853 10.3258 44.8483 10.5759C40.1949 11.7341 16.3868 8.99964 14.3855 12.0908C14.4739 13.1843 14.3029 12.8829 15.0099 13.5546C17.8819 14.485 20.0746 14.018 22.8385 14.2149C32.9801 14.9768 47.6567 10.9495 53.4672 22.1491C56.8306 28.6321 53.9234 35.7918 47.221 38.7788C37.7535 42.9979 25.8671 40.5113 15.5839 41.0714C12.1019 41.2607 3.87779 41.3767 0.7051 40.8986L0.424904 40.5196C1.06828 39.3198 7.26421 31.1962 8.16443 30.9717C13.9677 29.5247 39.5342 32.7035 42.5216 28.5814C42.5708 27.5874 42.7238 26.7303 42.0898 25.9508C41.1278 25.3588 40.8918 25.3365 39.7555 25.3498L39.6172 24.7474C38.3567 23.9686 18.0715 24.3562 15.4898 24.3821Z" fill="black"/>
<path d="M537.012 40.2966C536.524 40.3149 535.601 40.279 535.151 40.1321C528.053 37.8114 521.781 33.3168 519.615 25.8614C518.139 20.7263 518.76 15.214 521.354 10.54C525.284 3.38244 536.344 -0.394211 543.82 0.234507C547.739 0.563917 569.828 -0.32161 571.282 0.495378C571.193 2.0722 570.036 1.54924 569.522 4.07604C567.396 4.59627 565.632 10.2491 563.656 10.4877C555.203 11.5143 545.871 9.49791 537.655 11.8444C536.229 12.2511 531.459 16.1131 531.57 17.7946C531.742 20.4658 530.934 24.3451 533.057 26.2598C536.161 29.06 539.563 30.2612 543.687 30.5705C546.848 30.5878 555.642 31.5911 557.887 29.7034C558.386 28.5933 558.375 29.0154 558.009 27.9169C556.357 26.3683 549.097 27.2563 546.137 27.0835C540.27 26.7412 538.37 21.6887 534.322 17.1897L570.417 17.1419V40.8721L544.912 40.8351C544.251 40.8279 536.61 40.4133 537.012 40.2966Z" fill="black"/>
<path d="M160.157 0.331193C160.55 0.241638 161.314 0.221881 161.749 0.231293C172.608 0.466514 183.685 -0.384566 194.468 0.859363C196.438 1.08657 197.133 1.84512 198.7 2.40838C211.888 7.15125 210.798 24.3978 198.311 28.4079C199.525 31.3672 211.839 38.5714 211.331 40.743C210.035 41.331 201.469 41.0846 199.388 41.1561C194.948 41.3084 193.857 41.4453 191.213 38.0948C190.837 37.6177 188.188 36.0253 187.476 35.3255C181.683 29.6296 179.619 30.6566 171.783 30.7881C169.458 30.773 166.47 30.6728 164.235 30.9857V41.0803H152.115V20.0796L178.462 20.0849C183.74 20.0831 189.741 20.9654 194.027 18.1196C196.44 16.5171 193.886 11.8612 192.698 11.5573C182.831 9.03385 161.395 12.0537 152.426 10.4784C152.533 9.21102 158.921 1.54911 160.157 0.331193Z" fill="black"/>
<path d="M609.774 20.1051C614.088 19.8148 620.245 18.1491 616.261 12.7607C615.852 12.2079 612.992 10.8396 612.331 10.8184C601.235 10.4644 590.074 10.7932 578.959 10.7052C578.029 10.6977 575.74 10.8299 575.072 10.443C575.539 8.44204 580.709 2.55052 582.282 0.795231C586.456 -0.923738 607.654 0.75381 613.19 0.435284C617.253 0.201464 626.531 4.12594 628.417 7.88593C631.04 13.1102 631.309 16.4636 628.927 21.9727C627.796 25.0466 623.467 26.6495 621.211 28.6137C622.634 31.0072 632.168 38.56 634.765 40.4675C633.971 41.2915 628.665 41.1507 627.358 41.1241C624.408 41.0641 616.509 41.8142 614.634 39.5263C611.667 35.9125 607.755 34.0068 604.529 30.7529L604.188 30.2575C602.955 29.5046 591.162 29.9019 588.996 29.9346C587.796 29.9526 587.857 30.0478 587.228 30.7924L586.381 31.0134C585.903 32.6651 586.129 38.7479 586.151 40.7243L575.22 40.7286V20.8943C585.691 20.899 599.413 21.3211 609.619 20.8243L609.774 20.1051Z" fill="black"/>
<path d="M406.93 0.298539C410.185 0.0510675 416.36 0.227844 419.83 0.224359C419.819 11.1727 420.114 26.688 419.618 37.9519C419.564 39.1316 417.668 40.5754 416.515 41.2015C415.85 41.2241 411.047 40.9331 410.875 40.8038C402.835 34.85 395.388 28.0215 387.521 21.8406C386.864 21.3244 384.497 19.1791 384.385 19.1303L384.055 19.4317C383.527 23.4518 383.875 36.3771 383.893 41.0406C379.597 41.0973 375.3 41.0959 371.004 41.0362L370.975 15.6213C370.975 12.0151 370.846 7.7036 371.162 4.11115C371.245 3.20271 373.529 1.03021 374.424 0.422543C375.315 0.343334 379.338 0.273681 379.978 0.679104C387.245 5.28385 394.131 12.0955 400.824 17.6118C402.056 18.6284 402.25 18.3931 403 18.9499C403.899 19.6199 405.572 21.8611 406.747 22.1463C407.257 18.9632 406.945 4.32248 406.93 0.298539Z" fill="black"/>
<path d="M105.836 0.291042C109.393 0.0716269 148.374 0.0772315 149.259 0.504423C148.983 1.89815 142.665 10.2368 142.192 10.2889C134.707 11.1144 125.871 10.726 118.212 10.7005C118.164 12.0562 118.22 13.7108 118.229 15.0924L138.335 15.0967C140.262 15.0957 145.72 14.9279 147.226 15.2246L147.474 15.7893C146.933 16.9938 142.538 22.2597 141.462 23.9441C140.117 26.0474 133.712 25.5466 131.191 25.4848L118.203 25.5218L118.211 30.6505C121.922 30.8082 148.469 30.2841 149.375 31.1261C149.116 32.1345 142.536 40.7656 141.699 40.8069C129.781 41.3946 117.612 41.0993 105.64 41.0803L105.614 12.8444C105.612 10.5297 105.448 2.00717 105.836 0.291042Z" fill="black"/>
<path d="M473.199 0.262215C474.801 0.186849 476.777 0.180345 478.376 0.233259C490.956 0.649387 504.305 -0.417225 516.813 0.341892L516.96 0.881054C516.511 1.85136 510.911 9.0884 510.077 9.91728C508.461 11.5203 489.418 10.7128 485.945 10.7006L485.941 15.0925L504.905 15.04C507.484 15.0343 512.649 14.8838 514.884 15.2685L515.135 15.7359C514.733 16.7913 513.673 17.3653 513.67 17.3617C513.982 17.6829 509.197 23.6572 509.539 22.4724C508.411 26.4178 503.159 25.5488 499.757 25.4849H485.941L485.93 30.6912L505.497 30.6732C508.813 30.6725 513.752 30.5342 516.913 30.8514C516.931 31.5953 510.264 40.7894 508.989 40.9036C505.221 41.2413 501.011 41.1148 497.21 41.1102L473.199 41.0595V0.262215Z" fill="black"/>
<path d="M215.408 0.224314C228.676 0.212783 245.677 -0.303032 258.642 0.331757L259.042 0.964213C258.786 1.77017 253.405 8.12945 253.451 7.885C252.498 12.8987 244.401 9.91067 240.533 10.7131C238.675 11.0986 229.572 10.1176 228.361 11.0307C228.201 12.2711 228.331 13.2073 228.445 14.4437C230.786 16.7808 255.819 13.1534 256.503 16.3067C255.957 17.8596 251.532 22.5004 250.688 24.6536C250.215 25.8606 242.839 25.4935 241.115 25.4849C237.484 25.5054 233.155 25.1569 229.553 25.7342C228.454 25.9102 227.988 26.6998 227.673 27.6801C227.772 28.8778 228.14 29.3627 228.753 30.3729C230.714 31.6553 257.57 29.6677 258.846 31.1862C258.628 32.1701 253.519 38.5449 252.287 40.447C248.481 41.6077 221.761 41.0631 215.408 41.0803V0.224314Z" fill="black"/>
<path d="M706.441 0.370937C707.889 0.165065 720.616 -0.0966301 721.816 0.452519C725.649 2.20709 734.055 14.651 737.392 15.9604C739.853 15.4833 748.956 2.37948 751.758 0.653614C753.223 -0.250667 763.681 0.180621 765.954 0.326826C766.579 0.367024 766.741 0.843753 767 1.31233L766.641 2.22907C765.29 2.82294 756.647 12.718 755.792 14.0303C753.532 17.3053 744.839 24.7079 743.772 28.2883C743.215 30.1563 743.521 38.5694 743.549 41.0804L730.668 41.0588C730.642 36.89 731.016 31.6309 730.463 27.3989C730.308 26.2253 728.016 24.2962 727.381 23.447C725.042 20.3135 707.048 2.56638 706.441 0.370937Z" fill="black"/>
<path d="M62.4261 0.225736C74.5989 0.206517 92.4776 -0.376579 104.203 0.411061C104.226 1.03177 98.0194 8.75424 96.9948 10.5093C94.9156 10.8698 86.7576 10.7114 84.2448 10.7014L84.2229 28.8168V41.0804L71.3874 41.08L71.3597 10.7014C68.926 10.71 56.7888 10.8953 55.1992 10.4982C56.8473 6.61853 60.2848 4.59928 62.4261 0.225736Z" fill="black"/>
<path d="M430.484 0.354518C431.396 0.0931806 469.399 0.0726321 471.112 0.378406L471.299 1.0618C470.897 2.8354 468.12 5.06516 466.999 6.56708C466.572 7.29606 466.489 8.58173 465.817 9.13483C462.85 11.5813 455.741 10.753 451.958 10.7012C451.646 15.7936 451.89 23.5263 451.89 28.8167V41.0609L439.026 41.0803L439.012 10.7066C434.356 10.7221 427.33 10.9373 422.876 10.5562L422.703 10.1508C423.863 8.45126 429.036 1.73273 430.484 0.354518Z" fill="black"/>
<path d="M663.881 0.364097C665.146 0.00681091 703.666 0.147052 704.686 0.48415L704.797 1.12519C703.849 3.11146 702.006 4.47383 700.663 6.2169C699.976 6.98705 699.725 8.44533 698.956 9.10429C696.021 11.6176 689.056 10.7515 685.263 10.7012C685.072 16.243 685.241 22.8305 685.234 28.4574V41.0799L672.661 41.0803L672.647 10.7246C669.439 10.6649 658.414 11.3604 656.812 10.0668C656.571 8.39733 662.477 1.5697 663.881 0.364097Z" fill="black"/>
<path d="M640.381 0.224319H653.212C653.403 4.28932 653.238 9.78728 653.238 13.9408V40.964C650.54 41.256 643.413 41.0829 640.381 41.0804V0.224319Z" fill="black"/>
<path d="M352.166 0.224338C355.176 0.227714 361.721 0.0550684 364.462 0.296253C364.99 12.5352 364.509 28.4385 364.509 40.9679H352.568C352.565 35.5454 353.215 3.27399 352.166 0.224338Z" fill="black"/>
<path d="M351.76 41.3767C351.756 37.0879 351.422 1.32811 352.165 0.224319C353.214 3.27397 352.564 35.5454 352.568 40.9679H364.508C364.508 28.4385 364.99 12.5351 364.462 0.296235L365.227 0.401452C365.834 1.32678 365.586 37.251 365.586 41.3767H351.76Z" fill="black"/>
<path d="M534.323 17.1896L534.125 16.4248C535.598 15.5504 567.68 15.9362 571.255 16.1281C571.334 24.512 571.344 32.8967 571.287 41.2807C567.393 41.2868 538.418 41.5728 537.132 40.8119L537.013 40.2964C536.611 40.4132 544.252 40.8277 544.913 40.8349L570.418 40.8719V17.1418L534.323 17.1896Z" fill="black"/>
<path d="M574.463 20.0534C586.231 19.992 598.003 20.0092 609.775 20.1051L609.62 20.8243C599.414 21.3211 585.692 20.899 575.22 20.8944V40.7287L574.279 40.9809C574.304 35.9215 573.988 24.6504 574.463 20.0534Z" fill="black"/>
<path d="M15.4883 24.3821C18.07 24.3562 38.3552 23.9686 39.6157 24.7474L39.754 25.3499C36.3906 25.6326 20.095 25.699 15.9704 24.95C15.9704 24.95 15.5551 24.4608 15.4883 24.3821Z" fill="black"/>
<path d="M587.229 30.7925C587.857 30.0478 587.796 29.9526 588.996 29.9347C591.162 29.902 602.955 29.5047 604.188 30.2576L604.529 30.753C599.349 30.989 592.538 30.7885 587.229 30.7925Z" fill="black"/>
<path d="M587.229 30.7924V41.0674C585.164 41.1037 575.831 41.3289 574.279 40.9808L575.22 40.7286L586.152 40.7243C586.13 38.7479 585.904 32.6651 586.382 31.0134L587.229 30.7924Z" fill="black"/>
</svg>
