<svg width="527" height="230" viewBox="0 0 527 230" fill="none" xmlns="http://www.w3.org/2000/svg">
<path d="M322.699 0C323.813 0.649449 334.569 3.12593 336.42 3.57617L370.84 11.9258L370.848 18.4844C376.285 18.3291 381.722 18.2215 387.159 18.1621C389.424 18.1306 394.856 17.8735 396.794 18.2754C402.314 19.4194 408.281 21.0229 413.78 22.3604L413.803 28.1992C409.832 27.7318 404.603 26.9549 400.718 26.6982V33.7861C404.966 33.7761 409.627 33.5738 413.788 33.6621L413.818 39.3984C409.472 40.1318 405.106 40.7553 400.729 41.2686L400.703 48.4023C405.144 47.4013 409.41 46.0188 413.803 44.9287L413.821 50.6963C409.642 52.3051 404.869 54.358 400.731 55.8291L400.718 62.9834C405.108 60.7484 409.405 58.3481 413.767 56.1221L413.826 61.8613C409.67 64.6238 404.897 67.972 400.713 70.5664L400.718 75.4121C399.668 75.4235 397.077 75.5501 396.23 75.2207C396.089 74.8472 395.938 74.4778 395.775 74.1133C394.839 74.2319 394.202 75.3745 393.31 75.3994C388.233 75.5423 382.962 75.3407 377.903 75.4434C383.812 72.3961 390.317 68.4916 396.12 65.6562L396.078 57.8926L381.131 56.751C379.597 56.6387 374.8 56.2418 373.485 56.3447C371.506 56.0965 367.799 55.3131 366.188 56.2178C365.628 57.0422 365.779 56.7387 365.715 57.793C366.89 58.8979 369.632 56.4334 370.958 57.1055V57.1064C370.683 59.8755 370.853 65.3686 370.858 68.3369L365.709 70.2988C365.755 71.9736 365.75 73.7124 365.771 75.3936C364.509 75.4203 358.287 75.7156 357.567 75.1592L357.475 74.1309C356.795 73.8911 352.786 75.5268 350.943 75.499C349.093 75.4712 346.643 75.4576 344.768 75.4463L331.508 75.3828C321.57 75.3493 316.001 75.6922 310.562 84.9844C308.15 79.3685 301.73 75.559 295.683 75.4619C291.537 75.3955 287.423 75.4256 283.277 75.4297L256.047 75.4336C251.048 75.4387 244.328 75.6285 239.497 75.2061C235.977 74.8982 230.335 73.8168 226.743 73.2354L203.708 69.5C176.563 65.1112 148.861 60.3314 121.719 56.2891L121.771 47.5439C137.515 49.0987 153.886 51.2357 169.669 53.0527L268.113 64.4482L304.571 68.6602C309.466 69.235 316.773 70.3229 321.552 70.4336C323.06 70.4686 331.784 67.833 333.881 67.2373L357.642 60.5254L357.588 47.7646C355.166 47.952 351.252 48.6673 348.774 49.041L331.253 51.7197C326.706 52.4145 322.743 53.2047 318.104 52.8945C312.443 52.5159 306.789 52.011 301.131 51.6504L249.756 48.0635L161.657 41.8848C148.763 40.955 134.443 40.3279 121.744 39.0391C121.683 36.1182 121.756 33.0538 121.786 30.1211L215.942 32.4922L282.541 34.1914C291.848 34.4403 301.192 34.6412 310.497 34.9482C326.204 35.4664 341.857 34.9092 357.577 34.7197C357.616 30.4492 357.611 26.1783 357.562 21.9082C350.466 20.9826 343.139 20.1796 336.024 19.3525C331.405 18.9647 326.572 17.9652 321.961 17.8564C313.583 17.659 305.052 18.0909 296.669 18.2129L238.128 19.4355L121.724 21.7383L121.783 12.9609L254.447 4.31836L299.463 1.38574C302.986 1.13986 313.718 0.758789 316.588 0H322.699ZM370.882 41.1465L370.836 45.6416C369.616 45.8957 366.716 46.3386 365.825 46.8887C365.645 47.5707 365.609 47.3073 365.915 47.8867C368.21 48.4224 373.805 48.6233 376.396 48.7412C381.136 48.9574 386.123 49.3327 390.84 49.457C392.587 49.5901 394.337 49.6975 396.087 49.7783V42.2002C393.743 41.9165 391.115 41.8176 388.748 41.7705C382.837 41.6531 376.777 41.0994 370.882 41.1465ZM366.07 26.1289C365.468 27.5386 365.764 31.7101 365.847 33.4531L396.085 34.001L396.093 26.1748L366.07 26.1289Z" fill="black"/>
<path d="M492.616 77.9974C499.546 77.994 511.614 77.3431 518.026 79.0071C523.482 80.4232 524.993 85.9572 526.928 89.7532L527 89.8939V110.878C526.74 111.298 526.084 113.166 525.777 113.822C524.251 117.072 522.416 119.545 519.226 121.276C517.455 122.236 514.82 122.631 512.842 122.703C508.807 122.85 504.617 122.787 500.564 122.788L478.277 122.793L450.299 122.787C447.88 122.787 445.422 122.782 443.009 122.785C434.687 122.798 426.843 123.913 422.348 115.277C421.524 113.697 420.971 111.99 420.709 110.228C420.094 106.114 420.192 91.6647 421.329 87.7933C424.577 76.7371 435.673 77.9571 444.913 77.9905L463.134 78.013L492.616 77.9974ZM497.114 90.22C481.258 90.3086 465.115 89.8016 449.274 90.1712C442.829 91.5525 443.325 96.0377 443.276 101.46C443.243 105.287 443.987 110.025 448.744 110.383C456.953 111 465.296 110.508 473.535 110.666C481.651 110.516 490.118 111.012 498.074 110.601C503.851 109.675 503.972 105.696 504.064 100.855C504.162 95.6409 503.727 90.1831 497.114 90.22Z" fill="black"/>
<path d="M0 78.0046C30.859 78.0036 62.6624 77.5867 93.4385 78.0408L93.4863 88.3601L65.2959 99.7537C60.058 101.88 53.9408 104.198 48.9062 106.535C63.5048 106.309 78.8181 106.43 93.4521 106.521L93.4941 122.851C62.5846 123.203 30.9484 122.991 0 122.906V112.508C14.4091 106.842 30.0404 100.596 44.248 94.5222L0 94.5398V78.0046Z" fill="black"/>
<path d="M244.896 118.597C253.452 120.801 263.336 124.004 271.881 126.541L321.646 141.361C326.427 137.871 336.884 128.422 341.442 126.016C343.148 125.117 361.917 125.613 365.741 125.617C365.787 138.349 366.093 152.992 365.702 165.615C356.812 179.066 347.268 192.636 338.13 205.978L327.703 221.226C325.855 223.937 323.699 227.317 321.749 229.865C316.545 227.489 309.865 223.751 304.724 221.058L273.811 204.88L174.412 152.896L141.603 135.731C135.381 132.477 128.664 128.794 122.381 125.804L125.818 125.546C127.466 124.383 129.499 122.356 131.015 120.93C136.066 123.82 146.436 128.401 151.986 131.042L191.77 150.024L321.779 212.096C325.475 206.537 331.409 199.146 335.505 193.733L349.383 175.362C351.933 171.996 355.35 167.738 357.568 164.323C357.612 160.133 357.597 155.943 357.525 151.753C345.929 166.097 333.462 180.151 321.782 194.517L146.816 118.881C151.367 118.966 170.992 118.216 173.69 119.444C176.367 120.662 178.657 123.579 180.859 125.521C183.498 125.628 188.032 125.284 190.407 126.04C195.351 127.613 200.655 129.831 205.516 131.718L235.157 143.215L291.039 164.874C301.17 168.801 311.713 172.733 321.749 176.838C323.895 174.204 327.544 170.537 329.957 167.967L347.71 149.034C350.78 145.764 354.841 141.717 357.62 138.328L357.604 125.89C354.455 128.244 350.222 132.709 347.152 135.449C338.629 143.058 330.173 151.81 321.594 159.265C304.497 152.922 285.36 146.804 267.955 140.842L240.089 131.298C234.72 129.459 228.946 127.35 223.544 125.748C229.817 125.355 238.363 125.587 244.826 125.602L244.896 118.597Z" fill="black"/>
<path d="M284.829 77.976C289.047 77.9757 294.286 77.658 298.336 78.4291C309.038 80.458 310.595 92.3192 309.098 101.314C308.017 107.795 304.607 111.32 298.447 113.024C294.482 113.814 283.396 113.53 278.733 113.528L242.193 113.525C242.206 116.678 242.199 119.831 242.171 122.984C233.491 122.611 222.38 122.922 213.527 122.919L213.559 78.0228C230.783 77.8166 248.397 77.9971 265.648 77.9847L284.829 77.976ZM276.081 91.2601C272.018 90.9848 267.639 91.1615 263.545 91.1664L238.391 91.1781C238.361 94.5535 238.296 98.0018 238.376 101.37L263.485 101.414C267.252 101.42 271.045 101.473 274.812 101.365C276.591 101.313 277.592 101.115 279.033 100.028C281.606 96.7053 280.646 91.5695 276.081 91.2601Z" fill="black"/>
<path d="M241.069 93.7906C248.392 93.7628 256.525 93.4701 263.734 94.1124C265.401 94.2609 275.895 96.4028 277.423 97.0188C277.663 97.5879 277.614 97.3645 277.338 98.113C274.269 98.7231 267.184 98.554 263.77 98.5563L241.053 98.5208L241.069 93.7906Z" fill="black"/>
<path d="M136.724 78.0854C140.657 77.8741 145.309 77.986 149.287 77.9868L170.283 78.0151C173.93 80.84 180.881 87.6767 184.566 91.1118L211.494 116.179C211.521 118.378 211.493 120.65 211.491 122.855C204.081 123.039 196.594 122.844 189.177 122.956C186.794 122.991 184.302 123.01 181.937 122.809L174.777 116.262L171.441 116.252L132.218 116.272L125.078 122.842C121.463 123.047 116.922 122.931 113.231 122.93C107.324 122.956 101.416 122.935 95.5088 122.867C95.4921 120.661 95.5093 118.455 95.5605 116.25C97.4771 114.163 100.828 111.247 102.982 109.24L117.754 95.5239L129.459 84.5933C131.596 82.5955 134.457 79.7661 136.724 78.0854ZM153.195 91.0308C148.333 95.591 142.922 100.406 138.252 105.068C143.74 105.017 149.229 105.01 154.717 105.046C159.309 105.046 164.329 104.954 168.887 105.062C167.047 103.419 154.115 91.1224 153.195 91.0308Z" fill="black"/>
<path d="M153.294 94.6657C154.081 94.8492 160.776 101.401 161.932 102.47L156.133 102.397C154.459 102.239 149.603 100.339 147.857 99.6906C149.644 97.9876 151.456 96.3126 153.294 94.6657Z" fill="black"/>
<path d="M324.764 78.0731C325.431 78.0433 326.1 78.0206 326.766 78.0057C343.616 77.6777 361.567 77.9977 378.497 77.9877L395.413 77.9833C400.848 77.9843 407.651 77.2589 412.162 80.5509C417.031 84.1022 418.251 89.1796 418.356 94.848L394.337 94.8634C392.271 90.7245 390.596 90.1196 386.227 90.1469C370.821 90.2653 355.278 89.9351 339.887 90.2617C333.516 90.3971 334.35 99.7879 334.496 103.784C334.785 111.527 340.832 110.859 346.578 110.817C350.469 110.788 354.305 110.773 358.132 110.745C363.217 110.76 388.072 111.417 390.9 110.183C392.66 109.415 393.566 107.777 394.265 106.087L418.343 106.099C418.204 112.668 416.244 118.424 410.212 121.638C406.928 123.388 396.62 122.916 392.75 122.916L369.14 122.917L339.195 122.925C334.322 122.923 328.339 123.224 323.642 122.717C315.64 121.853 311.203 113.791 311.579 106.341C311.865 100.79 310.992 94.2274 312.15 88.8076C313.501 82.4743 318.733 78.904 324.764 78.0731Z" fill="black"/>
<path d="M121.78 64.7654C127.731 65.6925 135.246 67.4916 141.268 68.7372L186.424 78.0716C193.908 79.621 203.603 81.9109 210.999 83.0559C211.021 85.8596 211.228 93.2029 210.904 95.593L210.435 95.8195C203.756 93.8828 193.672 92.2559 187.353 89.7114C184.782 88.6759 174.11 76.5637 171.189 75.8118C168.465 75.1106 158.844 75.4306 155.45 75.3953C149.556 75.3338 143 75.4597 137.031 75.4273C136.011 75.4219 134.373 76.4049 133.706 76.3238C129.682 75.8342 125.753 74.4674 121.723 73.6903L121.78 64.7654Z" fill="black"/>
<path d="M346.955 92.9898C349.497 92.8727 365.181 92.5893 366.954 93.0799C365.439 95.2249 365.745 93.9966 365.758 97.0232C365.773 100.756 365.763 104.507 365.714 108.24L357.642 108.264C357.649 105.442 357.606 102.621 357.505 99.8004C352.763 102.556 347.467 108.115 341.909 108.458C336.037 108.82 337.053 101.514 337.04 97.5969C339.994 95.9601 343.751 93.5891 346.955 92.9898Z" fill="black"/>
<path d="M308.665 109.348C308.992 109.648 309.067 110.367 309.134 110.808C309.926 116.015 312.178 118.993 315.837 122.556C312.574 121.418 305.642 119.889 301.903 118.934C298.779 118.163 294.549 117.232 291.6 116.199C298.465 116.325 304.504 115.566 308.665 109.348Z" fill="black"/>
<path d="M413.359 67.6429L413.711 67.9894C413.933 69.2381 413.819 71.5125 413.794 72.865C412.551 74.1837 411.282 75.3067 409.941 76.5148C407.983 75.7814 407.667 75.7582 405.608 75.4759L404.437 75.3165L404.309 74.9976C406.604 72.8225 410.775 69.6993 413.359 67.6429Z" fill="black"/>
<path d="M401.87 97.7067L402.001 97.7525C402.269 98.3767 401.147 99.014 400.879 99.8192C400.586 100.699 400.697 102.3 400.72 103.234L396.345 103.263C395.89 102.747 396.091 98.6833 396.106 97.7334L401.87 97.7067Z" fill="black"/>
<path d="M407.669 97.7218L412.309 97.7148C410.86 99.5864 409.885 101.339 408.261 103.296C406.645 103.265 405.122 103.296 403.506 103.337L407.669 97.7218Z" fill="black"/>
<path d="M121.823 82.1331C123.294 82.4502 125.265 83.0961 126.747 83.5373C125.903 84.2742 125.031 85.1124 124.203 85.8782L121.678 87.9501C121.711 86.0107 121.759 84.0717 121.823 82.1331Z" fill="black"/>
<path d="M206.023 107.095C207.389 107.398 209.542 108.158 210.934 108.607L211.018 111.657C209.916 111.231 206.644 108.151 206.023 107.095Z" fill="black"/>
</svg>
